<svg xmlns="http://www.w3.org/2000/svg" width="820.051" height="444.062" viewBox="0 0 820.051 444.062">
  <g id="Grupo_1103731" data-name="Grupo 1103731" transform="translate(-390 -1716.323)">
    <g id="Grupo_1103120" data-name="Grupo 1103120" transform="translate(0 12)">
      <text id="Fuente_Sena_2012" data-name="Fuente, Sena 2012" transform="translate(705.051 2125.385)" fill="#12263f" font-size="16" font-family="Roboto-Regular, Roboto"><tspan x="0" y="15">Fuente, Sena 2012</tspan></text>
      <g id="Rectángulo_401488" data-name="Rectángulo 401488" transform="translate(418.051 1771)" fill="none" stroke="#707070" stroke-width="1">
        <rect width="136" height="27" stroke="none"/>
        <rect x="0.5" y="0.5" width="135" height="26" fill="none"/>
      </g>
      <rect id="Rectángulo_401532" data-name="Rectángulo 401532" width="197" height="30" rx="11" transform="translate(390 1769.5)" fill="#33b9cb"/>
      <rect id="Rectángulo_401533" data-name="Rectángulo 401533" width="197" height="30" rx="11" transform="translate(390 1871.859)" fill="#33b9cb"/>
      <rect id="Rectángulo_401534" data-name="Rectángulo 401534" width="197" height="30" rx="11" transform="translate(390 1994.963)" fill="#33b9cb"/>
      <text id="Nutricionales" transform="translate(418.051 1775.446)" fill="#12263f" font-size="16" font-family="Roboto-Black, Roboto" font-weight="800"><tspan x="0" y="15">Nutricionales</tspan></text>
      <text id="Toxicológicas" transform="translate(418.051 1877.806)" fill="#12263f" font-size="16" font-family="Roboto-Black, Roboto" font-weight="800"><tspan x="0" y="15">Toxicológicas</tspan></text>
      <text id="Sensoriales" transform="translate(418.051 2000.909)" fill="#12263f" font-size="16" font-family="Roboto-Black, Roboto" font-weight="800"><tspan x="0" y="15">Sensoriales</tspan></text>
      <text id="_-_Pérdidas_de_vitaminas._-_Disminución_digestibilidad_de_proteínas." data-name="- Pérdidas de vitaminas.
- Disminución digestibilidad de proteínas." transform="translate(416 1810.446)" fill="#12263f" font-size="14" font-family="Roboto-Regular, Roboto"><tspan x="0" y="13">- Pérdidas de vitaminas.</tspan><tspan x="0" y="37">- Disminución digestibilidad de proteínas.</tspan></text>
      <text id="_-_Oscurecimiento._-_Aromas_y_sabores_pirazinas_y_aldehídos_._-_Viscosidad." data-name="- Oscurecimiento.
- Aromas y sabores (pirazinas y aldehídos).
- Viscosidad." transform="translate(416 2038.909)" fill="#12263f" font-size="14" font-family="Roboto-Regular, Roboto"><tspan x="0" y="13">- Oscurecimiento.</tspan><tspan x="0" y="37">- Aromas y sabores (pirazinas y aldehídos).</tspan><tspan x="0" y="61">- Viscosidad.</tspan></text>
      <g id="Grupo_1103118" data-name="Grupo 1103118" transform="translate(0 -16.678)">
        <path id="Trazado_876347" data-name="Trazado 876347" d="M-2433.444-7992.75h69.155" transform="translate(2941.289 9981.61)" fill="none" stroke="#12263f" stroke-width="3"/>
        <path id="Trazado_876348" data-name="Trazado 876348" d="M6,0l6,11H0Z" transform="translate(587 1982.86) rotate(90)" fill="#12263f"/>
      </g>
      <text id="_-_Inhibición_de_las_disacaridasas._-_Actividad_mutagénica._Acrilamida_." data-name="- Inhibición de las disacaridasas.
- Actividad mutagénica.
(Acrilamida)." transform="translate(416 1915.806)" fill="#12263f" font-size="14" font-family="Roboto-Regular, Roboto"><tspan x="0" y="13">- Inhibición de las disacaridasas.</tspan><tspan x="0" y="37">- Actividad mutagénica.</tspan></text>
      <g id="Rectángulo_401535" data-name="Rectángulo 401535" transform="translate(705.051 1758)" fill="none" stroke="#33b9cb" stroke-width="2">
        <rect width="505" height="347" rx="20" stroke="none"/>
        <rect x="1" y="1" width="503" height="345" rx="19" fill="none"/>
      </g>
      <g id="Grupo_1103119" data-name="Grupo 1103119">
        <text id="OH" transform="translate(863.538 1770.427)" fill="#12263f" font-size="12" font-family="Roboto-Black, Roboto" font-weight="800"><tspan x="0" y="11">OH</tspan></text>
        <text id="OH-2" data-name="OH" transform="translate(906.525 1815.784)" fill="#12263f" font-size="12" font-family="Roboto-Black, Roboto" font-weight="800"><tspan x="0" y="11">OH</tspan></text>
        <text id="O" transform="translate(1096.693 1842.697)" fill="#12263f" font-size="12" font-family="Roboto-Black, Roboto" font-weight="800"><tspan x="0" y="11">O</tspan></text>
        <text id="NH2" transform="translate(1116.407 1797.633)" fill="#f54749" font-size="12" font-family="Roboto-Black, Roboto" font-weight="800"><tspan x="0" y="11">NH</tspan><tspan y="11" font-size="8">2</tspan></text>
        <text id="NH2-2" data-name="NH2" transform="translate(1075.653 1934.229)" fill="#f54749" font-size="12" font-family="Roboto-Black, Roboto" font-weight="800"><tspan x="0" y="11">NH</tspan><tspan y="11" font-size="8">2</tspan></text>
        <text id="NH2-3" data-name="NH2" transform="translate(949.747 2024.408)" fill="#f54749" font-size="12" font-family="Roboto-Black, Roboto" font-weight="800"><tspan x="0" y="11">NH</tspan><tspan y="11" font-size="8">2</tspan></text>
        <text id="H2N" transform="translate(1005.155 1797.633)" fill="#12263f" font-size="12" font-family="Roboto-Black, Roboto" font-weight="800"><tspan x="0" y="11">H</tspan><tspan y="11" font-size="8">2</tspan><tspan y="11">N</tspan></text>
        <text id="H2o" transform="translate(791.011 1922.962)" fill="#12263f" font-size="12" font-family="Roboto-Black, Roboto" font-weight="800"><tspan x="0" y="15">H</tspan><tspan y="15" font-size="8">2</tspan><tspan y="15" font-size="16">o</tspan></text>
        <text id="CO2" transform="translate(1044.767 1828.498)" fill="#12263f" font-size="12" font-family="Roboto-Black, Roboto" font-weight="800"><tspan x="0" y="11">CO</tspan><tspan y="11" font-size="8">2</tspan></text>
        <text id="OH-3" data-name="OH" transform="translate(871.283 1837.266)" fill="#12263f" font-size="12" font-family="Roboto-Black, Roboto" font-weight="800"><tspan x="0" y="11">OH</tspan></text>
        <text id="OH-4" data-name="OH" transform="translate(943.383 1880.466)" fill="#12263f" font-size="12" font-family="Roboto-Black, Roboto" font-weight="800"><tspan x="0" y="11">OH</tspan></text>
        <text id="OH-5" data-name="OH" transform="translate(836.47 1987.49)" fill="#12263f" font-size="12" font-family="Roboto-Black, Roboto" font-weight="800"><tspan x="0" y="11">OH</tspan></text>
        <text id="OH-6" data-name="OH" transform="translate(836.47 2053.914)" fill="#12263f" font-size="12" font-family="Roboto-Black, Roboto" font-weight="800"><tspan x="0" y="11">OH</tspan></text>
        <text id="H_N" data-name="H
N" transform="translate(998.304 1920.39)" fill="#12263f" font-size="12" font-family="Roboto-Black, Roboto" font-weight="800"><tspan x="0" y="11">H</tspan><tspan x="0" y="23">N</tspan></text>
        <text id="OH-7" data-name="OH" transform="translate(955.194 1944.794)" fill="#12263f" font-size="12" font-family="Roboto-Black, Roboto" font-weight="800"><tspan x="0" y="11">OH</tspan></text>
        <text id="HO" transform="translate(858.888 1910.037)" fill="#12263f" font-size="12" font-family="Roboto-Black, Roboto" font-weight="800"><tspan x="0" y="11">HO</tspan></text>
        <text id="HO-2" data-name="HO" transform="translate(871.855 1930.054)" fill="#12263f" font-size="12" font-family="Roboto-Black, Roboto" font-weight="800"><tspan x="0" y="11">HO</tspan></text>
        <text id="N" transform="translate(881.446 2034.312)" fill="#12263f" font-size="12" font-family="Roboto-Black, Roboto" font-weight="800"><tspan x="0" y="11">N</tspan></text>
        <text id="HO-3" data-name="HO" transform="translate(766.979 2006.818)" fill="#12263f" font-size="12" font-family="Roboto-Black, Roboto" font-weight="800"><tspan x="0" y="11">HO</tspan></text>
        <text id="HO-4" data-name="HO" transform="translate(765.571 2033.907)" fill="#12263f" font-size="12" font-family="Roboto-Black, Roboto" font-weight="800"><tspan x="0" y="11">HO</tspan></text>
        <text id="Glucose" transform="translate(783.634 1859.799)" fill="#12263f" font-size="12" font-family="Roboto-Black, Roboto" font-weight="800"><tspan x="0" y="11">Glucose</tspan></text>
        <text id="Asparagine" transform="translate(1032.347 1859.799)" fill="#12263f" font-size="12" font-family="Roboto-Black, Roboto" font-weight="800"><tspan x="0" y="11">Asparagine</tspan></text>
        <text id="Acrylamide" transform="translate(1076.351 2076.361)" fill="#12263f" font-size="12" font-family="Roboto-Black, Roboto" font-weight="800"><tspan x="0" y="11">Acrylamide</tspan></text>
        <text id="HO-5" data-name="HO" transform="translate(783.634 1801.848)" fill="#12263f" font-size="12" font-family="Roboto-Black, Roboto" font-weight="800"><tspan x="0" y="11">HO</tspan></text>
        <text id="HO-6" data-name="HO" transform="translate(800.923 1821.3)" fill="#12263f" font-size="12" font-family="Roboto-Black, Roboto" font-weight="800"><tspan x="0" y="11">HO</tspan></text>
        <text id="O-2" data-name="O" transform="translate(879.997 1791.515)" fill="#12263f" font-size="12" font-family="Roboto-Black, Roboto" font-weight="800"><tspan x="0" y="11">O</tspan></text>
        <text id="O-3" data-name="O" transform="translate(954.761 1902.608)" fill="#12263f" font-size="12" font-family="Roboto-Black, Roboto" font-weight="800"><tspan x="0" y="11">O</tspan></text>
        <text id="O-4" data-name="O" transform="translate(851.038 2006.818)" fill="#12263f" font-size="12" font-family="Roboto-Black, Roboto" font-weight="800"><tspan x="0" y="11">O</tspan></text>
        <text id="O-5" data-name="O" transform="translate(1053.735 1963.117)" fill="#f54749" font-size="12" font-family="Roboto-Black, Roboto" font-weight="800"><tspan x="0" y="11">O</tspan></text>
        <path id="Trazado_876342" data-name="Trazado 876342" d="M-5670.824-9828.623l-11.981,4.595,2.667,23.417,22.082-10.611,5.97,12.763,5.2,11.127,18.5,1.928" transform="translate(6533.704 11611.524)" fill="none" stroke="#12263f" stroke-width="1"/>
        <path id="Trazado_876343" data-name="Trazado 876343" d="M-5667.936-9805.541c-3.607-2.279-16.95-10.075-16.95-10.075l-28.165,9.115" transform="translate(6521.356 11616.834)" fill="none" stroke="#12263f" stroke-width="1"/>
        <path id="Trazado_876344" data-name="Trazado 876344" d="M-5689.21-9815.616l7.585,24.094h-20.839" transform="translate(6525.68 11616.834)" fill="none" stroke="#12263f" stroke-width="1"/>
        <path id="Trazado_876345" data-name="Trazado 876345" d="M-5687.666-9796.506l27.354-6.9,8.477,20.421" transform="translate(6531.72 11621.818)" fill="none" stroke="#12263f" stroke-width="1"/>
        <path id="Trazado_876346" data-name="Trazado 876346" d="M-5668.241-9803.408l15.413,5.779" transform="translate(6539.649 11621.818)" fill="none" stroke="#12263f" stroke-width="1"/>
        <path id="Trazado_876358" data-name="Trazado 876358" d="M-2433.445-7992.75h26.384" transform="translate(3220.224 9907.263)" fill="none" stroke="#12263f" stroke-width="3"/>
        <path id="Trazado_876360" data-name="Trazado 876360" d="M-2433.445-7992.75h26.384" transform="translate(3549.753 9907.263)" fill="none" stroke="#12263f" stroke-width="3"/>
        <path id="Trazado_876370" data-name="Trazado 876370" d="M-2433.445-7992.75h26.384" transform="translate(3452.584 10035.941)" fill="none" stroke="#12263f" stroke-width="3"/>
        <path id="Trazado_876372" data-name="Trazado 876372" d="M-2433.445-7992.75h26.384" transform="translate(3441.318 10049.847)" fill="none" stroke="#12263f" stroke-width="3"/>
        <path id="Trazado_876374" data-name="Trazado 876374" d="M-2433.445-7992.75h26.384" transform="translate(3432.351 10065.288)" fill="none" stroke="#12263f" stroke-width="3"/>
        <path id="Trazado_876357" data-name="Trazado 876357" d="M8.449,0,16.9,15.491H0Z" transform="translate(827.246 1906.063) rotate(90)" fill="#12263f"/>
        <path id="Trazado_876371" data-name="Trazado 876371" d="M8.449,0,16.9,15.491H0Z" transform="translate(1059.606 2034.742) rotate(90)" fill="#12263f"/>
        <path id="Trazado_876373" data-name="Trazado 876373" d="M8.449,0,16.9,15.491H0Z" transform="translate(1048.34 2048.647) rotate(90)" fill="#12263f"/>
        <path id="Trazado_876375" data-name="Trazado 876375" d="M8.449,0,16.9,15.491H0Z" transform="translate(1039.373 2064.089) rotate(90)" fill="#12263f"/>
        <path id="Trazado_876349" data-name="Trazado 876349" d="M-5066.952-9747.8l-20.929,8.586,7.469,16.1-25.046-2.5-17.032,2.5" transform="translate(6008.226 11642.783)" fill="none" stroke="#12263f" stroke-width="1"/>
        <path id="Trazado_876350" data-name="Trazado 876350" d="M-5108.4-9732.062l11.333,21.553H-5113.6" transform="translate(6011.856 11649.21)" fill="none" stroke="#12263f" stroke-width="1"/>
        <path id="Trazado_876351" data-name="Trazado 876351" d="M-5092.85-9727.915l22.01-8.132,8.466,22.857" transform="translate(6020.326 11647.581)" fill="none" stroke="#12263f" stroke-width="1"/>
        <path id="Trazado_876352" data-name="Trazado 876352" d="M-5101.857-9714.87l26.483-6.512,12.086,18.533" transform="translate(6016.648 11653.568)" fill="none" stroke="#12263f" stroke-width="1"/>
        <path id="Trazado_876353" data-name="Trazado 876353" d="M-5083.052-9721.382l13.587,3,18.457,2,20.509,4.507v18.534" transform="translate(6024.326 11653.568)" fill="none" stroke="#12263f" stroke-width="1"/>
        <path id="Trazado_876354" data-name="Trazado 876354" d="M-5011.2-9714.347l14.62-6.033,15.137,6.033,14.114-5.453" transform="translate(6040.331 11662.427)" fill="none" stroke="#f54749" stroke-width="1"/>
        <path id="Trazado_876355" data-name="Trazado 876355" d="M-5006.618-9697.7v-16.443l-16.583-9.021" transform="translate(6036.086 11662.225)" fill="none" stroke="#12263f" stroke-width="1"/>
        <path id="Trazado_876386" data-name="Trazado 876386" d="M-5011.424-9716.757v16.443" transform="translate(6067.649 11663.43)" fill="none" stroke="#f54749" stroke-width="1"/>
        <path id="Trazado_876387" data-name="Trazado 876387" d="M-5011.424-9716.757v16.443" transform="translate(6073.282 11663.43)" fill="none" stroke="#f54749" stroke-width="1"/>
        <path id="Trazado_876382" data-name="Trazado 876382" d="M-5011.424-9716.757v27.268" transform="translate(6108.116 11532.019)" fill="none" stroke="#f54749" stroke-width="1"/>
        <path id="Trazado_876368" data-name="Trazado 876368" d="M-5011.424-9716.757v32.34" transform="translate(5954.927 11765.404)" fill="none" stroke="#f54749" stroke-width="1"/>
        <path id="Trazado_876383" data-name="Trazado 876383" d="M-5011.424-9716.757v27.268" transform="translate(6117.974 11532.019)" fill="none" stroke="#f54749" stroke-width="1"/>
        <path id="Trazado_876367" data-name="Trazado 876367" d="M-5011.424-9716.757v31.037" transform="translate(5964.784 11766.708)" fill="none" stroke="#f54749" stroke-width="1"/>
        <path id="Trazado_876361" data-name="Trazado 876361" d="M-5143.877-9672.292l-12.571,9.518v18.034l-18.487-5.512-21.539,2.5" transform="translate(5978.022 11673.607)" fill="none" stroke="#12263f" stroke-width="1"/>
        <path id="Trazado_876362" data-name="Trazado 876362" d="M-5178.875-9657l11.522,21.54h-20.7" transform="translate(5981.46 11679.854)" fill="none" stroke="#12263f" stroke-width="1"/>
        <path id="Trazado_876363" data-name="Trazado 876363" d="M-5174.023-9639.67l21.982-7.012,11.521,16.531" transform="translate(5987.187 11684.064)" fill="none" stroke="#12263f" stroke-width="1"/>
        <path id="Trazado_876364" data-name="Trazado 876364" d="M-5159.125-9646.682l26.008,5.269,17.951,1.993" transform="translate(5993.27 11684.064)" fill="none" stroke="#12263f" stroke-width="1"/>
        <path id="Trazado_876365" data-name="Trazado 876365" d="M-5127.979-9635.9l-15.774-23.972-24.3,10.4" transform="translate(5989.625 11678.678)" fill="none" stroke="#12263f" stroke-width="1"/>
        <path id="Trazado_876366" data-name="Trazado 876366" d="M-5054.768-9639.789l-11.543,6.136-19.652-10.02-18.109,10.02" transform="translate(6015.744 11685.295)" fill="none" stroke="#f54749" stroke-width="1"/>
        <path id="Trazado_876369" data-name="Trazado 876369" d="M0,0,15.784,8.769" transform="translate(900.116 2037.904) rotate(3)" fill="none" stroke="#12263f" stroke-width="1"/>
        <path id="Trazado_876388" data-name="Trazado 876388" d="M0,0,15.784,8.769" transform="translate(897.3 2042.129) rotate(3)" fill="none" stroke="#12263f" stroke-width="1"/>
        <path id="Trazado_876376" data-name="Trazado 876376" d="M-4977.948-9632.739l20.168-13.173,19.819,14.556,15.609-9.121" transform="translate(6067.232 11684.378)" fill="none" stroke="#f54749" stroke-width="1"/>
        <path id="Trazado_876377" data-name="Trazado 876377" d="M-4977.949-9633.625l18.049-12.289" transform="translate(6070.896 11690.271)" fill="none" stroke="#f54749" stroke-width="1"/>
        <path id="Trazado_876380" data-name="Trazado 876380" d="M-4937.239-9810.287l-13.635,9.19-19.858-12.153-21.341,12.153-22.527-12.153" transform="translate(6052.271 11616.064)" fill="none" stroke="#12263f" stroke-width="1"/>
        <path id="Trazado_876381" data-name="Trazado 876381" d="M-4999.024-9804.622v13.931" transform="translate(6058.628 11619.589)" fill="none" stroke="#12263f" stroke-width="1"/>
        <path id="Trazado_876384" data-name="Trazado 876384" d="M-5518.99-9814.482l20.2,12.283,13.013-9.182" transform="translate(6600.58 11617.297)" fill="none" stroke="#f54749" stroke-width="1"/>
        <path id="Trazado_876385" data-name="Trazado 876385" d="M0,0,30.655,3.514" transform="matrix(0.998, 0.07, -0.07, 0.998, 964.041, 1931.713)" fill="none" stroke="#12263f" stroke-width="1"/>
      </g>
    </g>
    <g id="Grupo_1103704" data-name="Grupo 1103704" transform="translate(526 -2149.587)">
      <rect id="Rectángulo_403083" data-name="Rectángulo 403083" width="4" height="25" transform="translate(180 3865.91)" fill="#f54749"/>
      <text id="Figura_1._Reacción_de_Maillard." data-name="Figura 1. Reacción de Maillard." transform="translate(195 3882.91)" fill="#12263f" font-size="14" font-family="Roboto-Bold, Roboto" font-weight="700"><tspan x="0" y="0">Figura 1. </tspan><tspan y="0" font-family="Roboto-Regular, Roboto" font-weight="400">Reacción de Maillard.</tspan></text>
    </g>
  </g>
</svg>
