<svg xmlns="http://www.w3.org/2000/svg" width="820" height="260.185" viewBox="0 0 820 260.185">
  <g id="Grupo_1103712" data-name="Grupo 1103712" transform="translate(-391.051 -475.552)">
    <path id="Trazado_876674" data-name="Trazado 876674" d="M0,0H820V260.185H0Z" transform="translate(391.051 475.552)" fill="#d6f1f4"/>
    <path id="Trazado_876689" data-name="Trazado 876689" d="M0,0H31V10H0Z" transform="translate(391.051 475.552)" fill="#f8d348"/>
    <path id="Trazado_876679" data-name="Trazado 876679" d="M15.539,23h-4.09L5.4,12.383V23H1.289V5.938H5.4l6.035,10.617V5.938h4.1ZM32.4,23h-4.09V15.875H22.254V23H18.141V5.938h4.113v6.773h6.059V5.938H32.4Zm15.516-9.68h4v3.387h-4v4.582H44.227V16.707H40.219V13.32h4.008V8.867h3.691ZM74.039,23h-4.09V15.875H63.891V23H59.777V5.938h4.113v6.773h6.059V5.938h4.09ZM91.09,14.82a10.062,10.062,0,0,1-.926,4.418A6.842,6.842,0,0,1,87.533,22.2a7.326,7.326,0,0,1-3.885,1.037,7.429,7.429,0,0,1-3.867-1,6.831,6.831,0,0,1-2.631-2.865,9.772,9.772,0,0,1-.99-4.277v-.961a10.106,10.106,0,0,1,.92-4.424,6.825,6.825,0,0,1,2.637-2.959,7.805,7.805,0,0,1,7.775-.012A6.948,6.948,0,0,1,90.135,9.67a9.816,9.816,0,0,1,.955,4.365Zm-4.184-.715a7.175,7.175,0,0,0-.85-3.861,2.725,2.725,0,0,0-2.432-1.318q-3.094,0-3.27,4.641l-.012,1.254a7.379,7.379,0,0,0,.832,3.855,2.721,2.721,0,0,0,2.473,1.348,2.688,2.688,0,0,0,2.4-1.324,7.178,7.178,0,0,0,.855-3.809ZM107.461,23h-4.09L97.324,12.383V23H93.211V5.938h4.113l6.035,10.617V5.938h4.1Zm17.051-8.18a10.062,10.062,0,0,1-.926,4.418,6.842,6.842,0,0,1-2.631,2.959,7.326,7.326,0,0,1-3.885,1.037,7.429,7.429,0,0,1-3.867-1,6.831,6.831,0,0,1-2.631-2.865,9.772,9.772,0,0,1-.99-4.277v-.961a10.106,10.106,0,0,1,.92-4.424,6.825,6.825,0,0,1,2.637-2.959,7.805,7.805,0,0,1,7.775-.012,6.948,6.948,0,0,1,2.643,2.936,9.816,9.816,0,0,1,.955,4.365Zm-4.184-.715a7.175,7.175,0,0,0-.85-3.861,2.725,2.725,0,0,0-2.432-1.318q-3.094,0-3.27,4.641l-.012,1.254a7.379,7.379,0,0,0,.832,3.855,2.721,2.721,0,0,0,2.473,1.348,2.688,2.688,0,0,0,2.4-1.324,7.178,7.178,0,0,0,.855-3.809Z" transform="translate(631.45 527.393)" fill="#12263f"/>
    <path id="Trazado_876680" data-name="Trazado 876680" d="M7.629,16.965H5.4V23H1.289V5.938H8A7.5,7.5,0,0,1,12.75,7.284a4.561,4.561,0,0,1,1.711,3.8,5.54,5.54,0,0,1-.721,2.95,5.115,5.115,0,0,1-2.256,1.9l3.563,6.889V23H10.641ZM5.4,13.8H8a2.335,2.335,0,0,0,1.764-.617,2.384,2.384,0,0,0,.592-1.721,2.412,2.412,0,0,0-.6-1.733A2.313,2.313,0,0,0,8,9.1H5.4Z" transform="translate(544.45 499.393)" fill="#12263f"/>
    <path id="Trazado_876676" data-name="Trazado 876676" d="M7.629,16.965H5.4V23H1.289V5.938H8A7.5,7.5,0,0,1,12.75,7.284a4.561,4.561,0,0,1,1.711,3.8,5.54,5.54,0,0,1-.721,2.95,5.115,5.115,0,0,1-2.256,1.9l3.563,6.889V23H10.641ZM5.4,13.8H8a2.335,2.335,0,0,0,1.764-.617,2.384,2.384,0,0,0,.592-1.721,2.412,2.412,0,0,0-.6-1.733A2.313,2.313,0,0,0,8,9.1H5.4Z" transform="translate(875.844 499.393)" fill="#12263f"/>
    <path id="Trazado_876681" data-name="Trazado 876681" d="M7.629,16.965H5.4V23H1.289V5.938H8A7.5,7.5,0,0,1,12.75,7.284a4.561,4.561,0,0,1,1.711,3.8,5.54,5.54,0,0,1-.721,2.95,5.115,5.115,0,0,1-2.256,1.9l3.563,6.889V23H10.641ZM5.4,13.8H8a2.335,2.335,0,0,0,1.764-.617,2.384,2.384,0,0,0,.592-1.721,2.412,2.412,0,0,0-.6-1.733A2.313,2.313,0,0,0,8,9.1H5.4Z" transform="translate(544.45 559.841)" fill="#12263f"/>
    <path id="Trazado_876677" data-name="Trazado 876677" d="M7.629,16.965H5.4V23H1.289V5.938H8A7.5,7.5,0,0,1,12.75,7.284a4.561,4.561,0,0,1,1.711,3.8,5.54,5.54,0,0,1-.721,2.95,5.115,5.115,0,0,1-2.256,1.9l3.563,6.889V23H10.641ZM5.4,13.8H8a2.335,2.335,0,0,0,1.764-.617,2.384,2.384,0,0,0,.592-1.721,2.412,2.412,0,0,0-.6-1.733A2.313,2.313,0,0,0,8,9.1H5.4Z" transform="translate(875.844 559.841)" fill="#12263f"/>
    <path id="Trazado_876675" data-name="Trazado 876675" d="M15.539,23h-4.09L5.4,12.383V23H1.289V5.938H5.4l6.035,10.617V5.938h4.1Zm10.137-5.836H18.633V14.117h7.043ZM43.184,23h-4.09L33.047,12.383V23H28.934V5.938h4.113l6.035,10.617V5.938h4.1Zm13.664-8.461H46V11.492H56.848Zm0,5.145H46V16.637H56.848Zm14.59-3.656a8.147,8.147,0,0,1-1.553,5.332,6.067,6.067,0,0,1-8.783-.012,8.135,8.135,0,0,1-1.559-5.32V12.91A8.147,8.147,0,0,1,61.1,7.578a6.067,6.067,0,0,1,8.783.012,8.155,8.155,0,0,1,1.559,5.332Zm-3.949-3.621a6.085,6.085,0,0,0-.48-2.748,1.606,1.606,0,0,0-1.523-.908A1.568,1.568,0,0,0,64,9.594a5.733,5.733,0,0,0-.5,2.555v4.359a6.131,6.131,0,0,0,.48,2.795,1.612,1.612,0,0,0,1.523.885A1.59,1.59,0,0,0,67,19.326a5.853,5.853,0,0,0,.492-2.7Z" transform="translate(968.45 527.393)" fill="#12263f"/>
    <path id="Trazado_876685" data-name="Trazado 876685" d="M15.539,23h-4.09L5.4,12.383V23H1.289V5.938H5.4l6.035,10.617V5.938h4.1Zm6.586,0H18.164V10.32h3.961ZM17.93,7.051a1.763,1.763,0,0,1,.609-1.383,2.591,2.591,0,0,1,3.164,0,1.763,1.763,0,0,1,.609,1.383A1.763,1.763,0,0,1,21.7,8.434a2.591,2.591,0,0,1-3.164,0A1.763,1.763,0,0,1,17.93,7.051Zm11.227.117V10.32h2.086v2.742H29.156v5.8a1.481,1.481,0,0,0,.258,1,1.383,1.383,0,0,0,1.02.281,5.793,5.793,0,0,0,.984-.07v2.824a7.288,7.288,0,0,1-2.227.34,4.137,4.137,0,0,1-3.012-.961,3.939,3.939,0,0,1-.973-2.918V13.063H23.59V10.32h1.617V7.168Zm11.309,6.727-1.3-.094a2.336,2.336,0,0,0-2.391,1.172V23H32.824V10.32h3.7l.129,1.629a3.058,3.058,0,0,1,2.777-1.863,3.851,3.851,0,0,1,1.1.141Zm.5,2.648a7.484,7.484,0,0,1,.738-3.381,5.28,5.28,0,0,1,2.121-2.279,6.388,6.388,0,0,1,3.246-.8,5.83,5.83,0,0,1,4.488,1.764,6.768,6.768,0,0,1,1.641,4.8v.141a6.566,6.566,0,0,1-1.646,4.705,5.846,5.846,0,0,1-4.459,1.74,5.912,5.912,0,0,1-4.348-1.623,6.348,6.348,0,0,1-1.77-4.4Zm3.949.246a4.718,4.718,0,0,0,.551,2.578,1.835,1.835,0,0,0,1.629.82q2.109,0,2.156-3.246v-.4q0-3.41-2.18-3.41-1.98,0-2.145,2.941Zm16.664,2.648a.912.912,0,0,0-.527-.809,8.021,8.021,0,0,0-2-.633,9.138,9.138,0,0,1-2.437-.861,4.083,4.083,0,0,1-1.465-1.295,3.092,3.092,0,0,1-.5-1.746,3.5,3.5,0,0,1,1.441-2.877,5.938,5.938,0,0,1,3.773-1.131,6.579,6.579,0,0,1,4.031,1.137,3.555,3.555,0,0,1,1.523,2.988H61.453q0-1.523-1.605-1.523a1.591,1.591,0,0,0-1.043.346,1.07,1.07,0,0,0-.422.861.982.982,0,0,0,.516.855,4.872,4.872,0,0,0,1.646.539,14.228,14.228,0,0,1,1.986.5q2.859.984,2.859,3.527a3.321,3.321,0,0,1-1.541,2.824,6.758,6.758,0,0,1-3.99,1.09,6.9,6.9,0,0,1-2.906-.586,4.86,4.86,0,0,1-1.992-1.594,3.609,3.609,0,0,1-.715-2.121h3.691a1.526,1.526,0,0,0,.586,1.283,2.41,2.41,0,0,0,1.441.4,1.9,1.9,0,0,0,1.213-.328A1.05,1.05,0,0,0,61.582,19.438ZM74.379,23A4.459,4.459,0,0,1,74,21.863a3.672,3.672,0,0,1-3.047,1.371A4.5,4.5,0,0,1,67.91,22.15a3.45,3.45,0,0,1-1.254-2.725,3.546,3.546,0,0,1,1.523-3.117,7.761,7.761,0,0,1,4.43-1.055h1.219v-.671q0-1.755-1.512-1.755a1.236,1.236,0,0,0-1.406,1.39H66.961a3.54,3.54,0,0,1,1.564-2.985,6.575,6.575,0,0,1,3.99-1.147,5.764,5.764,0,0,1,3.832,1.184,4.115,4.115,0,0,1,1.441,3.246v5.613a5.748,5.748,0,0,0,.539,2.672V23Zm-2.473-2.578a2.2,2.2,0,0,0,1.225-.316,1.983,1.983,0,0,0,.7-.715V17.363H72.68q-2.062,0-2.062,1.852a1.131,1.131,0,0,0,.363.873A1.315,1.315,0,0,0,71.906,20.422Zm11.8-10.1.129,1.488a4.36,4.36,0,0,1,3.621-1.723A3.21,3.21,0,0,1,90.7,12a4.22,4.22,0,0,1,3.727-1.91q3.855,0,3.961,4.664V23H94.43V15a2.417,2.417,0,0,0-.328-1.418,1.4,1.4,0,0,0-1.2-.445,1.871,1.871,0,0,0-1.746,1.043l.012.164V23H87.211V15.02a2.541,2.541,0,0,0-.316-1.441,1.393,1.393,0,0,0-1.207-.445,1.894,1.894,0,0,0-1.734,1.043V23H80V10.32ZM104.813,23h-3.961V10.32h3.961Zm-4.2-15.949a1.763,1.763,0,0,1,.609-1.383,2.591,2.591,0,0,1,3.164,0A1.763,1.763,0,0,1,105,7.051a1.763,1.763,0,0,1-.609,1.383,2.591,2.591,0,0,1-3.164,0A1.763,1.763,0,0,1,100.617,7.051Zm10.254,3.27L111,11.809a4.3,4.3,0,0,1,3.621-1.723,3.618,3.618,0,0,1,2.959,1.184,5.635,5.635,0,0,1,1.014,3.563V23h-3.961V15a2.14,2.14,0,0,0-.387-1.412,1.789,1.789,0,0,0-1.406-.451,1.883,1.883,0,0,0-1.723.914V23h-3.949V10.32ZM127.922,23a4.459,4.459,0,0,1-.375-1.137,3.672,3.672,0,0,1-3.047,1.371,4.5,4.5,0,0,1-3.047-1.084,3.45,3.45,0,0,1-1.254-2.725,3.546,3.546,0,0,1,1.523-3.117,7.761,7.761,0,0,1,4.43-1.055h1.219v-.671q0-1.755-1.512-1.755a1.236,1.236,0,0,0-1.406,1.39H120.5a3.54,3.54,0,0,1,1.564-2.985,6.575,6.575,0,0,1,3.99-1.147,5.764,5.764,0,0,1,3.832,1.184,4.115,4.115,0,0,1,1.441,3.246v5.613a5.748,5.748,0,0,0,.539,2.672V23Zm-2.473-2.578a2.2,2.2,0,0,0,1.225-.316,1.983,1.983,0,0,0,.7-.715V17.363h-1.148q-2.062,0-2.062,1.852a1.131,1.131,0,0,0,.363.873A1.315,1.315,0,0,0,125.449,20.422Z" transform="translate(945.725 625.836)" fill="#12263f"/>
    <path id="Trazado_876686" data-name="Trazado 876686" d="M10.98,19.813H5.344L4.359,23H-.035L6.223,5.938H10.09L16.395,23H11.977ZM6.328,16.637H10l-1.84-5.918ZM8.7,1.367h4.172L9.609,5.047,6.387,5.041Zm14.121,18.82a1.756,1.756,0,0,0,1.289-.451,1.654,1.654,0,0,0,.445-1.26h3.7A4.384,4.384,0,0,1,26.76,21.9a5.558,5.558,0,0,1-3.85,1.336A5.627,5.627,0,0,1,18.551,21.5a6.834,6.834,0,0,1-1.594-4.8v-.164a7.723,7.723,0,0,1,.709-3.393,5.162,5.162,0,0,1,2.045-2.262,6.1,6.1,0,0,1,3.164-.791A5.488,5.488,0,0,1,26.8,11.457a4.863,4.863,0,0,1,1.453,3.715h-3.7a2.168,2.168,0,0,0-.48-1.512,1.658,1.658,0,0,0-1.289-.527q-1.535,0-1.793,1.957a13.809,13.809,0,0,0-.082,1.711,5.424,5.424,0,0,0,.457,2.648A1.582,1.582,0,0,0,22.816,20.188ZM34.09,23H30.129V10.32H34.09Zm-4.2-15.949A1.763,1.763,0,0,1,30.5,5.668a2.591,2.591,0,0,1,3.164,0,1.763,1.763,0,0,1,.609,1.383,1.763,1.763,0,0,1-.609,1.383,2.591,2.591,0,0,1-3.164,0A1.763,1.763,0,0,1,29.895,7.051Zm6.129,9.516a7.746,7.746,0,0,1,1.3-4.746,4.282,4.282,0,0,1,3.633-1.734,3.641,3.641,0,0,1,2.859,1.336V5h3.961V23H44.227l-.2-1.359a3.739,3.739,0,0,1-3.094,1.594A4.274,4.274,0,0,1,37.348,21.5,7.991,7.991,0,0,1,36.023,16.566Zm3.949.246q0,3.375,1.969,3.375a1.944,1.944,0,0,0,1.875-1.1V14.258a1.892,1.892,0,0,0-1.852-1.125q-1.828,0-1.98,2.953Zm9.551-.27a7.484,7.484,0,0,1,.738-3.381,5.28,5.28,0,0,1,2.121-2.279,6.388,6.388,0,0,1,3.246-.8,5.83,5.83,0,0,1,4.488,1.764,6.768,6.768,0,0,1,1.641,4.8v.141a6.566,6.566,0,0,1-1.646,4.705,5.846,5.846,0,0,1-4.459,1.74A5.912,5.912,0,0,1,51.3,21.611a6.348,6.348,0,0,1-1.77-4.4Zm3.949.246a4.718,4.718,0,0,0,.551,2.578,1.835,1.835,0,0,0,1.629.82q2.109,0,2.156-3.246v-.4q0-3.41-2.18-3.41-1.98,0-2.145,2.941ZM73.1,10.32l.129,1.488a4.3,4.3,0,0,1,3.621-1.723,3.618,3.618,0,0,1,2.959,1.184,5.635,5.635,0,0,1,1.014,3.563V23H76.863V15a2.14,2.14,0,0,0-.387-1.412,1.789,1.789,0,0,0-1.406-.451,1.883,1.883,0,0,0-1.723.914V23H69.4V10.32ZM87.176,23H83.215V10.32h3.961ZM82.98,7.051a1.763,1.763,0,0,1,.609-1.383,2.591,2.591,0,0,1,3.164,0,1.763,1.763,0,0,1,.609,1.383,1.763,1.763,0,0,1-.609,1.383,2.591,2.591,0,0,1-3.164,0A1.763,1.763,0,0,1,82.98,7.051Zm11.227.117V10.32h2.086v2.742H94.207v5.8a1.481,1.481,0,0,0,.258,1,1.383,1.383,0,0,0,1.02.281,5.793,5.793,0,0,0,.984-.07v2.824a7.288,7.288,0,0,1-2.227.34,4.137,4.137,0,0,1-3.012-.961,3.939,3.939,0,0,1-.973-2.918V13.063H88.641V10.32h1.617V7.168Zm11.309,6.727-1.3-.094a2.336,2.336,0,0,0-2.391,1.172V23H97.875V10.32h3.7l.129,1.629a3.058,3.058,0,0,1,2.777-1.863,3.851,3.851,0,0,1,1.1.141Zm.5,2.648a7.484,7.484,0,0,1,.738-3.381,5.28,5.28,0,0,1,2.121-2.279,6.388,6.388,0,0,1,3.246-.8,5.83,5.83,0,0,1,4.488,1.764,6.768,6.768,0,0,1,1.641,4.8v.141a6.566,6.566,0,0,1-1.646,4.705,5.846,5.846,0,0,1-4.459,1.74,5.912,5.912,0,0,1-4.348-1.623,6.348,6.348,0,0,1-1.77-4.4Zm3.949.246a4.718,4.718,0,0,0,.551,2.578,1.835,1.835,0,0,0,1.629.82q2.109,0,2.156-3.246v-.4q0-3.41-2.18-3.41-1.98,0-2.145,2.941Zm16.664,2.648a.912.912,0,0,0-.527-.809,8.021,8.021,0,0,0-2-.633,9.138,9.138,0,0,1-2.437-.861A4.083,4.083,0,0,1,120.2,15.84a3.092,3.092,0,0,1-.5-1.746,3.5,3.5,0,0,1,1.441-2.877,5.938,5.938,0,0,1,3.773-1.131,6.579,6.579,0,0,1,4.031,1.137,3.555,3.555,0,0,1,1.523,2.988H126.5q0-1.523-1.605-1.523a1.591,1.591,0,0,0-1.043.346,1.07,1.07,0,0,0-.422.861.982.982,0,0,0,.516.855,4.872,4.872,0,0,0,1.646.539,14.228,14.228,0,0,1,1.986.5q2.859.984,2.859,3.527a3.321,3.321,0,0,1-1.541,2.824,6.758,6.758,0,0,1-3.99,1.09A6.9,6.9,0,0,1,122,22.648a4.86,4.86,0,0,1-1.992-1.594,3.609,3.609,0,0,1-.715-2.121h3.691a1.526,1.526,0,0,0,.586,1.283,2.41,2.41,0,0,0,1.441.4,1.9,1.9,0,0,0,1.213-.328A1.05,1.05,0,0,0,126.633,19.438Zm5.156-2.895a7.484,7.484,0,0,1,.738-3.381,5.28,5.28,0,0,1,2.121-2.279,6.388,6.388,0,0,1,3.246-.8,5.83,5.83,0,0,1,4.488,1.764,6.768,6.768,0,0,1,1.641,4.8v.141a6.566,6.566,0,0,1-1.646,4.705,5.846,5.846,0,0,1-4.459,1.74,5.912,5.912,0,0,1-4.348-1.623,6.348,6.348,0,0,1-1.77-4.4Zm3.949.246a4.718,4.718,0,0,0,.551,2.578,1.835,1.835,0,0,0,1.629.82q2.109,0,2.156-3.246v-.4q0-3.41-2.18-3.41-1.98,0-2.145,2.941Z" transform="translate(631.45 625.836)" fill="#12263f"/>
    <path id="Trazado_876687" data-name="Trazado 876687" d="M10.98,19.813H5.344L4.359,23H-.035L6.223,5.938H10.09L16.395,23H11.977ZM6.328,16.637H10l-1.84-5.918Zm14.3-6.316.129,1.488a4.36,4.36,0,0,1,3.621-1.723A3.21,3.21,0,0,1,27.621,12a4.22,4.22,0,0,1,3.727-1.91q3.855,0,3.961,4.664V23H31.348V15a2.417,2.417,0,0,0-.328-1.418,1.4,1.4,0,0,0-1.2-.445,1.871,1.871,0,0,0-1.746,1.043l.012.164V23H24.129V15.02a2.541,2.541,0,0,0-.316-1.441,1.393,1.393,0,0,0-1.207-.445,1.894,1.894,0,0,0-1.734,1.043V23H16.922V10.32ZM41.73,23H37.77V10.32H41.73Zm-4.2-15.949a1.763,1.763,0,0,1,.609-1.383,2.591,2.591,0,0,1,3.164,0,1.763,1.763,0,0,1,.609,1.383,1.763,1.763,0,0,1-.609,1.383,2.591,2.591,0,0,1-3.164,0A1.763,1.763,0,0,1,37.535,7.051Zm10.254,3.27.129,1.488a4.3,4.3,0,0,1,3.621-1.723A3.618,3.618,0,0,1,54.5,11.27a5.635,5.635,0,0,1,1.014,3.563V23H51.551V15a2.14,2.14,0,0,0-.387-1.412,1.789,1.789,0,0,0-1.406-.451,1.883,1.883,0,0,0-1.723.914V23H44.086V10.32ZM64.84,23a4.459,4.459,0,0,1-.375-1.137,3.672,3.672,0,0,1-3.047,1.371,4.5,4.5,0,0,1-3.047-1.084,3.45,3.45,0,0,1-1.254-2.725,3.546,3.546,0,0,1,1.523-3.117,7.761,7.761,0,0,1,4.43-1.055h1.219v-.671q0-1.755-1.512-1.755a1.236,1.236,0,0,0-1.406,1.39H57.422a3.54,3.54,0,0,1,1.564-2.985,6.575,6.575,0,0,1,3.99-1.147,5.764,5.764,0,0,1,3.832,1.184,4.115,4.115,0,0,1,1.441,3.246v5.613a5.748,5.748,0,0,0,.539,2.672V23Zm-2.473-2.578a2.2,2.2,0,0,0,1.225-.316,1.983,1.983,0,0,0,.7-.715V17.363H63.141q-2.062,0-2.062,1.852a1.131,1.131,0,0,0,.363.873A1.315,1.315,0,0,0,62.367,20.422Z" transform="translate(505.051 625.836)" fill="#12263f"/>
    <path id="Trazado_876688" data-name="Trazado 876688" d="M10.09,18.465a1.69,1.69,0,0,0-.639-1.406,7.938,7.938,0,0,0-2.244-1.043,21.529,21.529,0,0,1-2.625-1.043Q1.266,13.344,1.266,10.5a4.014,4.014,0,0,1,.826-2.5A5.344,5.344,0,0,1,4.43,6.307a9.1,9.1,0,0,1,3.4-.6,7.958,7.958,0,0,1,3.3.656,5.223,5.223,0,0,1,2.268,1.869A4.881,4.881,0,0,1,14.2,11H10.1a2.063,2.063,0,0,0-.639-1.617,2.489,2.489,0,0,0-1.729-.574,2.807,2.807,0,0,0-1.74.486,1.432,1.432,0,0,0,.064,2.426,8.867,8.867,0,0,0,2.473,1.1,15.147,15.147,0,0,1,2.906,1.225A4.884,4.884,0,0,1,14.2,18.441a4.166,4.166,0,0,1-1.687,3.516,7.506,7.506,0,0,1-4.629,1.277,9.184,9.184,0,0,1-3.756-.744A5.663,5.663,0,0,1,1.6,20.451a5.313,5.313,0,0,1-.85-2.982H4.875a2.617,2.617,0,0,0,.709,2.021,3.351,3.351,0,0,0,2.3.65A2.647,2.647,0,0,0,9.5,19.7,1.45,1.45,0,0,0,10.09,18.465Zm12.176,4.77a6.518,6.518,0,0,1-4.723-1.74,6.009,6.009,0,0,1-1.8-4.529v-.328a7.787,7.787,0,0,1,.721-3.434,5.274,5.274,0,0,1,2.1-2.3,6.35,6.35,0,0,1,3.281-.814,5.489,5.489,0,0,1,4.219,1.658,6.516,6.516,0,0,1,1.547,4.623V17.9H19.758a2.846,2.846,0,0,0,.926,1.676,2.755,2.755,0,0,0,1.852.609,3.549,3.549,0,0,0,2.93-1.312l1.8,2.133a5.045,5.045,0,0,1-2.092,1.623A7.069,7.069,0,0,1,22.266,23.234Zm-.445-10.1q-1.734,0-2.062,2.3h3.984v-.3a1.956,1.956,0,0,0-.48-1.471A1.912,1.912,0,0,0,21.82,13.133Zm12.738,7.055a1.756,1.756,0,0,0,1.289-.451,1.654,1.654,0,0,0,.445-1.26H40A4.384,4.384,0,0,1,38.5,21.9a5.558,5.558,0,0,1-3.85,1.336A5.627,5.627,0,0,1,30.293,21.5,6.834,6.834,0,0,1,28.7,16.7v-.164a7.723,7.723,0,0,1,.709-3.393,5.162,5.162,0,0,1,2.045-2.262,6.1,6.1,0,0,1,3.164-.791,5.488,5.488,0,0,1,3.926,1.371A4.863,4.863,0,0,1,40,15.172h-3.7a2.168,2.168,0,0,0-.48-1.512,1.658,1.658,0,0,0-1.289-.527q-1.535,0-1.793,1.957a13.809,13.809,0,0,0-.082,1.711,5.424,5.424,0,0,0,.457,2.648A1.582,1.582,0,0,0,34.559,20.188Zm14.66,1.441a4.072,4.072,0,0,1-3.387,1.605,3.993,3.993,0,0,1-3.158-1.213A5.1,5.1,0,0,1,41.6,18.535V10.32h3.949v8.238a1.419,1.419,0,0,0,1.582,1.629,2.064,2.064,0,0,0,1.934-.973V10.32h3.973V23h-3.7ZM58.828,10.32l.129,1.488a4.3,4.3,0,0,1,3.621-1.723,3.618,3.618,0,0,1,2.959,1.184,5.635,5.635,0,0,1,1.014,3.563V23H62.59V15a2.14,2.14,0,0,0-.387-1.412,1.789,1.789,0,0,0-1.406-.451,1.883,1.883,0,0,0-1.723.914V23H55.125V10.32Zm9.41,6.246a7.746,7.746,0,0,1,1.3-4.746,4.282,4.282,0,0,1,3.633-1.734,3.641,3.641,0,0,1,2.859,1.336V5h3.961V23H76.441l-.2-1.359a3.739,3.739,0,0,1-3.094,1.594A4.274,4.274,0,0,1,69.563,21.5,7.991,7.991,0,0,1,68.238,16.566Zm3.949.246q0,3.375,1.969,3.375a1.944,1.944,0,0,0,1.875-1.1V14.258a1.892,1.892,0,0,0-1.852-1.125q-1.828,0-1.98,2.953ZM89.379,23A4.459,4.459,0,0,1,89,21.863a3.672,3.672,0,0,1-3.047,1.371A4.5,4.5,0,0,1,82.91,22.15a3.45,3.45,0,0,1-1.254-2.725,3.546,3.546,0,0,1,1.523-3.117,7.761,7.761,0,0,1,4.43-1.055h1.219v-.671q0-1.755-1.512-1.755a1.236,1.236,0,0,0-1.406,1.39H81.961a3.54,3.54,0,0,1,1.564-2.985,6.575,6.575,0,0,1,3.99-1.147,5.764,5.764,0,0,1,3.832,1.184,4.115,4.115,0,0,1,1.441,3.246v5.613a5.748,5.748,0,0,0,.539,2.672V23Zm-2.473-2.578a2.2,2.2,0,0,0,1.225-.316,1.983,1.983,0,0,0,.7-.715V17.363H87.68q-2.062,0-2.062,1.852a1.131,1.131,0,0,0,.363.873A1.315,1.315,0,0,0,86.906,20.422Zm15.738-6.527-1.3-.094a2.336,2.336,0,0,0-2.391,1.172V23H95V10.32h3.7l.129,1.629a3.058,3.058,0,0,1,2.777-1.863,3.851,3.851,0,0,1,1.1.141ZM108.234,23h-3.961V10.32h3.961Zm-4.2-15.949a1.763,1.763,0,0,1,.609-1.383,2.591,2.591,0,0,1,3.164,0,1.763,1.763,0,0,1,.609,1.383,1.763,1.763,0,0,1-.609,1.383,2.591,2.591,0,0,1-3.164,0A1.763,1.763,0,0,1,104.039,7.051ZM117.809,23a4.459,4.459,0,0,1-.375-1.137,3.672,3.672,0,0,1-3.047,1.371,4.5,4.5,0,0,1-3.047-1.084,3.45,3.45,0,0,1-1.254-2.725,3.546,3.546,0,0,1,1.523-3.117,7.761,7.761,0,0,1,4.43-1.055h1.219v-.671q0-1.755-1.512-1.755a1.236,1.236,0,0,0-1.406,1.39h-3.949a3.54,3.54,0,0,1,1.564-2.985,6.575,6.575,0,0,1,3.99-1.147,5.764,5.764,0,0,1,3.832,1.184,4.115,4.115,0,0,1,1.441,3.246v5.613a5.748,5.748,0,0,0,.539,2.672V23Zm-2.473-2.578a2.2,2.2,0,0,0,1.225-.316,1.983,1.983,0,0,0,.7-.715V17.363h-1.148q-2.062,0-2.062,1.852a1.131,1.131,0,0,0,.363.873A1.315,1.315,0,0,0,115.336,20.422Z" transform="translate(496 689.836)" fill="#12263f"/>
    <path id="Trazado_876263" data-name="Trazado 876263" d="M-3667.051-11106.295v56.509" transform="translate(4358.602 11664.836)" fill="#12263f" stroke="#12263f" stroke-width="3"/>
    <path id="Trazado_876267" data-name="Trazado 876267" d="M-3667.051-11106.295v49.94" transform="translate(12022.94 2885.822) rotate(-60)" fill="#12263f" stroke="#12263f" stroke-width="3"/>
    <path id="Trazado_876270" data-name="Trazado 876270" d="M-3667.051-11106.295v49.94" transform="translate(12354.334 2885.822) rotate(-60)" fill="#12263f" stroke="#12263f" stroke-width="3"/>
    <path id="Trazado_876268" data-name="Trazado 876268" d="M-3667.051-11106.295v49.94" transform="translate(8355.89 -8156.066) rotate(-120)" fill="#12263f" stroke="#12263f" stroke-width="3"/>
    <path id="Trazado_876269" data-name="Trazado 876269" d="M-3667.051-11106.295v49.94" transform="translate(8687.283 -8156.066) rotate(-120)" fill="#12263f" stroke="#12263f" stroke-width="3"/>
    <path id="Trazado_876266" data-name="Trazado 876266" d="M-3667.051-11106.295v28.254" transform="translate(4209.602 11693.09)" fill="#12263f" stroke="#12263f" stroke-width="3"/>
    <path id="Trazado_876264" data-name="Trazado 876264" d="M-3667.051-11106.295v56.509" transform="translate(11885.147 -3122.862) rotate(-90)" fill="#33b9cb" stroke="#33b9cb" stroke-width="5"/>
    <path id="Trazado_876265" data-name="Trazado 876265" d="M-3667.051-11106.295v56.509" transform="translate(4681.551 11664.836)" fill="#12263f" stroke="#12263f" stroke-width="3"/>
    <g id="Trazado_876682" data-name="Trazado 876682" transform="translate(698.051 625.836) rotate(180)" fill="#12263f">
      <path d="M 12.12378215789795 10.5 L 0.8762181997299194 10.5 L 6.5 0.9828307628631592 L 12.12378215789795 10.5 Z" stroke="none"/>
      <path d="M 6.5 1.965688705444336 L 1.75245189666748 10 L 11.24754810333252 10 L 6.5 1.965688705444336 M 6.5 0 L 13 11 L 0 11 L 6.5 0 Z" stroke="none" fill="#12263f"/>
    </g>
    <g id="Trazado_876683" data-name="Trazado 876683" transform="translate(549.051 625.836) rotate(180)" fill="#12263f">
      <path d="M 12.12378215789795 10.5 L 0.8762181997299194 10.5 L 6.5 0.9828307628631592 L 12.12378215789795 10.5 Z" stroke="none"/>
      <path d="M 6.5 1.965688705444336 L 1.75245189666748 10 L 11.24754810333252 10 L 6.5 1.965688705444336 M 6.5 0 L 13 11 L 0 11 L 6.5 0 Z" stroke="none" fill="#12263f"/>
    </g>
    <g id="Trazado_876678" data-name="Trazado 876678" transform="translate(846.147 537.688) rotate(90)" fill="#33b9cb">
      <path d="M 12.12378215789795 10.5 L 0.8762181997299194 10.5 L 6.5 0.9828307628631592 L 12.12378215789795 10.5 Z" stroke="none"/>
      <path d="M 6.5 1.965688705444336 L 1.75245189666748 10 L 11.24754810333252 10 L 6.5 1.965688705444336 M 6.5 0 L 13 11 L 0 11 L 6.5 0 Z" stroke="none" fill="#33b9cb"/>
    </g>
    <g id="Trazado_876684" data-name="Trazado 876684" transform="translate(1021 625.836) rotate(180)" fill="#12263f">
      <path d="M 12.12378215789795 10.5 L 0.8762181997299194 10.5 L 6.5 0.9828307628631592 L 12.12378215789795 10.5 Z" stroke="none"/>
      <path d="M 6.5 1.965688705444336 L 1.75245189666748 10 L 11.24754810333252 10 L 6.5 1.965688705444336 M 6.5 0 L 13 11 L 0 11 L 6.5 0 Z" stroke="none" fill="#12263f"/>
    </g>
  </g>
</svg>
