<svg xmlns="http://www.w3.org/2000/svg" width="505" height="398.762" viewBox="0 0 505 398.762">
  <g id="Grupo_1103874" data-name="Grupo 1103874" transform="translate(-915 -2260.303)">
    <path id="Trazado_915305" data-name="Trazado 915305" d="M0,0H505V398.762H0Z" transform="translate(915 2260.303)" fill="#ebf8fa"/>
    <path id="Trazado_876233" data-name="Trazado 876233" d="M-982.249-9181.147v-39.424l39.424-21.824,42.944,21.824v39.424Z" transform="translate(2243.456 11587.038)" fill="none" stroke="#12263f" stroke-width="3"/>
    <path id="Trazado_876236" data-name="Trazado 876236" d="M-982.249-9242.4v39.424l39.424,21.824,42.944-21.824V-9242.4Z" transform="translate(2037.536 11670.188)" fill="none" stroke="#12263f" stroke-width="3"/>
    <path id="Trazado_876237" data-name="Trazado 876237" d="M-982.249-9242.4v39.424l39.424,21.824,42.944-21.824V-9242.4Z" transform="translate(1955.168 11670.188)" fill="none" stroke="#12263f" stroke-width="3"/>
    <path id="Trazado_876234" data-name="Trazado 876234" d="M-982.249-9181.147v-39.424l39.424-21.824,42.944,21.824v39.424l-42.944,20.423Z" transform="translate(2161.088 11587.038)" fill="none" stroke="#12263f" stroke-width="3"/>
    <path id="Trazado_876235" data-name="Trazado 876235" d="M-982.249-9181.147v-39.424l39.424-21.824,42.944,21.824v39.424l-42.944,20.423Z" transform="translate(2119.904 11648.285)" fill="none" stroke="#12263f" stroke-width="3"/>
    <path id="Trazado_876238" data-name="Trazado 876238" d="M-1220.76-9163.17v23.328" transform="translate(2202.641 11600.596)" fill="none" stroke="#12263f" stroke-width="3"/>
    <path id="Trazado_876239" data-name="Trazado 876239" d="M-1220.76-9163.17v23.328" transform="translate(2348.691 11600.596)" fill="none" stroke="#12263f" stroke-width="3"/>
    <path id="Trazado_876242" data-name="Trazado 876242" d="M-1220.76-9163.17v23.328" transform="translate(2471.659 11538.437)" fill="none" stroke="#12263f" stroke-width="3"/>
    <path id="Trazado_876243" data-name="Trazado 876243" d="M-1220.76-9163.17v23.328" transform="translate(2525.494 11476.94)" fill="none" stroke="#12263f" stroke-width="3"/>
    <path id="Trazado_876246" data-name="Trazado 876246" d="M-1220.76-9163.17v23.328" transform="translate(2443.126 11476.94)" fill="none" stroke="#12263f" stroke-width="3"/>
    <path id="Trazado_876244" data-name="Trazado 876244" d="M-1220.76-9163.17v23.328" transform="translate(2516.125 11476.94)" fill="none" stroke="#12263f" stroke-width="3"/>
    <path id="Trazado_876245" data-name="Trazado 876245" d="M-1220.76-9163.17v23.328" transform="translate(2433.757 11476.94)" fill="none" stroke="#12263f" stroke-width="3"/>
    <path id="Trazado_876240" data-name="Trazado 876240" d="M2.571,0,0,37.71" transform="matrix(-0.407, 0.914, -0.914, -0.407, 1213.289, 2432.162)" fill="none" stroke="#12263f" stroke-width="3"/>
    <path id="Trazado_876247" data-name="Trazado 876247" d="M2.571,0,0,37.71" transform="matrix(-0.407, 0.914, -0.914, -0.407, 1255.52, 2482.061)" fill="none" stroke="#12263f" stroke-width="3"/>
    <path id="Trazado_876241" data-name="Trazado 876241" d="M.495,37.506,0,0" transform="matrix(-0.407, -0.914, 0.914, -0.407, 1178.181, 2475.337)" fill="none" stroke="#12263f" stroke-width="3"/>
    <g id="Trazado_915299" data-name="Trazado 915299" transform="translate(1207.627 2291.232)" fill="none">
      <path d="M9.369,0A9.369,9.369,0,1,1,0,9.369,9.369,9.369,0,0,1,9.369,0Z" stroke="none"/>
      <path d="M 9.369011878967285 3.000003814697266 C 5.857131958007812 3.000003814697266 3.000001907348633 5.857133865356445 3.000001907348633 9.369013786315918 C 3.000001907348633 12.88089370727539 5.857131958007812 15.73802375793457 9.369011878967285 15.73802375793457 C 12.88089179992676 15.73802375793457 15.73802185058594 12.88089370727539 15.73802185058594 9.369013786315918 C 15.73802185058594 5.857133865356445 12.88089179992676 3.000003814697266 9.369011878967285 3.000003814697266 M 9.369011878967285 3.814697265625e-06 C 14.54337120056152 3.814697265625e-06 18.73802185058594 4.194653511047363 18.73802185058594 9.369013786315918 C 18.73802185058594 14.54337310791016 14.54337120056152 18.73802375793457 9.369011878967285 18.73802375793457 C 4.19465160369873 18.73802375793457 1.9073486328125e-06 14.54337310791016 1.9073486328125e-06 9.369013786315918 C 1.9073486328125e-06 4.194653511047363 4.19465160369873 3.814697265625e-06 9.369011878967285 3.814697265625e-06 Z" stroke="none" fill="#12263f"/>
    </g>
    <g id="Trazado_915300" data-name="Trazado 915300" transform="translate(1289.606 2291.232)" fill="none">
      <path d="M9.369,0A9.369,9.369,0,1,1,0,9.369,9.369,9.369,0,0,1,9.369,0Z" stroke="none"/>
      <path d="M 9.369011878967285 3.000003814697266 C 5.857131958007812 3.000003814697266 3.000001907348633 5.857133865356445 3.000001907348633 9.369013786315918 C 3.000001907348633 12.88089370727539 5.857131958007812 15.73802375793457 9.369011878967285 15.73802375793457 C 12.88089179992676 15.73802375793457 15.73802185058594 12.88089370727539 15.73802185058594 9.369013786315918 C 15.73802185058594 5.857133865356445 12.88089179992676 3.000003814697266 9.369011878967285 3.000003814697266 M 9.369011878967285 3.814697265625e-06 C 14.54337120056152 3.814697265625e-06 18.73802185058594 4.194653511047363 18.73802185058594 9.369013786315918 C 18.73802185058594 14.54337310791016 14.54337120056152 18.73802375793457 9.369011878967285 18.73802375793457 C 4.19465160369873 18.73802375793457 1.9073486328125e-06 14.54337310791016 1.9073486328125e-06 9.369013786315918 C 1.9073486328125e-06 4.194653511047363 4.19465160369873 3.814697265625e-06 9.369011878967285 3.814697265625e-06 Z" stroke="none" fill="#12263f"/>
    </g>
    <g id="Trazado_915301" data-name="Trazado 915301" transform="translate(1168.98 2361.5)" fill="#ebf8fa">
      <path d="M 9.369011878967285 17.23802375793457 C 5.030021667480469 17.23802375793457 1.500001907348633 13.70800399780273 1.500001907348633 9.369013786315918 C 1.500001907348633 5.030023574829102 5.030021667480469 1.500003814697266 9.369011878967285 1.500003814697266 C 13.7080020904541 1.500003814697266 17.23802185058594 5.030023574829102 17.23802185058594 9.369013786315918 C 17.23802185058594 13.70800399780273 13.7080020904541 17.23802375793457 9.369011878967285 17.23802375793457 Z" stroke="none"/>
      <path d="M 9.369011878967285 3.000003814697266 C 5.857131958007812 3.000003814697266 3.000001907348633 5.857133865356445 3.000001907348633 9.369013786315918 C 3.000001907348633 12.88089370727539 5.857131958007812 15.73802375793457 9.369011878967285 15.73802375793457 C 12.88089179992676 15.73802375793457 15.73802185058594 12.88089370727539 15.73802185058594 9.369013786315918 C 15.73802185058594 5.857133865356445 12.88089179992676 3.000003814697266 9.369011878967285 3.000003814697266 M 9.369011878967285 3.814697265625e-06 C 14.54337120056152 3.814697265625e-06 18.73802185058594 4.194653511047363 18.73802185058594 9.369013786315918 C 18.73802185058594 14.54337310791016 14.54337120056152 18.73802375793457 9.369011878967285 18.73802375793457 C 4.19465160369873 18.73802375793457 1.9073486328125e-06 14.54337310791016 1.9073486328125e-06 9.369013786315918 C 1.9073486328125e-06 4.194653511047363 4.19465160369873 3.814697265625e-06 9.369011878967285 3.814697265625e-06 Z" stroke="none" fill="#12263f"/>
    </g>
    <g id="Trazado_915304" data-name="Trazado 915304" transform="translate(1087.001 2479.784)" fill="#ebf8fa">
      <path d="M 9.369011878967285 17.23802375793457 C 5.030021667480469 17.23802375793457 1.500001907348633 13.70800399780273 1.500001907348633 9.369013786315918 C 1.500001907348633 5.030023574829102 5.030021667480469 1.500003814697266 9.369011878967285 1.500003814697266 C 13.7080020904541 1.500003814697266 17.23802185058594 5.030023574829102 17.23802185058594 9.369013786315918 C 17.23802185058594 13.70800399780273 13.7080020904541 17.23802375793457 9.369011878967285 17.23802375793457 Z" stroke="none"/>
      <path d="M 9.369011878967285 3.000003814697266 C 5.857131958007812 3.000003814697266 3.000001907348633 5.857133865356445 3.000001907348633 9.369013786315918 C 3.000001907348633 12.88089370727539 5.857131958007812 15.73802375793457 9.369011878967285 15.73802375793457 C 12.88089179992676 15.73802375793457 15.73802185058594 12.88089370727539 15.73802185058594 9.369013786315918 C 15.73802185058594 5.857133865356445 12.88089179992676 3.000003814697266 9.369011878967285 3.000003814697266 M 9.369011878967285 3.814697265625e-06 C 14.54337120056152 3.814697265625e-06 18.73802185058594 4.194653511047363 18.73802185058594 9.369013786315918 C 18.73802185058594 14.54337310791016 14.54337120056152 18.73802375793457 9.369011878967285 18.73802375793457 C 4.19465160369873 18.73802375793457 1.9073486328125e-06 14.54337310791016 1.9073486328125e-06 9.369013786315918 C 1.9073486328125e-06 4.194653511047363 4.19465160369873 3.814697265625e-06 9.369011878967285 3.814697265625e-06 Z" stroke="none" fill="#12263f"/>
    </g>
    <g id="Elipse_11503" data-name="Elipse 11503" transform="translate(1005.022 2479.784)" fill="#ebf8fa" stroke="#12263f" stroke-width="3">
      <ellipse cx="9.369" cy="9.369" rx="9.369" ry="9.369" stroke="none"/>
      <ellipse cx="9.369" cy="9.369" rx="7.869" ry="7.869" fill="none"/>
    </g>
    <path id="Trazado_915302" data-name="Trazado 915302" d="M15.083-7.839A9.643,9.643,0,0,1,14.2-3.6,6.557,6.557,0,0,1,11.674-.769,7.02,7.02,0,0,1,7.951.225a7.12,7.12,0,0,1-3.706-.96A6.546,6.546,0,0,1,1.724-3.481a9.365,9.365,0,0,1-.949-4.1V-8.5a9.685,9.685,0,0,1,.882-4.24,6.541,6.541,0,0,1,2.527-2.836,7.069,7.069,0,0,1,3.745-1,7,7,0,0,1,3.706.988,6.659,6.659,0,0,1,2.532,2.813,9.407,9.407,0,0,1,.915,4.183Zm-4.009-.685a6.876,6.876,0,0,0-.814-3.7,2.612,2.612,0,0,0-2.33-1.263q-2.965,0-3.133,4.447l-.011,1.2a7.072,7.072,0,0,0,.8,3.695,2.608,2.608,0,0,0,2.37,1.292,2.576,2.576,0,0,0,2.3-1.269,6.879,6.879,0,0,0,.82-3.65ZM30.345-5.537a5.972,5.972,0,0,1-.921,3.015A5.558,5.558,0,0,1,27.06-.494a8.046,8.046,0,0,1-3.476.719,6.421,6.421,0,0,1-5.076-2.1,8.671,8.671,0,0,1-1.853-5.93v-.809a9.9,9.9,0,0,1,.837-4.206A6.339,6.339,0,0,1,19.9-15.6a6.721,6.721,0,0,1,3.639-.983,7.048,7.048,0,0,1,4.784,1.567A6.19,6.19,0,0,1,30.378-10.7H26.448a2.929,2.929,0,0,0-.752-2.145,3.1,3.1,0,0,0-2.156-.651,2.355,2.355,0,0,0-2.156,1.1,7.074,7.074,0,0,0-.719,3.515v1.157a7.827,7.827,0,0,0,.657,3.74,2.4,2.4,0,0,0,2.263,1.123,3.027,3.027,0,0,0,2.078-.64,2.717,2.717,0,0,0,.764-2.033ZM45.876,0H41.957V-6.828H36.151V0H32.209V-16.352h3.942V-9.86h5.806v-6.491h3.919Zm3.858,2.307h1.042A1.083,1.083,0,0,0,52.015,1.1a1.048,1.048,0,0,0-.295-.77,1.118,1.118,0,0,0-.832-.3,1.2,1.2,0,0,0-.763.255A.779.779,0,0,0,49.8.919H47.593a2.26,2.26,0,0,1,.419-1.343,2.769,2.769,0,0,1,1.163-.92,3.975,3.975,0,0,1,1.634-.331,3.906,3.906,0,0,1,2.5.727,2.417,2.417,0,0,1,.911,2,2.015,2.015,0,0,1-.377,1.163,2.685,2.685,0,0,1-1.1.888,2.564,2.564,0,0,1,1.192.835,2.2,2.2,0,0,1,.432,1.385,2.461,2.461,0,0,1-.983,2.044,4.079,4.079,0,0,1-2.581.766,4.23,4.23,0,0,1-1.739-.357,2.725,2.725,0,0,1-1.215-.989,2.572,2.572,0,0,1-.413-1.438h2.221a.994.994,0,0,0,.354.76,1.249,1.249,0,0,0,.871.321,1.308,1.308,0,0,0,.93-.324,1.084,1.084,0,0,0,.347-.829,1.267,1.267,0,0,0-.36-1.022,1.506,1.506,0,0,0-1-.3H49.735Z" transform="translate(1262.67 2500.271)" fill="#12263f"/>
    <path id="Trazado_915303" data-name="Trazado 915303" d="M7.32-2.125H3.563L2.906,0H-.023L4.148-11.375H6.727L10.93,0H7.984Zm-3.1-2.117H6.664L5.438-8.187Zm13.3-5.836q-.672-.055-1.133-.055-1.531,0-1.531,1.2v.484h1.648v1.828H14.859V0H12.219V-6.625H10.992V-8.453h1.227V-9a2.919,2.919,0,0,1,.98-2.34,4.192,4.192,0,0,1,2.785-.824q1.289,0,4.188.164V0H17.523ZM26.539,0a2.973,2.973,0,0,1-.25-.758,2.448,2.448,0,0,1-2.031.914,3,3,0,0,1-2.031-.723,2.3,2.3,0,0,1-.836-1.816,2.364,2.364,0,0,1,1.016-2.078,5.174,5.174,0,0,1,2.953-.7h.813v-.448q0-1.17-1.008-1.17a.824.824,0,0,0-.937.926H21.594a2.36,2.36,0,0,1,1.043-1.99,4.383,4.383,0,0,1,2.66-.765,3.843,3.843,0,0,1,2.555.789,2.743,2.743,0,0,1,.961,2.164v3.742a3.832,3.832,0,0,0,.359,1.781V0ZM24.891-1.719a1.469,1.469,0,0,0,.816-.211,1.322,1.322,0,0,0,.465-.477V-3.758h-.766q-1.375,0-1.375,1.234a.754.754,0,0,0,.242.582A.876.876,0,0,0,24.891-1.719Zm8.445-8.836v2.1h1.391v1.828H33.336v3.867a.987.987,0,0,0,.172.664.922.922,0,0,0,.68.188,3.862,3.862,0,0,0,.656-.047V-.07a4.859,4.859,0,0,1-1.484.227,2.758,2.758,0,0,1-2.008-.641A2.626,2.626,0,0,1,30.7-2.43v-4.2H29.625V-8.453H30.7v-2.1ZM35.2-4.3a4.989,4.989,0,0,1,.492-2.254A3.52,3.52,0,0,1,37.1-8.078a4.259,4.259,0,0,1,2.164-.531,3.887,3.887,0,0,1,2.992,1.176,4.512,4.512,0,0,1,1.094,3.2v.094A4.378,4.378,0,0,1,42.254-1,3.9,3.9,0,0,1,39.281.156a3.942,3.942,0,0,1-2.9-1.082A4.232,4.232,0,0,1,35.2-3.859Zm2.633.164A3.145,3.145,0,0,0,38.2-2.422a1.223,1.223,0,0,0,1.086.547q1.406,0,1.438-2.164V-4.3q0-2.273-1.453-2.273-1.32,0-1.43,1.961Zm9.945-1.984L49-8.453h2.734L49.508-4.336,51.844,0h-2.75L47.766-2.5,46.461,0H43.7l2.344-4.336L43.82-8.453h2.766ZM55.359,0H52.719V-8.453h2.641Zm-2.8-10.641a1.186,1.186,0,0,1,.406-.927,1.527,1.527,0,0,1,1.055-.362,1.527,1.527,0,0,1,1.055.362,1.186,1.186,0,0,1,.406.927,1.186,1.186,0,0,1-.406.927,1.527,1.527,0,0,1-1.055.362,1.527,1.527,0,0,1-1.055-.362A1.186,1.186,0,0,1,52.563-10.641ZM59.4-8.453l.086.992A2.867,2.867,0,0,1,61.9-8.609a2.412,2.412,0,0,1,1.973.789,3.757,3.757,0,0,1,.676,2.375V0H61.906V-5.336a1.426,1.426,0,0,0-.258-.941,1.193,1.193,0,0,0-.937-.3,1.256,1.256,0,0,0-1.148.609V0H56.93V-8.453ZM70.109,0V-11.375H74.2a5.786,5.786,0,0,1,3.34.8A2.677,2.677,0,0,1,78.68-8.234a2.706,2.706,0,0,1-.406,1.508,2.367,2.367,0,0,1-1.2.922,2.4,2.4,0,0,1,1.367.875,2.544,2.544,0,0,1,.477,1.563A3.012,3.012,0,0,1,77.863-.855,5.038,5.038,0,0,1,74.727,0Zm2.742-4.836v2.727h1.8a1.709,1.709,0,0,0,1.141-.34,1.189,1.189,0,0,0,.4-.957,1.261,1.261,0,0,0-1.414-1.43Zm0-1.8h1.43a2.031,2.031,0,0,0,1.281-.329,1.168,1.168,0,0,0,.383-.948,1.226,1.226,0,0,0-.414-1.038A2.216,2.216,0,0,0,74.2-9.266H72.852ZM83.38,5H81.84V.1L80.327.539V-.628l2.912-1.007h.141Z" transform="translate(1131.37 2578.592)" fill="#12263f"/>
  </g>
</svg>
