<svg xmlns="http://www.w3.org/2000/svg" width="120.408" height="114.742" viewBox="0 0 120.408 114.742">
  <g id="Grupo_1103025" data-name="Grupo 1103025" transform="translate(-180 -1090.401)">
    <rect id="Rectángulo_402895" data-name="Rectángulo 402895" width="120.408" height="114.742" transform="translate(180 1090.401)" fill="#ebf8fa"/>
    <g id="Grupo_1103777" data-name="Grupo 1103777" transform="translate(148.772 1078.391)">
      <path id="Trazado_915141" data-name="Trazado 915141" d="M108.521,35.923l42.032,24.268a1.353,1.353,0,0,1,.679,1.174h.006V109.92a1.36,1.36,0,0,1-.795,1.237L108.5,135.372a1.353,1.353,0,0,1-1.367-.01L65.1,111.094a1.353,1.353,0,0,1-.679-1.174h-.006V61.365a1.36,1.36,0,0,1,.795-1.237l41.941-24.215a1.353,1.353,0,0,1,1.367.01Zm40,26.219L107.828,38.65,67.137,62.143v47l40.691,23.493,40.691-23.493Z" transform="translate(-15.243 -15.262)" fill="#d5d4d3" fill-rule="evenodd"/>
      <path id="Trazado_915142" data-name="Trazado 915142" d="M50.534,88.834a5.825,5.825,0,1,1-5.825,5.825A5.825,5.825,0,0,1,50.534,88.834Zm0-48.556A5.825,5.825,0,1,1,44.709,46.1a5.825,5.825,0,0,1,5.825-5.825ZM92.585,16a5.825,5.825,0,1,1-5.825,5.825A5.825,5.825,0,0,1,92.585,16Zm42.051,24.278A5.825,5.825,0,1,1,128.81,46.1a5.825,5.825,0,0,1,5.825-5.825Zm0,48.556a5.825,5.825,0,1,1-5.825,5.825A5.825,5.825,0,0,1,134.635,88.834ZM92.585,113.112a5.825,5.825,0,1,1-5.825,5.825A5.825,5.825,0,0,1,92.585,113.112Z" fill="#fece85" fill-rule="evenodd"/>
      <g id="Grupo_1103776" data-name="Grupo 1103776" transform="translate(59.804 37.601)">
        <path id="Trazado_915143" data-name="Trazado 915143" d="M162.625,131.318v20.874l14.76-14.76,4.321,4.321-14.76,14.76h20.874v6.112H166.947l14.76,14.76-4.321,4.321-14.76-14.76v20.874h-6.112V166.947l-14.76,14.76-4.321-4.321,14.76-14.76H131.318v-6.112h20.874l-14.76-14.76,4.321-4.321,14.76,14.76V131.318Z" transform="translate(-126.789 -126.789)" fill="#ee6161" fill-rule="evenodd"/>
        <circle id="Elipse_11540" data-name="Elipse 11540" cx="19.001" cy="19.001" r="19.001" transform="translate(13.779 13.779)" fill="#f79595"/>
        <g id="Grupo_1103775" data-name="Grupo 1103775" transform="translate(0 0)">
          <path id="Trazado_915144" data-name="Trazado 915144" d="M120.931,120.931c2.2-2.2,5.079-2.892,6.429-1.543s.658,4.227-1.543,6.429-5.079,2.892-6.429,1.543S118.73,123.132,120.931,120.931Zm23.179-9.6c3.113,0,5.637,1.547,5.637,3.455s-2.524,3.455-5.637,3.455-5.637-1.547-5.637-3.455S141,111.33,144.11,111.33Zm23.179,9.6c2.2,2.2,2.892,5.079,1.543,6.429s-4.227.658-6.429-1.543-2.892-5.079-1.543-6.429S165.088,118.73,167.29,120.931Zm9.6,23.179c0,3.113-1.547,5.637-3.455,5.637s-3.455-2.524-3.455-5.637,1.547-5.637,3.455-5.637S176.891,141,176.891,144.11Zm-9.6,23.179c-2.2,2.2-5.079,2.892-6.428,1.543S160.2,164.6,162.4,162.4s5.079-2.892,6.429-1.543S169.491,165.088,167.29,167.29Zm-23.179,9.6c-3.113,0-5.637-1.547-5.637-3.455s2.524-3.455,5.637-3.455,5.637,1.547,5.637,3.455S147.223,176.891,144.11,176.891Zm-23.179-9.6c-2.2-2.2-2.892-5.079-1.543-6.428s4.227-.658,6.429,1.543,2.892,5.079,1.543,6.429S123.132,169.491,120.931,167.29Zm-9.6-23.179c0-3.113,1.547-5.637,3.455-5.637s3.455,2.524,3.455,5.637-1.547,5.637-3.455,5.637S111.33,147.223,111.33,144.11Z" transform="translate(-111.33 -111.33)" fill="#f47c7c" fill-rule="evenodd"/>
          <path id="Trazado_915145" data-name="Trazado 915145" d="M217.344,206.821a2.548,2.548,0,1,1-2.548,2.548A2.548,2.548,0,0,1,217.344,206.821Zm16.853,4.146a3.941,3.941,0,1,1-3.941,3.941A3.941,3.941,0,0,1,234.2,210.967Zm-14.132,7.856a5.416,5.416,0,1,1-5.416,5.416A5.416,5.416,0,0,1,220.065,218.823Z" transform="translate(-191.238 -185.184)" fill="#f47c7c" fill-rule="evenodd"/>
        </g>
      </g>
    </g>
  </g>
</svg>
