<svg xmlns="http://www.w3.org/2000/svg" width="295" height="211" viewBox="0 0 295 211">
  <g id="Grupo_1103873" data-name="Grupo 1103873" transform="translate(-704.5 -1807.77)">
    <g id="Grupo_1103026" data-name="Grupo 1103026" transform="translate(104.244 1403.77)">
      <rect id="Rectángulo_35929" data-name="Rectángulo 35929" width="295" height="211" transform="translate(600.256 404)" fill="#ffeed2"/>
    </g>
    <g id="Grupo_1103781" data-name="Grupo 1103781" transform="translate(943.839 1815.753) rotate(90)">
      <g id="Grupo_1103778" data-name="Grupo 1103778" transform="translate(12.382 0)">
        <path id="Trazado_915146" data-name="Trazado 915146" d="M284.215,139.835a11.6,11.6,0,0,0-16.094,3.3L248.9,172.31a11.651,11.651,0,0,0,1.11,14.247l2.37,1.593c5.371,3.538,12.389-1.4,15.927-6.776l19.22-29.176.4-8.305a11.627,11.627,0,0,0-3.71-4.058Z" transform="translate(-164.269 -89.286)" fill="#b8eb7c"/>
        <path id="Trazado_915147" data-name="Trazado 915147" d="M60.592,119.129l-4.421-19.9L50.79,94.777A5.785,5.785,0,0,0,46.4,101.71l4.421,19.9a5.8,5.8,0,0,0,1.338,2.613l3.9.569C59.2,124.09,61.29,122.268,60.592,119.129Z" transform="translate(-34.318 -61.362)" fill="#b8eb7c"/>
        <path id="Trazado_915148" data-name="Trazado 915148" d="M146.4,134.324l-7.949,6.312a5.823,5.823,0,0,0-.939,8.181l16.6-9.718Z" transform="translate(-92.581 -86.966)" fill="#b8eb7c"/>
        <path id="Trazado_915149" data-name="Trazado 915149" d="M350.679,344.385l-3.012-2.6a5.844,5.844,0,0,0-1.413.159l-19.829,4.709a5.823,5.823,0,0,0-4.32,7.011c.02.085.042.17.066.253l4.948,2.535,19.829-4.709C350.076,351,351.421,347.514,350.679,344.385Z" transform="translate(-212.805 -221.286)" fill="#b8eb7c"/>
        <path id="Trazado_915150" data-name="Trazado 915150" d="M174.913,283.337a5.823,5.823,0,0,0-.641,8.21l6.6,7.714,8.611-2.336Z" transform="translate(-116.291 -183.443)" fill="#b8eb7c"/>
        <path id="Trazado_915151" data-name="Trazado 915151" d="M417.666,226.318a5.823,5.823,0,0,0-6.349,5.244l-.963,10.1,8.379,4.211.963-10.1Z" transform="translate(-270.044 -146.509)" fill="#b8eb7c"/>
        <path id="Trazado_915152" data-name="Trazado 915152" d="M273.405,38.837a5.823,5.823,0,0,0,.358,8.227L278.056,51l7.961-3.631Z" transform="translate(-180.388 -25.144)" fill="#b8eb7c"/>
        <path id="Trazado_915153" data-name="Trazado 915153" d="M49.944,465.84l-3.8-4.411a5.823,5.823,0,0,1,.609-8.212c2.436-2.1,5.243,1.431,5.243,1.431l6.635,8.7Z" transform="translate(-33.326 -292.998)" fill="#b8eb7c"/>
        <path id="Trazado_915154" data-name="Trazado 915154" d="M196.1,416.7l-29.176-19.22L156.538,395.2a11.65,11.65,0,0,0-.992,20.039l29.176,19.22a11.639,11.639,0,0,0,3.382,1.524,13.858,13.858,0,0,0,10.481-4.843c4.34-4.747,2.883-10.9-2.489-14.442Z" transform="translate(-101.679 -255.865)" fill="#b8eb7c"/>
        <path id="Trazado_915155" data-name="Trazado 915155" d="M375,1.922A11.646,11.646,0,0,0,358.872,5.24l-19.22,29.176a11.651,11.651,0,0,0,1.11,14.247l2.37,1.593c5.371,3.538,12.389-1.4,15.927-6.776L378.28,14.3l.469-8.371A11.6,11.6,0,0,0,375,1.922Z" transform="translate(-223.025 0)" fill="#b8eb7c"/>
        <path id="Trazado_915156" data-name="Trazado 915156" d="M80.228,207.809l-4.421-19.9-5.346-4.471a5.823,5.823,0,0,0-4.421,6.948l4.421,19.9A5.8,5.8,0,0,0,71.8,212.9l3.9.569c3.139-.7,5.228-2.519,4.531-5.659Z" transform="translate(-47.032 -118.768)" fill="#b8eb7c"/>
        <path id="Trazado_915157" data-name="Trazado 915157" d="M439.06,323.343l-3.012-2.6a5.846,5.846,0,0,0-1.413.159l-19.829,4.709a5.823,5.823,0,0,0-4.32,7.011c.02.085.042.17.066.253l4.948,2.535,19.829-4.709C438.457,329.96,439.8,326.471,439.06,323.343Z" transform="translate(-270.026 -207.662)" fill="#b8eb7c"/>
        <path id="Trazado_915158" data-name="Trazado 915158" d="M215.09,330.323a5.823,5.823,0,0,0-.641,8.21l6.6,7.714,8.611-2.336Z" transform="translate(-142.303 -213.864)" fill="#b8eb7c"/>
        <path id="Trazado_915159" data-name="Trazado 915159" d="M194.82,95.881l-7.949,6.312a5.823,5.823,0,0,0-.939,8.181l16.6-9.718Z" transform="translate(-123.927 -62.077)" fill="#b8eb7c"/>
        <path id="Trazado_915160" data-name="Trazado 915160" d="M423.534,164.776a5.823,5.823,0,0,0-6.349,5.244l-.963,10.1,8.379,4.211.963-10.1Z" transform="translate(-273.843 -106.665)" fill="#b8eb7c"/>
        <path id="Trazado_915161" data-name="Trazado 915161" d="M236.881,5.356a5.823,5.823,0,0,0,.358,8.227l4.292,3.935,7.961-3.631Z" transform="translate(-156.741 -3.468)" fill="#b8eb7c"/>
        <path id="Trazado_915162" data-name="Trazado 915162" d="M17.6,428.308l-3.8-4.411a5.823,5.823,0,0,1,.609-8.212c2.436-2.1,5.243,1.431,5.243,1.431l6.635,8.7Z" transform="translate(-12.382 -268.698)" fill="#b8eb7c"/>
      </g>
      <path id="Trazado_915163" data-name="Trazado 915163" d="M355.294,459.3a2.911,2.911,0,0,1-2.059-4.97l4.117-4.118a2.911,2.911,0,1,1,4.117,4.117l-4.117,4.118A2.9,2.9,0,0,1,355.294,459.3Z" transform="translate(-220.129 -290.93)" fill="#dbf180"/>
      <path id="Trazado_915164" data-name="Trazado 915164" d="M390.326,424.26a2.911,2.911,0,0,1-2.059-4.97l4.117-4.118a2.911,2.911,0,0,1,4.117,4.117l-4.117,4.118A2.9,2.9,0,0,1,390.326,424.26Z" transform="translate(-242.81 -268.246)" fill="#dbf180"/>
      <path id="Trazado_915165" data-name="Trazado 915165" d="M340.5,296.78a2.91,2.91,0,0,1-2.616-4.182l2.542-5.239a2.911,2.911,0,1,1,5.237,2.542l-2.542,5.239A2.909,2.909,0,0,1,340.5,296.78Z" transform="translate(-210.552 -184.985)" fill="#dbf180"/>
      <path id="Trazado_915166" data-name="Trazado 915166" d="M362.129,252.2a2.91,2.91,0,0,1-2.616-4.182l2.542-5.239a2.911,2.911,0,1,1,5.237,2.542l-2.542,5.239A2.909,2.909,0,0,1,362.129,252.2Z" transform="translate(-224.556 -156.123)" fill="#dbf180"/>
      <path id="Trazado_915167" data-name="Trazado 915167" d="M155.676,218.993a2.912,2.912,0,0,1-.785-5.716L160.5,211.7a2.912,2.912,0,0,1,1.575,5.607l-5.607,1.574A2.932,2.932,0,0,1,155.676,218.993Z" transform="translate(-90.89 -136.995)" fill="#dbf180"/>
      <path id="Trazado_915168" data-name="Trazado 915168" d="M203.377,205.6a2.912,2.912,0,0,1-.785-5.716L208.2,198.3a2.912,2.912,0,1,1,1.575,5.607l-5.607,1.575A2.932,2.932,0,0,1,203.377,205.6Z" transform="translate(-121.773 -128.321)" fill="#dbf180"/>
      <path id="Trazado_915169" data-name="Trazado 915169" d="M24.286,242.14a2.909,2.909,0,0,1-2.869-2.439l-.944-5.746a2.91,2.91,0,1,1,5.743-.944l.944,5.746a2.91,2.91,0,0,1-2.4,3.345,2.982,2.982,0,0,1-.475.038Z" transform="translate(-5.213 -149.281)" fill="#dbf180"/>
      <path id="Trazado_915170" data-name="Trazado 915170" d="M16.239,193.249a2.909,2.909,0,0,1-2.869-2.438l-.947-5.746a2.91,2.91,0,1,1,5.743-.947l.947,5.746a2.912,2.912,0,0,1-2.4,3.347A2.98,2.98,0,0,1,16.239,193.249Z" transform="translate(-0.001 -117.627)" fill="#dbf180"/>
      <path id="Trazado_915171" data-name="Trazado 915171" d="M157.268,34.023a2.911,2.911,0,0,1-2.334-4.646L158.4,24.7a2.91,2.91,0,1,1,4.674,3.469l-3.469,4.677a2.9,2.9,0,0,1-2.34,1.177Z" transform="translate(-91.922 -15.231)" fill="#dbf180"/>
      <path id="Trazado_915172" data-name="Trazado 915172" d="M127.752,73.822a2.911,2.911,0,0,1-2.334-4.646l3.469-4.677a2.91,2.91,0,1,1,4.674,3.469l-3.469,4.677A2.9,2.9,0,0,1,127.752,73.822Z" transform="translate(-72.812 -40.998)" fill="#dbf180"/>
      <path id="Trazado_915173" data-name="Trazado 915173" d="M208.981,412.57l-29.176-19.22a11.692,11.692,0,0,0-11.821-.588l31.986,21.073a11.646,11.646,0,0,1,3.319,16.132h0a11.768,11.768,0,0,1-3.739,3.578,11.648,11.648,0,0,0,9.432-20.975Z" transform="translate(-100.742 -253.431)" fill="#98db7c"/>
      <g id="Grupo_1103779" data-name="Grupo 1103779" transform="translate(98.124 54.607)">
        <path id="Trazado_915174" data-name="Trazado 915174" d="M293.493,154.886l-24.987,37.93a11.607,11.607,0,0,1-12.928,4.734,11.511,11.511,0,0,0,18.3-1.414l19.22-29.176a11.6,11.6,0,0,0,.391-12.073Z" transform="translate(-255.578 -154.886)" fill="#98db7c"/>
      </g>
      <g id="Grupo_1103780" data-name="Grupo 1103780" transform="translate(130.12 5.934)">
        <path id="Trazado_915175" data-name="Trazado 915175" d="M384.318,16.832,359.3,54.808a11.671,11.671,0,0,1-12.965,4.754,11.656,11.656,0,0,0,18.341-1.434l19.22-29.176a11.69,11.69,0,0,0,.425-12.12Z" transform="translate(-346.332 -16.832)" fill="#98db7c"/>
      </g>
      <path id="Trazado_915176" data-name="Trazado 915176" d="M353.677,346.248a5.812,5.812,0,0,0-5.6-4.46c.006.025.019.047.025.073a5.824,5.824,0,0,1-4.32,7.011l-21.2,5.048a5.821,5.821,0,0,0,6.945,4.047l19.829-4.709A5.823,5.823,0,0,0,353.677,346.248Z" transform="translate(-200.836 -221.287)" fill="#98db7c"/>
      <path id="Trazado_915177" data-name="Trazado 915177" d="M442.059,325.224a5.829,5.829,0,0,0-5.6-4.479c.006.025.019.066.025.092a5.824,5.824,0,0,1-4.32,7.011l-21.2,5.029a5.833,5.833,0,0,0,6.945,4.066l19.829-4.709A5.823,5.823,0,0,0,442.059,325.224Z" transform="translate(-258.057 -207.663)" fill="#98db7c"/>
      <path id="Trazado_915178" data-name="Trazado 915178" d="M70.482,118.827l-4.421-19.9a5.823,5.823,0,0,0-6.948-4.421l-.01,0,5.053,22.739a5.8,5.8,0,0,1-3.68,6.7,5.8,5.8,0,0,0,10.005-5.128Z" transform="translate(-30.249 -61.1)" fill="#98db7c"/>
      <path id="Trazado_915179" data-name="Trazado 915179" d="M90.188,207.5l-4.421-19.9a5.823,5.823,0,0,0-6.948-4.421l-.01,0,5.053,22.739a5.834,5.834,0,0,1-3.705,6.714,5.824,5.824,0,0,0,10.031-5.14Z" transform="translate(-43.008 -118.512)" fill="#98db7c"/>
      <path id="Trazado_915180" data-name="Trazado 915180" d="M423.484,164.824l-.964,10.1a5.823,5.823,0,0,1-6.349,5.244,5.823,5.823,0,1,0,11.593,1.105l.963-10.1A5.823,5.823,0,0,0,423.484,164.824Z" transform="translate(-261.411 -106.714)" fill="#98db7c"/>
      <path id="Trazado_915181" data-name="Trazado 915181" d="M417.617,226.367l-.964,10.1a5.823,5.823,0,0,1-6.349,5.244,5.823,5.823,0,1,0,11.593,1.105l.963-10.1A5.823,5.823,0,0,0,417.617,226.367Z" transform="translate(-257.613 -146.559)" fill="#98db7c"/>
      <path id="Trazado_915182" data-name="Trazado 915182" d="M193.463,289.125l-6.6-7.714a5.823,5.823,0,0,0-8.21-.641l6.6,7.714a5.823,5.823,0,0,1-.641,8.21,5.823,5.823,0,0,0,8.851-7.568Z" transform="translate(-107.652 -180.876)" fill="#98db7c"/>
      <path id="Trazado_915183" data-name="Trazado 915183" d="M233.641,336.111l-6.6-7.714a5.823,5.823,0,0,0-8.21-.641l6.6,7.714a5.823,5.823,0,0,1-.641,8.21,5.823,5.823,0,1,0,8.851-7.568Z" transform="translate(-133.665 -211.297)" fill="#98db7c"/>
      <path id="Trazado_915184" data-name="Trazado 915184" d="M30.131,419.336l-3.8-4.411a5.823,5.823,0,0,0-8.212-.609l3.8,4.411a5.823,5.823,0,0,1-.609,8.212,5.823,5.823,0,0,0,8.821-7.6Z" transform="translate(-3.713 -267.329)" fill="#98db7c"/>
      <path id="Trazado_915185" data-name="Trazado 915185" d="M62.478,456.868l-3.8-4.411a5.823,5.823,0,0,0-8.212-.609l3.8,4.411a5.823,5.823,0,0,1-.609,8.212,5.823,5.823,0,1,0,8.821-7.6Z" transform="translate(-24.655 -291.63)" fill="#98db7c"/>
      <path id="Trazado_915186" data-name="Trazado 915186" d="M252.211,5.466l-4.292-3.935a5.822,5.822,0,0,0-8.227.358l4.292,3.935a5.823,5.823,0,0,1,.358,8.227,5.823,5.823,0,1,0,7.869-8.585Z" transform="translate(-147.169 0)" fill="#98db7c"/>
      <path id="Trazado_915187" data-name="Trazado 915187" d="M288.736,38.947l-4.292-3.935a5.822,5.822,0,0,0-8.227.358l4.292,3.935a5.823,5.823,0,0,1,.358,8.227,5.823,5.823,0,0,0,7.869-8.585Z" transform="translate(-170.816 -21.677)" fill="#98db7c"/>
      <path id="Trazado_915188" data-name="Trazado 915188" d="M156.905,132.944a5.823,5.823,0,0,0-8.181-.939,5.823,5.823,0,0,1-.939,8.181l-7.949,6.312a5.823,5.823,0,0,0,8.181.939l7.949-6.312A5.823,5.823,0,0,0,156.905,132.944Z" transform="translate(-82.518 -84.647)" fill="#98db7c"/>
      <path id="Trazado_915189" data-name="Trazado 915189" d="M205.32,94.5a5.823,5.823,0,0,0-8.181-.939,5.823,5.823,0,0,1-.939,8.181l-7.949,6.312a5.823,5.823,0,0,0,8.181.939l7.949-6.312A5.822,5.822,0,0,0,205.32,94.5Z" transform="translate(-113.864 -59.758)" fill="#98db7c"/>
      <path id="Trazado_915190" data-name="Trazado 915190" d="M58.173,325.837,29,306.616l-10.382-2.278a11.65,11.65,0,0,0-.992,20.039L46.8,343.6a11.639,11.639,0,0,0,3.382,1.524,13.858,13.858,0,0,0,10.481-4.843C65,335.531,63.545,329.375,58.173,325.837Z" transform="translate(0 -197.04)" fill="#b8eb7c"/>
      <path id="Trazado_915191" data-name="Trazado 915191" d="M71.057,321.71,41.881,302.49A11.692,11.692,0,0,0,30.06,301.9l31.986,21.073a11.646,11.646,0,0,1,3.319,16.132h0a11.767,11.767,0,0,1-3.739,3.578,11.648,11.648,0,0,0,9.432-20.974Z" transform="translate(-11.445 -194.605)" fill="#98db7c"/>
    </g>
  </g>
</svg>
