<svg xmlns="http://www.w3.org/2000/svg" xmlns:xlink="http://www.w3.org/1999/xlink" width="420" height="318.233" viewBox="0 0 420 318.233">
  <defs>
    <clipPath id="clip-path">
      <rect id="Rectángulo_404471" data-name="Rectángulo 404471" width="313.983" height="293.869" fill="none"/>
    </clipPath>
    <clipPath id="clip-path-5">
      <rect id="Rectángulo_404454" data-name="Rectángulo 404454" width="43.459" height="3.783" fill="none"/>
    </clipPath>
    <clipPath id="clip-path-6">
      <rect id="Rectángulo_404455" data-name="Rectángulo 404455" width="43.453" height="3.521" fill="none"/>
    </clipPath>
    <clipPath id="clip-path-7">
      <rect id="Rectángulo_404456" data-name="Rectángulo 404456" width="57.907" height="11.431" fill="none"/>
    </clipPath>
    <clipPath id="clip-path-8">
      <rect id="Rectángulo_404457" data-name="Rectángulo 404457" width="9.702" height="46.756" fill="none"/>
    </clipPath>
    <clipPath id="clip-path-9">
      <rect id="Rectángulo_404458" data-name="Rectángulo 404458" width="4.108" height="25.47" fill="none"/>
    </clipPath>
  </defs>
  <g id="Grupo_1103863" data-name="Grupo 1103863" transform="translate(-180 -5740.353)">
    <rect id="Rectángulo_403019" data-name="Rectángulo 403019" width="420" height="318.233" transform="translate(180 5740.353)" fill="#f6f0ca"/>
    <g id="Grupo_1103043" data-name="Grupo 1103043" transform="translate(-467.835 -2496.879)">
      <g id="Grupo_133605" data-name="Grupo 133605" transform="translate(649.835 8254.821)">
        <g id="Grupo_133604" data-name="Grupo 133604" transform="translate(0 21.536)">
          <path id="Trazado_126504" data-name="Trazado 126504" d="M97.288,294.725S119.969,263.408,179.9,269.4s53.334,33.316,94.825,31.984,86.661-20.656,123.514,17.294c42.753,44.027-30.3,81.472-1.288,108.377,51.988,48.2,0,105.023-116.1,94.236C184.558,512.351,183.7,499.8,127.8,515S21.092,474.073,41.4,430.129s71.908-27.186,47.728-63.071S97.288,294.725,97.288,294.725Z" transform="translate(-36.834 -268.641)" fill="#fcd189"/>
          <path id="Trazado_126505" data-name="Trazado 126505" d="M28.839,50.917a4.836,4.836,0,0,0,2.8-.065,4.118,4.118,0,0,0,1.866-1.983c2.532-4.844.644-10.866-2.317-15.46s-6.963-8.557-9.152-13.564c-1.847-4.23-2.3-8.986-4.311-13.137S11.182-1.063,6.767.288c-9.9,3.026-6.8,23.626-3.98,30.8C6.756,41.189,18.527,48.958,28.839,50.917Z" transform="translate(382.879 107.946) rotate(39)" fill="#fcd189"/>
          <path id="Trazado_126506" data-name="Trazado 126506" d="M28.839,50.917a4.837,4.837,0,0,0,2.8-.065,4.118,4.118,0,0,0,1.866-1.983c2.532-4.844.644-10.866-2.317-15.46s-6.963-8.557-9.152-13.564c-1.847-4.23-2.3-8.986-4.311-13.137S11.182-1.063,6.767.288c-9.9,3.026-6.8,23.626-3.98,30.8C6.756,41.189,18.527,48.958,28.839,50.917Z" transform="matrix(0.988, -0.156, 0.156, 0.988, 7.721, 70.184)" fill="#fcd189"/>
        </g>
        <g id="Grupo_1103612" data-name="Grupo 1103612" transform="translate(42.051 1.595)">
          <g id="Grupo_1103611" data-name="Grupo 1103611" transform="translate(0 0)" clip-path="url(#clip-path)">
            <g id="Grupo_1103591" data-name="Grupo 1103591">
              <g id="Grupo_1103590" data-name="Grupo 1103590" clip-path="url(#clip-path)">
                <path id="Trazado_914610" data-name="Trazado 914610" d="M399.647,303.664a25.118,25.118,0,0,0-6.682-16.6c-2.021,8.329,6.682,16.6,6.682,16.6" transform="translate(-365.63 -82.389)" fill="#ebebeb"/>
                <path id="Trazado_914611" data-name="Trazado 914611" d="M424.152,302.987a25.12,25.12,0,0,0-17.885-.495c6.829,5.174,17.885.495,17.885.495" transform="translate(-399.836 -86.41)" fill="#ebebeb"/>
                <path id="Trazado_914612" data-name="Trazado 914612" d="M410.589,290.59a19.8,19.8,0,0,0-2.433-13.9c-2.928,6.1,2.433,13.9,2.433,13.9" transform="translate(-387.377 -79.41)" fill="#ebebeb"/>
                <path id="Trazado_914613" data-name="Trazado 914613" d="M376.99,268.879c-14.18,3.775-21.787,16.1-21.787,16.1,12.12.008,21.787-16.1,21.787-16.1" transform="translate(-316.266 -77.169)" fill="#ebebeb"/>
                <path id="Trazado_914614" data-name="Trazado 914614" d="M401.132,263.913c.737-15.285-14.2-32.584-14.2-32.584,2.256,18.979,14.2,32.584,14.2,32.584" transform="translate(-363.056 -66.392)" fill="#ebebeb"/>
                <path id="Trazado_914615" data-name="Trazado 914615" d="M378.854,215.977a40.945,40.945,0,0,0,5.371,21.893c2.11-9.832-5.371-21.893-5.371-21.893" transform="translate(-340.705 -61.986)" fill="#ebebeb"/>
                <path id="Trazado_914616" data-name="Trazado 914616" d="M354.587,254.572c11.175-1.2,17.255-12.317,17.255-12.317-13.515,3.787-17.255,12.317-17.255,12.317" transform="translate(-310.678 -69.528)" fill="#ebebeb"/>
                <path id="Trazado_914617" data-name="Trazado 914617" d="M362.551,323.553a25.118,25.118,0,0,0-17.57-3.384c5.9,6.211,17.57,3.384,17.57,3.384" transform="translate(-294.538 -91.78)" fill="#ebebeb"/>
                <path id="Trazado_914618" data-name="Trazado 914618" d="M375.064,332.1a16.445,16.445,0,0,0,7.509,8.46c-.478-5.157-7.509-8.46-7.509-8.46" transform="translate(-336.01 -95.315)" fill="#ebebeb"/>
                <path id="Trazado_914619" data-name="Trazado 914619" d="M364.835,329.6a19.844,19.844,0,0,0,13.365,2.385c-4.3-4.483-13.365-2.385-13.365-2.385" transform="translate(-324.343 -94.455)" fill="#ebebeb"/>
                <path id="Trazado_914620" data-name="Trazado 914620" d="M374.539,323.765a.8.8,0,0,0,.022-.227c0-.18.009-.4.014-.667q0-.942.006-2.562c-.011-1.112-.011-2.472.023-4.051s.029-3.377.113-5.363c.1-3.974.378-8.7.784-13.938.455-5.234,1.089-10.977,1.965-16.977,1.766-12,4.179-22.733,6.118-30.44.978-3.854,1.8-6.965,2.4-9.1q.421-1.563.667-2.473l.161-.647a.747.747,0,0,0,.038-.225.77.77,0,0,0-.087.21l-.21.632-.758,2.448c-.66,2.125-1.536,5.224-2.558,9.07a282.8,282.8,0,0,0-6.272,30.456c-.877,6.011-1.5,11.767-1.93,17.013-.381,5.25-.627,9.985-.678,13.966-.061,1.99-.041,3.79-.039,5.371s.022,2.943.063,4.055q.056,1.618.089,2.561c.014.267.026.486.036.666a.776.776,0,0,0,.029.226" transform="translate(-339.76 -68.046)" fill="#e0e0e0"/>
                <path id="Trazado_914621" data-name="Trazado 914621" d="M382.72,313.277c-.078-.114-4.595,2.846-10.087,6.61s-9.884,6.911-9.806,7.025,4.595-2.845,10.089-6.611,9.883-6.91,9.8-7.024" transform="translate(-327.432 -89.91)" fill="#e0e0e0"/>
                <path id="Trazado_914622" data-name="Trazado 914622" d="M409.69,308.372a4.081,4.081,0,0,0-.694-.759l-2.011-1.937-6.716-6.3-6.718-6.3-2.035-1.909a4.059,4.059,0,0,0-.79-.659,4.033,4.033,0,0,0,.651.8c.441.493,1.1,1.181,1.927,2.026,1.653,1.683,3.992,3.954,6.622,6.411s5.047,4.639,6.82,6.2c.886.778,1.611,1.4,2.119,1.82a4.054,4.054,0,0,0,.825.615" transform="translate(-374.294 -83.377)" fill="#e0e0e0"/>
                <path id="Trazado_914623" data-name="Trazado 914623" d="M359.138,303.119s-11.548-.22-16.433,8.87a20.8,20.8,0,0,0,16.433-8.87" transform="translate(-289.503 -86.996)" fill="#ebebeb"/>
                <path id="Trazado_914624" data-name="Trazado 914624" d="M372.89,296.617s-9.4,6.707-7.907,16.918a20.8,20.8,0,0,0,7.907-16.918" transform="translate(-319.026 -85.13)" fill="#ebebeb"/>
                <path id="Trazado_914625" data-name="Trazado 914625" d="M412.553,273.438s3.71,12.927,15.5,15.25a24.22,24.22,0,0,0-15.5-15.25" transform="translate(-408.219 -78.477)" fill="#ebebeb"/>
                <path id="Trazado_914626" data-name="Trazado 914626" d="M370.861,206.033s-14.734,9.61-13.1,25.243a31.679,31.679,0,0,0,13.1-25.243" transform="translate(-311.868 -59.132)" fill="#ebebeb"/>
                <path id="Trazado_914627" data-name="Trazado 914627" d="M397.564,325.931a5.742,5.742,0,0,0,.957.767c.637.461,1.544,1.148,2.643,2.021a64.607,64.607,0,0,1,14.578,16.233c.749,1.186,1.336,2.162,1.725,2.845a5.81,5.81,0,0,0,.66,1.033,5.723,5.723,0,0,0-.488-1.126c-.338-.713-.879-1.72-1.595-2.937a56.267,56.267,0,0,0-14.664-16.329c-1.134-.841-2.077-1.488-2.75-1.9a5.736,5.736,0,0,0-1.067-.606" transform="translate(-387.609 -93.542)" fill="#e0e0e0"/>
                <path id="Trazado_914628" data-name="Trazado 914628" d="M411.553,332.323a25.121,25.121,0,0,0-3.383-17.569c-1.584,10.956,3.383,17.569,3.383,17.569" transform="translate(-388.777 -90.335)" fill="#ebebeb"/>
                <path id="Trazado_914629" data-name="Trazado 914629" d="M435.194,330.849a18.275,18.275,0,0,0-12.861-1.994c7.114,3.772,12.861,1.994,12.861,1.994" transform="translate(-422.333 -94.267)" fill="#ebebeb"/>
                <path id="Trazado_914630" data-name="Trazado 914630" d="M406.561,360.34l-5.528,36.328H368.917l-7.454-35.8Z" transform="translate(-350.3 -103.418)" fill="#ebebeb"/>
                <path id="Trazado_914631" data-name="Trazado 914631" d="M366.861,392.919c0,.1,8.229.188,18.379.188s18.38-.084,18.38-.188-8.227-.188-18.38-.188-18.379.084-18.379.188" transform="translate(-351.207 -112.715)" fill="#fafafa"/>
                <path id="Trazado_914632" data-name="Trazado 914632" d="M366.686,390.413c0,.1,8.285.188,18.5.188s18.505-.084,18.505-.188-8.284-.188-18.505-.188-18.5.084-18.5.188" transform="translate(-351.157 -111.995)" fill="#fafafa"/>
                <path id="Trazado_914633" data-name="Trazado 914633" d="M366.6,387.583c0,.1,8.285.188,18.5.188s18.505-.084,18.505-.188-8.284-.188-18.505-.188-18.5.084-18.5.188" transform="translate(-351.004 -111.183)" fill="#fafafa"/>
                <path id="Trazado_914634" data-name="Trazado 914634" d="M372.139,404.676a57.941,57.941,0,0,0,1.6-9.213,58.2,58.2,0,0,0-1.6,9.213" transform="translate(-325.095 -113.499)" fill="#fafafa"/>
                <path id="Trazado_914635" data-name="Trazado 914635" d="M376.643,404.245a105.569,105.569,0,0,0,.607-8.939,35.691,35.691,0,0,0-.607,8.939" transform="translate(-331.783 -113.454)" fill="#fafafa"/>
                <path id="Trazado_914636" data-name="Trazado 914636" d="M381.479,404.129a36.36,36.36,0,0,0,1.08-9.221,135.967,135.967,0,0,0-1.08,9.221" transform="translate(-340.601 -113.34)" fill="#fafafa"/>
                <path id="Trazado_914637" data-name="Trazado 914637" d="M386.344,404.359a37.155,37.155,0,0,0,.3-9.318,130.826,130.826,0,0,0-.3,9.318" transform="translate(-348.262 -113.378)" fill="#fafafa"/>
                <path id="Trazado_914638" data-name="Trazado 914638" d="M393.443,404.285a51.994,51.994,0,0,0,.3-8.838,51.994,51.994,0,0,0-.3,8.838" transform="translate(-360.31 -113.494)" fill="#fafafa"/>
                <path id="Trazado_914639" data-name="Trazado 914639" d="M398.981,404.438a55.415,55.415,0,0,0-.074-9.127,55.415,55.415,0,0,0,.074,9.127" transform="translate(-369.461 -113.455)" fill="#fafafa"/>
                <path id="Trazado_914640" data-name="Trazado 914640" d="M404.63,403.6a60.627,60.627,0,0,0-.923-9.506,60.606,60.606,0,0,0,.923,9.506" transform="translate(-378.499 -113.107)" fill="#fafafa"/>
                <path id="Trazado_914641" data-name="Trazado 914641" d="M411.559,403.555a25.048,25.048,0,0,0-1.735-7.973,194.759,194.759,0,0,0,1.735,7.973" transform="translate(-389.798 -113.533)" fill="#fafafa"/>
                <path id="Trazado_914642" data-name="Trazado 914642" d="M408.153,350.251v6.8a2.676,2.676,0,0,1-2.676,2.676H358.97a2.676,2.676,0,0,1-2.676-2.676v-6.8Z" transform="translate(-348.206 -100.523)" fill="#ebebeb"/>
                <path id="Trazado_914643" data-name="Trazado 914643" d="M406.335,363.538l-.386,2.164-42.912,3.058-1.087-5.222Z" transform="translate(-350.421 -104.336)" fill="#e0e0e0"/>
              </g>
            </g>
            <g id="Grupo_1103593" data-name="Grupo 1103593">
              <g id="Grupo_1103592" data-name="Grupo 1103592" clip-path="url(#clip-path)">
                <path id="Trazado_914644" data-name="Trazado 914644" d="M0,411.2c0,.1,67.7.185,151.2.185,83.528,0,151.219-.083,151.219-.185s-67.691-.185-151.219-.185c-83.5,0-151.2.083-151.2.185" transform="translate(11.561 -117.962)" fill="#263238"/>
              </g>
            </g>
            <g id="Grupo_1103610" data-name="Grupo 1103610">
              <g id="Grupo_1103609" data-name="Grupo 1103609" clip-path="url(#clip-path)">
                <path id="Trazado_914645" data-name="Trazado 914645" d="M19,232.136H20.58a4.035,4.035,0,0,0,4.035-4.035V215.948H14.967V228.1A4.035,4.035,0,0,0,19,232.136" transform="translate(278.697 -61.978)" fill="#e0e0e0"/>
                <path id="Trazado_914646" data-name="Trazado 914646" d="M18.925,232.061a6.027,6.027,0,0,1-1.346-.3,4.036,4.036,0,0,1-1.358-.867,3.916,3.916,0,0,1-1.074-1.837,4.258,4.258,0,0,1-.13-1.253q.005-.679.011-1.414c.006-.982.012-2.034.019-3.147.007-2.237.016-4.718.024-7.368l-.18.181,5.611.005,4.036,0-.183-.183c.008,2.848.016,5.524.022,7.946.006,1.206.013,2.347.019,3.414a8.215,8.215,0,0,1-.058,1.509,3.973,3.973,0,0,1-.469,1.276,3.929,3.929,0,0,1-1.7,1.574,4,4,0,0,1-1.713.4l-1.138.032a1.761,1.761,0,0,0-.394.034,1.761,1.761,0,0,0,.394.034l1.138.031a4.034,4.034,0,0,0,1.794-.363,4.089,4.089,0,0,0,1.824-1.621,4.169,4.169,0,0,0,.522-1.351,8.3,8.3,0,0,0,.083-1.557c.006-1.067.012-2.208.019-3.414.006-2.422.014-5.1.022-7.946v-.183h-.184l-4.036,0-5.611.005h-.181v.18c.009,2.65.016,5.131.024,7.368.007,1.113.013,2.165.019,3.147q.005.734.011,1.414a4.457,4.457,0,0,0,.161,1.314,4.082,4.082,0,0,0,2.612,2.761,3.72,3.72,0,0,0,1.027.2,1.54,1.54,0,0,0,.361-.014" transform="translate(278.774 -61.903)" fill="#263238"/>
                <rect id="Rectángulo_404451" data-name="Rectángulo 404451" width="22.762" height="2.565" transform="translate(279.203 146.072)" fill="#455a64"/>
                <rect id="Rectángulo_404452" data-name="Rectángulo 404452" width="1.787" height="4.392" transform="translate(277.318 141.038)" fill="#e0e0e0"/>
                <path id="Trazado_914647" data-name="Trazado 914647" d="M48.812,202.127a9.642,9.642,0,0,0,.094-1.3c.034-.784.073-1.855.083-3.091l-.178.178,1.787.008c-.37-.371-.1-.1-.185-.184h0v.634c0,.209,0,.415,0,.618q.005.6.011,1.167c.015.708.029,1.368.041,1.971l.13-.13a14.515,14.515,0,0,0-1.787.13,10.516,10.516,0,0,0,1.787.13l.128,0,0-.135c.012-.6.026-1.263.041-1.971q.005-.566.011-1.167c0-.2,0-.409,0-.618v-.634h0c-.083-.083.186.184-.186-.187l-1.787.008h-.179v.177c.011,1.312.049,2.437.083,3.211a6.024,6.024,0,0,0,.094,1.181" transform="translate(228.505 -56.697)" fill="#263238"/>
                <path id="Trazado_914648" data-name="Trazado 914648" d="M48.252,203.08h1.241a3.172,3.172,0,0,1,3.172,3.172v2.207H45.08v-2.207a3.172,3.172,0,0,1,3.172-3.172" transform="translate(229.177 -58.284)" fill="#e0e0e0"/>
                <path id="Trazado_914649" data-name="Trazado 914649" d="M48.173,203.047c0-.01-.046-.017-.137-.021a1.918,1.918,0,0,0-.4.014,3.045,3.045,0,0,0-1.4.543,3.234,3.234,0,0,0-1.295,1.914,6.268,6.268,0,0,0-.1,1.408q-.005.732-.012,1.521v.171H45l4.412.014,3.173-.007h.18v-.178q-.005-.911-.011-1.762a4.008,4.008,0,0,0-.24-1.641,3.273,3.273,0,0,0-1.94-1.874,4.319,4.319,0,0,0-1.77-.163,2.506,2.506,0,0,0-.631.061,2.506,2.506,0,0,0,.631.061,4.689,4.689,0,0,1,1.69.252,3.075,3.075,0,0,1,1.734,1.774,3.719,3.719,0,0,1,.19,1.53q-.005.849-.011,1.762l.179-.178-3.173-.007L45,208.254l.172.172q-.006-.788-.012-1.521a6.178,6.178,0,0,1,.058-1.345,3.072,3.072,0,0,1,1.138-1.809,3.205,3.205,0,0,1,1.3-.6,3.87,3.87,0,0,0,.518-.1" transform="translate(229.255 -58.251)" fill="#263238"/>
                <path id="Trazado_914650" data-name="Trazado 914650" d="M40.553,214.765h0v-5.288h8.414v5.293h.543a7.735,7.735,0,0,1,7.735,7.735V332.7H32.818V222.233a7.552,7.552,0,0,1,7.735-7.469" transform="translate(233.339 -60.12)" fill="#33b9cb"/>
                <path id="Trazado_914651" data-name="Trazado 914651" d="M44.409,209.423a23.543,23.543,0,0,0,4.167.185,23.542,23.542,0,0,0,4.167-.185,23.547,23.547,0,0,0-4.167-.185,23.549,23.549,0,0,0-4.167.185" transform="translate(229.577 -60.052)" fill="#263238"/>
                <path id="Trazado_914652" data-name="Trazado 914652" d="M44.273,216.818A25.85,25.85,0,0,0,48.64,217a25.848,25.848,0,0,0,4.368-.185,25.848,25.848,0,0,0-4.368-.185,25.85,25.85,0,0,0-4.367.185" transform="translate(229.409 -62.174)" fill="#263238"/>
                <path id="Trazado_914653" data-name="Trazado 914653" d="M106.252,161.065V310.754H98.378V164.349a12.956,12.956,0,0,0-4.081-9.439L75.44,137.178l3.985-5.387L102,151.466a12.959,12.959,0,0,1,4.254,9.6" transform="translate(153.943 -37.824)" fill="#e0e0e0"/>
                <path id="Trazado_914654" data-name="Trazado 914654" d="M106.159,161s0-.234,0-.694a13.657,13.657,0,0,0-.256-2.033,13.233,13.233,0,0,0-1.107-3.166,13.078,13.078,0,0,0-2.771-3.679L79.406,131.639l-.092-.081-.073.1L75.25,137.04l-.064.086.078.073,10.122,9.538,5.487,5.168,2.843,2.679a13.544,13.544,0,0,1,2.537,3.017,12.735,12.735,0,0,1,1.529,3.717,15.5,15.5,0,0,1,.349,4.1q0,4.211-.006,8.583,0,8.742-.009,18.091c0,24.9-.011,52.788-.017,82.2,0,12.475,0,24.675,0,36.386v.183h8.238v-.181c-.026-42.94-.048-80.36-.065-107.052-.023-13.339-.041-24-.053-31.326-.014-3.658-.024-6.483-.031-8.4q-.011-1.428-.016-2.172c-.006-.488-.016-.737-.016-.737s-.011.25-.016.737-.009,1.22-.016,2.172c-.007,1.919-.017,4.744-.031,8.4-.012,7.33-.031,17.987-.053,31.326-.016,26.692-.039,64.111-.064,107.052l.18-.18H98.285l.183.182c0-11.712,0-23.911,0-36.386-.006-29.416-.012-57.3-.018-82.2q-.005-9.337-.009-18.091,0-4.372,0-8.583a15.811,15.811,0,0,0-.364-4.175,13.042,13.042,0,0,0-1.569-3.8,13.821,13.821,0,0,0-2.591-3.074L91.067,151.7q-2.816-2.642-5.5-5.158L75.43,137.023l.014.16,3.979-5.392-.165.019,22.683,19.707a13.026,13.026,0,0,1,2.771,3.631,13.4,13.4,0,0,1,1.128,3.136,14.544,14.544,0,0,1,.286,2.022c.018.458.034.692.034.692" transform="translate(154.036 -37.757)" fill="#263238"/>
                <path id="Trazado_914655" data-name="Trazado 914655" d="M113.517,144.4l-5.656,6.738L90.683,136.2a4.234,4.234,0,0,1,5.509-6.43Z" transform="translate(136.847 -36.957)" fill="#455a64"/>
                <path id="Trazado_914656" data-name="Trazado 914656" d="M15.453,192.879a4.817,4.817,0,1,0,4.818-4.818,4.818,4.818,0,0,0-4.818,4.818" transform="translate(277.878 -53.974)" fill="#455a64"/>
                <path id="Trazado_914657" data-name="Trazado 914657" d="M17.672,193.516a3.235,3.235,0,1,0,3.235-3.235,3.235,3.235,0,0,0-3.235,3.235" transform="translate(277.241 -54.611)" fill="#e0e0e0"/>
                <path id="Trazado_914658" data-name="Trazado 914658" d="M17.441,193.452c.036,0,.033-.288.171-.772a3.229,3.229,0,0,1,1.186-1.695,3.075,3.075,0,1,1,0,4.934,3.232,3.232,0,0,1-1.186-1.695c-.138-.484-.135-.774-.171-.772-.013,0-.022.071-.027.208a2.392,2.392,0,0,0,.058.6,3.223,3.223,0,0,0,1.166,1.869,3.356,3.356,0,0,0,3.2.523,3.394,3.394,0,0,0,0-6.4,3.356,3.356,0,0,0-3.2.523,3.219,3.219,0,0,0-1.166,1.868,2.4,2.4,0,0,0-.058.6c0,.137.014.208.027.208" transform="translate(277.472 -54.547)" fill="#263238"/>
                <rect id="Rectángulo_404453" data-name="Rectángulo 404453" width="2.519" height="8.807" transform="translate(297.052 142.724)" fill="#455a64"/>
                <path id="Trazado_914659" data-name="Trazado 914659" d="M14.472,215.293H24.825v-.54a2.762,2.762,0,0,0-2.762-2.762H17.234a2.762,2.762,0,0,0-2.762,2.762Z" transform="translate(278.839 -60.842)" fill="#455a64"/>
                <path id="Trazado_914660" data-name="Trazado 914660" d="M50.936,368.8a22.838,22.838,0,1,0,22.839-22.839A22.839,22.839,0,0,0,50.936,368.8" transform="translate(181.053 -99.291)" fill="#455a64"/>
                <path id="Trazado_914661" data-name="Trazado 914661" d="M61.747,371.9a15.13,15.13,0,1,0,15.13-15.13,15.13,15.13,0,0,0-15.13,15.13" transform="translate(177.951 -102.394)" fill="#e0e0e0"/>
                <path id="Trazado_914662" data-name="Trazado 914662" d="M75.7,375.242a5.074,5.074,0,1,0,5.074-5.074,5.074,5.074,0,0,0-5.074,5.074" transform="translate(174.156 -106.239)" fill="#263238"/>
                <path id="Trazado_914663" data-name="Trazado 914663" d="M18.218,211.813A9.858,9.858,0,0,0,20.9,212a9.858,9.858,0,0,0,2.683-.185,9.857,9.857,0,0,0-2.683-.185,9.857,9.857,0,0,0-2.683.185" transform="translate(277.41 -60.738)" fill="#263238"/>
                <path id="Trazado_914664" data-name="Trazado 914664" d="M43.385,198.482H52.1a1.123,1.123,0,0,0,0-2.247H43.385a1.123,1.123,0,1,0,0,2.247" transform="translate(230.628 -56.32)" fill="#e0e0e0"/>
                <path id="Trazado_914665" data-name="Trazado 914665" d="M43.224,198.407a1.374,1.374,0,0,1-.794-.436,1.049,1.049,0,0,1-.183-.98,1.019,1.019,0,0,1,1.035-.7c2.216.034,5.277.054,8.657.054a.941.941,0,0,1,.763,1.489.97.97,0,0,1-.875.4l-1.125.006-3.892.04-2.624.059a4.8,4.8,0,0,0-.962.072,4.806,4.806,0,0,0,.962.072l2.624.059,3.892.04,1.125.006A1.333,1.333,0,0,0,53,198.047a1.306,1.306,0,0,0-1.057-2.073c-3.38,0-6.441.021-8.657.054a1.248,1.248,0,0,0-1.233.9,1.2,1.2,0,0,0,.273,1.134,1.114,1.114,0,0,0,.648.349c.168.023.255,0,.255-.009" transform="translate(230.789 -56.245)" fill="#263238"/>
                <path id="Trazado_914666" data-name="Trazado 914666" d="M245.735,216.513c1.341-17.307-2.806-20.734-7.171-22.761l-.379-.178c-3.436-1.651-7.283-1.564-10.375-1.492-3.866.088-10.828.179-17.562.267s-40.082.38-43.972.469L166.4,198c3.865-.089,37.186-.381,43.921-.469s13.722-.178,17.612-.268c2.671-.062,5.7-.13,8.012.982l.44.207c2.136.992,5.363,2.491,4.187,17.661Z" transform="translate(-50.564 -55.119)" fill="#e0e0e0"/>
                <path id="Trazado_914667" data-name="Trazado 914667" d="M317.061,116.579H268.475a6.91,6.91,0,0,0-6.91,6.91v93.748a6.91,6.91,0,0,0,6.91,6.91h48.586a6.91,6.91,0,0,0,6.91-6.91V123.489a6.91,6.91,0,0,0-6.91-6.91" transform="translate(-196.483 -33.458)" fill="#455a64"/>
                <line id="Línea_1651" data-name="Línea 1651" y1="102.65" transform="translate(70.862 87.307)" fill="#263238"/>
                <path id="Trazado_914668" data-name="Trazado 914668" d="M340.893,122.451c-.126,0-.228,22.981-.228,51.322s.1,51.327.228,51.327.228-22.976.228-51.327-.1-51.322-.228-51.322" transform="translate(-270.031 -35.144)" fill="#263238"/>
                <path id="Trazado_914669" data-name="Trazado 914669" d="M143.37,220.056a2.114,2.114,0,0,0-.026.33c-.009.236-.022.558-.038.97-.026.873-.062,2.126-.109,3.731-.078,3.258-.191,7.942-.33,13.722-.242,11.6-.575,27.6-.942,45.273-.028,1.418-.056,2.826-.081,4.141l-.017.91.384-.825,17.945-38.539L165.5,238.2l1.43-3.141c.154-.347.274-.619.362-.819a1.864,1.864,0,0,0,.112-.284,1.862,1.862,0,0,0-.146.268l-.4.8c-.349.727-.85,1.772-1.492,3.111l-5.45,11.52-18.054,38.487.366.086c.026-1.315.053-2.723.081-4.142.324-17.672.617-33.671.829-45.275.088-5.78.158-10.464.207-13.724.016-1.606.029-2.86.037-3.732,0-.413,0-.735,0-.971a2.16,2.16,0,0,0-.013-.331" transform="translate(45.461 -63.157)" fill="#e0e0e0"/>
                <path id="Trazado_914670" data-name="Trazado 914670" d="M178.139,249.846a2.77,2.77,0,0,0,.207.494l.663,1.384c.581,1.2,1.443,2.923,2.525,5.047,2.162,4.245,5.225,10.073,8.742,16.435s6.826,12.057,9.273,16.145c1.223,2.044,2.225,3.691,2.931,4.821l.819,1.3a2.866,2.866,0,0,0,.308.438,2.748,2.748,0,0,0-.242-.478l-.757-1.334-2.825-4.883c-2.385-4.122-5.653-9.833-9.171-16.193s-6.614-12.162-8.838-16.375l-2.633-4.988-.727-1.351a2.8,2.8,0,0,0-.277-.459" transform="translate(-16.637 -71.706)" fill="#e0e0e0"/>
                <path id="Trazado_914671" data-name="Trazado 914671" d="M176.638,304.456c-.021.1,8.818,2,19.741,4.224s19.8,3.951,19.821,3.847-8.817-2-19.744-4.225-19.8-3.951-19.818-3.847" transform="translate(-28.159 -87.378)" fill="#e0e0e0"/>
                <path id="Trazado_914672" data-name="Trazado 914672" d="M176.911,335.635c.046.1,8.619-3.953,19.146-9.042s19.027-9.295,18.981-9.39-8.618,3.952-19.148,9.043-19.025,9.294-18.979,9.389" transform="translate(-27.191 -91.037)" fill="#e0e0e0"/>
                <path id="Trazado_914673" data-name="Trazado 914673" d="M177.068,356.714a2.353,2.353,0,0,0,.367-.334l1-1.008c.863-.878,2.087-2.175,3.576-3.8,2.981-3.243,6.986-7.83,11.172-13.091s7.75-10.2,10.238-13.837c1.245-1.817,2.232-3.3,2.893-4.34l.757-1.2a2.325,2.325,0,0,0,.242-.432,2.439,2.439,0,0,0-.307.389l-.817,1.159-2.992,4.268c-2.542,3.591-6.138,8.495-10.316,13.752s-8.146,9.861-11.073,13.148l-3.484,3.877-.945,1.058a2.384,2.384,0,0,0-.31.386" transform="translate(-19.578 -91.461)" fill="#e0e0e0"/>
                <path id="Trazado_914674" data-name="Trazado 914674" d="M174.836,375.758a3.894,3.894,0,0,0,.161-.613q.144-.658.389-1.772c.341-1.576.819-3.795,1.407-6.52,1.2-5.5,2.946-13.085,5.086-21.406s4.278-15.807,5.881-21.206l1.916-6.389q.324-1.093.515-1.739a3.827,3.827,0,0,0,.155-.615,3.851,3.851,0,0,0-.229.59q-.216.638-.584,1.718c-.5,1.493-1.2,3.664-2.033,6.356-1.671,5.381-3.848,12.858-5.994,21.188s-3.844,15.926-4.979,21.446c-.568,2.76-1.006,5-1.288,6.548q-.2,1.123-.318,1.786a3.9,3.9,0,0,0-.085.628" transform="translate(-1.02 -90.549)" fill="#e0e0e0"/>
                <path id="Trazado_914675" data-name="Trazado 914675" d="M170.189,381.568a.606.606,0,0,0-.024-.173l-.108-.5q-.167-.7-.454-1.9c-.4-1.683-.975-4.059-1.678-6.982-1.4-5.9-3.216-14.075-4.953-23.16s-3.054-17.36-3.931-23.359l-1.012-7.109q-.176-1.22-.279-1.932c-.033-.2-.059-.366-.081-.5a.592.592,0,0,0-.041-.17.6.6,0,0,0,0,.174c.011.137.026.3.044.506l.207,1.942c.184,1.686.486,4.122.891,7.127.808,6.012,2.087,14.3,3.822,23.393s3.6,17.265,5.067,23.151c.732,2.944,1.348,5.32,1.8,6.955l.523,1.882.145.487a.6.6,0,0,0,.063.163" transform="translate(31.408 -90.632)" fill="#e0e0e0"/>
                <path id="Trazado_914676" data-name="Trazado 914676" d="M160.245,335.935a1.992,1.992,0,0,0-.4-.21l-1.161-.533-4.292-1.913-14.134-6.363c-5.516-2.5-10.532-4.716-14.187-6.263-1.827-.773-3.31-1.39-4.341-1.8l-1.189-.467a1.942,1.942,0,0,0-.425-.139,1.945,1.945,0,0,0,.394.21l1.161.533,4.292,1.913,14.137,6.363c5.514,2.5,10.53,4.715,14.185,6.262,1.827.773,3.31,1.39,4.341,1.8l1.19.467a1.942,1.942,0,0,0,.425.139" transform="translate(68.093 -91.337)" fill="#e0e0e0"/>
                <path id="Trazado_914677" data-name="Trazado 914677" d="M121.165,306.972a2.206,2.206,0,0,0,.461-.128l1.3-.438c1.124-.386,2.74-.973,4.729-1.723,3.976-1.5,9.425-3.693,15.341-6.351s11.174-5.282,14.934-7.262c1.88-.99,3.392-1.809,4.426-2.394L163.54,288a2.169,2.169,0,0,0,.4-.26,2.306,2.306,0,0,0-.438.192l-1.221.615-4.48,2.284c-3.789,1.917-9.059,4.493-14.968,7.153s-11.333,4.886-15.281,6.448l-4.682,1.836-1.271.506a2.235,2.235,0,0,0-.434.2" transform="translate(63.651 -82.581)" fill="#e0e0e0"/>
                <path id="Trazado_914678" data-name="Trazado 914678" d="M172.792,313.37c0,3.151,1.472,5.705,3.286,5.705s3.286-2.555,3.286-5.705-1.472-5.705-3.286-5.705-3.286,2.555-3.286,5.705" transform="translate(11.419 -88.301)" fill="#e0e0e0"/>
                <path id="Trazado_914679" data-name="Trazado 914679" d="M164.97,362.233c.088-.058-6.753-10.532-15.28-23.388s-15.513-23.236-15.6-23.177,6.752,10.53,15.281,23.391,15.513,23.234,15.6,23.175" transform="translate(53.409 -90.597)" fill="#e0e0e0"/>
                <path id="Trazado_914680" data-name="Trazado 914680" d="M119.09,315.757c.006.106,9.711-.37,21.674-1.064s21.66-1.343,21.654-1.449-9.709.37-21.676,1.064-21.659,1.343-21.652,1.449" transform="translate(66.654 -89.897)" fill="#e0e0e0"/>
                <path id="Trazado_914681" data-name="Trazado 914681" d="M178.949,282.009a1.7,1.7,0,0,0,.339.235l1.009.608c.882.517,2.153,1.276,3.713,2.226,3.123,1.9,7.378,4.62,11.918,7.857s8.5,6.382,11.307,8.717c1.407,1.167,2.537,2.122,3.313,2.788l.9.756a1.676,1.676,0,0,0,.332.245,1.645,1.645,0,0,0-.28-.3l-.856-.811c-.746-.7-1.85-1.688-3.236-2.883-2.771-2.392-6.71-5.574-11.259-8.823s-8.84-5.934-12-7.776c-1.581-.922-2.874-1.646-3.78-2.123l-1.045-.545a1.686,1.686,0,0,0-.377-.167" transform="translate(-25.392 -80.937)" fill="#e0e0e0"/>
                <path id="Trazado_914682" data-name="Trazado 914682" d="M176.813,386.052a4.1,4.1,0,0,0,.052-.649q.027-.689.074-1.862c.051-1.653.123-3.984.212-6.848.18-5.814.427-13.785.7-22.591.317-8.808.6-16.779.812-22.591.1-2.863.187-5.193.247-6.846q.031-1.173.051-1.862a4.209,4.209,0,0,0-.009-.651,4.032,4.032,0,0,0-.069.647q-.046.688-.123,1.859c-.088,1.652-.214,3.98-.369,6.841-.287,5.779-.629,13.765-.925,22.591s-.487,16.812-.587,22.6c-.038,2.865-.068,5.2-.09,6.851q0,1.173,0,1.863a4.02,4.02,0,0,0,.026.65" transform="translate(8.97 -92.458)" fill="#e0e0e0"/>
                <path id="Trazado_914683" data-name="Trazado 914683" d="M126.567,304.5a.859.859,0,0,0,.2.006l.578-.019,2.232-.11c1.943-.108,4.766-.294,8.282-.588,7.032-.583,16.839-1.647,27.9-3.444l.066-.011.044-.05c1.708-1.891,3.492-3.865,5.31-5.879l22.388-24.886,6.751-7.571,1.821-2.072.466-.545a.123.123,0,1,0-.029-.026l-.495.52-1.875,2.023-6.843,7.489L170.887,294.15l-5.305,5.882.111-.06c-11.044,1.811-20.836,2.92-27.858,3.57-3.511.327-6.329.553-8.269.7l-2.227.175-.576.053a.884.884,0,0,0-.2.03" transform="translate(20.992 -74.373)" fill="#e0e0e0"/>
                <path id="Trazado_914684" data-name="Trazado 914684" d="M185.407,224.512a5.313,5.313,0,0,0-.38,1.246c-.21.829-.5,2.055-.855,3.637-.714,3.164-1.709,7.751-2.914,13.424-2.41,11.346-5.665,27.035-9.2,44.375-.1.481-.2.96-.287,1.4l.376-.006c-3.995-16.907-7.595-32.146-10.2-43.18-1.315-5.491-2.381-9.934-3.121-13.024l-.866-3.531-.235-.916a2.018,2.018,0,0,0-.093-.309,1.989,1.989,0,0,0,.055.318c.048.225.113.531.2.924.187.829.454,2.021.8,3.548.712,3.1,1.737,7.55,3,13.053,2.578,11.039,6.139,26.288,10.09,43.206l.2.858.176-.863c.091-.443.188-.923.287-1.4,3.549-17.329,6.763-33.018,9.094-44.4,1.177-5.664,2.13-10.254,2.794-13.448l.784-3.651.217-.946a2.446,2.446,0,0,1,.088-.317" transform="translate(16.19 -64.435)" fill="#e0e0e0"/>
                <path id="Trazado_914685" data-name="Trazado 914685" d="M147.221,288.193c0-35.448-15.9-64.581-36.232-67.929a24.053,24.053,0,0,1,3.917-.324c22.173,0,40.149,30.558,40.149,68.252s-17.975,68.253-40.149,68.253a24.05,24.05,0,0,1-3.917-.324c20.335-3.348,36.232-32.481,36.232-67.929" transform="translate(79.794 -63.124)" fill="#455a64"/>
                <path id="Trazado_914686" data-name="Trazado 914686" d="M148.1,288.115s-.028.515-.051,1.512q-.017.753-.043,1.854-.052,1.106-.122,2.552a111.512,111.512,0,0,1-2.139,16.591A94.471,94.471,0,0,1,142.6,322.15a77.463,77.463,0,0,1-5.683,12.863,56.757,56.757,0,0,1-4.214,6.529,47.318,47.318,0,0,1-5.442,6.16,30.118,30.118,0,0,1-15.432,8.15l-1.166.2,1.166.186a21.967,21.967,0,0,0,4.974.287,25,25,0,0,0,5.045-.724,29.547,29.547,0,0,0,9.464-4.48c5.845-4.16,10.52-10.15,14.162-16.823a85.279,85.279,0,0,0,8.035-22,113.7,113.7,0,0,0,0-48.756,85.258,85.258,0,0,0-8.035-22c-3.641-6.674-8.317-12.666-14.163-16.826a29.515,29.515,0,0,0-9.464-4.48,25.012,25.012,0,0,0-5.046-.725,21.966,21.966,0,0,0-4.974.287l-1.166.186,1.166.2a30.12,30.12,0,0,1,15.434,8.15,47.327,47.327,0,0,1,5.442,6.162,56.7,56.7,0,0,1,4.214,6.53,77.488,77.488,0,0,1,5.682,12.863,94.288,94.288,0,0,1,3.137,11.526,111.623,111.623,0,0,1,2.14,16.59q.068,1.445.121,2.551.026,1.1.043,1.854c.024,1,.051,1.512.051,1.512s.013-.514.009-1.512q-.005-.754-.013-1.855-.041-1.107-.093-2.555a108.264,108.264,0,0,0-2.036-16.63,93.774,93.774,0,0,0-3.1-11.568,77.4,77.4,0,0,0-5.665-12.93,56.859,56.859,0,0,0-4.22-6.575,47.486,47.486,0,0,0-5.469-6.219,30.459,30.459,0,0,0-15.615-8.275v.384a21.609,21.609,0,0,1,4.895-.274,24.64,24.64,0,0,1,4.962.72,29.144,29.144,0,0,1,9.324,4.43c5.77,4.116,10.405,10.06,14.018,16.695a84.955,84.955,0,0,1,7.98,21.892,113.446,113.446,0,0,1,0,48.558,84.941,84.941,0,0,1-7.98,21.886c-3.613,6.634-8.248,12.577-14.018,16.691a29.124,29.124,0,0,1-9.323,4.429,24.588,24.588,0,0,1-4.962.72,21.608,21.608,0,0,1-4.894-.274v.384a30.463,30.463,0,0,0,15.614-8.274,47.634,47.634,0,0,0,5.469-6.219,56.849,56.849,0,0,0,4.22-6.575,77.384,77.384,0,0,0,5.665-12.93,93.777,93.777,0,0,0,3.1-11.568A108.3,108.3,0,0,0,148,294.038q.052-1.447.093-2.555.009-1.1.014-1.856c0-1-.009-1.512-.009-1.512" transform="translate(78.918 -63.045)" fill="#263238"/>
                <path id="Trazado_914687" data-name="Trazado 914687" d="M212.941,219.941a24.119,24.119,0,0,1,3.916.324c-20.335,3.348-36.232,32.481-36.232,67.929s15.9,64.582,36.232,67.929a24.118,24.118,0,0,1-3.916.324c-22.174,0-40.149-30.558-40.149-68.253s17.975-68.252,40.149-68.252" transform="translate(-26.074 -63.124)" fill="#263238"/>
                <path id="Trazado_914688" data-name="Trazado 914688" d="M120.562,334.379l-.94,22.37s22.424,8.468,22.653,12.619l-43.441-.264.034-34.916Z" transform="translate(101.24 -95.913)" fill="#2994a3"/>
                <path id="Trazado_914689" data-name="Trazado 914689" d="M147.74,363.048a1.775,1.775,0,0,0-1.239,2.017,1.706,1.706,0,0,0,1.989,1.246,1.871,1.871,0,0,0,1.3-2.143,1.77,1.77,0,0,0-2.212-1.067" transform="translate(59.701 -104.175)" fill="#e0e0e0"/>
                <g id="Grupo_1103596" data-name="Grupo 1103596" transform="translate(200.074 269.673)" opacity="0.6">
                  <g id="Grupo_1103595" data-name="Grupo 1103595">
                    <g id="Grupo_1103594" data-name="Grupo 1103594" clip-path="url(#clip-path-5)">
                      <path id="Trazado_914690" data-name="Trazado 914690" d="M98.808,381.744l.141-3.519,41.6,1.569s1.929.853,1.7,2.214Z" transform="translate(-98.808 -378.225)" fill="#fff"/>
                    </g>
                  </g>
                </g>
                <path id="Trazado_914691" data-name="Trazado 914691" d="M133.587,365.447c-.009.212-1.069.3-2.117.977-1.066.649-1.609,1.564-1.8,1.479-.2-.042.128-1.308,1.412-2.1s2.556-.546,2.509-.352" transform="translate(87.982 -104.827)" fill="#263238"/>
                <path id="Trazado_914692" data-name="Trazado 914692" d="M126.134,368.174c.047.206-.873.561-1.6,1.454-.752.871-.94,1.84-1.151,1.83-.2.033-.339-1.211.585-2.3s2.162-1.182,2.165-.98" transform="translate(99.979 -105.642)" fill="#263238"/>
                <path id="Trazado_914693" data-name="Trazado 914693" d="M117.5,374.41c-.193.044-.482-1.017.07-2.176s1.546-1.614,1.636-1.437c.118.175-.53.8-.968,1.753-.461.948-.526,1.842-.737,1.861" transform="translate(111.173 -106.409)" fill="#263238"/>
                <path id="Trazado_914694" data-name="Trazado 914694" d="M134.615,358.032c-.09.193-1.062-.105-2.261-.031-1.2.049-2.136.446-2.246.264-.122-.154.794-.934,2.208-1s2.4.6,2.3.769" transform="translate(86.602 -102.534)" fill="#263238"/>
                <path id="Trazado_914695" data-name="Trazado 914695" d="M125.264,216.154l20.314-2.758s42.366-8.512,63.8-11.168a36.83,36.83,0,0,1,11.656.286c7.873,1.581,14.07,7.556,15.113,19.493.523,6,.949,88.248.949,88.248l-27.011-.207L202.6,237.2l-29.418,9.92-42.96-.153c-5.313-4.15-4.962-30.814-4.962-30.814" transform="translate(-12.421 -57.949)" fill="#263238"/>
                <path id="Trazado_914696" data-name="Trazado 914696" d="M169.976,236.542a5.344,5.344,0,0,0,.007,1.1c.043.706.133,1.725.27,2.981.273,2.512.724,5.972,1.273,9.786s1.092,7.261,1.513,9.751c.21,1.246.391,2.252.528,2.945a5.94,5.94,0,0,0,.254,1.07,6.138,6.138,0,0,0-.106-1.094l-.406-2.962c-.369-2.569-.859-5.986-1.4-9.764s-1.02-7.195-1.385-9.764c-.158-1.2-.289-2.192-.391-2.962a6.789,6.789,0,0,0-.157-1.087" transform="translate(18.977 -67.888)" fill="#455a64"/>
                <path id="Trazado_914697" data-name="Trazado 914697" d="M173.687,241.03a4.076,4.076,0,0,0,.394,1.433,11.588,11.588,0,0,0,4.56,5.437,4.048,4.048,0,0,0,1.342.638,15.591,15.591,0,0,1-6.3-7.509" transform="translate(10.167 -69.176)" fill="#455a64"/>
                <path id="Trazado_914698" data-name="Trazado 914698" d="M163.605,334.23l-.526,22.384s22.576,8.053,22.882,12.2l-43.439.538-.611-34.911Z" transform="translate(26.841 -95.925)" fill="#2994a3"/>
                <path id="Trazado_914699" data-name="Trazado 914699" d="M191.117,363.186a1.774,1.774,0,0,0-1.2,2.04,1.705,1.705,0,0,0,2.011,1.209,1.871,1.871,0,0,0,1.261-2.166,1.769,1.769,0,0,0-2.231-1.026" transform="translate(-14.653 -104.213)" fill="#e0e0e0"/>
                <g id="Grupo_1103599" data-name="Grupo 1103599" transform="translate(169.363 269.906)" opacity="0.6">
                  <g id="Grupo_1103598" data-name="Grupo 1103598">
                    <g id="Grupo_1103597" data-name="Grupo 1103597" clip-path="url(#clip-path-6)">
                      <path id="Trazado_914700" data-name="Trazado 914700" d="M141.891,382.071l.076-3.522,41.619.8s1.944.817,1.743,2.182Z" transform="translate(-141.891 -378.55)" fill="#fff"/>
                    </g>
                  </g>
                </g>
                <path id="Trazado_914701" data-name="Trazado 914701" d="M176.948,365.227c0,.212-1.064.322-2.1,1.017-1.053.668-1.58,1.593-1.776,1.512-.2-.039.1-1.311,1.373-2.13s2.546-.594,2.5-.4" transform="translate(13.672 -104.767)" fill="#263238"/>
                <path id="Trazado_914702" data-name="Trazado 914702" d="M169.439,367.832c.051.205-.863.577-1.572,1.483-.736.886-.906,1.857-1.117,1.851-.2.036-.361-1.2.542-2.314s2.14-1.222,2.148-1.02" transform="translate(25.761 -105.545)" fill="#263238"/>
                <path id="Trazado_914703" data-name="Trazado 914703" d="M160.819,373.988c-.193.048-.5-1.008.03-2.177s1.516-1.643,1.609-1.467c.122.173-.515.8-.935,1.77-.443.955-.493,1.85-.7,1.874" transform="translate(37.036 -106.279)" fill="#263238"/>
                <path id="Trazado_914704" data-name="Trazado 914704" d="M178.148,357.832c-.086.194-1.063-.086-2.261.01-1.2.072-2.128.486-2.241.306-.125-.153.776-.948,2.19-1.042s2.414.558,2.312.727" transform="translate(12.027 -102.487)" fill="#263238"/>
                <path id="Trazado_914705" data-name="Trazado 914705" d="M141.551,356.21a1.941,1.941,0,0,0-.062.471c-.025.358-.056.8-.093,1.347l-.256,4.889,0,.1.1.04c2.582,1.035,5.838,2.371,9.349,3.861,4.263,1.847,8.19,3.409,10.718,5.093a12.137,12.137,0,0,1,2.737,2.282,3.881,3.881,0,0,1,.54.8c.1.2.125.312.137.31a2.086,2.086,0,0,0-.563-1.2,11.279,11.279,0,0,0-2.707-2.411c-2.53-1.765-6.457-3.369-10.717-5.216-3.515-1.492-6.783-2.8-9.387-3.8l.094.144c.052-2,.1-3.667.128-4.894,0-.545.009-.992.012-1.35a1.942,1.942,0,0,0-.025-.475" transform="translate(48.631 -102.233)" fill="#263238"/>
                <path id="Trazado_914706" data-name="Trazado 914706" d="M170.2,218.1l20.314-2.758s42.366-8.512,63.8-11.168a36.831,36.831,0,0,1,11.656.286c7.873,1.581,10.519,11.036,11.87,16.9s4.441,92.226,4.441,92.226l-25.176-.531-9.562-73.911-26.722,8.534H174.967c-5.313-4.15-4.764-29.58-4.764-29.58" transform="translate(-89.642 -58.507)" fill="#263238"/>
                <path id="Trazado_914707" data-name="Trazado 914707" d="M170,204.7a2.537,2.537,0,0,0,.336-.052l.98-.17c.863-.14,2.14-.331,3.794-.477a37.532,37.532,0,0,1,6.036-.076c.586.048,1.194.092,1.812.2l.944.147.958.221a17.707,17.707,0,0,1,1.959.6c.324.13.64.294.966.441l.491.229.458.3a13.74,13.74,0,0,1,3.385,3.1,20.637,20.637,0,0,1,2.561,4.3,28.208,28.208,0,0,1,1.693,5.105,32.98,32.98,0,0,1,.843,5.643c.349,7.855.732,16.488,1.135,25.55.838,18.124,1.6,34.529,2.145,46.425.293,5.926.53,10.727.694,14.067.09,1.646.16,2.93.208,3.823.028.424.048.753.064.994.016.224.035.338.035.338s.008-.115,0-.339c-.006-.242-.015-.572-.026-1-.031-.893-.077-2.179-.136-3.827-.135-3.34-.331-8.144-.572-14.072-.52-11.9-1.239-28.3-2.033-46.428-.414-9.063-.807-17.7-1.165-25.552a33.274,33.274,0,0,0-.868-5.7,28.455,28.455,0,0,0-1.731-5.158,20.869,20.869,0,0,0-2.62-4.356,13.99,13.99,0,0,0-3.474-3.15l-.473-.3-.5-.232c-.334-.15-.659-.314-.99-.445a18.068,18.068,0,0,0-1.994-.593l-.973-.217-.956-.141c-.625-.106-1.238-.145-1.83-.188a36.55,36.55,0,0,0-6.065.141c-1.657.17-2.933.384-3.793.55-.429.086-.757.154-.975.208a3.329,3.329,0,0,0-.328.091" transform="translate(-8.729 -58.444)" fill="#455a64"/>
                <path id="Trazado_914708" data-name="Trazado 914708" d="M215.252,238.486a5.341,5.341,0,0,0,.007,1.1c.043.706.133,1.725.27,2.981.273,2.512.724,5.972,1.273,9.786s1.093,7.261,1.514,9.751c.21,1.246.391,2.252.528,2.945a5.881,5.881,0,0,0,.254,1.07,6.139,6.139,0,0,0-.106-1.094l-.406-2.962c-.369-2.569-.859-5.986-1.4-9.764s-1.02-7.195-1.385-9.764c-.158-1.2-.289-2.192-.391-2.962a6.753,6.753,0,0,0-.156-1.087" transform="translate(-58.581 -68.446)" fill="#455a64"/>
                <path id="Trazado_914709" data-name="Trazado 914709" d="M218.963,242.974a4.077,4.077,0,0,0,.394,1.433,11.588,11.588,0,0,0,4.56,5.437,4.048,4.048,0,0,0,1.342.638,15.591,15.591,0,0,1-6.3-7.509" transform="translate(-67.39 -69.734)" fill="#455a64"/>
                <path id="Trazado_914710" data-name="Trazado 914710" d="M223.061,261.951c.034.1,5.308-1.577,11.78-3.739s11.7-3.994,11.665-4.091-5.306,1.576-11.782,3.739-11.7,3.994-11.663,4.091" transform="translate(-91.564 -72.932)" fill="#455a64"/>
                <path id="Trazado_914711" data-name="Trazado 914711" d="M225.292,172.865l-28.6-26L185.289,124.8l-17.284,6.8s17.377,29.144,20.549,31.4,31.474,17.632,31.474,17.632Z" transform="translate(-31.096 -35.818)" fill="#ffc09d"/>
                <path id="Trazado_914712" data-name="Trazado 914712" d="M137.2,190.821c.831.414,15.088,4.417,18.09,7.173s8.826,10.45,8.826,10.45-.926,1.662-2.248.893c-2.933-1.708-6.982-7.721-6.92-7.667l4.6,11.884s.192,2.635-2.49.835-6.261-11.815-6.261-11.815l2.246,14.363s-1.955,1.3-3.913-1.6c-1.856-2.751-3.71-10.754-3.71-10.754s-3.191-2.908-5.46-2.961-.383,9.179-.383,9.179-.2,3.316-2.638,2.859l-3-8.952-2.342-6.98Z" transform="translate(56.04 -54.766)" fill="#ffc09d"/>
                <path id="Trazado_914713" data-name="Trazado 914713" d="M233.158,184.754c.128-3.075,1.7-10.413,7-28.9l9.516-66.616,12.51-1.561,20.651.885,9.438,3.95s7.961,19.91,8.071,34.386c0,0-3.335,16.916-7.155,38.892l6.164,13.131Z" transform="translate(-152.596 -25.162)" fill="#f54749"/>
                <path id="Trazado_914714" data-name="Trazado 914714" d="M321.184,89.852s-5.983-.767-11.924,6.658c-5.378,6.722-7.663,30.769-7.663,30.769l20.622,2.58s1.857-36.9-1.035-40.007" transform="translate(-223.86 -25.781)" fill="#f54749"/>
                <path id="Trazado_914715" data-name="Trazado 914715" d="M214.026,94.325s5.223.371,10.011,8.3c3.172,5.252,12.237,21.4,12.237,21.4L218.4,138.822Z" transform="translate(-74.891 -27.071)" fill="#f54749"/>
                <g id="Grupo_1103602" data-name="Grupo 1103602" transform="translate(85.324 136.623)" opacity="0.3">
                  <g id="Grupo_1103601" data-name="Grupo 1103601">
                    <g id="Grupo_1103600" data-name="Grupo 1103600" clip-path="url(#clip-path-7)">
                      <path id="Trazado_914716" data-name="Trazado 914716" d="M297.392,201.95c-11.051,2.466-22.548.307-33.663-1.855l-18.395-3.577c-1.838-.357-3.8-.779-5.1-2.127-.729-.756-1.114-2.13-.283-2.774l55.828,6.2Z" transform="translate(-239.485 -191.618)"/>
                    </g>
                  </g>
                </g>
                <g id="Grupo_1103605" data-name="Grupo 1103605" transform="translate(94.931 76.701)" opacity="0.3">
                  <g id="Grupo_1103604" data-name="Grupo 1103604">
                    <g id="Grupo_1103603" data-name="Grupo 1103603" clip-path="url(#clip-path-8)">
                      <path id="Trazado_914717" data-name="Trazado 914717" d="M301.356,107.576s2.845,6.647,1.689,18c-1.139,11.183-5.412,28.76-5.412,28.76l-4.015-2.3,2.207-17.521Z" transform="translate(-293.619 -107.576)"/>
                    </g>
                  </g>
                </g>
                <path id="Trazado_914718" data-name="Trazado 914718" d="M233.658,113.258a1.285,1.285,0,0,0,.078.347c.079.263.175.583.291.971.281.833.614,2.06,1.022,3.576a52.737,52.737,0,0,1,1.573,12.125,56.613,56.613,0,0,1-.306,6.738c-.2,2.066-.472,3.918-.725,5.469s-.478,2.8-.626,3.671l-.166,1a1.272,1.272,0,0,0-.034.354,1.277,1.277,0,0,0,.106-.339c.064-.267.141-.592.235-.986.193-.859.463-2.1.744-3.656s.585-3.4.806-5.478a53,53,0,0,0,.337-6.778,48.868,48.868,0,0,0-1.691-12.186c-.443-1.515-.816-2.734-1.139-3.556l-.357-.95a1.285,1.285,0,0,0-.148-.322" transform="translate(-89.613 -32.505)" fill="#263238"/>
                <path id="Trazado_914719" data-name="Trazado 914719" d="M314.705,92.094c3.625,2.409,5.6,6.731,6.221,11.039s.051,8.686-.41,13.014-1.543,14.363-1.543,14.363l-22.978-2.58" transform="translate(-218.258 -26.431)" fill="#f54749"/>
                <path id="Trazado_914720" data-name="Trazado 914720" d="M295.762,127.929a2.4,2.4,0,0,0,.439.081l1.276.173,4.778.59,16.466,1.915.178.021.019-.179.938-8.66c.234-2.186.461-4.319.682-6.381s.434-4.053.531-5.962a26.145,26.145,0,0,0-1.112-10.05,15.124,15.124,0,0,0-3.514-5.833,9.16,9.16,0,0,0-1.97-1.549c0,.006.039.043.123.111l.38.3a13.821,13.821,0,0,1,1.363,1.242,15.416,15.416,0,0,1,3.369,5.817,26.287,26.287,0,0,1,1.019,9.948c-.106,1.9-.325,3.88-.551,5.941s-.453,4.195-.689,6.38c-.322,3.024-.634,5.949-.923,8.661l.2-.158-16.481-1.785-4.789-.485-1.283-.115a2.439,2.439,0,0,0-.446-.019" transform="translate(-218.025 -26.431)" fill="#263238"/>
                <g id="Grupo_1103608" data-name="Grupo 1103608" transform="translate(145.153 84.063)" opacity="0.3">
                  <g id="Grupo_1103607" data-name="Grupo 1103607">
                    <g id="Grupo_1103606" data-name="Grupo 1103606" clip-path="url(#clip-path-9)">
                      <path id="Trazado_914721" data-name="Trazado 914721" d="M231.03,117.9s4.707,8.5,4.043,16.016-3,9.454-3,9.454a54.2,54.2,0,0,0,1.017-11.655A93.844,93.844,0,0,0,231.03,117.9" transform="translate(-231.03 -117.901)"/>
                    </g>
                  </g>
                </g>
                <path id="Trazado_914722" data-name="Trazado 914722" d="M259.028,50.62c-2.021-5.9-6.137-5.588-5.332-8.019s4.575-3.268,4.575-7.031c0-4.927-1.825-4.87-3.906-7.814-1.867-2.641-1.611-6.223-1.877-9.447s-.812-6.635-2.948-9.064c-2.7-3.072-9.78-3.626-13.117-1.258-.516,18.326-4.857,36.881-.935,54.79a48.761,48.761,0,0,0,25.774-6.156c-2.508-.513-1.405-3.579-2.235-6" transform="translate(-114.023 -1.871)" fill="#e0e0e0"/>
                <path id="Trazado_914723" data-name="Trazado 914723" d="M248.829,66.758l-2.347-47.021a3.923,3.923,0,0,1,3.4-4.076l20.657-5.85c6.643-.894,11.307,7.185,11.918,13.86.679,7.417,1.216,16.5.493,22.067-1.453,11.2-9.956,12.858-9.956,12.858.01,11.027.233,11.845.233,11.845l-2.492,8.676Z" transform="translate(-145.043 -2.796)" fill="#ffc09d"/>
                <path id="Trazado_914724" data-name="Trazado 914724" d="M253.927,40.566a1.43,1.43,0,0,1-1.338,1.482,1.368,1.368,0,0,1-1.51-1.248,1.431,1.431,0,0,1,1.336-1.482,1.368,1.368,0,0,1,1.512,1.248" transform="translate(-118.964 -11.283)" fill="#263238"/>
                <path id="Trazado_914725" data-name="Trazado 914725" d="M255.8,34.224c-.172.192-1.278-.579-2.816-.531-1.537.025-2.643.848-2.816.665-.084-.081.087-.423.568-.795a3.931,3.931,0,0,1,2.247-.763,3.766,3.766,0,0,1,2.248.656c.483.349.653.682.568.768" transform="translate(-120.185 -9.414)" fill="#263238"/>
                <path id="Trazado_914726" data-name="Trazado 914726" d="M272.227,41.17a1.43,1.43,0,0,1-1.338,1.482,1.368,1.368,0,0,1-1.51-1.247,1.432,1.432,0,0,1,1.336-1.483,1.369,1.369,0,0,1,1.512,1.248" transform="translate(-150.31 -11.456)" fill="#263238"/>
                <path id="Trazado_914727" data-name="Trazado 914727" d="M275.369,35.057c-.173.191-1.28-.579-2.816-.531-1.537.026-2.644.848-2.816.665-.083-.081.085-.423.569-.794a3.913,3.913,0,0,1,2.247-.764,3.769,3.769,0,0,1,2.248.656c.482.349.652.682.568.768" transform="translate(-153.713 -9.653)" fill="#263238"/>
                <path id="Trazado_914728" data-name="Trazado 914728" d="M258.714,46.429a10.219,10.219,0,0,1,2.486-.522c.391-.051.761-.14.82-.41a2,2,0,0,0-.3-1.157q-.595-1.41-1.246-2.958c-1.734-4.213-3-7.682-2.831-7.75s1.714,3.291,3.448,7.5q.628,1.558,1.2,2.977a2.276,2.276,0,0,1,.247,1.537.987.987,0,0,1-.63.593,2.654,2.654,0,0,1-.664.111,9.986,9.986,0,0,1-2.533.076" transform="translate(-132.31 -9.652)" fill="#263238"/>
                <path id="Trazado_914729" data-name="Trazado 914729" d="M275.829,75.638a28.369,28.369,0,0,1-15.041-3.558s3.972,7.839,15.1,6.478Z" transform="translate(-147.845 -20.687)" fill="#ff9b6c"/>
                <path id="Trazado_914730" data-name="Trazado 914730" d="M268.385,56.088a3.789,3.789,0,0,0-3.164-1.564,2.465,2.465,0,0,0-1.993,1.159,2.259,2.259,0,0,0,2.63,3.312,5.624,5.624,0,0,0,2.225-1.465,1.745,1.745,0,0,0,.471-.59.784.784,0,0,0-.083-.778" transform="translate(-142.104 -15.647)" fill="#ff9b6c"/>
                <path id="Trazado_914731" data-name="Trazado 914731" d="M262.579,53.254c.25-.021.3,1.648,1.763,2.793s3.235.91,3.255,1.143c.026.1-.387.336-1.138.378a4.156,4.156,0,0,1-2.714-.861,3.619,3.619,0,0,1-1.371-2.344c-.083-.7.091-1.115.205-1.109" transform="translate(-140.672 -15.284)" fill="#263238"/>
                <path id="Trazado_914732" data-name="Trazado 914732" d="M277.66,26.463c-.14.423-1.681.268-3.479.537-1.8.232-3.245.8-3.5.434-.112-.176.13-.577.708-1a6.12,6.12,0,0,1,5.313-.74c.67.248,1.013.568.953.768" transform="translate(-156.662 -7.287)" fill="#e0e0e0"/>
                <path id="Trazado_914733" data-name="Trazado 914733" d="M256.34,26.784c-.26.356-1.33.025-2.605.043-1.276-.026-2.347.3-2.605-.056-.114-.175.046-.529.508-.873a3.773,3.773,0,0,1,4.2.011c.461.346.619.7.5.876" transform="translate(-121.421 -7.251)" fill="#e0e0e0"/>
                <path id="Trazado_914734" data-name="Trazado 914734" d="M303.7,5.533C301.79.95,297.648.549,293.21.075s-11.029,1.36-14.7,3.761a34.263,34.263,0,0,0-8.135,6.892c-1.97,2.54-2.851,5.445-4.069,8.373-1.643,3.951-2.4,9.279.74,14.056.362.55-2.728,1.651-3.435,5.386-1.145,6.045-.673,7.306-2.29,13.267-.58,2.136-1.172,4.692,1.852,5.921a6.879,6.879,0,0,0,1.76.426c4.7.568,9.24,2.091,14.461,2.424l3.224-.008c4.083,0,6.17-2.626,6.031-5.961-.42-10.068-5.332-26.606-5.872-29.778,0,0-1.7-22.282,20.924-19.3" transform="translate(-175.709 0)" fill="#e0e0e0"/>
                <path id="Trazado_914735" data-name="Trazado 914735" d="M288.567,7.6a6.562,6.562,0,0,0-2.346,4.6c-.239,1.756-.136,3.551-.464,5.293a11.086,11.086,0,0,1-6.378,7.981c-1.036.448-2.462.63-3.1-.3a6.118,6.118,0,0,1-3.726,5.831c-1.651.664-3.5.559-5.239.946s-3.561,1.584-3.651,3.361L262.93,22.94,266.409,12l10.7-6.368Z" transform="translate(-162.052 -1.615)" fill="#e0e0e0"/>
                <path id="Trazado_914736" data-name="Trazado 914736" d="M266.54,27.4a7.762,7.762,0,0,0,1.022-.828,7.456,7.456,0,0,0,1.686-3.119,25.607,25.607,0,0,0,.747-5.272,43.1,43.1,0,0,1,.756-6.52,12.46,12.46,0,0,1,2.916-5.845A7.285,7.285,0,0,1,276,4.139a7.162,7.162,0,0,1,2.434-.6,5.767,5.767,0,0,1,3.488.829,3.262,3.262,0,0,1,.461.336,2.091,2.091,0,0,1,.307.282,2.157,2.157,0,0,1,.229.255,7.828,7.828,0,0,0-1.04-.8,5.794,5.794,0,0,0-3.434-.749,7.028,7.028,0,0,0-4.641,2.264,12.383,12.383,0,0,0-2.851,5.757,44.423,44.423,0,0,0-.767,6.486,24.9,24.9,0,0,1-.8,5.3,7.329,7.329,0,0,1-1.772,3.134,3.939,3.939,0,0,1-1.08.769" transform="translate(-158.982 -1.011)" fill="#fff"/>
                <path id="Trazado_914737" data-name="Trazado 914737" d="M264.574,25.035a6.35,6.35,0,0,0,1.636-.406,8.5,8.5,0,0,0,3.414-3,16.038,16.038,0,0,0,1.569-2.764,12.388,12.388,0,0,0,.875-3.526c.155-1.28.209-2.637.357-4.043a19.041,19.041,0,0,1,.34-2.132,11.776,11.776,0,0,1,.706-2.114,11.438,11.438,0,0,1,5.979-5.761,10.836,10.836,0,0,1,6.8-.459,11.13,11.13,0,0,1,4.165,2.015A8.2,8.2,0,0,1,291.654,4a.409.409,0,0,1-.088-.071l-.24-.222c-.1-.1-.232-.222-.4-.353s-.342-.3-.568-.451a11.353,11.353,0,0,0-4.15-1.935,10.756,10.756,0,0,0-6.686.494,11.291,11.291,0,0,0-5.862,5.669,11.6,11.6,0,0,0-.694,2.073,19.021,19.021,0,0,0-.339,2.107c-.15,1.4-.209,2.755-.369,4.044a12.465,12.465,0,0,1-.908,3.574,15.993,15.993,0,0,1-1.609,2.781,8.422,8.422,0,0,1-3.5,2.992,4.927,4.927,0,0,1-1.227.308l-.328.022a.443.443,0,0,1-.112,0" transform="translate(-166.311 -0.139)" fill="#455a64"/>
                <path id="Trazado_914738" data-name="Trazado 914738" d="M302.24,29a.447.447,0,0,1,0,.1c-.008.08-.018.181-.03.308s-.026.3-.061.5l-.139.678a7.186,7.186,0,0,1-.711,1.768,6.158,6.158,0,0,1-1.688,1.9,9.993,9.993,0,0,1-6.42,1.587,18.8,18.8,0,0,1-3.975-.617,16.038,16.038,0,0,1-4.058-1.631l-.255-.15.294-.042a15.633,15.633,0,0,0,4.659-1.443l.079-.039.065.2a14.8,14.8,0,0,1-9.64-1.729l-.193-.11.21-.068a18.3,18.3,0,0,0,5.72-2.895,9.2,9.2,0,0,0,2.983-3.969,9.322,9.322,0,0,0,.49-3.231q-.043-.556-.066-.873c-.006-.091-.01-.165-.014-.225a.26.26,0,0,1,0-.078.3.3,0,0,1,.015.075c.008.061.017.133.029.225.024.212.056.5.1.875a9.088,9.088,0,0,1-.441,3.273,9.252,9.252,0,0,1-2.992,4.058,18.319,18.319,0,0,1-5.761,2.953l.018-.178a14.668,14.668,0,0,0,9.509,1.689l.718-.118-.653.318-.08.039a15.741,15.741,0,0,1-4.724,1.459l.039-.193a15.936,15.936,0,0,0,4,1.619,18.782,18.782,0,0,0,3.932.627,9.9,9.9,0,0,0,6.331-1.514A6.1,6.1,0,0,0,301.2,32.3a7.307,7.307,0,0,0,.732-1.734c.058-.25.11-.473.155-.669s.056-.362.079-.5.036-.226.048-.3a.437.437,0,0,1,.023-.1" transform="translate(-188.014 -5.436)" fill="#455a64"/>
                <path id="Trazado_914739" data-name="Trazado 914739" d="M307.722,65.069c-.058-.006.618-5.965,1.511-13.307s1.664-13.292,1.723-13.285-.618,5.964-1.512,13.308-1.663,13.29-1.722,13.284" transform="translate(-216.377 -11.043)" fill="#455a64"/>
                <path id="Trazado_914740" data-name="Trazado 914740" d="M303.811,67.82a1.127,1.127,0,0,1-.038-.25c-.017-.185-.039-.425-.067-.722-.055-.625-.118-1.532-.183-2.655-.13-2.242-.24-5.345-.231-8.774s.14-6.532.283-8.775c.071-1.121.14-2.028.2-2.654.029-.3.053-.535.071-.72a1.088,1.088,0,0,1,.039-.25,1.168,1.168,0,0,1,0,.253c-.008.186-.018.426-.031.722-.032.652-.076,1.552-.13,2.656-.1,2.243-.21,5.342-.22,8.768s.078,6.525.169,8.768c.048,1.1.087,2,.115,2.657.011.3.02.537.027.722a1.161,1.161,0,0,1,0,.252" transform="translate(-206.154 -12.347)" fill="#fff"/>
                <path id="Trazado_914741" data-name="Trazado 914741" d="M277.735,39.863c-.055.124.3.4.784.613s.927.289.981.165-.3-.4-.784-.613-.926-.289-.981-.165" transform="translate(-163.542 -11.423)" fill="#ff9b6c"/>
                <path id="Trazado_914742" data-name="Trazado 914742" d="M271.8,53.186c.14,0,.245-.6.683-1.15.421-.568.971-.824.933-.959-.011-.133-.784-.048-1.322.661s-.426,1.472-.294,1.448" transform="translate(-153.153 -14.644)" fill="#ff9b6c"/>
                <path id="Trazado_914743" data-name="Trazado 914743" d="M247.8,41.173c.069.118.261.135.451.108s.367-.106.4-.239-.181-.291-.472-.246-.446.262-.376.376" transform="translate(-111.339 -11.707)" fill="#ff9b6c"/>
                <path id="Trazado_914744" data-name="Trazado 914744" d="M248.692,42.562a.264.264,0,1,0,.35-.083.255.255,0,0,0-.35.083" transform="translate(-112.491 -12.181)" fill="#ff9b6c"/>
                <path id="Trazado_914745" data-name="Trazado 914745" d="M278.869,83.669c.055.026.241-.194.288-.644a1.738,1.738,0,0,0-.105-.781c-.124-.3-.24-.481-.145-.622.085-.176.379-.394.511-.7a1.41,1.41,0,0,0,.12-.8c-.073-.463-.319-.652-.362-.613-.063.039.043.271.016.63a1.325,1.325,0,0,1-.175.577c-.093.2-.329.316-.547.684a.759.759,0,0,0-.027.629c.066.171.147.287.193.39a1.9,1.9,0,0,1,.175.607c.044.369-.009.617.058.642" transform="translate(-164.058 -22.818)" fill="#ff9b6c"/>
                <path id="Trazado_914746" data-name="Trazado 914746" d="M257.324,44.529s5.028-1.537,7.862,4.582c2.657,5.737,3.146,5.91,3.146,8.819,0,.834-.271,12.117-12.322,10.831,0,0-7.447-.049-7.973-6.356-.478-5.728-.243-5.589.414-6.6s6.87-10.892,8.874-11.276" transform="translate(-131.016 -12.731)" fill="#455a64"/>
                <path id="Trazado_914747" data-name="Trazado 914747" d="M301.451,56.773,274.287,46.5l-.592.828,27.1,10.582a.657.657,0,1,0,.655-1.139" transform="translate(-182.946 -13.346)" fill="#263238"/>
                <path id="Trazado_914748" data-name="Trazado 914748" d="M258.3,65.146c0,.2-.074,4.6-.074,4.6H252.2l.117-4.6Z" transform="translate(-124.134 -18.697)" fill="#263238"/>
                <path id="Trazado_914749" data-name="Trazado 914749" d="M251.851,71.6h6.031s1.43.344,1.5,2.622c.052,1.795,0,3.077,0,3.077h-9.171l-.017-2.6s-.331-2.749,1.661-3.1" transform="translate(-123.788 -20.548)" fill="#fff"/>
                <path id="Trazado_914750" data-name="Trazado 914750" d="M259.367,81.389v7.419H250.25V81.389h9.117Z" transform="translate(-123.812 -23.359)" fill="#fff"/>
                <path id="Trazado_914751" data-name="Trazado 914751" d="M258.093,83.728l-1.415,3.084h-2.6l-1.616-3.084V81.91h5.668Z" transform="translate(-124.159 -23.508)" fill="#e0e0e0"/>
                <path id="Trazado_914752" data-name="Trazado 914752" d="M256.945,90.222c-.053.267-.421,5.2-.421,5.2H255.4l-.52-5.283Z" transform="translate(-124.69 -25.872)" fill="#e0e0e0"/>
                <rect id="Rectángulo_404459" data-name="Rectángulo 404459" width="2.556" height="1.315" transform="translate(129.963 63.304)" fill="#ff725e"/>
                <path id="Trazado_914753" data-name="Trazado 914753" d="M260.193,68.317c.006-.011-.074-.08-.232-.2a5.127,5.127,0,0,1-.663-.553,5.809,5.809,0,0,1-1.584-2.679,11.418,11.418,0,0,1-.212-4.657,17.633,17.633,0,0,1,1.626-5.509,28.35,28.35,0,0,1,3.1-4.878c.544-.707,1.087-1.36,1.6-1.967a12.376,12.376,0,0,1,1.529-1.571q.379-.335.734-.618a1.8,1.8,0,0,1,.7-.414,3.229,3.229,0,0,1,1.329-.021,4.742,4.742,0,0,1,1.107.347c.006-.007-.071-.085-.248-.185a3.576,3.576,0,0,0-2.24-.342,2,2,0,0,0-.789.429q-.369.277-.761.606a12.113,12.113,0,0,0-1.591,1.569c-.525.6-1.08,1.251-1.636,1.958a27.254,27.254,0,0,0-3.165,4.928,17.469,17.469,0,0,0-1.631,5.627,11.356,11.356,0,0,0,.3,4.776,5.709,5.709,0,0,0,1.739,2.71,3.916,3.916,0,0,0,.719.508c.173.1.267.149.273.138" transform="translate(-138.512 -12.917)" fill="#263238"/>
                <path id="Trazado_914754" data-name="Trazado 914754" d="M251.1,64.984a42.083,42.083,0,0,0,7.891,0,42.086,42.086,0,0,0-7.891,0" transform="translate(-124.043 -18.597)" fill="#263238"/>
                <rect id="Rectángulo_404460" data-name="Rectángulo 404460" width="6.021" height="5.683" transform="translate(128.063 51.003)" fill="#e0e0e0"/>
                <path id="Trazado_914755" data-name="Trazado 914755" d="M250.155,85.922a3.715,3.715,0,0,0,.027-.486c.008-.346.017-.789.029-1.338.016-1.192.039-2.838.066-4.851.009-1.02.019-2.133.03-3.325q.005-.9.011-1.848a3.812,3.812,0,0,1,.061-.927,1.862,1.862,0,0,1,.424-.806,2.02,2.02,0,0,1,1.745-.642l2.169,0,2.247,0a1.939,1.939,0,0,1,1.829.863,1.9,1.9,0,0,1,.284.806c.021.276.006.617.011.92q0,.934,0,1.845c0,1.214,0,2.394.007,3.533.01,2.271.019,4.376.027,6.247l.149-.148-6.6.078-1.848.038a6.04,6.04,0,0,0-.673.033,4.229,4.229,0,0,0,.614.033l1.815.038,6.689.078.148,0v-.15c.009-1.872.018-3.976.027-6.247,0-1.139,0-2.319.008-3.533q0-.911,0-1.845c-.005-.32.013-.606-.011-.959a2.28,2.28,0,0,0-.34-.968,2.233,2.233,0,0,0-.943-.824,2.537,2.537,0,0,0-1.2-.209l-2.247,0-2.169,0a2.372,2.372,0,0,0-2,.771,2.205,2.205,0,0,0-.493.953,4.13,4.13,0,0,0-.061,1.015c0,.646.007,1.275.011,1.882.011,1.209.021,2.339.03,3.374.028,2.013.05,3.658.066,4.849.012.533.021.964.029,1.3a2.434,2.434,0,0,0,.027.434" transform="translate(-123.716 -20.473)" fill="#263238"/>
                <rect id="Rectángulo_404461" data-name="Rectángulo 404461" width="10.859" height="2.438" transform="translate(125.686 56.169)" fill="#ff725e"/>
                <path id="Trazado_914756" data-name="Trazado 914756" d="M247.244,58.671l-2.72,1.262-.468-1.427,3.073-1.427Z" transform="translate(-107.271 -16.382)" fill="#263238"/>
                <rect id="Rectángulo_404462" data-name="Rectángulo 404462" width="78.999" height="5.182" transform="translate(73.588 222.408)" fill="#263238"/>
                <rect id="Rectángulo_404463" data-name="Rectángulo 404463" width="5.182" height="74.776" transform="translate(127.202 193.417)" fill="#e0e0e0"/>
                <path id="Trazado_914757" data-name="Trazado 914757" d="M211.086,276.128h93.148a4.521,4.521,0,0,0,4.521-4.521v-1.768a4.521,4.521,0,0,0-4.521-4.521H211.086a2.535,2.535,0,0,0-2.535,2.535v5.74a2.535,2.535,0,0,0,2.535,2.535" transform="translate(-143.469 -76.147)" fill="#e0e0e0"/>
                <path id="Trazado_914758" data-name="Trazado 914758" d="M236.557,365.17l4.888-1.719-22.659-64.4a7.424,7.424,0,0,0-7.2-5.1l-15.953,0v5.182l16.03,0h.041a2.2,2.2,0,0,1,2.153,1.524l.026.076Z" transform="translate(-66.949 -84.364)" fill="#e0e0e0"/>
                <path id="Trazado_914759" data-name="Trazado 914759" d="M327.9,254.734h4.908l-.539-47.084H327.9Z" transform="translate(-252.617 -59.596)" fill="#e0e0e0"/>
                <rect id="Rectángulo_404464" data-name="Rectángulo 404464" width="5.181" height="37.4" transform="translate(84.968 199.982)" fill="#263238"/>
                <path id="Trazado_914760" data-name="Trazado 914760" d="M240.782,355.521a20.192,20.192,0,1,1-20.192,20.192,20.192,20.192,0,0,1,20.192-20.192m0,32.324a12.132,12.132,0,1,0-12.132-12.132,12.132,12.132,0,0,0,12.132,12.132" transform="translate(-104.27 -102.035)" fill="#455a64"/>
                <path id="Trazado_914761" data-name="Trazado 914761" d="M243.644,391.84a13.157,13.157,0,1,0-1.123-.047c.376.031.751.047,1.123.047m-.031-24.049q.459,0,.923.039a10.9,10.9,0,1,1-.923-.039" transform="translate(-107.11 -104.919)" fill="#e0e0e0"/>
                <rect id="Rectángulo_404465" data-name="Rectángulo 404465" width="2.221" height="24.241" transform="matrix(-0.549, -0.836, 0.836, -0.549, 127.156, 281.498)" fill="#e0e0e0"/>
                <path id="Trazado_914762" data-name="Trazado 914762" d="M252.21,389.5l1.664-1.47s-3.993-4.518-7.992-9.032c-2-2.257-4-4.513-5.506-6.2-.753-.846-1.381-1.551-1.823-2.043-.858-.958-1.331-1.484-2.138-.952l1.246,1.837-.635-.911-.77.8c.47.479,9.8,11.012,15.954,17.975" transform="translate(-108.341 -106.073)" fill="#e0e0e0"/>
                <rect id="Rectángulo_404466" data-name="Rectángulo 404466" width="2.221" height="23.517" transform="translate(136.608 285.885) rotate(-173.891)" fill="#e0e0e0"/>
                <rect id="Rectángulo_404467" data-name="Rectángulo 404467" width="24.048" height="2.221" transform="translate(148.4 275.899) rotate(-175.195)" fill="#e0e0e0"/>
                <path id="Trazado_914763" data-name="Trazado 914763" d="M265.448,355.636l-10.789,18.989-21.076-3.294s2.938-25.235,31.865-15.695" transform="translate(-118.008 -101.45)" fill="#263238"/>
                <rect id="Rectángulo_404468" data-name="Rectángulo 404468" width="57.388" height="7.85" transform="translate(190.53 273.174)" fill="#455a64"/>
                <rect id="Rectángulo_404469" data-name="Rectángulo 404469" width="44.686" height="7.85" transform="translate(168.661 273.174)" fill="#263238"/>
                <path id="Trazado_914764" data-name="Trazado 914764" d="M298,250.538h5.856v-31.9a16.751,16.751,0,0,0-16.732-16.732H214.848v5.856h72.278A10.888,10.888,0,0,1,298,218.642Z" transform="translate(-143.061 -57.949)" fill="#e0e0e0"/>
                <path id="Trazado_914765" data-name="Trazado 914765" d="M301.921,219.291a2.114,2.114,0,0,0-.026.33c-.009.236-.021.558-.038.97-.026.872-.062,2.125-.109,3.73-.078,3.259-.191,7.942-.33,13.722-.241,11.6-.575,27.6-.942,45.273-.028,1.419-.055,2.826-.081,4.141l-.018.911.384-.825,17.945-38.538,5.341-11.571,1.43-3.141.362-.819a1.852,1.852,0,0,0,.112-.284,1.922,1.922,0,0,0-.146.268l-.4.8-1.492,3.111-5.45,11.52c-4.589,9.784-10.947,23.336-18.054,38.487l.366.086c.026-1.315.053-2.723.081-4.142.324-17.672.617-33.671.829-45.275.088-5.781.158-10.465.207-13.725.016-1.606.029-2.86.037-3.732v-.971a2.211,2.211,0,0,0-.014-.331" transform="translate(-226.136 -62.937)" fill="#e0e0e0"/>
                <path id="Trazado_914766" data-name="Trazado 914766" d="M336.689,249.081a2.772,2.772,0,0,0,.207.494l.663,1.384c.581,1.2,1.443,2.923,2.525,5.047,2.162,4.245,5.225,10.073,8.741,16.435s6.828,12.057,9.274,16.145c1.223,2.044,2.225,3.691,2.931,4.821l.819,1.3a2.868,2.868,0,0,0,.308.439,2.77,2.77,0,0,0-.241-.478l-.758-1.334-2.825-4.883c-2.385-4.122-5.653-9.833-9.171-16.193s-6.614-12.162-8.838-16.375l-2.633-4.988-.727-1.351a2.8,2.8,0,0,0-.277-.459" transform="translate(-288.233 -71.487)" fill="#e0e0e0"/>
                <path id="Trazado_914767" data-name="Trazado 914767" d="M335.189,303.692c-.021.1,8.818,2,19.741,4.224s19.8,3.951,19.821,3.847-8.817-2-19.744-4.225-19.8-3.951-19.818-3.847" transform="translate(-299.757 -87.159)" fill="#e0e0e0"/>
                <path id="Trazado_914768" data-name="Trazado 914768" d="M335.462,334.871c.046.1,8.619-3.953,19.146-9.042s19.027-9.295,18.981-9.39-8.618,3.952-19.148,9.043-19.025,9.294-18.979,9.389" transform="translate(-298.789 -90.818)" fill="#e0e0e0"/>
                <path id="Trazado_914769" data-name="Trazado 914769" d="M335.619,355.95a2.406,2.406,0,0,0,.367-.333l1-1.009c.863-.878,2.087-2.175,3.576-3.8,2.981-3.243,6.986-7.83,11.172-13.091s7.75-10.2,10.238-13.837c1.245-1.817,2.232-3.3,2.893-4.34l.757-1.2a2.34,2.34,0,0,0,.242-.433,2.445,2.445,0,0,0-.307.389l-.817,1.159-2.992,4.268c-2.542,3.591-6.138,8.495-10.316,13.752s-8.146,9.861-11.073,13.148l-3.484,3.877-.945,1.058a2.436,2.436,0,0,0-.31.386" transform="translate(-291.175 -91.241)" fill="#e0e0e0"/>
                <path id="Trazado_914770" data-name="Trazado 914770" d="M333.387,374.994a3.922,3.922,0,0,0,.161-.613l.389-1.772,1.407-6.52c1.2-5.5,2.946-13.085,5.086-21.406s4.278-15.807,5.881-21.206c.8-2.671,1.453-4.844,1.916-6.389q.324-1.093.515-1.739a3.83,3.83,0,0,0,.155-.615,3.84,3.84,0,0,0-.229.591q-.216.637-.584,1.718c-.5,1.493-1.2,3.664-2.033,6.355-1.671,5.382-3.848,12.859-5.994,21.189s-3.844,15.926-4.979,21.446c-.568,2.76-1.006,5-1.288,6.548q-.2,1.123-.318,1.786a3.9,3.9,0,0,0-.085.628" transform="translate(-272.617 -90.329)" fill="#e0e0e0"/>
                <path id="Trazado_914771" data-name="Trazado 914771" d="M328.739,380.8a.573.573,0,0,0-.024-.173c-.029-.134-.065-.3-.108-.5q-.167-.7-.455-1.9c-.4-1.683-.975-4.059-1.678-6.982-1.4-5.9-3.216-14.075-4.953-23.16s-3.054-17.36-3.931-23.359c-.423-2.975-.767-5.4-1.012-7.109q-.174-1.22-.277-1.932c-.034-.2-.061-.366-.083-.5a.088.088,0,1,0-.039.005c.012.137.027.3.044.506q.076.714.207,1.942c.184,1.686.486,4.122.891,7.127.808,6.012,2.087,14.3,3.821,23.393s3.6,17.265,5.067,23.151c.732,2.943,1.348,5.32,1.8,6.955l.523,1.882.145.487a.64.64,0,0,0,.062.163" transform="translate(-240.188 -90.413)" fill="#e0e0e0"/>
                <path id="Trazado_914772" data-name="Trazado 914772" d="M318.8,335.17a2,2,0,0,0-.4-.21l-1.161-.533-4.292-1.913-14.134-6.363c-5.516-2.5-10.532-4.716-14.187-6.263-1.827-.773-3.31-1.39-4.341-1.8l-1.189-.467a1.943,1.943,0,0,0-.425-.139,1.972,1.972,0,0,0,.394.21l1.161.533,4.292,1.913,14.137,6.363c5.514,2.5,10.53,4.715,14.185,6.262,1.827.773,3.31,1.389,4.341,1.8l1.19.467a1.943,1.943,0,0,0,.425.139" transform="translate(-203.505 -91.117)" fill="#e0e0e0"/>
                <path id="Trazado_914773" data-name="Trazado 914773" d="M279.716,306.207a2.2,2.2,0,0,0,.461-.128l1.3-.438c1.124-.386,2.74-.973,4.729-1.723,3.976-1.5,9.425-3.693,15.341-6.351s11.174-5.282,14.934-7.262c1.88-.989,3.392-1.809,4.426-2.394l1.188-.679a2.171,2.171,0,0,0,.4-.26,2.3,2.3,0,0,0-.438.192l-1.221.615-4.48,2.284c-3.789,1.917-9.059,4.494-14.968,7.153s-11.333,4.886-15.282,6.448l-4.682,1.836-1.271.506a2.211,2.211,0,0,0-.434.2" transform="translate(-207.946 -82.361)" fill="#e0e0e0"/>
                <path id="Trazado_914774" data-name="Trazado 914774" d="M331.343,312.606c0,3.151,1.471,5.705,3.286,5.705s3.286-2.555,3.286-5.705-1.472-5.705-3.286-5.705-3.286,2.555-3.286,5.705" transform="translate(-260.179 -88.081)" fill="#e0e0e0"/>
                <path id="Trazado_914775" data-name="Trazado 914775" d="M323.521,361.469c.088-.059-6.753-10.532-15.28-23.388s-15.513-23.237-15.6-23.177,6.752,10.53,15.281,23.391,15.513,23.234,15.6,23.175" transform="translate(-218.188 -90.378)" fill="#e0e0e0"/>
                <path id="Trazado_914776" data-name="Trazado 914776" d="M277.64,314.992c.006.106,9.711-.37,21.674-1.064s21.66-1.342,21.654-1.448-9.71.369-21.677,1.064-21.659,1.342-21.652,1.448" transform="translate(-204.942 -89.678)" fill="#e0e0e0"/>
                <path id="Trazado_914777" data-name="Trazado 914777" d="M337.5,281.245a1.7,1.7,0,0,0,.339.235l1.009.608c.882.517,2.153,1.276,3.713,2.226,3.123,1.9,7.378,4.62,11.918,7.857s8.5,6.382,11.307,8.718c1.407,1.166,2.537,2.121,3.313,2.787l.9.757a1.674,1.674,0,0,0,.332.244,1.631,1.631,0,0,0-.28-.3l-.856-.811c-.746-.7-1.85-1.688-3.236-2.883-2.771-2.392-6.71-5.574-11.259-8.823s-8.839-5.934-12-7.776c-1.581-.922-2.874-1.646-3.78-2.123l-1.045-.545a1.677,1.677,0,0,0-.377-.168" transform="translate(-296.989 -80.718)" fill="#e0e0e0"/>
                <path id="Trazado_914778" data-name="Trazado 914778" d="M335.364,385.287a4.1,4.1,0,0,0,.052-.649q.028-.689.074-1.862c.051-1.653.123-3.984.212-6.848.18-5.814.427-13.785.7-22.591.317-8.808.6-16.779.812-22.591.1-2.863.187-5.193.247-6.846q.031-1.173.051-1.862a4.215,4.215,0,0,0-.009-.651,4.033,4.033,0,0,0-.069.647q-.046.688-.123,1.859c-.088,1.652-.214,3.98-.368,6.841-.287,5.779-.63,13.765-.925,22.591s-.487,16.813-.587,22.6c-.038,2.866-.068,5.2-.09,6.851q0,1.173,0,1.863a4.125,4.125,0,0,0,.026.65" transform="translate(-262.627 -92.239)" fill="#e0e0e0"/>
                <path id="Trazado_914779" data-name="Trazado 914779" d="M285.117,303.739a.855.855,0,0,0,.2.006l.578-.019,2.232-.11c1.943-.108,4.766-.294,8.281-.587,7.032-.583,16.84-1.647,27.9-3.445l.066-.011.044-.05,5.31-5.879,22.388-24.886,6.751-7.571,1.821-2.072.466-.545a1.211,1.211,0,0,0,.15-.194,1.094,1.094,0,0,0-.179.168l-.495.52-1.874,2.023-6.843,7.489-22.472,24.812-5.305,5.882.11-.06c-11.043,1.811-20.835,2.92-27.857,3.57-3.511.327-6.329.553-8.269.7l-2.227.175-.576.053a.884.884,0,0,0-.2.03" transform="translate(-250.603 -74.154)" fill="#e0e0e0"/>
                <path id="Trazado_914780" data-name="Trazado 914780" d="M343.958,223.747a5.341,5.341,0,0,0-.379,1.246c-.21.829-.5,2.055-.856,3.637-.714,3.164-1.709,7.751-2.913,13.424-2.41,11.346-5.665,27.035-9.2,44.375-.1.481-.2.96-.287,1.4l.376-.006c-3.995-16.907-7.595-32.146-10.2-43.18-1.317-5.491-2.381-9.934-3.121-13.024l-.866-3.532c-.1-.389-.178-.692-.235-.915a2.015,2.015,0,0,0-.093-.309,2.024,2.024,0,0,0,.054.318c.048.225.115.531.2.924.185.83.454,2.021.8,3.548.712,3.1,1.736,7.55,3,13.053,2.579,11.04,6.14,26.288,10.09,43.206l.2.858.176-.863c.09-.443.188-.923.286-1.4,3.55-17.329,6.763-33.018,9.094-44.4,1.177-5.664,2.13-10.254,2.794-13.448l.784-3.651.217-.946a2.548,2.548,0,0,1,.087-.317" transform="translate(-255.407 -64.216)" fill="#e0e0e0"/>
                <path id="Trazado_914781" data-name="Trazado 914781" d="M305.771,287.429c0-35.448-15.9-64.582-36.232-67.929a24.052,24.052,0,0,1,3.917-.324c22.174,0,40.15,30.558,40.15,68.253s-17.976,68.253-40.15,68.253a24.05,24.05,0,0,1-3.917-.324c20.335-3.348,36.232-32.481,36.232-67.929" transform="translate(-191.802 -62.904)" fill="#455a64"/>
                <path id="Trazado_914782" data-name="Trazado 914782" d="M371.492,219.176a24.124,24.124,0,0,1,3.917.324c-20.335,3.348-36.232,32.481-36.232,67.929s15.9,64.581,36.232,67.929a24.124,24.124,0,0,1-3.917.324c-22.173,0-40.149-30.558-40.149-68.252s17.975-68.253,40.149-68.253" transform="translate(-297.672 -62.904)" fill="#263238"/>
                <path id="Trazado_914783" data-name="Trazado 914783" d="M316.609,355.241c20.182,0,36.6-30.586,36.6-68.18,0-17.382-4.25-34.344-11.967-47.76-7.074-12.3-16.194-19.826-24.4-20.14-4.682-.175-9.863,2.309-14.944,7.2-5.986,5.762-11.424,14.515-15.312,24.647a101.632,101.632,0,0,0-6.583,36.054c0,37.594,16.42,68.18,36.6,68.18m-.241-135.348q.226,0,.448.009c7.949.3,16.841,7.694,23.786,19.769,7.653,13.306,11.869,30.137,11.869,47.392,0,37.186-16.087,67.44-35.862,67.44s-35.863-30.253-35.863-67.44c0-19.568,6.7-45.76,21.669-60.167,4.768-4.59,9.581-7,13.953-7" transform="translate(-238.872 -62.897)" fill="#263238"/>
                <path id="Trazado_914784" data-name="Trazado 914784" d="M240.408,142.8l-.015,27.1a13.063,13.063,0,0,0,12.845,11.954l47.5,3.094,2.3-11.037-46.3-12.182,1.927-16.775Z" transform="translate(-160.457 -40.983)" fill="#ffc09d"/>
                <path id="Trazado_914785" data-name="Trazado 914785" d="M305.345,176.468a5.181,5.181,0,0,0,.557-1.284,13.83,13.83,0,0,1,1.5-2.938,7.9,7.9,0,0,1,2.389-2.207,7.494,7.494,0,0,0,1.2-.7,3.082,3.082,0,0,0-1.355.416,6.875,6.875,0,0,0-2.607,2.226,10.375,10.375,0,0,0-1.438,3.1,3.749,3.749,0,0,0-.251,1.387" transform="translate(-214.71 -48.597)" fill="#ff9b6c"/>
                <path id="Trazado_914786" data-name="Trazado 914786" d="M212.188,186.43l16,7.365,7.014,14.694-.314,10.608a4.1,4.1,0,0,1-2.7-3.4l-.624-5.567-.58,8.969s-2.774-.416-3.514-2.64a50.966,50.966,0,0,1-1.219-7.784l-5.088-6.1s-6.675-.764-8.979-2.935-4.078-3.613-4.078-3.613l4.078-9.274" transform="translate(-69.605 -53.506)" fill="#ffc09d"/>
                <path id="Trazado_914787" data-name="Trazado 914787" d="M151.324,269.606c.361,0,14.386.22,14.743.2,13.2-.575,23.57-8.09,23.7-18.452.061-4.773.009-52.747,0-53.187l-.867.017c.009.442.061,48.4,0,53.16-.127,9.869-9.4,16.452-22.909,17.6-.372.031-14.033-.158-14.4-.158-7.534,0-22.121-7.178-23.3-13.63-.455-2.484-.961-7.065-1.6-12.865-2.52-22.777-4.971-60.855-15.594-67.16-6.144-3.646-20.31-5.188-33.438-6.776-12.191-1.472-24.8-3-31.943-6.37-3.057-1.444-13.134-6.669-14.5-13.324-.86-4.189-7.174-50.525-7.238-50.994l-.879-.036c.261,1.917,6.4,46.987,7.269,51.2,1.409,6.857,10.945,12.028,14.98,13.933,7.274,3.434,19.95,4.966,32.209,6.447,13.036,1.575,27.114,3.107,33.1,6.66,10.252,6.085,12.838,45.377,15.175,66.51.643,5.817,1.151,10.411,1.612,12.925.737,4.033,5.609,7.631,9.826,10.12,3.092,1.825,10.8,4.17,14.055,4.171" transform="translate(107.714 -28.021)" fill="#e0e0e0"/>
                <path id="Trazado_914788" data-name="Trazado 914788" d="M151.389,269.531s-.1-.009-.307-.021-.508-.03-.91-.079a30.174,30.174,0,0,1-3.529-.694,51.916,51.916,0,0,1-5.611-1.755,26.37,26.37,0,0,1-3.43-1.535,42.7,42.7,0,0,1-3.614-2.324A25.688,25.688,0,0,1,130.331,260a10.109,10.109,0,0,1-2.682-4.5c-.371-1.816-.58-3.759-.831-5.768q-.34-3.021-.709-6.284c-.97-8.7-1.8-18.683-3.212-29.754-.724-5.531-1.564-11.341-2.828-17.347a91.177,91.177,0,0,0-2.361-9.1,32.582,32.582,0,0,0-4.125-8.877c-.25-.337-.532-.652-.8-.979s-.6-.595-.9-.895-.688-.507-1.03-.765c-.367-.215-.751-.4-1.127-.607a31.9,31.9,0,0,0-4.833-1.771,96.5,96.5,0,0,0-10.324-2.137c-7.062-1.107-14.4-1.884-21.938-2.835-3.768-.476-7.589-.974-11.439-1.624a86.384,86.384,0,0,1-11.553-2.615,32.965,32.965,0,0,1-5.569-2.287,46.933,46.933,0,0,1-5.255-3.108,29.554,29.554,0,0,1-4.721-3.95,13.365,13.365,0,0,1-3.256-5.209l-.21-.747c-.068-.25-.1-.513-.148-.77-.1-.515-.175-1.037-.257-1.559q-.238-1.568-.48-3.144-.459-3.157-.923-6.348-.9-6.386-1.82-12.9l-3.66-26.578-.183.2.879.035-.169-.153c2.117,15.4,4.278,31.441,6.724,47.917.16,1.029.32,2.06.512,3.1a10.375,10.375,0,0,0,1.2,2.95,19.15,19.15,0,0,0,4.2,4.744,38.286,38.286,0,0,0,5.228,3.641,40.72,40.72,0,0,0,5.735,2.859,68.79,68.79,0,0,0,12.492,3.189c4.256.744,8.557,1.32,12.878,1.859,6.071.76,12.117,1.425,18.1,2.261,2.988.421,5.961.886,8.9,1.474a54.572,54.572,0,0,1,8.609,2.349,13.723,13.723,0,0,1,3.813,2.141,13.532,13.532,0,0,1,2.724,3.409,37.9,37.9,0,0,1,3.424,8.071,124.872,124.872,0,0,1,3.765,16.991c1.82,11.378,2.841,22.66,3.992,33.683q.452,4.131.9,8.219c.315,2.724.61,5.433,1.043,8.117a7.724,7.724,0,0,0,1.654,3.737,18.127,18.127,0,0,0,2.866,2.875,35.464,35.464,0,0,0,6.8,4.231,39.553,39.553,0,0,0,7.409,2.753,22.719,22.719,0,0,0,3.872.657c1.318.073,2.6.044,3.889.071l7.679.082,3.8.04c1.256-.145,2.514-.25,3.748-.491a28.634,28.634,0,0,0,13.554-5.683,16.082,16.082,0,0,0,4.444-5.69,10.12,10.12,0,0,0,.64-1.684,10.446,10.446,0,0,0,.421-1.744,10.624,10.624,0,0,0,.205-1.774,17.3,17.3,0,0,0,.049-1.768c-.009-18.763-.016-36.209-.024-52.09l-.128.133.866-.018-.133-.128c.01,15.64.019,29.774.027,42.177q0,4.651.008,8.974c0,.719.009,1.434-.006,2.138-.068.7-.068,1.4-.19,2.074a15.132,15.132,0,0,1-1.166,3.856,17.586,17.586,0,0,1-4.557,5.971,22.867,22.867,0,0,1-5.8,3.652,29.006,29.006,0,0,1-5.832,1.923c-.472.1-.933.213-1.391.3l-1.36.2c-.888.158-1.758.191-2.592.265a21,21,0,0,1-2.413.036l-2.22-.026-3.841-.044-5.211-.054c-1.173-.01-1.774-.006-1.774-.006s.6.021,1.775.044l5.211.091,3.842.062,2.222.035a21.019,21.019,0,0,0,2.416-.028c.836-.07,1.71-.1,2.6-.257l1.366-.2c.461-.082.923-.195,1.4-.293a29.127,29.127,0,0,0,5.863-1.916,22.989,22.989,0,0,0,5.843-3.662,17.727,17.727,0,0,0,4.612-6.02,15.291,15.291,0,0,0,1.188-3.9c.125-.684.126-1.392.2-2.1.017-.707.006-1.42.01-2.14q0-4.322.008-8.975c.008-12.4.017-26.541.027-42.183v-.13l-.133,0-.866.017-.128,0v.13c-.007,15.879-.014,33.321-.023,52.082a16.891,16.891,0,0,1-.05,1.754,10.382,10.382,0,0,1-.2,1.737,10.184,10.184,0,0,1-.414,1.707,9.833,9.833,0,0,1-.628,1.647,15.755,15.755,0,0,1-4.362,5.575,28.328,28.328,0,0,1-13.406,5.606c-1.225.238-2.473.342-3.721.485l-3.791-.043-7.665-.086c-1.281-.027-2.589,0-3.86-.072a22.4,22.4,0,0,1-3.812-.65,39.234,39.234,0,0,1-7.342-2.732,35.121,35.121,0,0,1-6.726-4.191,17.83,17.83,0,0,1-2.809-2.818,7.363,7.363,0,0,1-1.586-3.584c-.429-2.667-.724-5.378-1.037-8.1q-.445-4.087-.9-8.217c-1.148-11.02-2.165-22.308-3.986-33.7a125.17,125.17,0,0,0-3.775-17.044,38.263,38.263,0,0,0-3.458-8.15,13.9,13.9,0,0,0-2.8-3.5,14.043,14.043,0,0,0-3.919-2.2,54.747,54.747,0,0,0-8.671-2.369c-2.947-.59-5.925-1.056-8.917-1.479-5.987-.838-12.033-1.5-18.1-2.262-4.319-.539-8.614-1.114-12.86-1.856A68.578,68.578,0,0,1,47.6,162.483a40.425,40.425,0,0,1-5.682-2.833,37.936,37.936,0,0,1-5.179-3.606,18.813,18.813,0,0,1-4.123-4.648,10.007,10.007,0,0,1-1.154-2.838c-.189-1.019-.349-2.05-.509-3.077-2.448-16.468-4.612-32.511-6.734-47.91l-.021-.148-.149-.006-.879-.036-.212-.009.029.21q1.867,13.529,3.669,26.578.922,6.518,1.825,12.905.466,3.191.927,6.349.242,1.577.482,3.147c.083.523.163,1.045.26,1.567.051.26.081.523.15.781l.217.773a13.68,13.68,0,0,0,3.334,5.337,29.828,29.828,0,0,0,4.778,3.993,47.116,47.116,0,0,0,5.293,3.126,33.23,33.23,0,0,0,5.619,2.3,86.549,86.549,0,0,0,11.6,2.618c3.857.648,7.682,1.144,11.452,1.618,7.539.945,14.879,1.716,21.93,2.816a96.365,96.365,0,0,1,10.294,2.12,31.53,31.53,0,0,1,4.788,1.749,9.386,9.386,0,0,1,3.763,3.159,32.36,32.36,0,0,1,4.1,8.8,91.124,91.124,0,0,1,2.365,9.076c1.268,5.994,2.115,11.8,2.846,17.326,1.427,11.062,2.274,21.047,3.261,29.744q.375,3.261.722,6.284c.257,2.013.468,3.948.847,5.782a10.231,10.231,0,0,0,2.729,4.557,25.845,25.845,0,0,0,3.684,3.127,42.757,42.757,0,0,0,3.632,2.319,26.473,26.473,0,0,0,3.45,1.529,51.122,51.122,0,0,0,5.628,1.73,28.687,28.687,0,0,0,3.541.665,8.777,8.777,0,0,0,.913.064c.2.006.307.005.307.005" transform="translate(107.65 -27.947)" fill="#263238"/>
              </g>
            </g>
          </g>
        </g>
      </g>
    </g>
  </g>
</svg>
