<svg xmlns="http://www.w3.org/2000/svg" width="85" height="93.223" viewBox="0 0 85 93.223">
  <g id="Grupo_1103876" data-name="Grupo 1103876" transform="translate(-705 -6308.014)">
    <rect id="Rectángulo_403022" data-name="Rectángulo 403022" width="85" height="93.223" transform="translate(705 6308.014)" fill="#ebf8fa"/>
    <g id="Grupo_1103803" data-name="Grupo 1103803" transform="translate(683.911 6304.27)">
      <g id="Grupo_1103785" data-name="Grupo 1103785" transform="translate(52.796 16)">
        <g id="Grupo_1103782" data-name="Grupo 1103782" transform="translate(0 0)">
          <path id="Trazado_915192" data-name="Trazado 915192" d="M221.213,33.512a4.378,4.378,0,0,0-2.465-3.939,4.381,4.381,0,0,0-5.3-5.747,4.38,4.38,0,0,0-6.427-2.886l-.074-.019a4.378,4.378,0,1,0-8.689,0l-.074.019a4.38,4.38,0,0,0-6.427,2.886,4.381,4.381,0,0,0-5.3,5.747,4.379,4.379,0,0,0-1.314,6.9q-.056.7-.057,1.419V59.78a17.512,17.512,0,0,0,35.024,0V37.89q0-.717-.057-1.419A4.362,4.362,0,0,0,221.213,33.512Z" transform="translate(-184 -16)" fill="#69a041"/>
        </g>
        <g id="Grupo_1103783" data-name="Grupo 1103783" transform="translate(0 0)">
          <path id="Trazado_915193" data-name="Trazado 915193" d="M198.228,20.378a4.428,4.428,0,0,0,.033.543l-.074.019a4.38,4.38,0,0,0-6.427,2.886,4.381,4.381,0,0,0-5.3,5.747,4.379,4.379,0,0,0-1.314,6.9q-.056.7-.057,1.419V59.78a8.756,8.756,0,0,0,17.512,0V16A4.378,4.378,0,0,0,198.228,20.378Z" transform="translate(-184 -16)" fill="#91b945"/>
        </g>
        <path id="Trazado_915194" data-name="Trazado 915194" d="M242.588,119.3l-5.395,5.395a27.461,27.461,0,0,0-3.747,4.665q-.356-2.344-.653-4.7a25.242,25.242,0,0,1,5.948-9.366l5.395-5.395a1.095,1.095,0,0,0-1.548-1.548l-5.395,5.395a27.371,27.371,0,0,0-4.889,6.634q-.194-1.889-.35-3.782a25.162,25.162,0,0,1,6.786-12.249l1.017-1.017a1.095,1.095,0,1,0-1.548-1.548l-1.017,1.017a27.365,27.365,0,0,0-5.618,8.13q-.251-4.845-.252-9.7V97.094a1.094,1.094,0,1,0-2.189,0v4.142q0,4.857-.252,9.7a27.365,27.365,0,0,0-5.618-8.13l-1.017-1.017a1.095,1.095,0,1,0-1.548,1.548l1.017,1.017a25.16,25.16,0,0,1,6.787,12.249q-.156,1.893-.35,3.782a27.369,27.369,0,0,0-4.889-6.634l-5.395-5.395a1.094,1.094,0,0,0-1.548,1.548l5.395,5.395a25.241,25.241,0,0,1,5.948,9.366q-.3,2.352-.653,4.7a27.456,27.456,0,0,0-3.747-4.665l-5.395-5.395a1.094,1.094,0,0,0-1.548,1.548l5.395,5.395a25.381,25.381,0,0,1,4.742,6.549q-.856,5.013-1.984,9.979l-.546,2.4a17.581,17.581,0,0,0,12.6,0l-.546-2.4q-1.128-4.965-1.984-9.979a25.38,25.38,0,0,1,4.742-6.549l5.395-5.395a1.095,1.095,0,0,0-1.548-1.548Z" transform="translate(-211.621 -85.055)" fill="#dcffa0"/>
        <path id="Trazado_915195" data-name="Trazado 915195" d="M292.6,119.3l-5.395,5.395a27.462,27.462,0,0,0-3.747,4.665q-.356-2.344-.653-4.7a25.243,25.243,0,0,1,5.948-9.366l5.395-5.395a1.095,1.095,0,1,0-1.548-1.548l-5.395,5.395a27.375,27.375,0,0,0-4.889,6.634q-.194-1.889-.35-3.782a25.162,25.162,0,0,1,6.787-12.249l1.017-1.017a1.095,1.095,0,1,0-1.548-1.548l-1.017,1.017a27.365,27.365,0,0,0-5.618,8.13q-.251-4.845-.252-9.7V97.094a1.094,1.094,0,1,0-2.189,0v4.142a187.434,187.434,0,0,1-4.661,41.539l-.546,2.4a17.581,17.581,0,0,0,12.6,0l-.546-2.4q-1.128-4.965-1.984-9.979a25.382,25.382,0,0,1,4.742-6.549l5.395-5.395A1.095,1.095,0,1,0,292.6,119.3Z" transform="translate(-261.635 -85.055)" fill="#afd763"/>
        <g id="Grupo_1103784" data-name="Grupo 1103784" transform="translate(14.393 10.945)">
          <path id="Trazado_915196" data-name="Trazado 915196" d="M293.414,135.483V96a1.1,1.1,0,0,0-1.094,1.094v4.142a187.445,187.445,0,0,1-3.084,33.859,2.107,2.107,0,1,0,4.178.387Z" transform="translate(-289.2 -96)" fill="#dcffa0"/>
        </g>
      </g>
      <g id="Grupo_1103790" data-name="Grupo 1103790" transform="translate(35.223 33.512)">
        <g id="Grupo_1103786" data-name="Grupo 1103786" transform="translate(13.194 0)">
          <path id="Trazado_915197" data-name="Trazado 915197" d="M153.094,151.661A1.1,1.1,0,0,1,152,150.567v-1.095A5.479,5.479,0,0,1,157.472,144a1.094,1.094,0,1,1,0,2.189,3.287,3.287,0,0,0-3.283,3.283v1.095A1.1,1.1,0,0,1,153.094,151.661Z" transform="translate(-152 -144)" fill="#4b8c41"/>
        </g>
        <g id="Grupo_1103787" data-name="Grupo 1103787" transform="translate(0 5.949)">
          <ellipse id="Elipse_11541" data-name="Elipse 11541" cx="14.555" cy="13.232" rx="14.555" ry="13.232" transform="translate(0 0)" fill="#e1322d"/>
        </g>
        <g id="Grupo_1103788" data-name="Grupo 1103788" transform="translate(1.155 6.567)">
          <path id="Trazado_915198" data-name="Trazado 915198" d="M72.756,205.134H64A13.134,13.134,0,0,1,77.134,192v8.756A4.378,4.378,0,0,1,72.756,205.134Z" transform="translate(-64 -192)" fill="#f04b37"/>
        </g>
        <g id="Grupo_1103789" data-name="Grupo 1103789" transform="translate(5.293 11.242)">
          <circle id="Elipse_11542" data-name="Elipse 11542" cx="1.985" cy="1.985" r="1.985" transform="translate(0 0)" fill="#f5826e"/>
        </g>
        <path id="Trazado_915199" data-name="Trazado 915199" d="M112.417,184H97.094a1.094,1.094,0,0,0,0,2.189h5.019L100.7,187.6a1.094,1.094,0,0,0,1.548,1.548l2.51-2.51,2.509,2.51a1.095,1.095,0,1,0,1.548-1.548l-1.415-1.415h5.019a1.094,1.094,0,0,0,0-2.189Z" transform="translate(-90.467 -178.528)" fill="#69a041"/>
      </g>
      <g id="Grupo_1103802" data-name="Grupo 1103802" transform="translate(32 55.402)">
        <g id="Grupo_1103791" data-name="Grupo 1103791" transform="translate(4.378 15.323)">
          <path id="Trazado_915200" data-name="Trazado 915200" d="M66.189,426.945A2.189,2.189,0,0,1,64,424.756a7.424,7.424,0,0,1,2.189-5.285l1.282-1.282A7.425,7.425,0,0,1,72.756,416a2.189,2.189,0,0,1,0,4.378,3.076,3.076,0,0,0-2.189.907l-1.282,1.282a3.076,3.076,0,0,0-.907,2.189A2.189,2.189,0,0,1,66.189,426.945Z" transform="translate(-64 -416)" fill="#4b8c41"/>
        </g>
        <g id="Grupo_1103792" data-name="Grupo 1103792" transform="translate(4.378)">
          <path id="Trazado_915201" data-name="Trazado 915201" d="M72.756,314.945a7.425,7.425,0,0,1-5.285-2.189l-1.282-1.282A7.425,7.425,0,0,1,64,306.189a2.189,2.189,0,0,1,4.378,0,3.076,3.076,0,0,0,.907,2.189l1.282,1.282a3.076,3.076,0,0,0,2.189.907,2.189,2.189,0,0,1,0,4.378Z" transform="translate(-64 -304)" fill="#69a041"/>
        </g>
        <g id="Grupo_1103793" data-name="Grupo 1103793" transform="translate(0 12.039)">
          <path id="Trazado_915202" data-name="Trazado 915202" d="M34.189,400.756a2.189,2.189,0,0,1-1.548-3.737l1.813-1.813A10.874,10.874,0,0,1,42.194,392h2.94a2.189,2.189,0,0,1,0,4.378h-2.94a6.524,6.524,0,0,0-4.644,1.923l-1.813,1.813A2.182,2.182,0,0,1,34.189,400.756Z" transform="translate(-32 -392)" fill="#69a041"/>
        </g>
        <g id="Grupo_1103794" data-name="Grupo 1103794" transform="translate(0 5.472)">
          <path id="Trazado_915203" data-name="Trazado 915203" d="M45.134,352.756h-2.94a10.873,10.873,0,0,1-7.739-3.206l-1.813-1.813a2.189,2.189,0,1,1,3.1-3.1l1.813,1.813a6.524,6.524,0,0,0,4.644,1.923h2.94a2.189,2.189,0,1,1,0,4.378Z" transform="translate(-32 -344)" fill="#91b945"/>
        </g>
        <g id="Grupo_1103795" data-name="Grupo 1103795" transform="translate(13.134 2.189)">
          <path id="Trazado_915204" data-name="Trazado 915204" d="M132.378,320h27.051a21.889,21.889,0,0,1,15.478,6.411l2.665,2.665a2.642,2.642,0,0,1,0,3.737l-2.665,2.665a21.89,21.89,0,0,1-15.478,6.411H132.378A4.378,4.378,0,0,1,128,337.512V324.378A4.378,4.378,0,0,1,132.378,320Z" transform="translate(-128 -320)" fill="#faa037"/>
        </g>
        <g id="Grupo_1103796" data-name="Grupo 1103796" transform="translate(17.512 13.134)">
          <path id="Trazado_915205" data-name="Trazado 915205" d="M205.969,400h-43.78A2.189,2.189,0,0,0,160,402.189v8.756h27.051a21.89,21.89,0,0,0,15.478-6.411l2.665-2.665A2.642,2.642,0,0,0,205.969,400Z" transform="translate(-160 -400)" fill="#f57828"/>
        </g>
        <g id="Grupo_1103797" data-name="Grupo 1103797" transform="translate(17.512 2.189)">
          <path id="Trazado_915206" data-name="Trazado 915206" d="M162.189,325.472V320H160v5.472a1.094,1.094,0,0,0,2.189,0Z" transform="translate(-160 -320)" fill="#f57828"/>
        </g>
        <g id="Grupo_1103798" data-name="Grupo 1103798" transform="translate(29.551 2.189)">
          <path id="Trazado_915207" data-name="Trazado 915207" d="M250.189,325.472V320H248v5.472a1.094,1.094,0,1,0,2.189,0Z" transform="translate(-248 -320)" fill="#f57828"/>
        </g>
        <g id="Grupo_1103799" data-name="Grupo 1103799" transform="translate(41.591 2.189)">
          <path id="Trazado_915208" data-name="Trazado 915208" d="M338.189,325.472V320H336v5.472a1.095,1.095,0,0,0,2.189,0Z" transform="translate(-336 -320)" fill="#f57828"/>
        </g>
        <g id="Grupo_1103800" data-name="Grupo 1103800" transform="translate(24.079 17.512)">
          <path id="Trazado_915209" data-name="Trazado 915209" d="M210.189,433.094v5.472H208v-5.472a1.094,1.094,0,0,1,2.189,0Z" transform="translate(-208 -432)" fill="#d65a0a"/>
        </g>
        <g id="Grupo_1103801" data-name="Grupo 1103801" transform="translate(35.024 17.512)">
          <path id="Trazado_915210" data-name="Trazado 915210" d="M290.189,433.094v5.472H288v-5.472a1.095,1.095,0,0,1,2.189,0Z" transform="translate(-288 -432)" fill="#d65a0a"/>
        </g>
      </g>
    </g>
  </g>
</svg>
