<svg xmlns="http://www.w3.org/2000/svg" xmlns:xlink="http://www.w3.org/1999/xlink" width="525.762" height="307.413" viewBox="0 0 525.762 307.413">
  <defs>
    <clipPath id="clip-path">
      <rect id="Rectángulo_401529" data-name="Rectángulo 401529" width="375.616" height="223.249" fill="none"/>
    </clipPath>
    <clipPath id="clip-path-3">
      <rect id="Rectángulo_401527" data-name="Rectángulo 401527" width="153.391" height="56.217" transform="translate(214.061 67.304)" fill="none"/>
    </clipPath>
  </defs>
  <g id="Grupo_1103717" data-name="Grupo 1103717" transform="translate(-532.138 -3562.871)">
    <path id="Trazado_876676" data-name="Trazado 876676" d="M16.085,10.865a7.546,7.546,0,0,1-.694,3.313A5.132,5.132,0,0,1,13.417,16.4a5.494,5.494,0,0,1-2.914.778,5.572,5.572,0,0,1-2.9-.751A5.123,5.123,0,0,1,5.63,14.275a7.329,7.329,0,0,1-.743-3.208v-.721a7.58,7.58,0,0,1,.69-3.318A5.119,5.119,0,0,1,7.555,4.81a5.533,5.533,0,0,1,2.931-.782,5.479,5.479,0,0,1,2.9.773A5.211,5.211,0,0,1,15.369,7a7.362,7.362,0,0,1,.716,3.274Zm-3.138-.536a5.381,5.381,0,0,0-.637-2.9,2.044,2.044,0,0,0-1.824-.989q-2.32,0-2.452,3.48l-.009.94a5.535,5.535,0,0,0,.624,2.892A2.041,2.041,0,0,0,10.5,14.768a2.016,2.016,0,0,0,1.8-.993,5.383,5.383,0,0,0,.642-2.856Zm8.042-5.2V7.49h1.564V9.547H20.989V13.9a1.111,1.111,0,0,0,.193.747,1.037,1.037,0,0,0,.765.211,4.345,4.345,0,0,0,.738-.053v2.118a5.466,5.466,0,0,1-1.67.255,3.1,3.1,0,0,1-2.259-.721,2.954,2.954,0,0,1-.729-2.188V9.547H16.814V7.49h1.213V5.126Zm8.481,5.045L28.5,10.1a1.752,1.752,0,0,0-1.793.879V17H23.74V7.49h2.777l.1,1.222a2.294,2.294,0,0,1,2.083-1.4,2.888,2.888,0,0,1,.826.105Zm.378,1.986A5.613,5.613,0,0,1,30.4,9.622a3.96,3.96,0,0,1,1.591-1.709,4.791,4.791,0,0,1,2.435-.6,4.373,4.373,0,0,1,3.366,1.323,5.076,5.076,0,0,1,1.23,3.6v.105a4.925,4.925,0,0,1-1.235,3.529,4.384,4.384,0,0,1-3.344,1.305,4.434,4.434,0,0,1-3.261-1.217,4.761,4.761,0,0,1-1.327-3.3Zm2.962.185a3.538,3.538,0,0,0,.413,1.934,1.376,1.376,0,0,0,1.222.615q1.582,0,1.617-2.435v-.3q0-2.558-1.635-2.558-1.485,0-1.608,2.206Zm12.5,1.986a.684.684,0,0,0-.4-.606,6.016,6.016,0,0,0-1.5-.475,6.853,6.853,0,0,1-1.828-.646,3.062,3.062,0,0,1-1.1-.971,2.319,2.319,0,0,1-.378-1.31,2.628,2.628,0,0,1,1.081-2.158,4.453,4.453,0,0,1,2.83-.848,4.934,4.934,0,0,1,3.023.853,2.666,2.666,0,0,1,1.143,2.241H45.212q0-1.143-1.2-1.143a1.194,1.194,0,0,0-.782.259.8.8,0,0,0-.316.646.737.737,0,0,0,.387.642,3.654,3.654,0,0,0,1.235.4,10.671,10.671,0,0,1,1.49.378,2.706,2.706,0,0,1,2.145,2.646,2.491,2.491,0,0,1-1.156,2.118,5.068,5.068,0,0,1-2.993.817,5.172,5.172,0,0,1-2.18-.439,3.645,3.645,0,0,1-1.494-1.2,2.707,2.707,0,0,1-.536-1.591h2.769a1.145,1.145,0,0,0,.439.962,1.808,1.808,0,0,0,1.081.3,1.422,1.422,0,0,0,.91-.246A.787.787,0,0,0,45.309,14.328ZM16.744,41H13.773V31.543l-2.918.853v-2.25L16.472,28.2h.272ZM27.757,28.019v2.329h-.132a4.447,4.447,0,0,0-2.729.8,3.358,3.358,0,0,0-1.314,2.21,3.464,3.464,0,0,1,2.531-.984,3.231,3.231,0,0,1,2.646,1.213,4.892,4.892,0,0,1,.984,3.182A4.48,4.48,0,0,1,29.167,39a4.108,4.108,0,0,1-1.608,1.6,4.622,4.622,0,0,1-2.29.576,4.777,4.777,0,0,1-2.435-.62,4.26,4.26,0,0,1-1.67-1.771,5.832,5.832,0,0,1-.615-2.654V34.944a7.387,7.387,0,0,1,.848-3.555,6.149,6.149,0,0,1,2.421-2.474,6.923,6.923,0,0,1,3.489-.9Zm-2.672,6.618a1.7,1.7,0,0,0-.984.272,1.73,1.73,0,0,0-.589.668v.888q0,2.426,1.679,2.426a1.362,1.362,0,0,0,1.129-.606,2.472,2.472,0,0,0,.453-1.521,2.426,2.426,0,0,0-.461-1.534A1.476,1.476,0,0,0,25.085,34.637Zm5.95-3.973a2.512,2.512,0,0,1,.773-1.916,3.334,3.334,0,0,1,4.157,0,2.578,2.578,0,0,1,.765,1.964v.633a2.5,2.5,0,0,1-.765,1.907,2.889,2.889,0,0,1-2.065.721,2.968,2.968,0,0,1-2.079-.716,2.524,2.524,0,0,1-.787-1.964Zm1.907.675a1.062,1.062,0,0,0,.255.738.9.9,0,0,0,.7.284q.923,0,.923-1.17v-.524a1.12,1.12,0,0,0-.246-.747.857.857,0,0,0-.694-.293.876.876,0,0,0-.686.284,1.114,1.114,0,0,0-.255.773Zm4.175,6.524a2.487,2.487,0,0,1,.778-1.916,2.924,2.924,0,0,1,2.07-.721,2.956,2.956,0,0,1,2.083.712,2.565,2.565,0,0,1,.773,1.986v.615a2.509,2.509,0,0,1-.765,1.916,2.9,2.9,0,0,1-2.074.721,2.968,2.968,0,0,1-2.079-.716,2.524,2.524,0,0,1-.787-1.964Zm1.9.675a1.039,1.039,0,0,0,.281.72.891.891,0,0,0,.686.31.808.808,0,0,0,.923-.8l.009-.9a1.075,1.075,0,0,0-.255-.747.992.992,0,0,0-1.371-.017,1.061,1.061,0,0,0-.272.72Zm-4.553,1.505-1.38-.694,6.249-10,1.38.694Z" transform="translate(671.667 3559.371)" fill="#12263f"/>
    <path id="Trazado_876677" data-name="Trazado 876677" d="M13.751,12.667a4.673,4.673,0,0,1-.721,2.36,4.35,4.35,0,0,1-1.85,1.586,6.3,6.3,0,0,1-2.72.563,5.025,5.025,0,0,1-3.973-1.644,6.786,6.786,0,0,1-1.45-4.641v-.633a7.746,7.746,0,0,1,.655-3.292,4.961,4.961,0,0,1,1.885-2.18,5.26,5.26,0,0,1,2.848-.769,5.516,5.516,0,0,1,3.744,1.226,4.844,4.844,0,0,1,1.608,3.379H10.7a2.292,2.292,0,0,0-.589-1.679,2.422,2.422,0,0,0-1.687-.51A1.843,1.843,0,0,0,6.738,7.3a5.536,5.536,0,0,0-.562,2.751v.905a6.125,6.125,0,0,0,.514,2.927,1.882,1.882,0,0,0,1.771.879,2.369,2.369,0,0,0,1.626-.5,2.126,2.126,0,0,0,.6-1.591ZM20.431,17a3.344,3.344,0,0,1-.281-.853,2.754,2.754,0,0,1-2.285,1.028,3.374,3.374,0,0,1-2.285-.813,2.588,2.588,0,0,1-.94-2.043,2.66,2.66,0,0,1,1.143-2.338A5.821,5.821,0,0,1,19.1,11.19h.914v-.5q0-1.316-1.134-1.316a.927.927,0,0,0-1.055,1.042H14.868a2.655,2.655,0,0,1,1.173-2.239,4.931,4.931,0,0,1,2.993-.86,4.323,4.323,0,0,1,2.874.888,3.086,3.086,0,0,1,1.081,2.435v4.21a4.311,4.311,0,0,0,.4,2V17Zm-1.854-1.934a1.652,1.652,0,0,0,.918-.237,1.487,1.487,0,0,0,.523-.536V12.772h-.861q-1.547,0-1.547,1.389a.848.848,0,0,0,.272.655A.986.986,0,0,0,18.577,15.066Zm11.8-4.9L29.4,10.1a1.752,1.752,0,0,0-1.793.879V17H24.65V7.49h2.777l.1,1.222a2.294,2.294,0,0,1,2.083-1.4,2.888,2.888,0,0,1,.826.105ZM34.168,7.49l.1,1.116a3.225,3.225,0,0,1,2.716-1.292A2.713,2.713,0,0,1,39.2,8.2a4.226,4.226,0,0,1,.76,2.672V17H36.99V11a1.6,1.6,0,0,0-.29-1.059A1.342,1.342,0,0,0,35.645,9.6a1.413,1.413,0,0,0-1.292.686V17H31.391V7.49ZM46.2,17.176a4.889,4.889,0,0,1-3.542-1.305,4.507,4.507,0,0,1-1.354-3.4v-.246a5.84,5.84,0,0,1,.541-2.575,3.955,3.955,0,0,1,1.578-1.727,4.763,4.763,0,0,1,2.461-.611,4.117,4.117,0,0,1,3.164,1.244,4.887,4.887,0,0,1,1.16,3.467v1.151H44.32a2.135,2.135,0,0,0,.694,1.257,2.066,2.066,0,0,0,1.389.457,2.662,2.662,0,0,0,2.2-.984l1.354,1.6a3.784,3.784,0,0,1-1.569,1.217A5.3,5.3,0,0,1,46.2,17.176ZM45.867,9.6q-1.3,0-1.547,1.723h2.988v-.229a1.467,1.467,0,0,0-.36-1.1A1.434,1.434,0,0,0,45.867,9.6ZM16.744,41H13.773V31.543l-2.918.853v-2.25L16.472,28.2h.272Zm12.788,0H20.6V39.066l4.113-4.324a4.909,4.909,0,0,0,1.521-2.751,1.913,1.913,0,0,0-.36-1.257A1.287,1.287,0,0,0,24.83,30.3a1.3,1.3,0,0,0-1.1.576,2.366,2.366,0,0,0-.422,1.437H20.339a4.2,4.2,0,0,1,.589-2.175,4.129,4.129,0,0,1,1.635-1.56,4.856,4.856,0,0,1,2.338-.562,4.777,4.777,0,0,1,3.195.958,3.42,3.42,0,0,1,1.121,2.751,4,4,0,0,1-.281,1.472,6.456,6.456,0,0,1-.875,1.5,22.029,22.029,0,0,1-1.912,2.1L24.5,38.715h5.036Zm1.5-10.336a2.512,2.512,0,0,1,.773-1.916,3.334,3.334,0,0,1,4.157,0,2.578,2.578,0,0,1,.765,1.964v.633a2.5,2.5,0,0,1-.765,1.907,2.889,2.889,0,0,1-2.065.721,2.968,2.968,0,0,1-2.079-.716,2.524,2.524,0,0,1-.787-1.964Zm1.907.675a1.062,1.062,0,0,0,.255.738.9.9,0,0,0,.7.284q.923,0,.923-1.17v-.524a1.12,1.12,0,0,0-.246-.747.857.857,0,0,0-.694-.293.876.876,0,0,0-.686.284,1.114,1.114,0,0,0-.255.773Zm4.175,6.524a2.487,2.487,0,0,1,.778-1.916,2.924,2.924,0,0,1,2.07-.721,2.956,2.956,0,0,1,2.083.712,2.565,2.565,0,0,1,.773,1.986v.615a2.509,2.509,0,0,1-.765,1.916,2.9,2.9,0,0,1-2.074.721,2.968,2.968,0,0,1-2.079-.716,2.524,2.524,0,0,1-.787-1.964Zm1.9.675a1.039,1.039,0,0,0,.281.72.891.891,0,0,0,.686.31.808.808,0,0,0,.923-.8l.009-.9a1.075,1.075,0,0,0-.255-.747.992.992,0,0,0-1.371-.017,1.061,1.061,0,0,0-.272.72Zm-4.553,1.505-1.38-.694,6.249-10,1.38.694Z" transform="translate(546.667 3625.371)" fill="#12263f"/>
    <path id="Trazado_876678" data-name="Trazado 876678" d="M4.172,12.658V17H1.087V4.2H6.194a5.948,5.948,0,0,1,2.6.541A4.074,4.074,0,0,1,10.54,6.282a4.2,4.2,0,0,1,.62,2.263,3.7,3.7,0,0,1-1.34,2.993,5.561,5.561,0,0,1-3.678,1.121Zm0-2.382H6.194a1.906,1.906,0,0,0,1.367-.448,1.665,1.665,0,0,0,.47-1.266A2.059,2.059,0,0,0,7.547,7.13a1.712,1.712,0,0,0-1.318-.545H4.172Zm12.981,6.9a4.889,4.889,0,0,1-3.542-1.305,4.507,4.507,0,0,1-1.354-3.4v-.246A5.84,5.84,0,0,1,12.8,9.652a3.955,3.955,0,0,1,1.578-1.727,4.763,4.763,0,0,1,2.461-.611A4.117,4.117,0,0,1,20,8.558a4.887,4.887,0,0,1,1.16,3.467v1.151H15.273a2.135,2.135,0,0,0,.694,1.257,2.066,2.066,0,0,0,1.389.457,2.662,2.662,0,0,0,2.2-.984l1.354,1.6a3.784,3.784,0,0,1-1.569,1.217A5.3,5.3,0,0,1,17.154,17.176ZM16.82,9.6q-1.3,0-1.547,1.723h2.988v-.229a1.467,1.467,0,0,0-.36-1.1A1.434,1.434,0,0,0,16.82,9.6Zm10.512,4.729a.684.684,0,0,0-.4-.606,6.016,6.016,0,0,0-1.5-.475A6.853,6.853,0,0,1,23.6,12.6a3.062,3.062,0,0,1-1.1-.971,2.319,2.319,0,0,1-.378-1.31,2.628,2.628,0,0,1,1.081-2.158,4.453,4.453,0,0,1,2.83-.848,4.934,4.934,0,0,1,3.023.853,2.666,2.666,0,0,1,1.143,2.241H27.235q0-1.143-1.2-1.143a1.194,1.194,0,0,0-.782.259.8.8,0,0,0-.316.646.737.737,0,0,0,.387.642,3.654,3.654,0,0,0,1.235.4,10.671,10.671,0,0,1,1.49.378,2.706,2.706,0,0,1,2.145,2.646,2.491,2.491,0,0,1-1.156,2.118,5.068,5.068,0,0,1-2.993.817,5.172,5.172,0,0,1-2.18-.439,3.645,3.645,0,0,1-1.494-1.2,2.707,2.707,0,0,1-.536-1.591H24.6a1.145,1.145,0,0,0,.439.962,1.808,1.808,0,0,0,1.081.3,1.422,1.422,0,0,0,.91-.246A.787.787,0,0,0,27.332,14.328Zm8.262.563a1.317,1.317,0,0,0,.967-.338,1.241,1.241,0,0,0,.334-.945h2.777a3.288,3.288,0,0,1-1.121,2.566,4.168,4.168,0,0,1-2.887,1,4.22,4.22,0,0,1-3.27-1.3,5.125,5.125,0,0,1-1.2-3.6v-.123A5.792,5.792,0,0,1,31.73,9.6a3.872,3.872,0,0,1,1.534-1.7,4.573,4.573,0,0,1,2.373-.593,4.116,4.116,0,0,1,2.944,1.028,3.647,3.647,0,0,1,1.09,2.786H36.894A1.626,1.626,0,0,0,36.534,10a1.244,1.244,0,0,0-.967-.4q-1.151,0-1.345,1.468a10.357,10.357,0,0,0-.062,1.283,4.068,4.068,0,0,0,.343,1.986A1.187,1.187,0,0,0,35.593,14.891ZM46.281,17A3.344,3.344,0,0,1,46,16.147a2.754,2.754,0,0,1-2.285,1.028,3.374,3.374,0,0,1-2.285-.813,2.588,2.588,0,0,1-.94-2.043,2.66,2.66,0,0,1,1.143-2.338,5.821,5.821,0,0,1,3.322-.791h.914v-.5q0-1.316-1.134-1.316a.927.927,0,0,0-1.055,1.042H40.717a2.655,2.655,0,0,1,1.173-2.239,4.931,4.931,0,0,1,2.993-.86,4.323,4.323,0,0,1,2.874.888,3.086,3.086,0,0,1,1.081,2.435v4.21a4.311,4.311,0,0,0,.4,2V17Zm-1.854-1.934a1.652,1.652,0,0,0,.918-.237,1.487,1.487,0,0,0,.523-.536V12.772h-.861q-1.547,0-1.547,1.389a.848.848,0,0,0,.272.655A.986.986,0,0,0,44.426,15.066ZM50.1,12.175a5.809,5.809,0,0,1,.976-3.56,3.211,3.211,0,0,1,2.725-1.3,2.731,2.731,0,0,1,2.145,1V3.5h2.971V17H56.256l-.149-1.02a2.8,2.8,0,0,1-2.32,1.2,3.205,3.205,0,0,1-2.689-1.3A5.993,5.993,0,0,1,50.1,12.175Zm2.962.185q0,2.531,1.477,2.531a1.458,1.458,0,0,0,1.406-.826V10.443A1.419,1.419,0,0,0,54.56,9.6q-1.371,0-1.485,2.215Zm7.163-.2a5.613,5.613,0,0,1,.554-2.536,3.96,3.96,0,0,1,1.591-1.709,4.791,4.791,0,0,1,2.435-.6,4.373,4.373,0,0,1,3.366,1.323,5.076,5.076,0,0,1,1.23,3.6v.105a4.925,4.925,0,0,1-1.235,3.529,4.384,4.384,0,0,1-3.344,1.305,4.434,4.434,0,0,1-3.261-1.217,4.761,4.761,0,0,1-1.327-3.3Zm2.962.185a3.538,3.538,0,0,0,.413,1.934,1.376,1.376,0,0,0,1.222.615q1.582,0,1.617-2.435v-.3q0-2.558-1.635-2.558-1.485,0-1.608,2.206ZM29.727,36.052a3.128,3.128,0,0,1-2.145.861,3.463,3.463,0,0,1-2.76-1.178,4.64,4.64,0,0,1-1.02-3.146,4.722,4.722,0,0,1,.571-2.285,4.287,4.287,0,0,1,1.6-1.67,4.373,4.373,0,0,1,2.281-.615,4.245,4.245,0,0,1,2.29.637,4.29,4.29,0,0,1,1.6,1.8,6.189,6.189,0,0,1,.589,2.685v1.134A7.693,7.693,0,0,1,31.9,37.95a5.734,5.734,0,0,1-2.369,2.391,7.4,7.4,0,0,1-3.586.835h-.185V38.8l.563-.009Q29.384,38.645,29.727,36.052Zm-1.345-1.274a1.442,1.442,0,0,0,1.389-.835v-1.23a3.2,3.2,0,0,0-.413-1.819,1.3,1.3,0,0,0-1.116-.589,1.225,1.225,0,0,0-1.046.668,2.968,2.968,0,0,0-.422,1.617,2.661,2.661,0,0,0,.431,1.6A1.378,1.378,0,0,0,28.382,34.777Zm5.941-4.113a2.512,2.512,0,0,1,.773-1.916,3.334,3.334,0,0,1,4.157,0,2.578,2.578,0,0,1,.765,1.964v.633a2.5,2.5,0,0,1-.765,1.907,2.889,2.889,0,0,1-2.065.721,2.968,2.968,0,0,1-2.079-.716,2.524,2.524,0,0,1-.787-1.964Zm1.907.675a1.062,1.062,0,0,0,.255.738.9.9,0,0,0,.7.284q.923,0,.923-1.17v-.524a1.12,1.12,0,0,0-.246-.747.857.857,0,0,0-.694-.293.876.876,0,0,0-.686.284,1.114,1.114,0,0,0-.255.773Zm4.175,6.524a2.487,2.487,0,0,1,.778-1.916,2.924,2.924,0,0,1,2.07-.721,2.956,2.956,0,0,1,2.083.712,2.565,2.565,0,0,1,.773,1.986v.615a2.509,2.509,0,0,1-.765,1.916,2.9,2.9,0,0,1-2.074.721,2.968,2.968,0,0,1-2.079-.716,2.524,2.524,0,0,1-.787-1.964Zm1.9.675a1.039,1.039,0,0,0,.281.72.891.891,0,0,0,.686.31.808.808,0,0,0,.923-.8l.009-.9a1.075,1.075,0,0,0-.255-.747.992.992,0,0,0-1.371-.017,1.061,1.061,0,0,0-.272.72Zm-4.553,1.505-1.38-.694,6.249-10L44,30.04Z" transform="translate(531.051 3766.371)" fill="#12263f"/>
    <path id="Trazado_876679" data-name="Trazado 876679" d="M14.618,14.627h5.37V17H11.533V4.2h3.085Zm11.136,2.549a4.889,4.889,0,0,1-3.542-1.305,4.507,4.507,0,0,1-1.354-3.4v-.246A5.84,5.84,0,0,1,21.4,9.652a3.955,3.955,0,0,1,1.578-1.727,4.763,4.763,0,0,1,2.461-.611A4.117,4.117,0,0,1,28.6,8.558a4.887,4.887,0,0,1,1.16,3.467v1.151H23.873a2.135,2.135,0,0,0,.694,1.257,2.066,2.066,0,0,0,1.389.457,2.662,2.662,0,0,0,2.2-.984l1.354,1.6a3.784,3.784,0,0,1-1.569,1.217A5.3,5.3,0,0,1,25.754,17.176ZM25.42,9.6q-1.3,0-1.547,1.723h2.988v-.229a1.467,1.467,0,0,0-.36-1.1A1.434,1.434,0,0,0,25.42,9.6Zm9.554,5.291a1.317,1.317,0,0,0,.967-.338,1.241,1.241,0,0,0,.334-.945h2.777a3.288,3.288,0,0,1-1.121,2.566,4.168,4.168,0,0,1-2.887,1,4.22,4.22,0,0,1-3.27-1.3,5.125,5.125,0,0,1-1.2-3.6v-.123A5.792,5.792,0,0,1,31.111,9.6a3.872,3.872,0,0,1,1.534-1.7,4.573,4.573,0,0,1,2.373-.593,4.116,4.116,0,0,1,2.944,1.028,3.647,3.647,0,0,1,1.09,2.786H36.274A1.626,1.626,0,0,0,35.914,10a1.244,1.244,0,0,0-.967-.4Q33.8,9.6,33.6,11.067a10.357,10.357,0,0,0-.062,1.283,4.068,4.068,0,0,0,.343,1.986A1.187,1.187,0,0,0,34.974,14.891ZM43.2,8.51A3.251,3.251,0,0,1,48,8.246,4.186,4.186,0,0,1,48.816,11v6H45.846V11.067a1.674,1.674,0,0,0-.308-1.112A1.322,1.322,0,0,0,44.492,9.6a1.424,1.424,0,0,0-1.292.58V17H40.238V3.5H43.2Zm11.865,8.666a4.889,4.889,0,0,1-3.542-1.305,4.507,4.507,0,0,1-1.354-3.4v-.246a5.84,5.84,0,0,1,.541-2.575,3.955,3.955,0,0,1,1.578-1.727,4.763,4.763,0,0,1,2.461-.611,4.117,4.117,0,0,1,3.164,1.244,4.887,4.887,0,0,1,1.16,3.467v1.151H53.185a2.135,2.135,0,0,0,.694,1.257,2.066,2.066,0,0,0,1.389.457,2.662,2.662,0,0,0,2.2-.984l1.354,1.6a3.784,3.784,0,0,1-1.569,1.217A5.3,5.3,0,0,1,55.065,17.176ZM54.731,9.6q-1.3,0-1.547,1.723h2.988v-.229a1.467,1.467,0,0,0-.36-1.1A1.434,1.434,0,0,0,54.731,9.6ZM32.785,29.785,28,41H24.875l4.79-10.512h-6.1V28.2h9.22Zm1.538.879a2.512,2.512,0,0,1,.773-1.916,3.334,3.334,0,0,1,4.157,0,2.578,2.578,0,0,1,.765,1.964v.633a2.5,2.5,0,0,1-.765,1.907,2.889,2.889,0,0,1-2.065.721,2.968,2.968,0,0,1-2.079-.716,2.524,2.524,0,0,1-.787-1.964Zm1.907.675a1.062,1.062,0,0,0,.255.738.9.9,0,0,0,.7.284q.923,0,.923-1.17v-.524a1.12,1.12,0,0,0-.246-.747.857.857,0,0,0-.694-.293.876.876,0,0,0-.686.284,1.114,1.114,0,0,0-.255.773Zm4.175,6.524a2.487,2.487,0,0,1,.778-1.916,2.924,2.924,0,0,1,2.07-.721,2.956,2.956,0,0,1,2.083.712,2.565,2.565,0,0,1,.773,1.986v.615a2.509,2.509,0,0,1-.765,1.916,2.9,2.9,0,0,1-2.074.721,2.968,2.968,0,0,1-2.079-.716,2.524,2.524,0,0,1-.787-1.964Zm1.9.675a1.039,1.039,0,0,0,.281.72.891.891,0,0,0,.686.31.808.808,0,0,0,.923-.8l.009-.9a1.075,1.075,0,0,0-.255-.747.992.992,0,0,0-1.371-.017,1.061,1.061,0,0,0-.272.72Zm-4.553,1.505-1.38-.694,6.249-10L44,30.04Z" transform="translate(610.051 3812.479)" fill="#12263f"/>
    <text id="Pan_11_" data-name="Pan
11%" transform="translate(744.051 3823.284)" fill="#12263f" font-size="18" font-family="Roboto-Black, Roboto" font-weight="800"><tspan x="19.338" y="17">Pan</tspan><tspan x="17.896" y="41">11%</tspan></text>
    <path id="Trazado_876680" data-name="Trazado 876680" d="M8.15,13.52,10.7,4.2h3.445L9.838,17H6.463L2.191,4.2H5.61Zm11,3.656a4.889,4.889,0,0,1-3.542-1.305,4.507,4.507,0,0,1-1.354-3.4v-.246A5.84,5.84,0,0,1,14.8,9.652a3.955,3.955,0,0,1,1.578-1.727,4.763,4.763,0,0,1,2.461-.611A4.117,4.117,0,0,1,22,8.558a4.887,4.887,0,0,1,1.16,3.467v1.151H17.273a2.135,2.135,0,0,0,.694,1.257,2.066,2.066,0,0,0,1.389.457,2.662,2.662,0,0,0,2.2-.984l1.354,1.6a3.784,3.784,0,0,1-1.569,1.217A5.3,5.3,0,0,1,19.154,17.176ZM18.82,9.6q-1.3,0-1.547,1.723h2.988v-.229a1.467,1.467,0,0,0-.36-1.1A1.434,1.434,0,0,0,18.82,9.6Zm11.285.571-.976-.07a1.752,1.752,0,0,0-1.793.879V17H24.375V7.49h2.777l.1,1.222a2.294,2.294,0,0,1,2.083-1.4,2.888,2.888,0,0,1,.826.105Zm.527,2a5.809,5.809,0,0,1,.976-3.56,3.211,3.211,0,0,1,2.725-1.3,2.731,2.731,0,0,1,2.145,1V3.5h2.971V17H36.785l-.149-1.02a2.8,2.8,0,0,1-2.32,1.2,3.205,3.205,0,0,1-2.689-1.3A5.993,5.993,0,0,1,30.633,12.175Zm2.962.185q0,2.531,1.477,2.531a1.458,1.458,0,0,0,1.406-.826V10.443A1.419,1.419,0,0,0,35.089,9.6q-1.371,0-1.485,2.215Zm13.2,3.612a3.054,3.054,0,0,1-2.54,1.2,3,3,0,0,1-2.369-.91,3.826,3.826,0,0,1-.8-2.615V7.49h2.962v6.179a1.065,1.065,0,0,0,1.187,1.222,1.548,1.548,0,0,0,1.45-.729V7.49h2.979V17H46.884Zm10.239-5.8-.976-.07a1.752,1.752,0,0,0-1.793.879V17H51.3V7.49h2.777l.1,1.222a2.294,2.294,0,0,1,2.083-1.4,2.888,2.888,0,0,1,.826.105ZM63.2,17a3.344,3.344,0,0,1-.281-.853,2.754,2.754,0,0,1-2.285,1.028,3.374,3.374,0,0,1-2.285-.813,2.588,2.588,0,0,1-.94-2.043,2.66,2.66,0,0,1,1.143-2.338,5.821,5.821,0,0,1,3.322-.791h.914v-.5q0-1.316-1.134-1.316a.927.927,0,0,0-1.055,1.042H57.633a2.655,2.655,0,0,1,1.173-2.239,4.931,4.931,0,0,1,2.993-.86,4.323,4.323,0,0,1,2.874.888,3.086,3.086,0,0,1,1.081,2.435v4.21a4.311,4.311,0,0,0,.4,2V17Zm-1.854-1.934a1.652,1.652,0,0,0,.918-.237,1.487,1.487,0,0,0,.523-.536V12.772h-.861q-1.547,0-1.547,1.389a.848.848,0,0,0,.272.655A.986.986,0,0,0,61.342,15.066Zm11.03-.738a.684.684,0,0,0-.4-.606,6.016,6.016,0,0,0-1.5-.475,6.853,6.853,0,0,1-1.828-.646,3.062,3.062,0,0,1-1.1-.971,2.319,2.319,0,0,1-.378-1.31A2.628,2.628,0,0,1,68.25,8.163a4.453,4.453,0,0,1,2.83-.848,4.934,4.934,0,0,1,3.023.853,2.666,2.666,0,0,1,1.143,2.241H72.275q0-1.143-1.2-1.143a1.194,1.194,0,0,0-.782.259.8.8,0,0,0-.316.646.737.737,0,0,0,.387.642,3.654,3.654,0,0,0,1.235.4,10.671,10.671,0,0,1,1.49.378,2.706,2.706,0,0,1,2.145,2.646,2.491,2.491,0,0,1-1.156,2.118,5.068,5.068,0,0,1-2.993.817,5.172,5.172,0,0,1-2.18-.439,3.645,3.645,0,0,1-1.494-1.2,2.707,2.707,0,0,1-.536-1.591h2.769a1.145,1.145,0,0,0,.439.962,1.808,1.808,0,0,0,1.081.3,1.422,1.422,0,0,0,.91-.246A.787.787,0,0,0,72.372,14.328ZM33.727,36.052a3.128,3.128,0,0,1-2.145.861,3.463,3.463,0,0,1-2.76-1.178,4.64,4.64,0,0,1-1.02-3.146,4.722,4.722,0,0,1,.571-2.285,4.287,4.287,0,0,1,1.6-1.67,4.373,4.373,0,0,1,2.281-.615,4.245,4.245,0,0,1,2.29.637,4.29,4.29,0,0,1,1.6,1.8,6.189,6.189,0,0,1,.589,2.685v1.134A7.693,7.693,0,0,1,35.9,37.95a5.734,5.734,0,0,1-2.369,2.391,7.4,7.4,0,0,1-3.586.835h-.185V38.8l.563-.009Q33.384,38.645,33.727,36.052Zm-1.345-1.274a1.442,1.442,0,0,0,1.389-.835v-1.23a3.2,3.2,0,0,0-.413-1.819,1.3,1.3,0,0,0-1.116-.589,1.225,1.225,0,0,0-1.046.668,2.968,2.968,0,0,0-.422,1.617,2.661,2.661,0,0,0,.431,1.6A1.378,1.378,0,0,0,32.382,34.777Zm5.941-4.113a2.512,2.512,0,0,1,.773-1.916,3.334,3.334,0,0,1,4.157,0,2.578,2.578,0,0,1,.765,1.964v.633a2.5,2.5,0,0,1-.765,1.907,2.889,2.889,0,0,1-2.065.721,2.968,2.968,0,0,1-2.079-.716,2.524,2.524,0,0,1-.787-1.964Zm1.907.675a1.062,1.062,0,0,0,.255.738.9.9,0,0,0,.7.284q.923,0,.923-1.17v-.524a1.12,1.12,0,0,0-.246-.747.857.857,0,0,0-.694-.293.876.876,0,0,0-.686.284,1.114,1.114,0,0,0-.255.773Zm4.175,6.524a2.487,2.487,0,0,1,.778-1.916,2.924,2.924,0,0,1,2.07-.721,2.956,2.956,0,0,1,2.083.712,2.565,2.565,0,0,1,.773,1.986v.615a2.509,2.509,0,0,1-.765,1.916,2.9,2.9,0,0,1-2.074.721,2.968,2.968,0,0,1-2.079-.716,2.524,2.524,0,0,1-.787-1.964Zm1.9.675a1.039,1.039,0,0,0,.281.72.891.891,0,0,0,.686.31.808.808,0,0,0,.923-.8l.009-.9a1.075,1.075,0,0,0-.255-.747.992.992,0,0,0-1.371-.017,1.061,1.061,0,0,0-.272.72Zm-4.553,1.505-1.38-.694,6.249-10L48,30.04Z" transform="translate(869.051 3812.479)" fill="#12263f"/>
    <path id="Trazado_876674" data-name="Trazado 876674" d="M22.257,11.9H17.282V17H14.2V4.2h8.561V6.585H17.282V9.529h4.975Zm7.172-1.731-.976-.07a1.752,1.752,0,0,0-1.793.879V17H23.7V7.49h2.777l.1,1.222a2.294,2.294,0,0,1,2.083-1.4,2.888,2.888,0,0,1,.826.105Zm6.732,5.8a3.054,3.054,0,0,1-2.54,1.2,3,3,0,0,1-2.369-.91,3.826,3.826,0,0,1-.8-2.615V7.49H33.41v6.179A1.065,1.065,0,0,0,34.6,14.891a1.548,1.548,0,0,0,1.45-.729V7.49h2.979V17H36.249ZM44.1,5.126V7.49h1.564V9.547H44.1V13.9a1.111,1.111,0,0,0,.193.747,1.037,1.037,0,0,0,.765.211,4.345,4.345,0,0,0,.738-.053v2.118a5.466,5.466,0,0,1-1.67.255,3.1,3.1,0,0,1-2.259-.721,2.954,2.954,0,0,1-.729-2.188V9.547H39.923V7.49h1.213V5.126ZM52.184,17a3.344,3.344,0,0,1-.281-.853,2.754,2.754,0,0,1-2.285,1.028,3.374,3.374,0,0,1-2.285-.813,2.588,2.588,0,0,1-.94-2.043,2.66,2.66,0,0,1,1.143-2.338,5.821,5.821,0,0,1,3.322-.791h.914v-.5q0-1.316-1.134-1.316a.927.927,0,0,0-1.055,1.042H46.62a2.655,2.655,0,0,1,1.173-2.239,4.931,4.931,0,0,1,2.993-.86A4.323,4.323,0,0,1,53.66,8.2a3.086,3.086,0,0,1,1.081,2.435v4.21a4.311,4.311,0,0,0,.4,2V17Zm-1.854-1.934a1.652,1.652,0,0,0,.918-.237,1.487,1.487,0,0,0,.523-.536V12.772h-.861q-1.547,0-1.547,1.389a.848.848,0,0,0,.272.655A.986.986,0,0,0,50.329,15.066Zm11.03-.738a.684.684,0,0,0-.4-.606,6.016,6.016,0,0,0-1.5-.475,6.853,6.853,0,0,1-1.828-.646,3.062,3.062,0,0,1-1.1-.971,2.319,2.319,0,0,1-.378-1.31,2.628,2.628,0,0,1,1.081-2.158,4.453,4.453,0,0,1,2.83-.848,4.934,4.934,0,0,1,3.023.853,2.666,2.666,0,0,1,1.143,2.241H61.263q0-1.143-1.2-1.143a1.194,1.194,0,0,0-.782.259.8.8,0,0,0-.316.646.737.737,0,0,0,.387.642,3.654,3.654,0,0,0,1.235.4,10.671,10.671,0,0,1,1.49.378,2.706,2.706,0,0,1,2.145,2.646,2.491,2.491,0,0,1-1.156,2.118,5.068,5.068,0,0,1-2.993.817,5.172,5.172,0,0,1-2.18-.439,3.645,3.645,0,0,1-1.494-1.2,2.707,2.707,0,0,1-.536-1.591h2.769a1.145,1.145,0,0,0,.439.962,1.808,1.808,0,0,0,1.081.3,1.422,1.422,0,0,0,.91-.246A.787.787,0,0,0,61.359,14.328ZM29.244,41H26.273V31.543l-2.918.853v-2.25L28.972,28.2h.272Zm10.424,0H36.7V31.543l-2.918.853v-2.25L39.4,28.2h.272Zm3.867-10.336a2.512,2.512,0,0,1,.773-1.916,3.334,3.334,0,0,1,4.157,0,2.578,2.578,0,0,1,.765,1.964v.633a2.5,2.5,0,0,1-.765,1.907,2.889,2.889,0,0,1-2.065.721,2.968,2.968,0,0,1-2.079-.716,2.524,2.524,0,0,1-.787-1.964Zm1.907.675a1.062,1.062,0,0,0,.255.738.9.9,0,0,0,.7.284q.923,0,.923-1.17v-.524a1.12,1.12,0,0,0-.246-.747.857.857,0,0,0-.694-.293.876.876,0,0,0-.686.284,1.114,1.114,0,0,0-.255.773Zm4.175,6.524a2.487,2.487,0,0,1,.778-1.916,2.924,2.924,0,0,1,2.07-.721,2.956,2.956,0,0,1,2.083.712,2.565,2.565,0,0,1,.773,1.986v.615a2.509,2.509,0,0,1-.765,1.916,2.9,2.9,0,0,1-2.074.721,2.968,2.968,0,0,1-2.079-.716,2.524,2.524,0,0,1-.787-1.964Zm1.9.675a1.039,1.039,0,0,0,.281.72.891.891,0,0,0,.686.31.808.808,0,0,0,.923-.8l.009-.9a1.075,1.075,0,0,0-.255-.747.992.992,0,0,0-1.371-.017,1.061,1.061,0,0,0-.272.72Zm-4.553,1.505-1.38-.694,6.249-10,1.38.694Z" transform="translate(993.667 3713.103)" fill="#12263f"/>
    <path id="Trazado_876675" data-name="Trazado 876675" d="M28.271,17V4.2h4.6a6.509,6.509,0,0,1,3.757.905,3.012,3.012,0,0,1,1.288,2.628,3.045,3.045,0,0,1-.457,1.7,2.663,2.663,0,0,1-1.345,1.037,2.7,2.7,0,0,1,1.538.984,2.862,2.862,0,0,1,.536,1.758,3.388,3.388,0,0,1-1.191,2.826A5.667,5.667,0,0,1,33.466,17Zm3.085-5.44v3.067h2.021a1.923,1.923,0,0,0,1.283-.382,1.338,1.338,0,0,0,.448-1.077,1.419,1.419,0,0,0-1.591-1.608Zm0-2.021h1.608a2.285,2.285,0,0,0,1.441-.37A1.314,1.314,0,0,0,34.837,8.1a1.379,1.379,0,0,0-.466-1.168,2.493,2.493,0,0,0-1.5-.357H31.356Zm12.99,7.638A4.889,4.889,0,0,1,40.8,15.871a4.507,4.507,0,0,1-1.354-3.4v-.246a5.84,5.84,0,0,1,.541-2.575,3.955,3.955,0,0,1,1.578-1.727,4.763,4.763,0,0,1,2.461-.611,4.117,4.117,0,0,1,3.164,1.244,4.887,4.887,0,0,1,1.16,3.467v1.151H42.466a2.135,2.135,0,0,0,.694,1.257,2.066,2.066,0,0,0,1.389.457,2.662,2.662,0,0,0,2.2-.984l1.354,1.6a3.784,3.784,0,0,1-1.569,1.217A5.3,5.3,0,0,1,44.347,17.176ZM44.013,9.6q-1.3,0-1.547,1.723h2.988v-.229a1.467,1.467,0,0,0-.36-1.1A1.434,1.434,0,0,0,44.013,9.6Zm14.361,2.725a5.8,5.8,0,0,1-.967,3.595,3.238,3.238,0,0,1-2.725,1.257,2.81,2.81,0,0,1-2.338-1.151L52.222,17H49.567V3.5h2.962V8.255a2.711,2.711,0,0,1,2.136-.94,3.239,3.239,0,0,1,2.742,1.274,5.826,5.826,0,0,1,.967,3.586ZM55.4,12.135a3.866,3.866,0,0,0-.365-1.952A1.229,1.229,0,0,0,53.918,9.6a1.418,1.418,0,0,0-1.389.763v3.773a1.426,1.426,0,0,0,1.406.755,1.258,1.258,0,0,0,1.327-1.018A7.309,7.309,0,0,0,55.4,12.135ZM62.8,17H59.833V7.49H62.8ZM59.657,5.038A1.322,1.322,0,0,1,60.114,4a1.943,1.943,0,0,1,2.373,0,1.322,1.322,0,0,1,.457,1.037,1.322,1.322,0,0,1-.457,1.037,1.943,1.943,0,0,1-2.373,0A1.322,1.322,0,0,1,59.657,5.038Zm4.6,7.137a5.809,5.809,0,0,1,.976-3.56,3.211,3.211,0,0,1,2.725-1.3,2.731,2.731,0,0,1,2.145,1V3.5h2.971V17H70.406l-.149-1.02a2.8,2.8,0,0,1-2.32,1.2,3.205,3.205,0,0,1-2.689-1.3A5.993,5.993,0,0,1,64.254,12.175Zm2.962.185q0,2.531,1.477,2.531a1.458,1.458,0,0,0,1.406-.826V10.443A1.419,1.419,0,0,0,68.71,9.6q-1.371,0-1.485,2.215ZM80.109,17a3.344,3.344,0,0,1-.281-.853,2.754,2.754,0,0,1-2.285,1.028,3.374,3.374,0,0,1-2.285-.813,2.588,2.588,0,0,1-.94-2.043,2.66,2.66,0,0,1,1.143-2.338,5.821,5.821,0,0,1,3.322-.791H79.7v-.5q0-1.316-1.134-1.316a.927.927,0,0,0-1.055,1.042H74.546a2.655,2.655,0,0,1,1.173-2.239,4.931,4.931,0,0,1,2.993-.86,4.323,4.323,0,0,1,2.874.888,3.086,3.086,0,0,1,1.081,2.435v4.21a4.311,4.311,0,0,0,.4,2V17Zm-1.854-1.934a1.652,1.652,0,0,0,.918-.237,1.487,1.487,0,0,0,.523-.536V12.772h-.861q-1.547,0-1.547,1.389a.848.848,0,0,0,.272.655A.986.986,0,0,0,78.255,15.066Zm11.03-.738a.684.684,0,0,0-.4-.606,6.016,6.016,0,0,0-1.5-.475,6.853,6.853,0,0,1-1.828-.646,3.062,3.062,0,0,1-1.1-.971,2.319,2.319,0,0,1-.378-1.31,2.628,2.628,0,0,1,1.081-2.158,4.453,4.453,0,0,1,2.83-.848,4.934,4.934,0,0,1,3.023.853,2.666,2.666,0,0,1,1.143,2.241H89.188q0-1.143-1.2-1.143a1.194,1.194,0,0,0-.782.259.8.8,0,0,0-.316.646.737.737,0,0,0,.387.642,3.654,3.654,0,0,0,1.235.4,10.671,10.671,0,0,1,1.49.378,2.706,2.706,0,0,1,2.145,2.646,2.491,2.491,0,0,1-1.156,2.118,5.068,5.068,0,0,1-2.993.817,5.172,5.172,0,0,1-2.18-.439,3.645,3.645,0,0,1-1.494-1.2,2.707,2.707,0,0,1-.536-1.591h2.769a1.145,1.145,0,0,0,.439.962,1.808,1.808,0,0,0,1.081.3,1.422,1.422,0,0,0,.91-.246A.787.787,0,0,0,89.285,14.328ZM20.063,41a3.344,3.344,0,0,1-.281-.853A2.754,2.754,0,0,1,17.5,41.176a3.374,3.374,0,0,1-2.285-.813,2.588,2.588,0,0,1-.94-2.043,2.66,2.66,0,0,1,1.143-2.338,5.821,5.821,0,0,1,3.322-.791h.914v-.5q0-1.316-1.134-1.316a.927.927,0,0,0-1.055,1.042H14.5a2.655,2.655,0,0,1,1.173-2.239,4.931,4.931,0,0,1,2.993-.86,4.323,4.323,0,0,1,2.874.888,3.086,3.086,0,0,1,1.081,2.435v4.21a4.311,4.311,0,0,0,.4,2V41Zm-1.854-1.934a1.652,1.652,0,0,0,.918-.237,1.487,1.487,0,0,0,.523-.536V36.772h-.861q-1.547,0-1.547,1.389a.848.848,0,0,0,.272.655A.986.986,0,0,0,18.208,39.066ZM27.384,41H24.413V27.5h2.971Zm5.845-2.109a1.317,1.317,0,0,0,.967-.338,1.241,1.241,0,0,0,.334-.945h2.777a3.288,3.288,0,0,1-1.121,2.566,4.168,4.168,0,0,1-2.887,1,4.22,4.22,0,0,1-3.27-1.3,5.125,5.125,0,0,1-1.2-3.6v-.123a5.792,5.792,0,0,1,.532-2.544,3.872,3.872,0,0,1,1.534-1.7,4.573,4.573,0,0,1,2.373-.593,4.116,4.116,0,0,1,2.944,1.028,3.647,3.647,0,0,1,1.09,2.786H34.529A1.626,1.626,0,0,0,34.169,34a1.244,1.244,0,0,0-.967-.4q-1.151,0-1.345,1.468a10.357,10.357,0,0,0-.062,1.283,4.068,4.068,0,0,0,.343,1.986A1.187,1.187,0,0,0,33.229,38.891Zm4.957-2.733a5.613,5.613,0,0,1,.554-2.536,3.96,3.96,0,0,1,1.591-1.709,4.791,4.791,0,0,1,2.435-.6,4.373,4.373,0,0,1,3.366,1.323,5.076,5.076,0,0,1,1.23,3.6v.105a4.925,4.925,0,0,1-1.235,3.529,4.384,4.384,0,0,1-3.344,1.305,4.434,4.434,0,0,1-3.261-1.217,4.761,4.761,0,0,1-1.327-3.3Zm2.962.185a3.538,3.538,0,0,0,.413,1.934,1.376,1.376,0,0,0,1.222.615q1.582,0,1.617-2.435v-.3q0-2.558-1.635-2.558-1.485,0-1.608,2.206ZM51.563,32.51a3.251,3.251,0,0,1,4.8-.264A4.186,4.186,0,0,1,57.179,35v6H54.208V35.067a1.674,1.674,0,0,0-.308-1.112,1.322,1.322,0,0,0-1.046-.356,1.424,1.424,0,0,0-1.292.58V41H48.6V27.5h2.962Zm6.891,3.647a5.613,5.613,0,0,1,.554-2.536A3.96,3.96,0,0,1,60.6,31.912a4.791,4.791,0,0,1,2.435-.6A4.373,4.373,0,0,1,66.4,32.637a5.076,5.076,0,0,1,1.23,3.6v.105a4.925,4.925,0,0,1-1.235,3.529,4.384,4.384,0,0,1-3.344,1.305,4.434,4.434,0,0,1-3.261-1.217,4.761,4.761,0,0,1-1.327-3.3Zm2.962.185a3.538,3.538,0,0,0,.413,1.934,1.376,1.376,0,0,0,1.222.615q1.582,0,1.617-2.435v-.3q0-2.558-1.635-2.558-1.485,0-1.608,2.206ZM63.437,27.5h3.129l-2.443,2.76-2.417,0ZM72.059,41H69.088V27.5h2.971Zm4.948,0H74.036V31.49h2.971ZM73.86,29.038A1.322,1.322,0,0,1,74.317,28a1.943,1.943,0,0,1,2.373,0,1.405,1.405,0,0,1,0,2.074,1.943,1.943,0,0,1-2.373,0A1.322,1.322,0,0,1,73.86,29.038Zm8.991,9.853a1.317,1.317,0,0,0,.967-.338,1.241,1.241,0,0,0,.334-.945H86.93a3.288,3.288,0,0,1-1.121,2.566,4.168,4.168,0,0,1-2.887,1,4.22,4.22,0,0,1-3.27-1.3,5.125,5.125,0,0,1-1.2-3.6v-.123a5.792,5.792,0,0,1,.532-2.544,3.872,3.872,0,0,1,1.534-1.7,4.573,4.573,0,0,1,2.373-.593,4.116,4.116,0,0,1,2.944,1.028,3.647,3.647,0,0,1,1.09,2.786H84.152A1.626,1.626,0,0,0,83.792,34a1.244,1.244,0,0,0-.967-.4q-1.151,0-1.345,1.468a10.357,10.357,0,0,0-.062,1.283,4.068,4.068,0,0,0,.343,1.986A1.187,1.187,0,0,0,82.852,38.891ZM93.539,41a3.344,3.344,0,0,1-.281-.853,2.754,2.754,0,0,1-2.285,1.028,3.374,3.374,0,0,1-2.285-.813,2.588,2.588,0,0,1-.94-2.043,2.66,2.66,0,0,1,1.143-2.338,5.821,5.821,0,0,1,3.322-.791h.914v-.5q0-1.316-1.134-1.316a.927.927,0,0,0-1.055,1.042H87.976a2.655,2.655,0,0,1,1.173-2.239,4.931,4.931,0,0,1,2.993-.86,4.323,4.323,0,0,1,2.874.888A3.086,3.086,0,0,1,96.1,34.637v4.21a4.311,4.311,0,0,0,.4,2V41Zm-1.854-1.934a1.652,1.652,0,0,0,.918-.237,1.487,1.487,0,0,0,.523-.536V36.772h-.861q-1.547,0-1.547,1.389a.848.848,0,0,0,.272.655A.986.986,0,0,0,91.685,39.066Zm11.03-.738a.684.684,0,0,0-.4-.606,6.016,6.016,0,0,0-1.5-.475,6.853,6.853,0,0,1-1.828-.646,3.062,3.062,0,0,1-1.1-.971,2.319,2.319,0,0,1-.378-1.31,2.628,2.628,0,0,1,1.081-2.158,4.453,4.453,0,0,1,2.83-.848,4.934,4.934,0,0,1,3.023.853,2.666,2.666,0,0,1,1.143,2.241h-2.971q0-1.143-1.2-1.143a1.194,1.194,0,0,0-.782.259.8.8,0,0,0-.316.646.737.737,0,0,0,.387.642,3.654,3.654,0,0,0,1.235.4,10.671,10.671,0,0,1,1.49.378,2.706,2.706,0,0,1,2.145,2.646,2.491,2.491,0,0,1-1.156,2.118,5.068,5.068,0,0,1-2.993.817,5.172,5.172,0,0,1-2.18-.439,3.645,3.645,0,0,1-1.494-1.2,2.707,2.707,0,0,1-.536-1.591h2.769a1.145,1.145,0,0,0,.439.962,1.808,1.808,0,0,0,1.081.3,1.422,1.422,0,0,0,.91-.246A.787.787,0,0,0,102.715,38.328ZM52.608,65h-8.93V63.066l4.113-4.324a4.909,4.909,0,0,0,1.521-2.751,1.913,1.913,0,0,0-.36-1.257,1.287,1.287,0,0,0-1.046-.431,1.3,1.3,0,0,0-1.1.576,2.366,2.366,0,0,0-.422,1.437H43.415A4.2,4.2,0,0,1,44,54.141a4.129,4.129,0,0,1,1.635-1.56,4.856,4.856,0,0,1,2.338-.562,4.777,4.777,0,0,1,3.195.958,3.42,3.42,0,0,1,1.121,2.751,4,4,0,0,1-.281,1.472,6.456,6.456,0,0,1-.875,1.5,22.029,22.029,0,0,1-1.912,2.1l-1.652,1.907h5.036Zm1.67-6.251.782-6.546H62.54v2.3H57.469l-.29,2.542a3.493,3.493,0,0,1,.831-.327,4.179,4.179,0,0,1,3.938.988,5.146,5.146,0,0,1,.475,5.4,3.776,3.776,0,0,1-1.542,1.534,4.87,4.87,0,0,1-2.347.536,5.24,5.24,0,0,1-2.259-.5,4.052,4.052,0,0,1-1.652-1.361,3.308,3.308,0,0,1-.589-1.954H57a1.68,1.68,0,0,0,.448,1.114,1.423,1.423,0,0,0,1.063.412q1.494,0,1.494-2.21,0-2.044-1.828-2.044a1.824,1.824,0,0,0-1.547.667Zm10.257-4.085a2.512,2.512,0,0,1,.773-1.916,3.334,3.334,0,0,1,4.157,0,2.578,2.578,0,0,1,.765,1.964v.633a2.5,2.5,0,0,1-.765,1.907,2.889,2.889,0,0,1-2.065.721,2.968,2.968,0,0,1-2.079-.716,2.524,2.524,0,0,1-.787-1.964Zm1.907.675a1.062,1.062,0,0,0,.255.738.9.9,0,0,0,.7.284q.923,0,.923-1.17v-.524a1.12,1.12,0,0,0-.246-.747.857.857,0,0,0-.694-.293.876.876,0,0,0-.686.284,1.114,1.114,0,0,0-.255.773Zm4.175,6.524a2.487,2.487,0,0,1,.778-1.916,2.924,2.924,0,0,1,2.07-.721,2.956,2.956,0,0,1,2.083.712,2.565,2.565,0,0,1,.773,1.986v.615a2.509,2.509,0,0,1-.765,1.916,2.9,2.9,0,0,1-2.074.721,2.968,2.968,0,0,1-2.079-.716,2.524,2.524,0,0,1-.787-1.964Zm1.9.675a1.039,1.039,0,0,0,.281.72.891.891,0,0,0,.686.31.808.808,0,0,0,.923-.8l.009-.9a1.075,1.075,0,0,0-.255-.747.992.992,0,0,0-1.371-.017,1.061,1.061,0,0,0-.272.72Zm-4.553,1.505-1.38-.694,6.249-10,1.38.694Z" transform="translate(926.667 3559.371)" fill="#12263f"/>
    <g id="Grupo_1099681" data-name="Grupo 1099681" transform="translate(601.051 3601.479)">
      <g id="Grupo_1099680" data-name="Grupo 1099680" clip-path="url(#clip-path)">
        <g id="Grupo_1099679" data-name="Grupo 1099679">
          <g id="Grupo_1099678" data-name="Grupo 1099678" clip-path="url(#clip-path)">
            <path id="Trazado_876311" data-name="Trazado 876311" d="M40.191,29.347,168.93,61.695,169.713,0S66.017,4.7,40.191,29.347" fill="#f8d348"/>
            <path id="Trazado_876312" data-name="Trazado 876312" d="M40.191,29.347v88.826H169.713V61.7Z" fill="#fcedb6"/>
            <path id="Trazado_876313" data-name="Trazado 876313" d="M21.409,41.478,149.366,73.761.67,86.087S-5.788,59.6,21.409,41.478" fill="#33b9cb"/>
            <path id="Trazado_876314" data-name="Trazado 876314" d="M.67,86.087V153h148.7V73.761Z" fill="#ade3ea"/>
            <path id="Trazado_876315" data-name="Trazado 876315" d="M150.93,86.087,5.365,96.261s9.782,24.652,37.174,31.7Z" fill="#f54749"/>
            <path id="Trazado_876316" data-name="Trazado 876316" d="M42.539,192.521V127.956A58.268,58.268,0,0,1,5.365,96.26L3.8,153s1.565,31.7,38.739,39.522" fill="#fbb5b6"/>
            <path id="Trazado_876317" data-name="Trazado 876317" d="M42.539,192.521,150.93,126.26V86.086L42.539,127.956Z" fill="#fbb5b6"/>
            <path id="Trazado_876318" data-name="Trazado 876318" d="M214.061,3.652V67.3H367.452S368.5,4.7,214.061,3.652" fill="#9c00cb"/>
            <path id="Trazado_876319" data-name="Trazado 876319" d="M165.409,90,55.844,131.478s33.833,18.283,53.261,16.8Z" fill="#c7a93a"/>
            <path id="Trazado_876320" data-name="Trazado 876320" d="M55.843,199.956s36,13.7,53.217,13.7V147.913s-20.347-.294-53.217-16.435Z" fill="#957f2b"/>
            <path id="Trazado_876321" data-name="Trazado 876321" d="M109.061,213.652l56.348-58.7V90l-56.677,58.028Z" fill="#957f2b"/>
            <g id="Grupo_1099677" data-name="Grupo 1099677" opacity="0.5">
              <g id="Grupo_1099676" data-name="Grupo 1099676">
                <g id="Grupo_1099675" data-name="Grupo 1099675" clip-path="url(#clip-path-3)">
                  <rect id="Rectángulo_401526" data-name="Rectángulo 401526" width="153.391" height="56.217" transform="translate(214.061 67.304)" fill="#9c00cb"/>
                </g>
              </g>
            </g>
            <path id="Trazado_876322" data-name="Trazado 876322" d="M224.322,83.152,341.3,122.674s35.3-14.892,34.254-37.369a21.321,21.321,0,0,0-.21-2.153Z" fill="#c4393a"/>
            <path id="Trazado_876323" data-name="Trazado 876323" d="M375.565,83.547v74.8s-.025,13.217-33.939,31.261L225.279,120.131l.211-36.584L341.3,122.674s35.856-14.8,34.265-39.127" fill="#932b2c"/>
            <path id="Trazado_876324" data-name="Trazado 876324" d="M208.844,90l48.339,61.7s44.4-6.918,67.1-21.788Z" fill="#a3b5af"/>
            <path id="Trazado_876325" data-name="Trazado 876325" d="M257.1,216l-.13-65.739L208.843,90v66.13L256.974,216c33.652-2.739,67.3-18.783,67.3-18.783v-67.3s-31.721,17.236-67.3,20.348" fill="#7b8883"/>
            <path id="Trazado_876326" data-name="Trazado 876326" d="M186.148,92.347l-56.12,59.478s73.105,13.259,102.294,0Z" fill="#cce2da"/>
            <path id="Trazado_876327" data-name="Trazado 876327" d="M130.191,217.174V151.826s73.174,11.739,102.13,0v67.7s-77.087,9.782-102.13-2.348" fill="#eaf3f0"/>
          </g>
        </g>
      </g>
    </g>
  </g>
</svg>
