<svg xmlns="http://www.w3.org/2000/svg" xmlns:xlink="http://www.w3.org/1999/xlink" width="668.867" height="307.157" viewBox="0 0 668.867 307.157">
  <defs>
    <clipPath id="clip-path">
      <rect id="Rectángulo_401530" data-name="Rectángulo 401530" width="498.727" height="209.625" fill="none"/>
    </clipPath>
  </defs>
  <g id="Grupo_1103718" data-name="Grupo 1103718" transform="translate(-471.589 -5785.981)">
    <path id="Trazado_876683" data-name="Trazado 876683" d="M16.085,10.865a7.546,7.546,0,0,1-.694,3.313A5.132,5.132,0,0,1,13.417,16.4a5.494,5.494,0,0,1-2.914.778,5.572,5.572,0,0,1-2.9-.751A5.123,5.123,0,0,1,5.63,14.275a7.329,7.329,0,0,1-.743-3.208v-.721a7.58,7.58,0,0,1,.69-3.318A5.119,5.119,0,0,1,7.555,4.81a5.533,5.533,0,0,1,2.931-.782,5.479,5.479,0,0,1,2.9.773A5.211,5.211,0,0,1,15.369,7a7.362,7.362,0,0,1,.716,3.274Zm-3.138-.536a5.381,5.381,0,0,0-.637-2.9,2.044,2.044,0,0,0-1.824-.989q-2.32,0-2.452,3.48l-.009.94a5.535,5.535,0,0,0,.624,2.892A2.041,2.041,0,0,0,10.5,14.768a2.016,2.016,0,0,0,1.8-.993,5.383,5.383,0,0,0,.642-2.856Zm8.042-5.2V7.49h1.564V9.547H20.989V13.9a1.111,1.111,0,0,0,.193.747,1.037,1.037,0,0,0,.765.211,4.345,4.345,0,0,0,.738-.053v2.118a5.466,5.466,0,0,1-1.67.255,3.1,3.1,0,0,1-2.259-.721,2.954,2.954,0,0,1-.729-2.188V9.547H16.814V7.49h1.213V5.126Zm8.481,5.045L28.5,10.1a1.752,1.752,0,0,0-1.793.879V17H23.74V7.49h2.777l.1,1.222a2.294,2.294,0,0,1,2.083-1.4,2.888,2.888,0,0,1,.826.105Zm.378,1.986A5.613,5.613,0,0,1,30.4,9.622a3.96,3.96,0,0,1,1.591-1.709,4.791,4.791,0,0,1,2.435-.6,4.373,4.373,0,0,1,3.366,1.323,5.076,5.076,0,0,1,1.23,3.6v.105a4.925,4.925,0,0,1-1.235,3.529,4.384,4.384,0,0,1-3.344,1.305,4.434,4.434,0,0,1-3.261-1.217,4.761,4.761,0,0,1-1.327-3.3Zm2.962.185a3.538,3.538,0,0,0,.413,1.934,1.376,1.376,0,0,0,1.222.615q1.582,0,1.617-2.435v-.3q0-2.558-1.635-2.558-1.485,0-1.608,2.206Zm12.5,1.986a.684.684,0,0,0-.4-.606,6.016,6.016,0,0,0-1.5-.475,6.853,6.853,0,0,1-1.828-.646,3.062,3.062,0,0,1-1.1-.971,2.319,2.319,0,0,1-.378-1.31,2.628,2.628,0,0,1,1.081-2.158,4.453,4.453,0,0,1,2.83-.848,4.934,4.934,0,0,1,3.023.853,2.666,2.666,0,0,1,1.143,2.241H45.212q0-1.143-1.2-1.143a1.194,1.194,0,0,0-.782.259.8.8,0,0,0-.316.646.737.737,0,0,0,.387.642,3.654,3.654,0,0,0,1.235.4,10.671,10.671,0,0,1,1.49.378,2.706,2.706,0,0,1,2.145,2.646,2.491,2.491,0,0,1-1.156,2.118,5.068,5.068,0,0,1-2.993.817,5.172,5.172,0,0,1-2.18-.439,3.645,3.645,0,0,1-1.494-1.2,2.707,2.707,0,0,1-.536-1.591h2.769a1.145,1.145,0,0,0,.439.962,1.808,1.808,0,0,0,1.081.3,1.422,1.422,0,0,0,.91-.246A.787.787,0,0,0,45.309,14.328ZM16.744,41H13.773V31.543l-2.918.853v-2.25L16.472,28.2h.272Zm12.744-5.229a6.11,6.11,0,0,1-1.165,4,4.024,4.024,0,0,1-3.283,1.406,4.046,4.046,0,0,1-3.3-1.415,6.1,6.1,0,0,1-1.169-3.99V33.433a6.11,6.11,0,0,1,1.165-4,4.034,4.034,0,0,1,3.292-1.406,4.036,4.036,0,0,1,3.3,1.415,6.116,6.116,0,0,1,1.169,4Zm-2.962-2.716a4.564,4.564,0,0,0-.36-2.061,1.2,1.2,0,0,0-1.143-.681,1.176,1.176,0,0,0-1.112.633,4.3,4.3,0,0,0-.374,1.916v3.27a4.6,4.6,0,0,0,.36,2.1,1.209,1.209,0,0,0,1.143.664,1.193,1.193,0,0,0,1.116-.646,4.39,4.39,0,0,0,.369-2.026Zm4.509-2.391a2.512,2.512,0,0,1,.773-1.916,3.334,3.334,0,0,1,4.157,0,2.578,2.578,0,0,1,.765,1.964v.633a2.5,2.5,0,0,1-.765,1.907,2.889,2.889,0,0,1-2.065.721,2.968,2.968,0,0,1-2.079-.716,2.524,2.524,0,0,1-.787-1.964Zm1.907.675a1.062,1.062,0,0,0,.255.738.9.9,0,0,0,.7.284q.923,0,.923-1.17v-.524a1.12,1.12,0,0,0-.246-.747.857.857,0,0,0-.694-.293.876.876,0,0,0-.686.284,1.114,1.114,0,0,0-.255.773Zm4.175,6.524a2.487,2.487,0,0,1,.778-1.916,2.924,2.924,0,0,1,2.07-.721,2.956,2.956,0,0,1,2.083.712,2.565,2.565,0,0,1,.773,1.986v.615a2.509,2.509,0,0,1-.765,1.916,2.9,2.9,0,0,1-2.074.721,2.968,2.968,0,0,1-2.079-.716,2.524,2.524,0,0,1-.787-1.964Zm1.9.675a1.039,1.039,0,0,0,.281.72.891.891,0,0,0,.686.31.808.808,0,0,0,.923-.8l.009-.9a1.075,1.075,0,0,0-.255-.747.992.992,0,0,0-1.371-.017,1.061,1.061,0,0,0-.272.72Zm-4.553,1.505-1.38-.694,6.249-10,1.38.694Z" transform="translate(686.218 5781.963)" fill="#12263f"/>
    <path id="Trazado_876684" data-name="Trazado 876684" d="M11.65,13.52,14.2,4.2h3.445L13.338,17H9.963L5.691,4.2H9.11Zm11,3.656a4.889,4.889,0,0,1-3.542-1.305,4.507,4.507,0,0,1-1.354-3.4v-.246A5.84,5.84,0,0,1,18.3,9.652a3.955,3.955,0,0,1,1.578-1.727,4.763,4.763,0,0,1,2.461-.611A4.117,4.117,0,0,1,25.5,8.558a4.887,4.887,0,0,1,1.16,3.467v1.151H20.773a2.135,2.135,0,0,0,.694,1.257,2.066,2.066,0,0,0,1.389.457,2.662,2.662,0,0,0,2.2-.984l1.354,1.6a3.784,3.784,0,0,1-1.569,1.217A5.3,5.3,0,0,1,22.654,17.176ZM22.32,9.6q-1.3,0-1.547,1.723h2.988v-.229a1.467,1.467,0,0,0-.36-1.1A1.434,1.434,0,0,0,22.32,9.6Zm11.285.571-.976-.07a1.752,1.752,0,0,0-1.793.879V17H27.875V7.49h2.777l.1,1.222a2.294,2.294,0,0,1,2.083-1.4,2.888,2.888,0,0,1,.826.105Zm.527,2a5.809,5.809,0,0,1,.976-3.56,3.211,3.211,0,0,1,2.725-1.3,2.731,2.731,0,0,1,2.145,1V3.5h2.971V17H40.285l-.149-1.02a2.8,2.8,0,0,1-2.32,1.2,3.205,3.205,0,0,1-2.689-1.3A5.993,5.993,0,0,1,34.133,12.175Zm2.962.185q0,2.531,1.477,2.531a1.458,1.458,0,0,0,1.406-.826V10.443A1.419,1.419,0,0,0,38.589,9.6q-1.371,0-1.485,2.215Zm13.2,3.612a3.054,3.054,0,0,1-2.54,1.2,3,3,0,0,1-2.369-.91,3.826,3.826,0,0,1-.8-2.615V7.49h2.962v6.179a1.065,1.065,0,0,0,1.187,1.222,1.548,1.548,0,0,0,1.45-.729V7.49h2.979V17H50.384Zm10.239-5.8-.976-.07a1.752,1.752,0,0,0-1.793.879V17H54.8V7.49h2.777l.1,1.222a2.294,2.294,0,0,1,2.083-1.4,2.888,2.888,0,0,1,.826.105ZM66.7,17a3.344,3.344,0,0,1-.281-.853,2.754,2.754,0,0,1-2.285,1.028,3.374,3.374,0,0,1-2.285-.813,2.588,2.588,0,0,1-.94-2.043,2.66,2.66,0,0,1,1.143-2.338,5.821,5.821,0,0,1,3.322-.791h.914v-.5q0-1.316-1.134-1.316a.927.927,0,0,0-1.055,1.042H61.133a2.655,2.655,0,0,1,1.173-2.239,4.931,4.931,0,0,1,2.993-.86,4.323,4.323,0,0,1,2.874.888,3.086,3.086,0,0,1,1.081,2.435v4.21a4.311,4.311,0,0,0,.4,2V17Zm-1.854-1.934a1.652,1.652,0,0,0,.918-.237,1.487,1.487,0,0,0,.523-.536V12.772h-.861q-1.547,0-1.547,1.389a.848.848,0,0,0,.272.655A.986.986,0,0,0,64.842,15.066Zm11.03-.738a.684.684,0,0,0-.4-.606,6.016,6.016,0,0,0-1.5-.475,6.853,6.853,0,0,1-1.828-.646,3.062,3.062,0,0,1-1.1-.971,2.319,2.319,0,0,1-.378-1.31A2.628,2.628,0,0,1,71.75,8.163a4.453,4.453,0,0,1,2.83-.848,4.934,4.934,0,0,1,3.023.853,2.666,2.666,0,0,1,1.143,2.241H75.775q0-1.143-1.2-1.143a1.194,1.194,0,0,0-.782.259.8.8,0,0,0-.316.646.737.737,0,0,0,.387.642,3.654,3.654,0,0,0,1.235.4,10.671,10.671,0,0,1,1.49.378,2.706,2.706,0,0,1,2.145,2.646,2.491,2.491,0,0,1-1.156,2.118,5.068,5.068,0,0,1-2.993.817,5.172,5.172,0,0,1-2.18-.439,3.645,3.645,0,0,1-1.494-1.2,2.707,2.707,0,0,1-.536-1.591h2.769a1.145,1.145,0,0,0,.439.962,1.808,1.808,0,0,0,1.081.3,1.422,1.422,0,0,0,.91-.246A.787.787,0,0,0,75.872,14.328ZM32.744,41H29.773V31.543l-2.918.853v-2.25L32.472,28.2h.272Zm12.744-5.229a6.11,6.11,0,0,1-1.165,4,4.024,4.024,0,0,1-3.283,1.406,4.046,4.046,0,0,1-3.3-1.415,6.1,6.1,0,0,1-1.169-3.99V33.433a6.11,6.11,0,0,1,1.165-4,4.034,4.034,0,0,1,3.292-1.406,4.036,4.036,0,0,1,3.3,1.415,6.116,6.116,0,0,1,1.169,4Zm-2.962-2.716a4.564,4.564,0,0,0-.36-2.061,1.2,1.2,0,0,0-1.143-.681,1.176,1.176,0,0,0-1.112.633,4.3,4.3,0,0,0-.374,1.916v3.27a4.6,4.6,0,0,0,.36,2.1,1.209,1.209,0,0,0,1.143.664,1.193,1.193,0,0,0,1.116-.646,4.39,4.39,0,0,0,.369-2.026Zm4.509-2.391a2.512,2.512,0,0,1,.773-1.916,3.334,3.334,0,0,1,4.157,0,2.578,2.578,0,0,1,.765,1.964v.633a2.5,2.5,0,0,1-.765,1.907,2.889,2.889,0,0,1-2.065.721,2.968,2.968,0,0,1-2.079-.716,2.524,2.524,0,0,1-.787-1.964Zm1.907.675a1.062,1.062,0,0,0,.255.738.9.9,0,0,0,.7.284q.923,0,.923-1.17v-.524a1.12,1.12,0,0,0-.246-.747.857.857,0,0,0-.694-.293.876.876,0,0,0-.686.284,1.114,1.114,0,0,0-.255.773Zm4.175,6.524a2.487,2.487,0,0,1,.778-1.916,2.924,2.924,0,0,1,2.07-.721,2.956,2.956,0,0,1,2.083.712,2.565,2.565,0,0,1,.773,1.986v.615a2.509,2.509,0,0,1-.765,1.916,2.9,2.9,0,0,1-2.074.721,2.968,2.968,0,0,1-2.079-.716,2.524,2.524,0,0,1-.787-1.964Zm1.9.675a1.039,1.039,0,0,0,.281.72.891.891,0,0,0,.686.31.808.808,0,0,0,.923-.8l.009-.9a1.075,1.075,0,0,0-.255-.747.992.992,0,0,0-1.371-.017,1.061,1.061,0,0,0-.272.72Zm-4.553,1.505-1.38-.694,6.249-10,1.38.694Z" transform="translate(512.551 5820.017)" fill="#12263f"/>
    <path id="Trazado_876685" data-name="Trazado 876685" d="M15.623,12.658V17H12.538V4.2h5.106a5.948,5.948,0,0,1,2.6.541,4.074,4.074,0,0,1,1.749,1.538,4.2,4.2,0,0,1,.62,2.263,3.7,3.7,0,0,1-1.34,2.993,5.561,5.561,0,0,1-3.678,1.121Zm0-2.382h2.021a1.906,1.906,0,0,0,1.367-.448,1.665,1.665,0,0,0,.47-1.266A2.059,2.059,0,0,0,19,7.13a1.712,1.712,0,0,0-1.318-.545H15.623ZM29.378,17a3.344,3.344,0,0,1-.281-.853,2.754,2.754,0,0,1-2.285,1.028,3.374,3.374,0,0,1-2.285-.813,2.588,2.588,0,0,1-.94-2.043,2.66,2.66,0,0,1,1.143-2.338,5.821,5.821,0,0,1,3.322-.791h.914v-.5q0-1.316-1.134-1.316a.927.927,0,0,0-1.055,1.042H23.814a2.655,2.655,0,0,1,1.173-2.239,4.931,4.931,0,0,1,2.993-.86,4.323,4.323,0,0,1,2.874.888,3.086,3.086,0,0,1,1.081,2.435v4.21a4.311,4.311,0,0,0,.4,2V17Zm-1.854-1.934a1.652,1.652,0,0,0,.918-.237,1.487,1.487,0,0,0,.523-.536V12.772H28.1q-1.547,0-1.547,1.389a.848.848,0,0,0,.272.655A.986.986,0,0,0,27.523,15.066Zm9.5-9.94V7.49h1.564V9.547H37.024V13.9a1.111,1.111,0,0,0,.193.747,1.037,1.037,0,0,0,.765.211,4.345,4.345,0,0,0,.738-.053v2.118a5.466,5.466,0,0,1-1.67.255,3.1,3.1,0,0,1-2.259-.721,2.954,2.954,0,0,1-.729-2.188V9.547H32.85V7.49h1.213V5.126ZM45.11,17a3.344,3.344,0,0,1-.281-.853,2.754,2.754,0,0,1-2.285,1.028,3.374,3.374,0,0,1-2.285-.813,2.588,2.588,0,0,1-.94-2.043,2.66,2.66,0,0,1,1.143-2.338,5.821,5.821,0,0,1,3.322-.791H44.7v-.5q0-1.316-1.134-1.316a.927.927,0,0,0-1.055,1.042H39.547A2.655,2.655,0,0,1,40.72,8.175a4.931,4.931,0,0,1,2.993-.86,4.323,4.323,0,0,1,2.874.888,3.086,3.086,0,0,1,1.081,2.435v4.21a4.311,4.311,0,0,0,.4,2V17Zm-1.854-1.934a1.652,1.652,0,0,0,.918-.237,1.487,1.487,0,0,0,.523-.536V12.772h-.861q-1.547,0-1.547,1.389a.848.848,0,0,0,.272.655A.986.986,0,0,0,43.256,15.066Zm9.5-9.94V7.49h1.564V9.547H52.757V13.9a1.111,1.111,0,0,0,.193.747,1.037,1.037,0,0,0,.765.211,4.345,4.345,0,0,0,.738-.053v2.118a5.466,5.466,0,0,1-1.67.255,3.1,3.1,0,0,1-2.259-.721,2.954,2.954,0,0,1-.729-2.188V9.547H48.582V7.49h1.213V5.126ZM60.843,17a3.344,3.344,0,0,1-.281-.853,2.754,2.754,0,0,1-2.285,1.028,3.374,3.374,0,0,1-2.285-.813,2.588,2.588,0,0,1-.94-2.043,2.66,2.66,0,0,1,1.143-2.338,5.821,5.821,0,0,1,3.322-.791h.914v-.5q0-1.316-1.134-1.316a.927.927,0,0,0-1.055,1.042H55.279a2.655,2.655,0,0,1,1.173-2.239,4.931,4.931,0,0,1,2.993-.86,4.323,4.323,0,0,1,2.874.888A3.086,3.086,0,0,1,63.4,10.637v4.21a4.311,4.311,0,0,0,.4,2V17Zm-1.854-1.934a1.652,1.652,0,0,0,.918-.237,1.487,1.487,0,0,0,.523-.536V12.772h-.861q-1.547,0-1.547,1.389a.848.848,0,0,0,.272.655A.986.986,0,0,0,58.988,15.066Zm11.03-.738a.684.684,0,0,0-.4-.606,6.016,6.016,0,0,0-1.5-.475,6.853,6.853,0,0,1-1.828-.646,3.062,3.062,0,0,1-1.1-.971,2.319,2.319,0,0,1-.378-1.31A2.628,2.628,0,0,1,65.9,8.163a4.453,4.453,0,0,1,2.83-.848,4.934,4.934,0,0,1,3.023.853,2.666,2.666,0,0,1,1.143,2.241H69.922q0-1.143-1.2-1.143a1.194,1.194,0,0,0-.782.259.8.8,0,0,0-.316.646.737.737,0,0,0,.387.642,3.654,3.654,0,0,0,1.235.4,10.671,10.671,0,0,1,1.49.378,2.706,2.706,0,0,1,2.145,2.646,2.491,2.491,0,0,1-1.156,2.118,5.068,5.068,0,0,1-2.993.817,5.172,5.172,0,0,1-2.18-.439,3.645,3.645,0,0,1-1.494-1.2,2.707,2.707,0,0,1-.536-1.591h2.769a1.145,1.145,0,0,0,.439.962,1.808,1.808,0,0,0,1.081.3,1.422,1.422,0,0,0,.91-.246A.787.787,0,0,0,70.019,14.328ZM35.108,41h-8.93V39.066l4.113-4.324a4.909,4.909,0,0,0,1.521-2.751,1.913,1.913,0,0,0-.36-1.257,1.287,1.287,0,0,0-1.046-.431,1.3,1.3,0,0,0-1.1.576,2.366,2.366,0,0,0-.422,1.437H25.915a4.2,4.2,0,0,1,.589-2.175,4.129,4.129,0,0,1,1.635-1.56,4.856,4.856,0,0,1,2.338-.562,4.777,4.777,0,0,1,3.195.958,3.42,3.42,0,0,1,1.121,2.751,4,4,0,0,1-.281,1.472,6.456,6.456,0,0,1-.875,1.5,22.029,22.029,0,0,1-1.912,2.1l-1.652,1.907h5.036Zm8.648-12.981v2.329h-.132a4.447,4.447,0,0,0-2.729.8,3.358,3.358,0,0,0-1.314,2.21,3.464,3.464,0,0,1,2.531-.984,3.231,3.231,0,0,1,2.646,1.213,4.892,4.892,0,0,1,.984,3.182A4.48,4.48,0,0,1,45.167,39a4.108,4.108,0,0,1-1.608,1.6,4.622,4.622,0,0,1-2.29.576,4.777,4.777,0,0,1-2.435-.62,4.26,4.26,0,0,1-1.67-1.771,5.832,5.832,0,0,1-.615-2.654V34.944a7.387,7.387,0,0,1,.848-3.555,6.149,6.149,0,0,1,2.421-2.474,6.923,6.923,0,0,1,3.489-.9Zm-2.672,6.618a1.7,1.7,0,0,0-.984.272,1.73,1.73,0,0,0-.589.668v.888q0,2.426,1.679,2.426a1.362,1.362,0,0,0,1.129-.606,2.472,2.472,0,0,0,.453-1.521,2.426,2.426,0,0,0-.461-1.534A1.476,1.476,0,0,0,41.085,34.637Zm5.95-3.973a2.512,2.512,0,0,1,.773-1.916,3.334,3.334,0,0,1,4.157,0,2.578,2.578,0,0,1,.765,1.964v.633a2.5,2.5,0,0,1-.765,1.907,2.889,2.889,0,0,1-2.065.721,2.968,2.968,0,0,1-2.079-.716,2.524,2.524,0,0,1-.787-1.964Zm1.907.675a1.062,1.062,0,0,0,.255.738.9.9,0,0,0,.7.284q.923,0,.923-1.17v-.524a1.12,1.12,0,0,0-.246-.747.857.857,0,0,0-.694-.293.876.876,0,0,0-.686.284,1.114,1.114,0,0,0-.255.773Zm4.175,6.524a2.487,2.487,0,0,1,.778-1.916,2.924,2.924,0,0,1,2.07-.721,2.956,2.956,0,0,1,2.083.712,2.565,2.565,0,0,1,.773,1.986v.615a2.509,2.509,0,0,1-.765,1.916,2.9,2.9,0,0,1-2.074.721,2.968,2.968,0,0,1-2.079-.716,2.524,2.524,0,0,1-.787-1.964Zm1.9.675a1.039,1.039,0,0,0,.281.72.891.891,0,0,0,.686.31.808.808,0,0,0,.923-.8l.009-.9a1.075,1.075,0,0,0-.255-.747.992.992,0,0,0-1.371-.017,1.061,1.061,0,0,0-.272.72Zm-4.553,1.505-1.38-.694,6.249-10,1.38.694Z" transform="translate(459.051 5942.883)" fill="#12263f"/>
    <path id="Trazado_876682" data-name="Trazado 876682" d="M13.751,12.667a4.673,4.673,0,0,1-.721,2.36,4.35,4.35,0,0,1-1.85,1.586,6.3,6.3,0,0,1-2.72.563,5.025,5.025,0,0,1-3.973-1.644,6.786,6.786,0,0,1-1.45-4.641v-.633a7.746,7.746,0,0,1,.655-3.292,4.961,4.961,0,0,1,1.885-2.18,5.26,5.26,0,0,1,2.848-.769,5.516,5.516,0,0,1,3.744,1.226,4.844,4.844,0,0,1,1.608,3.379H10.7a2.292,2.292,0,0,0-.589-1.679,2.422,2.422,0,0,0-1.687-.51A1.843,1.843,0,0,0,6.738,7.3a5.536,5.536,0,0,0-.562,2.751v.905a6.125,6.125,0,0,0,.514,2.927,1.882,1.882,0,0,0,1.771.879,2.369,2.369,0,0,0,1.626-.5,2.126,2.126,0,0,0,.6-1.591ZM20.431,17a3.344,3.344,0,0,1-.281-.853,2.754,2.754,0,0,1-2.285,1.028,3.374,3.374,0,0,1-2.285-.813,2.588,2.588,0,0,1-.94-2.043,2.66,2.66,0,0,1,1.143-2.338A5.821,5.821,0,0,1,19.1,11.19h.914v-.5q0-1.316-1.134-1.316a.927.927,0,0,0-1.055,1.042H14.868a2.655,2.655,0,0,1,1.173-2.239,4.931,4.931,0,0,1,2.993-.86,4.323,4.323,0,0,1,2.874.888,3.086,3.086,0,0,1,1.081,2.435v4.21a4.311,4.311,0,0,0,.4,2V17Zm-1.854-1.934a1.652,1.652,0,0,0,.918-.237,1.487,1.487,0,0,0,.523-.536V12.772h-.861q-1.547,0-1.547,1.389a.848.848,0,0,0,.272.655A.986.986,0,0,0,18.577,15.066Zm11.8-4.9L29.4,10.1a1.752,1.752,0,0,0-1.793.879V17H24.65V7.49h2.777l.1,1.222a2.294,2.294,0,0,1,2.083-1.4,2.888,2.888,0,0,1,.826.105ZM34.168,7.49l.1,1.116a3.225,3.225,0,0,1,2.716-1.292A2.713,2.713,0,0,1,39.2,8.2a4.226,4.226,0,0,1,.76,2.672V17H36.99V11a1.6,1.6,0,0,0-.29-1.059A1.342,1.342,0,0,0,35.645,9.6a1.413,1.413,0,0,0-1.292.686V17H31.391V7.49ZM46.2,17.176a4.889,4.889,0,0,1-3.542-1.305,4.507,4.507,0,0,1-1.354-3.4v-.246a5.84,5.84,0,0,1,.541-2.575,3.955,3.955,0,0,1,1.578-1.727,4.763,4.763,0,0,1,2.461-.611,4.117,4.117,0,0,1,3.164,1.244,4.887,4.887,0,0,1,1.16,3.467v1.151H44.32a2.135,2.135,0,0,0,.694,1.257,2.066,2.066,0,0,0,1.389.457,2.662,2.662,0,0,0,2.2-.984l1.354,1.6a3.784,3.784,0,0,1-1.569,1.217A5.3,5.3,0,0,1,46.2,17.176ZM45.867,9.6q-1.3,0-1.547,1.723h2.988v-.229a1.467,1.467,0,0,0-.36-1.1A1.434,1.434,0,0,0,45.867,9.6ZM21.227,36.052a3.128,3.128,0,0,1-2.145.861,3.463,3.463,0,0,1-2.76-1.178,4.64,4.64,0,0,1-1.02-3.146,4.722,4.722,0,0,1,.571-2.285,4.287,4.287,0,0,1,1.6-1.67,4.373,4.373,0,0,1,2.281-.615,4.245,4.245,0,0,1,2.29.637,4.29,4.29,0,0,1,1.6,1.8,6.189,6.189,0,0,1,.589,2.685v1.134A7.693,7.693,0,0,1,23.4,37.95a5.734,5.734,0,0,1-2.369,2.391,7.4,7.4,0,0,1-3.586.835h-.185V38.8l.563-.009Q20.884,38.645,21.227,36.052Zm-1.345-1.274a1.442,1.442,0,0,0,1.389-.835v-1.23a3.2,3.2,0,0,0-.413-1.819,1.3,1.3,0,0,0-1.116-.589,1.225,1.225,0,0,0-1.046.668,2.968,2.968,0,0,0-.422,1.617,2.661,2.661,0,0,0,.431,1.6A1.378,1.378,0,0,0,19.882,34.777Zm5.941-4.113a2.512,2.512,0,0,1,.773-1.916,2.9,2.9,0,0,1,2.074-.729,2.9,2.9,0,0,1,2.083.725,2.578,2.578,0,0,1,.765,1.964v.633a2.5,2.5,0,0,1-.765,1.907,2.889,2.889,0,0,1-2.065.721,2.968,2.968,0,0,1-2.079-.716,2.524,2.524,0,0,1-.787-1.964Zm1.907.675a1.062,1.062,0,0,0,.255.738.9.9,0,0,0,.7.284q.923,0,.923-1.17v-.524a1.12,1.12,0,0,0-.246-.747.857.857,0,0,0-.694-.293.876.876,0,0,0-.686.284,1.114,1.114,0,0,0-.255.773Zm4.175,6.524a2.487,2.487,0,0,1,.778-1.916,2.924,2.924,0,0,1,2.07-.721,2.956,2.956,0,0,1,2.083.712,2.565,2.565,0,0,1,.773,1.986v.615a2.509,2.509,0,0,1-.765,1.916,2.9,2.9,0,0,1-2.074.721,2.968,2.968,0,0,1-2.079-.716,2.524,2.524,0,0,1-.787-1.964Zm1.9.675a1.039,1.039,0,0,0,.281.72.891.891,0,0,0,.686.31.808.808,0,0,0,.923-.8l.009-.9a1.075,1.075,0,0,0-.255-.747.992.992,0,0,0-1.371-.017,1.061,1.061,0,0,0-.272.72Zm-4.553,1.505-1.38-.694,6.249-10,1.38.694Z" transform="translate(871.218 5781.963)" fill="#12263f"/>
    <path id="Trazado_876681" data-name="Trazado 876681" d="M5.672,12.658V17H2.587V4.2H7.694a5.948,5.948,0,0,1,2.6.541A4.074,4.074,0,0,1,12.04,6.282a4.2,4.2,0,0,1,.62,2.263,3.7,3.7,0,0,1-1.34,2.993,5.561,5.561,0,0,1-3.678,1.121Zm0-2.382H7.694a1.906,1.906,0,0,0,1.367-.448,1.665,1.665,0,0,0,.47-1.266A2.059,2.059,0,0,0,9.047,7.13a1.712,1.712,0,0,0-1.318-.545H5.672Zm12.981,6.9a4.889,4.889,0,0,1-3.542-1.305,4.507,4.507,0,0,1-1.354-3.4v-.246A5.84,5.84,0,0,1,14.3,9.652a3.955,3.955,0,0,1,1.578-1.727,4.763,4.763,0,0,1,2.461-.611A4.117,4.117,0,0,1,21.5,8.558a4.887,4.887,0,0,1,1.16,3.467v1.151H16.773a2.135,2.135,0,0,0,.694,1.257,2.066,2.066,0,0,0,1.389.457,2.662,2.662,0,0,0,2.2-.984l1.354,1.6a3.784,3.784,0,0,1-1.569,1.217A5.3,5.3,0,0,1,18.654,17.176ZM18.32,9.6q-1.3,0-1.547,1.723h2.988v-.229a1.467,1.467,0,0,0-.36-1.1A1.434,1.434,0,0,0,18.32,9.6Zm10.512,4.729a.684.684,0,0,0-.4-.606,6.016,6.016,0,0,0-1.5-.475A6.853,6.853,0,0,1,25.1,12.6a3.062,3.062,0,0,1-1.1-.971,2.319,2.319,0,0,1-.378-1.31,2.628,2.628,0,0,1,1.081-2.158,4.453,4.453,0,0,1,2.83-.848,4.934,4.934,0,0,1,3.023.853,2.666,2.666,0,0,1,1.143,2.241H28.735q0-1.143-1.2-1.143a1.194,1.194,0,0,0-.782.259.8.8,0,0,0-.316.646.737.737,0,0,0,.387.642,3.654,3.654,0,0,0,1.235.4,10.671,10.671,0,0,1,1.49.378,2.706,2.706,0,0,1,2.145,2.646,2.491,2.491,0,0,1-1.156,2.118,5.068,5.068,0,0,1-2.993.817,5.172,5.172,0,0,1-2.18-.439,3.645,3.645,0,0,1-1.494-1.2,2.707,2.707,0,0,1-.536-1.591H26.1a1.145,1.145,0,0,0,.439.962,1.808,1.808,0,0,0,1.081.3,1.422,1.422,0,0,0,.91-.246A.787.787,0,0,0,28.832,14.328Zm8.262.563a1.317,1.317,0,0,0,.967-.338,1.241,1.241,0,0,0,.334-.945h2.777a3.288,3.288,0,0,1-1.121,2.566,4.168,4.168,0,0,1-2.887,1,4.22,4.22,0,0,1-3.27-1.3,5.125,5.125,0,0,1-1.2-3.6v-.123A5.792,5.792,0,0,1,33.23,9.6a3.872,3.872,0,0,1,1.534-1.7,4.573,4.573,0,0,1,2.373-.593,4.116,4.116,0,0,1,2.944,1.028,3.647,3.647,0,0,1,1.09,2.786H38.394A1.626,1.626,0,0,0,38.034,10a1.244,1.244,0,0,0-.967-.4q-1.151,0-1.345,1.468a10.357,10.357,0,0,0-.062,1.283A4.068,4.068,0,0,0,36,14.337,1.187,1.187,0,0,0,37.093,14.891ZM47.781,17a3.344,3.344,0,0,1-.281-.853,2.754,2.754,0,0,1-2.285,1.028,3.374,3.374,0,0,1-2.285-.813,2.588,2.588,0,0,1-.94-2.043,2.66,2.66,0,0,1,1.143-2.338,5.821,5.821,0,0,1,3.322-.791h.914v-.5q0-1.316-1.134-1.316a.927.927,0,0,0-1.055,1.042H42.217a2.655,2.655,0,0,1,1.173-2.239,4.931,4.931,0,0,1,2.993-.86,4.323,4.323,0,0,1,2.874.888,3.086,3.086,0,0,1,1.081,2.435v4.21a4.311,4.311,0,0,0,.4,2V17Zm-1.854-1.934a1.652,1.652,0,0,0,.918-.237,1.487,1.487,0,0,0,.523-.536V12.772h-.861q-1.547,0-1.547,1.389a.848.848,0,0,0,.272.655A.986.986,0,0,0,45.926,15.066ZM51.6,12.175a5.809,5.809,0,0,1,.976-3.56,3.211,3.211,0,0,1,2.725-1.3,2.731,2.731,0,0,1,2.145,1V3.5h2.971V17H57.756l-.149-1.02a2.8,2.8,0,0,1-2.32,1.2,3.205,3.205,0,0,1-2.689-1.3A5.993,5.993,0,0,1,51.6,12.175Zm2.962.185q0,2.531,1.477,2.531a1.458,1.458,0,0,0,1.406-.826V10.443A1.419,1.419,0,0,0,56.06,9.6q-1.371,0-1.485,2.215Zm7.163-.2a5.613,5.613,0,0,1,.554-2.536,3.96,3.96,0,0,1,1.591-1.709,4.791,4.791,0,0,1,2.435-.6,4.373,4.373,0,0,1,3.366,1.323,5.076,5.076,0,0,1,1.23,3.6v.105a4.925,4.925,0,0,1-1.235,3.529,4.384,4.384,0,0,1-3.344,1.305,4.434,4.434,0,0,1-3.261-1.217,4.761,4.761,0,0,1-1.327-3.3Zm2.962.185a3.538,3.538,0,0,0,.413,1.934,1.376,1.376,0,0,0,1.222.615q1.582,0,1.617-2.435v-.3q0-2.558-1.635-2.558-1.485,0-1.608,2.206ZM29.108,41h-8.93V39.066l4.113-4.324a4.909,4.909,0,0,0,1.521-2.751,1.913,1.913,0,0,0-.36-1.257,1.287,1.287,0,0,0-1.046-.431,1.3,1.3,0,0,0-1.1.576,2.366,2.366,0,0,0-.422,1.437H19.915a4.2,4.2,0,0,1,.589-2.175,4.129,4.129,0,0,1,1.635-1.56,4.856,4.856,0,0,1,2.338-.562,4.777,4.777,0,0,1,3.195.958,3.42,3.42,0,0,1,1.121,2.751,4,4,0,0,1-.281,1.472,6.456,6.456,0,0,1-.875,1.5,22.029,22.029,0,0,1-1.912,2.1l-1.652,1.907h5.036Zm1.67-6.251.782-6.546H39.04v2.3H33.969l-.29,2.542a3.493,3.493,0,0,1,.831-.327,4.179,4.179,0,0,1,3.938.988,5.146,5.146,0,0,1,.475,5.4,3.776,3.776,0,0,1-1.542,1.534,4.87,4.87,0,0,1-2.347.536,5.24,5.24,0,0,1-2.259-.5,4.052,4.052,0,0,1-1.652-1.361,3.308,3.308,0,0,1-.589-1.954H33.5a1.68,1.68,0,0,0,.448,1.114,1.423,1.423,0,0,0,1.063.412q1.494,0,1.494-2.21,0-2.044-1.828-2.044a1.824,1.824,0,0,0-1.547.667Zm10.257-4.085a2.512,2.512,0,0,1,.773-1.916,3.334,3.334,0,0,1,4.157,0,2.578,2.578,0,0,1,.765,1.964v.633a2.5,2.5,0,0,1-.765,1.907,2.889,2.889,0,0,1-2.065.721,2.968,2.968,0,0,1-2.079-.716,2.524,2.524,0,0,1-.787-1.964Zm1.907.675a1.062,1.062,0,0,0,.255.738.9.9,0,0,0,.7.284q.923,0,.923-1.17v-.524a1.12,1.12,0,0,0-.246-.747.857.857,0,0,0-.694-.293.876.876,0,0,0-.686.284,1.114,1.114,0,0,0-.255.773Zm4.175,6.524a2.487,2.487,0,0,1,.778-1.916,2.924,2.924,0,0,1,2.07-.721,2.956,2.956,0,0,1,2.083.712,2.565,2.565,0,0,1,.773,1.986v.615a2.509,2.509,0,0,1-.765,1.916,2.9,2.9,0,0,1-2.074.721,2.968,2.968,0,0,1-2.079-.716,2.524,2.524,0,0,1-.787-1.964Zm1.9.675a1.039,1.039,0,0,0,.281.72.891.891,0,0,0,.686.31.808.808,0,0,0,.923-.8l.009-.9a1.075,1.075,0,0,0-.255-.747.992.992,0,0,0-1.371-.017,1.061,1.061,0,0,0-.272.72Zm-4.553,1.505-1.38-.694,6.249-10,1.38.694Z" transform="translate(1069.551 5848.963)" fill="#12263f"/>
    <path id="Trazado_876686" data-name="Trazado 876686" d="M24.89,12.658V17H21.8V4.2h5.106a5.948,5.948,0,0,1,2.6.541,4.074,4.074,0,0,1,1.749,1.538,4.2,4.2,0,0,1,.62,2.263,3.7,3.7,0,0,1-1.34,2.993,5.561,5.561,0,0,1-3.678,1.121Zm0-2.382h2.021a1.906,1.906,0,0,0,1.367-.448,1.665,1.665,0,0,0,.47-1.266,2.059,2.059,0,0,0-.483-1.433,1.712,1.712,0,0,0-1.318-.545H24.89ZM38.645,17a3.344,3.344,0,0,1-.281-.853,2.754,2.754,0,0,1-2.285,1.028,3.374,3.374,0,0,1-2.285-.813,2.588,2.588,0,0,1-.94-2.043A2.66,2.66,0,0,1,34,11.981a5.821,5.821,0,0,1,3.322-.791h.914v-.5q0-1.316-1.134-1.316a.927.927,0,0,0-1.055,1.042H33.081a2.655,2.655,0,0,1,1.173-2.239,4.931,4.931,0,0,1,2.993-.86,4.323,4.323,0,0,1,2.874.888A3.086,3.086,0,0,1,41.2,10.637v4.21a4.311,4.311,0,0,0,.4,2V17ZM36.79,15.066a1.652,1.652,0,0,0,.918-.237,1.487,1.487,0,0,0,.523-.536V12.772H37.37q-1.547,0-1.547,1.389a.848.848,0,0,0,.272.655A.986.986,0,0,0,36.79,15.066ZM45.562,7.49l.1,1.116a3.225,3.225,0,0,1,2.716-1.292,2.713,2.713,0,0,1,2.219.888,4.226,4.226,0,0,1,.76,2.672V17H48.383V11a1.6,1.6,0,0,0-.29-1.059A1.342,1.342,0,0,0,47.038,9.6a1.413,1.413,0,0,0-1.292.686V17H42.784V7.49ZM28.985,41H26.015V31.543L23.1,32.4v-2.25L28.713,28.2h.272Zm12.489-9.378a2.954,2.954,0,0,1-.461,1.644,3.361,3.361,0,0,1-1.27,1.143,3.7,3.7,0,0,1,1.45,1.226,3.164,3.164,0,0,1,.536,1.841,3.349,3.349,0,0,1-1.182,2.707,4.909,4.909,0,0,1-3.256.993,5,5,0,0,1-3.287-1,3.325,3.325,0,0,1-1.2-2.7,3.2,3.2,0,0,1,.527-1.819,3.586,3.586,0,0,1,1.494-1.248,3.38,3.38,0,0,1-1.283-1.143,2.934,2.934,0,0,1-.466-1.644,3.284,3.284,0,0,1,1.134-2.637,4.558,4.558,0,0,1,3.059-.967,4.586,4.586,0,0,1,3.076.967A3.284,3.284,0,0,1,41.475,31.622Zm-2.716,5.616a1.69,1.69,0,0,0-.409-1.217,1.423,1.423,0,0,0-1.077-.426,1.438,1.438,0,0,0-1.081.426,1.979,1.979,0,0,0,0,2.426,1.433,1.433,0,0,0,1.094.444,1.377,1.377,0,0,0,1.063-.439A1.723,1.723,0,0,0,38.759,37.238ZM37.265,30.3a1.1,1.1,0,0,0-.91.391,1.7,1.7,0,0,0-.312,1.085,1.8,1.8,0,0,0,.316,1.107,1.092,1.092,0,0,0,.932.422,1.047,1.047,0,0,0,.91-.422,1.856,1.856,0,0,0,.3-1.107,1.7,1.7,0,0,0-.312-1.081A1.109,1.109,0,0,0,37.265,30.3Zm6.012.36a2.512,2.512,0,0,1,.773-1.916,3.334,3.334,0,0,1,4.157,0,2.578,2.578,0,0,1,.765,1.964v.633a2.5,2.5,0,0,1-.765,1.907,2.889,2.889,0,0,1-2.065.721,2.968,2.968,0,0,1-2.079-.716,2.524,2.524,0,0,1-.787-1.964Zm1.907.675a1.062,1.062,0,0,0,.255.738.9.9,0,0,0,.7.284q.923,0,.923-1.17v-.524a1.12,1.12,0,0,0-.246-.747.857.857,0,0,0-.694-.293.876.876,0,0,0-.686.284,1.114,1.114,0,0,0-.255.773Zm4.175,6.524a2.487,2.487,0,0,1,.778-1.916,2.924,2.924,0,0,1,2.07-.721,2.956,2.956,0,0,1,2.083.712,2.565,2.565,0,0,1,.773,1.986v.615a2.509,2.509,0,0,1-.765,1.916,2.9,2.9,0,0,1-2.074.721,2.968,2.968,0,0,1-2.079-.716,2.524,2.524,0,0,1-.787-1.964Zm1.9.675a1.039,1.039,0,0,0,.281.72.891.891,0,0,0,.686.31.808.808,0,0,0,.923-.8l.009-.9a1.075,1.075,0,0,0-.255-.747.992.992,0,0,0-1.371-.017,1.061,1.061,0,0,0-.272.72ZM46.7,40.042l-1.38-.694,6.249-10,1.38.694Z" transform="translate(912.551 6051.963)" fill="#12263f"/>
    <g id="Grupo_1099684" data-name="Grupo 1099684" transform="translate(568.187 5838.071)">
      <g id="Grupo_1099683" data-name="Grupo 1099683" clip-path="url(#clip-path)">
        <path id="Trazado_876328" data-name="Trazado 876328" d="M228.6,0V58.435L109.118,11.478S135.726.522,228.6,0" fill="#f8d348"/>
        <path id="Trazado_876329" data-name="Trazado 876329" d="M228.6,58.434v63.391L109.118,59.478v-48Z" fill="#fcedb6"/>
        <path id="Trazado_876330" data-name="Trazado 876330" d="M258.554,0V58.435L371.161,11.478S346.082.522,258.554,0" fill="#c7a93a"/>
        <path id="Trazado_876331" data-name="Trazado 876331" d="M258.554,58.434v63.391L371.161,59.478v-48Z" fill="#957f2b"/>
        <path id="Trazado_876332" data-name="Trazado 876332" d="M81.6,15.652l117,46.957L2.553,52.826S23.276,26.217,81.6,15.652" fill="#33b9cb"/>
        <path id="Trazado_876333" data-name="Trazado 876333" d="M2.552,52.826v57.326H198.6V62.609Z" fill="#ade3ea"/>
        <path id="Trazado_876334" data-name="Trazado 876334" d="M203.683,81.489,2.553,71.609s-37.566,61.043,175.7,69.26Z" fill="#f54749"/>
        <path id="Trazado_876335" data-name="Trazado 876335" d="M178.639,140.869v62.217l25.043-57.13V81.489Z" fill="#feeded"/>
        <path id="Trazado_876336" data-name="Trazado 876336" d="M0,83.739v67.3s-2.929,46.566,178.636,52.044V140.869S9.975,137.348,0,83.739" fill="#fbb5b6"/>
        <path id="Trazado_876337" data-name="Trazado 876337" d="M403.639,18.391,296.813,69.652l172.956,31.7s97.827-46.566-66.13-82.957" fill="#a3b5af"/>
        <path id="Trazado_876338" data-name="Trazado 876338" d="M296.813,69.652v59.087l172.565,35.356,1.443-63.113Z" fill="#7b8883"/>
        <path id="Trazado_876339" data-name="Trazado 876339" d="M498.727,69.652v71.217s-2.74,15.147-29.349,23.226l.391-62.747s24.655-10.957,28.958-31.7" fill="#7b8883"/>
        <path id="Trazado_876340" data-name="Trazado 876340" d="M268.248,83.739l-23.087,59.674s121.813,12.577,193.3-24.848Z" fill="#c4393a"/>
        <path id="Trazado_876341" data-name="Trazado 876341" d="M245.161,207.391V143.413s112.3,8.8,193.3-24.848v62.217s-71.608,38.348-193.3,26.609" fill="#932b2c"/>
      </g>
    </g>
  </g>
</svg>
