<svg xmlns="http://www.w3.org/2000/svg" width="89" height="89" viewBox="0 0 89 89">
  <g id="Grupo_1103894" data-name="Grupo 1103894" transform="translate(-756.5 -7136.554)">
    <g id="Grupo_1103893" data-name="Grupo 1103893">
      <g id="Grupo_1102868" data-name="Grupo 1102868" transform="translate(-494.833 6723.554)">
        <g id="Grupo_1098742" data-name="Grupo 1098742" transform="translate(48.013 24.258)">
          <g id="Rect치ngulo_400898" data-name="Rect치ngulo 400898" transform="translate(1203.32 388.742)" fill="#fff" stroke="#fff" stroke-width="3" opacity="0.859">
            <rect width="89" height="89" rx="44.5" stroke="none"/>
            <rect x="1.5" y="1.5" width="86" height="86" rx="43" fill="none"/>
          </g>
          <g id="Rect치ngulo_400907" data-name="Rect치ngulo 400907" transform="translate(1203.32 388.742)" fill="none" stroke="#fff" stroke-width="3">
            <rect width="89" height="89" rx="44.5" stroke="none"/>
            <rect x="1.5" y="1.5" width="86" height="86" rx="43" fill="none"/>
          </g>
        </g>
        <g id="Grupo_1103639" data-name="Grupo 1103639" transform="translate(1272.935 433.497)">
          <path id="Trazado_914830" data-name="Trazado 914830" d="M108.687,8.508a4.254,4.254,0,1,0-4.254-4.254A4.259,4.259,0,0,0,108.687,8.508Zm0-5.8a1.546,1.546,0,1,1-1.546,1.546,1.548,1.548,0,0,1,1.546-1.546Z" transform="translate(-95.007)" fill="#7b8883"/>
          <path id="Trazado_914831" data-name="Trazado 914831" d="M317.554,8.508A4.254,4.254,0,1,0,313.3,4.254,4.259,4.259,0,0,0,317.554,8.508Zm0-5.8a1.546,1.546,0,1,1-1.546,1.546,1.548,1.548,0,0,1,1.546-1.546Z" transform="translate(-285.023)" fill="#7b8883"/>
          <path id="Trazado_914832" data-name="Trazado 914832" d="M213.121,104.908a4.254,4.254,0,1,0-4.254-4.254A4.259,4.259,0,0,0,213.121,104.908Zm0-5.8a1.546,1.546,0,1,1-1.546,1.546A1.548,1.548,0,0,1,213.121,99.108Z" transform="translate(-190.015 -87.699)" fill="#7b8883"/>
          <path id="Trazado_914833" data-name="Trazado 914833" d="M421.987,104.908a4.254,4.254,0,1,0-4.254-4.254A4.259,4.259,0,0,0,421.987,104.908Zm0-5.8a1.546,1.546,0,1,1-1.546,1.546A1.548,1.548,0,0,1,421.987,99.108Z" transform="translate(-380.03 -87.699)" fill="#7b8883"/>
          <path id="Trazado_914834" data-name="Trazado 914834" d="M4.254,104.908A4.254,4.254,0,1,0,0,100.654,4.259,4.259,0,0,0,4.254,104.908Zm0-5.8a1.546,1.546,0,1,1-1.546,1.546A1.548,1.548,0,0,1,4.254,99.108Z" transform="translate(0 -87.699)" fill="#7b8883"/>
          <path id="Trazado_914835" data-name="Trazado 914835" d="M213.121,321.333a4.254,4.254,0,1,0,4.254,4.254A4.259,4.259,0,0,0,213.121,321.333Zm0,5.8a1.546,1.546,0,1,1,1.546-1.546A1.548,1.548,0,0,1,213.121,327.134Z" transform="translate(-190.015 -292.331)" fill="#7b8883"/>
          <path id="Trazado_914836" data-name="Trazado 914836" d="M361.5,365.754a4.254,4.254,0,1,0,4.254-4.254A4.259,4.259,0,0,0,361.5,365.754Zm4.254-1.546a1.546,1.546,0,1,1-1.546,1.546A1.548,1.548,0,0,1,365.754,364.208Z" transform="translate(-328.872 -328.872)" fill="#7b8883"/>
          <path id="Trazado_914837" data-name="Trazado 914837" d="M60.488,361.5a4.254,4.254,0,1,0,4.254,4.254A4.259,4.259,0,0,0,60.488,361.5Zm0,5.8a1.546,1.546,0,1,1,1.546-1.546A1.548,1.548,0,0,1,60.488,367.3Z" transform="translate(-51.159 -328.872)" fill="#7b8883"/>
          <path id="Trazado_914838" data-name="Trazado 914838" d="M44.858,137.235H33.885v-7.347a1.354,1.354,0,1,0-2.708,0v7.347H15.034v-7.347a1.354,1.354,0,1,0-2.708,0v7.347H1.354A1.354,1.354,0,0,0,0,138.589v23.2a1.354,1.354,0,0,0,1.354,1.354h43.5a1.354,1.354,0,0,0,1.354-1.354v-23.2A1.354,1.354,0,0,0,44.858,137.235Zm-1.354,23.2H2.708V139.942h9.618V143.3l-.589-.589a1.354,1.354,0,1,0-1.915,1.915l2.9,2.9a1.354,1.354,0,0,0,1.915,0l2.9-2.9a1.354,1.354,0,1,0-1.915-1.915l-.589.589v-3.353H31.178V143.3l-.589-.589a1.354,1.354,0,1,0-1.915,1.915l2.9,2.9a1.354,1.354,0,0,0,1.915,0l2.9-2.9a1.354,1.354,0,1,0-1.915-1.915l-.589.589v-3.353H43.5Z" transform="translate(0 -116.933)" fill="#7b8883"/>
        </g>
      </g>
    </g>
  </g>
</svg>
