<svg xmlns="http://www.w3.org/2000/svg" width="89" height="89" viewBox="0 0 89 89">
  <g id="Grupo_1103892" data-name="Grupo 1103892" transform="translate(-335.5 -7136.554)">
    <g id="Grupo_1103891" data-name="Grupo 1103891">
      <g id="Grupo_1103890" data-name="Grupo 1103890">
        <g id="Grupo_1102866" data-name="Grupo 1102866" transform="translate(-915.833 6723.554)">
          <g id="Grupo_1098742" data-name="Grupo 1098742" transform="translate(48.013 24.258)">
            <g id="Rect치ngulo_400898" data-name="Rect치ngulo 400898" transform="translate(1203.32 388.742)" fill="#fff" stroke="#fff" stroke-width="3" opacity="0.859">
              <rect width="89" height="89" rx="44.5" stroke="none"/>
              <rect x="1.5" y="1.5" width="86" height="86" rx="43" fill="none"/>
            </g>
            <g id="Rect치ngulo_400907" data-name="Rect치ngulo 400907" transform="translate(1203.32 388.742)" fill="none" stroke="#fff" stroke-width="3">
              <rect width="89" height="89" rx="44.5" stroke="none"/>
              <rect x="1.5" y="1.5" width="86" height="86" rx="43" fill="none"/>
            </g>
          </g>
          <path id="Trazado_914829" data-name="Trazado 914829" d="M120.111,43.937l11.881,22.681a6.549,6.549,0,0,1-5.8,9.588H96.548a6.549,6.549,0,0,1-5.8-9.588l.6-1.141a.967.967,0,1,1,1.712.9l-.6,1.141a4.616,4.616,0,0,0,4.089,6.758H126.19a4.616,4.616,0,0,0,4.089-6.758L122.988,53.6a4.57,4.57,0,0,1-1.685.1,7.579,7.579,0,0,1-2.48-.8,5.07,5.07,0,0,0-1.66-.594,5.987,5.987,0,0,0-3.609.709c-1.351.589-2.13,1.234-3.68,1.36a.966.966,0,0,1-.157-1.927c1.3-.106,1.931-.711,3.064-1.205a7.593,7.593,0,0,1,4.576-.861,5.889,5.889,0,0,1,1.9.585,7.01,7.01,0,0,0,2.259.814,2.8,2.8,0,0,0,.522.01l-3.641-6.95a9.739,9.739,0,0,1-1.112-4.519V31.869H105.451v8.446a.966.966,0,1,1-1.933,0V31.869H103.1a2.347,2.347,0,0,1-2.347-2.347V26.516a2.347,2.347,0,0,1,2.347-2.347h16.534a2.347,2.347,0,0,1,2.347,2.347v3.006a2.347,2.347,0,0,1-2.347,2.347h-.416v8.446a7.806,7.806,0,0,0,.891,3.622Zm-17.009-14h16.534a.414.414,0,0,0,.414-.414V26.516a.414.414,0,0,0-.414-.414H103.1a.414.414,0,0,0-.414.414v3.006a.414.414,0,0,0,.414.414Zm-2.991,34.182H93.938A3.038,3.038,0,0,1,90.9,61.08V59.474a10.611,10.611,0,0,1-4.8-8.845,10.928,10.928,0,0,1,21.85,0,10.611,10.611,0,0,1-4.8,8.845V61.08A3.038,3.038,0,0,1,100.111,64.118Zm.347-1.988a1.105,1.105,0,0,0,.758-1.049V58.94a.967.967,0,0,1,.474-.832,8.7,8.7,0,0,0,4.327-7.48,9,9,0,0,0-17.985,0,8.7,8.7,0,0,0,4.327,7.48.966.966,0,0,1,.474.832v2.14a1.105,1.105,0,0,0,.758,1.049v-1.3a.966.966,0,0,1,1.933,0v1.358h.534V60.827a.966.966,0,1,1,1.933,0v1.358h.534V60.827a.966.966,0,0,1,1.933,0Zm-3.783-5.282A.966.966,0,0,1,95.2,55.6l1.088-1.286a.967.967,0,0,1,1.476,0L98.85,55.6a.966.966,0,1,1-1.476,1.248l-.35-.414Zm-3.606-9.542a3.3,3.3,0,1,1-3.3,3.3A3.3,3.3,0,0,1,93.069,47.306Zm0,1.933A1.366,1.366,0,1,0,94.435,50.6,1.366,1.366,0,0,0,93.069,49.239Zm7.911-1.933a3.3,3.3,0,1,1-3.3,3.3A3.3,3.3,0,0,1,100.98,47.306Zm0,1.933a1.366,1.366,0,1,0,1.366,1.366A1.367,1.367,0,0,0,100.98,49.239ZM110.528,8a2.888,2.888,0,1,1-2.888,2.888A2.89,2.89,0,0,1,110.528,8Zm0,1.933a.955.955,0,1,0,.955.955A.956.956,0,0,0,110.528,9.933Zm-5.541,5.028a3.457,3.457,0,1,1-3.457,3.457A3.458,3.458,0,0,1,104.987,14.961Zm0,1.933a1.524,1.524,0,1,0,1.524,1.524A1.524,1.524,0,0,0,104.987,16.894Zm13.891-5.851a3.457,3.457,0,1,1-3.457,3.457A3.458,3.458,0,0,1,118.878,11.043Zm0,1.933A1.524,1.524,0,1,0,120.4,14.5,1.524,1.524,0,0,0,118.878,12.976Z" transform="translate(1184.785 411.148)" fill="#7b8883" stroke="#7b8883" stroke-width="1" fill-rule="evenodd"/>
        </g>
      </g>
    </g>
  </g>
</svg>
