<svg xmlns="http://www.w3.org/2000/svg" width="89" height="89" viewBox="0 0 89 89">
  <g id="Grupo_1103897" data-name="Grupo 1103897" transform="translate(-1176.5 -7136.554)">
    <g id="Grupo_1103896" data-name="Grupo 1103896">
      <g id="Grupo_1103895" data-name="Grupo 1103895">
        <g id="Grupo_1102869" data-name="Grupo 1102869" transform="translate(-74.833 6723.554)">
          <g id="Grupo_1098742" data-name="Grupo 1098742" transform="translate(48.013 24.258)">
            <g id="Rect치ngulo_400898" data-name="Rect치ngulo 400898" transform="translate(1203.32 388.742)" fill="#fff" stroke="#fff" stroke-width="3" opacity="0.859">
              <rect width="89" height="89" rx="44.5" stroke="none"/>
              <rect x="1.5" y="1.5" width="86" height="86" rx="43" fill="none"/>
            </g>
            <g id="Rect치ngulo_400907" data-name="Rect치ngulo 400907" transform="translate(1203.32 388.742)" fill="none" stroke="#fff" stroke-width="3">
              <rect width="89" height="89" rx="44.5" stroke="none"/>
              <rect x="1.5" y="1.5" width="86" height="86" rx="43" fill="none"/>
            </g>
          </g>
          <g id="Grupo_1103640" data-name="Grupo 1103640" transform="translate(1263.886 426.946)">
            <path id="Trazado_914839" data-name="Trazado 914839" d="M60.934,48.826c.279-.49-.063-39.856.066-40.326a1,1,0,0,0-1-1H24a1,1,0,0,0-1,1v47a1,1,0,0,0,1,1H53a1.011,1.011,0,0,0,.708-.294l7-7a.953.953,0,0,0,.229-.382ZM25,9.5H59v38H53a1,1,0,0,0-1,1v6H25ZM54,53.086V49.5h3.586Z" fill="#7b8883" stroke="#7b8883" stroke-width="1"/>
            <path id="Trazado_914840" data-name="Trazado 914840" d="M17.174,6.5H5.826A2.962,2.962,0,0,0,4.5,12.048V50.5a7,7,0,0,0,14,0V12.048A2.962,2.962,0,0,0,17.174,6.5ZM5,9.326A.827.827,0,0,1,5.826,8.5H17.174c.656.013.894.595.826,1.174,0,.179-.462.661-.979.948a1,1,0,0,0-.521.878V27.256c-3.606.449-6.49,3.984-10,3.876V11.5a1.006,1.006,0,0,0-.519-.877c-.9-.571-1.026-.821-.981-1.3ZM11.5,55.5a5.006,5.006,0,0,1-5-5V33.128c3.78.222,6.572-3.075,10-3.835V50.5a5.006,5.006,0,0,1-5,5Z" fill="#7b8883" stroke="#7b8883" stroke-width="1"/>
            <path id="Trazado_914841" data-name="Trazado 914841" d="M13,39a1,1,0,0,0,0,2A1,1,0,0,0,13,39Z" fill="#7b8883" stroke="#7b8883" stroke-width="1"/>
            <path id="Trazado_914842" data-name="Trazado 914842" d="M13,26a1,1,0,0,0,0-2A1,1,0,0,0,13,26Z" fill="#7b8883" stroke="#7b8883" stroke-width="1"/>
            <path id="Trazado_914843" data-name="Trazado 914843" d="M9,36a1,1,0,0,0,0,2A1,1,0,0,0,9,36Z" fill="#7b8883" stroke="#7b8883" stroke-width="1"/>
            <path id="Trazado_914844" data-name="Trazado 914844" d="M14,34a1,1,0,0,0,0,2A1,1,0,0,0,14,34Z" fill="#7b8883" stroke="#7b8883" stroke-width="1"/>
            <path id="Trazado_914845" data-name="Trazado 914845" d="M10,18a1,1,0,0,0,0-2A1,1,0,0,0,10,18Z" fill="#7b8883" stroke="#7b8883" stroke-width="1"/>
            <path id="Trazado_914846" data-name="Trazado 914846" d="M30,18a1,1,0,0,0,0,2A1,1,0,0,0,30,18Z" fill="#7b8883" stroke="#7b8883" stroke-width="1"/>
            <path id="Trazado_914847" data-name="Trazado 914847" d="M34,20H54a1,1,0,0,0,0-2H34A1,1,0,0,0,34,20Z" fill="#7b8883" stroke="#7b8883" stroke-width="1"/>
            <path id="Trazado_914848" data-name="Trazado 914848" d="M30,23a1,1,0,0,0,0,2A1,1,0,0,0,30,23Z" fill="#7b8883" stroke="#7b8883" stroke-width="1"/>
            <path id="Trazado_914849" data-name="Trazado 914849" d="M34,25H54a1,1,0,0,0,0-2H34A1,1,0,0,0,34,25Z" fill="#7b8883" stroke="#7b8883" stroke-width="1"/>
            <path id="Trazado_914850" data-name="Trazado 914850" d="M30,28a1,1,0,0,0,0,2A1,1,0,0,0,30,28Z" fill="#7b8883" stroke="#7b8883" stroke-width="1"/>
            <path id="Trazado_914851" data-name="Trazado 914851" d="M34,30H54a1,1,0,0,0,0-2H34A1,1,0,0,0,34,30Z" fill="#7b8883" stroke="#7b8883" stroke-width="1"/>
            <path id="Trazado_914852" data-name="Trazado 914852" d="M30,33a1,1,0,0,0,0,2A1,1,0,0,0,30,33Z" fill="#7b8883" stroke="#7b8883" stroke-width="1"/>
            <path id="Trazado_914853" data-name="Trazado 914853" d="M34,35H54a1,1,0,0,0,0-2H34A1,1,0,0,0,34,35Z" fill="#7b8883" stroke="#7b8883" stroke-width="1"/>
            <path id="Trazado_914854" data-name="Trazado 914854" d="M30,38a1,1,0,0,0,0,2A1,1,0,0,0,30,38Z" fill="#7b8883" stroke="#7b8883" stroke-width="1"/>
            <path id="Trazado_914855" data-name="Trazado 914855" d="M34,40H54a1,1,0,0,0,0-2H34A1,1,0,0,0,34,40Z" fill="#7b8883" stroke="#7b8883" stroke-width="1"/>
            <path id="Trazado_914856" data-name="Trazado 914856" d="M30,43a1,1,0,0,0,0,2A1,1,0,0,0,30,43Z" fill="#7b8883" stroke="#7b8883" stroke-width="1"/>
            <path id="Trazado_914857" data-name="Trazado 914857" d="M49,43H34a1,1,0,0,0,0,2H49A1,1,0,0,0,49,43Z" fill="#7b8883" stroke="#7b8883" stroke-width="1"/>
            <path id="Trazado_914858" data-name="Trazado 914858" d="M34,15H50a1,1,0,0,0,0-2H34A1,1,0,0,0,34,15Z" fill="#7b8883" stroke="#7b8883" stroke-width="1"/>
          </g>
        </g>
      </g>
    </g>
  </g>
</svg>
