<svg xmlns="http://www.w3.org/2000/svg" width="85" height="81" viewBox="0 0 85 81">
  <g id="Grupo_1103902" data-name="Grupo 1103902" transform="translate(-703.866 -15579.524)">
    <g id="Grupo_1103901" data-name="Grupo 1103901">
      <g id="Grupo_1103900" data-name="Grupo 1103900">
        <path id="Trazado_914859" data-name="Trazado 914859" d="M0,0H85V81H0Z" transform="translate(703.866 15579.524)" fill="#ebf8fa"/>
        <g id="Grupo_1103644" data-name="Grupo 1103644" transform="translate(678.151 15586.827)">
          <path id="Trazado_914860" data-name="Trazado 914860" d="M86.619,19.176A14.889,14.889,0,0,0,69,14.083a4.316,4.316,0,0,1-2.879.16,4.167,4.167,0,0,1-2.944-3.983V.639A.639.639,0,0,0,62.543,0H54.81a.639.639,0,0,0-.639.639V20.5a17.127,17.127,0,0,0,3.8,10.757l2.685,3.326a8.788,8.788,0,0,1,.746,9.958,5.521,5.521,0,0,1-4.767,2.723H50.475A6.575,6.575,0,0,0,43.9,53.837V64.759a.639.639,0,0,0,.639.639h6.574a.639.639,0,0,0,.639-.639V57.045A2.551,2.551,0,0,1,53.52,54.59a2.51,2.51,0,0,1,2.407.525l2.179,1.942a11.186,11.186,0,0,0,11.782,1.959A35.9,35.9,0,0,0,88.92,40.156a21.36,21.36,0,0,0-2.3-20.98Z" fill="#ffa78f"/>
          <path id="Trazado_914861" data-name="Trazado 914861" d="M194.742,211.879a27.96,27.96,0,0,1-15.854,15.558c-.862.363-3.984,1.117-4.741.843a6.971,6.971,0,0,1-2.262-1.351,2.2,2.2,0,0,1-.757-1.667,2.255,2.255,0,0,1,1.176-1.983,9.721,9.721,0,0,0,3.745-3.661,12.956,12.956,0,0,0,1.657-8.008,13.252,13.252,0,0,0-2.892-6.777l-2.588-3.207q-.27-.335-.517-.686a.915.915,0,0,1,.379-1.356c1.036-.475,1.609-1.233,3.43-1.233,2.654,0,2.654,1.609,5.309,1.609s2.655-1.609,5.311-1.609,2.655,1.609,5.311,1.609a4.27,4.27,0,0,0,1.981-.424c.316-.154,2-.489,2.3.574a18.141,18.141,0,0,1-.987,11.769Z" transform="translate(-110.977 -173.016)" fill="#fdf6da"/>
          <path id="Trazado_914862" data-name="Trazado 914862" d="M216.954,203.074a1.674,1.674,0,0,0-2.465-.995c-.288.171-.565.349-.88.5a1.676,1.676,0,0,1,.786,1.071,17.214,17.214,0,0,1-1.262,11.431,31.547,31.547,0,0,1-17.536,15.87,6.969,6.969,0,0,1-1.334.348,6.962,6.962,0,0,0,5.15-.1,31.545,31.545,0,0,0,16.8-16.648A17.213,17.213,0,0,0,216.954,203.074Z" transform="translate(-131.156 -176.063)" fill="#c7a93a"/>
          <g id="Grupo_1103642" data-name="Grupo 1103642" transform="translate(48.988 0)">
            <path id="Trazado_914863" data-name="Trazado 914863" d="M85.775,426.564a2.564,2.564,0,0,0-2.038,2.536v8.337h2.125a.639.639,0,0,0,.639-.639v-7.772a2.5,2.5,0,0,1,1.124-2.09A2.5,2.5,0,0,0,85.775,426.564Z" transform="translate(-83.737 -372.04)" fill="#f89580"/>
            <path id="Trazado_914864" data-name="Trazado 914864" d="M175.539,13.993a4.166,4.166,0,0,0,3.231.2,4.151,4.151,0,0,1-2.785-3.929V.639A.639.639,0,0,0,175.347,0h-2.125V10.261a4.165,4.165,0,0,0,2.317,3.733Z" transform="translate(-161.792 0)" fill="#f89580"/>
            <path id="Trazado_914865" data-name="Trazado 914865" d="M225.023,108.023a14.891,14.891,0,0,0-13.465-6.1,14.879,14.879,0,0,1,10.7,6.1,21.361,21.361,0,0,1,2.3,20.98,35.9,35.9,0,0,1-19.032,18.86,11.174,11.174,0,0,1-2.958.79,11.172,11.172,0,0,0,5.721-.79A35.9,35.9,0,0,0,227.324,129a21.36,21.36,0,0,0-2.3-20.98Z" transform="translate(-187.392 -88.847)" fill="#f89580"/>
          </g>
          <g id="Grupo_1103643" data-name="Grupo 1103643" transform="translate(68.623 35.88)">
            <path id="Trazado_914866" data-name="Trazado 914866" d="M312.266,291.261a.987.987,0,0,1-.987-.987v-.658a.987.987,0,0,1,1.974,0v.658A.987.987,0,0,1,312.266,291.261Z" transform="translate(-301.849 -287.642)" fill="#c7a93a"/>
            <path id="Trazado_914867" data-name="Trazado 914867" d="M257.307,283.535a.987.987,0,0,1-.987-.987v-.658a.987.987,0,1,1,1.974,0v.658A.987.987,0,0,1,257.307,283.535Z" transform="translate(-253.91 -280.903)" fill="#c7a93a"/>
            <path id="Trazado_914868" data-name="Trazado 914868" d="M281.916,330.1a.987.987,0,0,1-.987-.987v-.658a.987.987,0,1,1,1.974,0v.658A.987.987,0,0,1,281.916,330.1Z" transform="translate(-275.376 -321.521)" fill="#c7a93a"/>
            <path id="Trazado_914869" data-name="Trazado 914869" d="M238.441,370.982a.987.987,0,0,1-.987-.987v-.658a.987.987,0,0,1,1.974,0v.658A.987.987,0,0,1,238.441,370.982Z" transform="translate(-237.454 -357.18)" fill="#c7a93a"/>
          </g>
          <path id="Trazado_914870" data-name="Trazado 914870" d="M72.671,160.424a.987.987,0,0,1-.9-1.388l1.459-3.284a.209.209,0,0,0-.124-.283l-3.29-1.117a2.177,2.177,0,0,1-1.425-2.556l.995-4.321a.207.207,0,0,0-.126-.241l-1.976-.789a2.182,2.182,0,0,1-1.258-2.728l1.522-4.486a.987.987,0,0,1,1.869.634l-1.522,4.486a.209.209,0,0,0,.12.261l1.976.789a2.171,2.171,0,0,1,1.318,2.517l-.995,4.321a.208.208,0,0,0,.136.245l3.29,1.117a2.183,2.183,0,0,1,1.293,2.953l-1.459,3.284A.986.986,0,0,1,72.671,160.424Z" transform="translate(-19.197 -120.862)" fill="#ee6161"/>
          <path id="Trazado_914871" data-name="Trazado 914871" d="M407.109,161.969a.987.987,0,0,1-.621-1.754c1.373-1.11,2.708-2.265,3.969-3.435-.371-.932-.789-1.878-1.243-2.813a1.9,1.9,0,0,1,.291-2.09c.887-1,1.743-2.031,2.544-3.06-.648-1-1.35-2.012-2.087-3a1.892,1.892,0,0,1-.1-2.127c.594-.97,1.151-1.953,1.658-2.924-.959-1.042-1.976-2.08-3.023-3.085a1.9,1.9,0,0,1-.476-2.014,34.337,34.337,0,0,0,1.008-3.289.987.987,0,0,1,1.914.48c-.282,1.126-.635,2.28-1.048,3.43,1.079,1.037,2.127,2.108,3.115,3.183a1.907,1.907,0,0,1,.282,2.165c-.525,1.01-1.1,2.032-1.719,3.04.763,1.027,1.49,2.075,2.161,3.114a1.9,1.9,0,0,1-.091,2.2c-.827,1.065-1.712,2.131-2.629,3.168.474.978.91,1.968,1.3,2.943a1.89,1.89,0,0,1-.47,2.095c-1.306,1.213-2.689,2.411-4.111,3.56A.983.983,0,0,1,407.109,161.969Z" transform="translate(-315.955 -114.813)" fill="#ee6161"/>
        </g>
      </g>
    </g>
  </g>
</svg>
