<svg xmlns="http://www.w3.org/2000/svg" width="152.378" height="145.207" viewBox="0 0 152.378 145.207">
  <g id="Grupo_1102903" data-name="Grupo 1102903" transform="translate(-180 -1090.4)">
    <rect id="Rectángulo_402895" data-name="Rectángulo 402895" width="152.378" height="145.207" transform="translate(180 1090.401)" fill="#ebf8fa"/>
    <g id="Grupo_1103646" data-name="Grupo 1103646" transform="translate(173.152 1105.77)">
      <path id="Trazado_914872" data-name="Trazado 914872" d="M179.777,253.673c-1.513-17.155-25.234-10.75-36.1-2.7-4.747,4.668-5.038,14.1-.691,18.45s9.978,4.544,15.447,2.317a10.884,10.884,0,0,1,8.336,0,15.751,15.751,0,0,0,15.091-2.611A12.866,12.866,0,0,0,179.777,253.673Z" transform="translate(-86.288 -183.506)" fill="#d8ab8c"/>
      <path id="Trazado_914873" data-name="Trazado 914873" d="M258.895,249.161c2.409-1.317,4.087-1.912,8.2-.775,0,0,.758-9.531-3.791-9.531S258.895,249.161,258.895,249.161Z" transform="translate(-176.205 -180.51)" fill="#b1705b"/>
      <path id="Trazado_914874" data-name="Trazado 914874" d="M201.064,50.386A12.863,12.863,0,0,0,188.2,37.523c-6.149,0-10.269,3.843-12.561,9.285a10.884,10.884,0,0,1-5.894,5.894,20.209,20.209,0,0,0-2.8,1.436c-1.022,1.784-4.043,6.3-4.043,8.682a12.863,12.863,0,0,0,12.863,12.863c6.42,0,14.769-4.619,19.467-8.273A27.626,27.626,0,0,0,201.064,50.386Z" transform="translate(-103.662 -28.357)" fill="#f2d1a5"/>
      <path id="Trazado_914875" data-name="Trazado 914875" d="M157.789,111.784a12.351,12.351,0,0,1,1.6-6.24c-3.914,2.425-6.485,6.1-6.485,11.125a12.863,12.863,0,0,0,12.863,12.863,27.684,27.684,0,0,0,21.91-10.716,27.629,27.629,0,0,1-17.024,5.83A12.863,12.863,0,0,1,157.789,111.784Z" transform="translate(-96.105 -79.763)" fill="#d8ab8c"/>
      <path id="Trazado_914876" data-name="Trazado 914876" d="M295.9,212.187a12.8,12.8,0,0,0-6.318,1.66c-2.335,2.335-4.1,6.464-4.1,8.761,0,6.149,3.843,10.269,9.285,12.561a10.884,10.884,0,0,1,5.894,5.894c2.292,5.442,6.413,9.285,12.561,9.285,2.3,0,6.233-1.575,8.761-4.1a12.8,12.8,0,0,0,1.66-6.318,27.724,27.724,0,0,0-27.74-27.741" transform="translate(-196.298 -160.356)" fill="#d8ab8c"/>
      <path id="Trazado_914877" data-name="Trazado 914877" d="M280.635,223.014s5.361-2.275,6.634-10.638c-1.362,0-2.488.057-5.242,1.614a12.856,12.856,0,0,0-6.545,11.2c0,6.149,3.843,10.269,9.285,12.561a10.884,10.884,0,0,1,5.894,5.894c2.292,5.442,6.413,9.285,12.561,9.285a12.856,12.856,0,0,0,11.2-6.545,12.8,12.8,0,0,1-6.318,1.66c-6.149,0-10.269-3.843-12.561-9.285a10.884,10.884,0,0,0-5.894-5.894c-4.6-1.938-8.058-5.183-9.017-9.855" transform="translate(-188.741 -160.499)" fill="#c38778"/>
      <path id="Trazado_914878" data-name="Trazado 914878" d="M195.965,169.228a11.007,11.007,0,0,1,3.6-2.432c5.442-2.292,9.285-6.413,9.285-12.561a12.863,12.863,0,0,0-12.863-12.863,27.629,27.629,0,0,0-17.024,5.83c-3.654,4.7-8.273,11.012-8.273,19.467,0,5.454,5.759,12.863,12.863,12.863,2.381,0,6.9-3.021,8.682-4.043a20.206,20.206,0,0,0,1.436-2.8A11.021,11.021,0,0,1,195.965,169.228Z" transform="translate(-109.55 -106.839)" fill="#d8ab8c"/>
      <path id="Trazado_914879" data-name="Trazado 914879" d="M165.578,182.266a27.628,27.628,0,0,1,5.83-17.024,27.684,27.684,0,0,0-10.716,21.91,12.863,12.863,0,0,0,12.863,12.863c5.029,0,8.7-2.572,11.125-6.485a12.351,12.351,0,0,1-6.24,1.6A12.863,12.863,0,0,1,165.578,182.266Z" transform="translate(-101.992 -124.878)" fill="#c38778"/>
      <path id="Trazado_914880" data-name="Trazado 914880" d="M159.515,294.511a10.885,10.885,0,0,0-8.336,0c-5.469,2.227-11.1,2.031-15.447-2.317a12.928,12.928,0,0,1-1.452-1.73c6.179-1.974,11.053-12.891-.3-14.278a28.018,28.018,0,0,0-3.134,2.7,12.863,12.863,0,0,0,0,18.191c4.348,4.348,9.978,4.544,15.447,2.317a10.884,10.884,0,0,1,8.336,0c5.469,2.227,11.1,2.031,15.448-2.317a12.869,12.869,0,0,0,2.085-2.736c-3.832,2.176-8.291,1.942-12.648.168Z" transform="translate(-76.589 -208.722)" fill="#c38778"/>
      <path id="Trazado_914881" data-name="Trazado 914881" d="M184.818,356.192c5.442-2.292,9.285-6.413,9.285-12.561a12.863,12.863,0,0,0-12.863-12.863,27.628,27.628,0,0,0-17.024,5.83c-3.654,4.7-8.273,9.911-8.273,17.024s6.046,15.306,15.306,15.306c2.38,0,6.24-4.043,6.24-4.043a20.248,20.248,0,0,0,1.436-2.8A10.883,10.883,0,0,1,184.818,356.192Z" transform="translate(-98.401 -249.971)" fill="#f2d1a5"/>
      <path id="Trazado_914882" data-name="Trazado 914882" d="M150.826,371.661a27.628,27.628,0,0,1,5.831-17.024,27.685,27.685,0,0,0-10.716,21.91A12.863,12.863,0,0,0,158.8,389.41c5.029,0,8.7-2.572,11.125-6.485a12.352,12.352,0,0,1-6.24,1.6A12.863,12.863,0,0,1,150.826,371.661Z" transform="translate(-90.843 -268.01)" fill="#d8ab8c"/>
      <path id="Trazado_914883" data-name="Trazado 914883" d="M383.332,3.765a12.866,12.866,0,0,0-15.847-1.852c-2.3,4.792-2.376,12.536-.437,17.3a10.885,10.885,0,0,1,0,8.336c-2.227,5.469-1.228,11.795,1.288,13.759,4.117,3.212,12.727,3.521,17.71-1.461a27.727,27.727,0,0,0-2.714-36.081Z" transform="translate(-256.901 0)" fill="#f2d1a5"/>
      <path id="Trazado_914884" data-name="Trazado 914884" d="M357.641,44.782c-2.517-1.964-3.515-5.847-1.288-11.316a10.885,10.885,0,0,0,0-8.336c-1.94-4.764-4.3-12.508-2.006-17.3A12.883,12.883,0,0,0,352,9.683c-4.348,4.348-4.544,9.978-2.317,15.447a10.885,10.885,0,0,1,0,8.336c-2.227,5.469-2.031,11.1,2.317,15.448a12.863,12.863,0,0,0,18.191,0,28.01,28.01,0,0,0,2.715-3.15A13.518,13.518,0,0,1,357.641,44.782Z" transform="translate(-243.762 -5.918)" fill="#d8ab8c"/>
      <path id="Trazado_914885" data-name="Trazado 914885" d="M66.47,170.291a10.885,10.885,0,0,1-5.894-5.894c-2.292-5.442-6.413-9.285-12.561-9.285a12.8,12.8,0,0,0-6.318,1.66c-1.055,1.866-3.5,3.884-3.5,8.913,0,15.759,14.249,27.588,29.582,27.588,2.3,0,4.451-3.048,6.318-4.1a12.8,12.8,0,0,0,1.66-6.318C75.755,176.7,71.912,172.583,66.47,170.291Z" transform="translate(-9.416 -117.223)" fill="#f2d1a5"/>
      <path id="Trazado_914886" data-name="Trazado 914886" d="M30.62,168.224a12.8,12.8,0,0,1,1.66-6.318,12.856,12.856,0,0,0-6.545,11.2,27.724,27.724,0,0,0,27.74,27.74,12.856,12.856,0,0,0,11.2-6.545,12.8,12.8,0,0,1-6.318,1.66,27.724,27.724,0,0,1-27.74-27.74Z" transform="translate(0 -122.357)" fill="#d8ab8c"/>
      <g id="Grupo_1103645" data-name="Grupo 1103645" transform="translate(46.695 18.451)">
        <path id="Trazado_914887" data-name="Trazado 914887" d="M362.242,80.571c0-4.136-3.6-6.053-8.23-4.168a15.131,15.131,0,0,1,0,8.336C358.641,86.624,362.242,84.708,362.242,80.571Z" transform="translate(-294.784 -75.641)" fill="#b1705b"/>
        <path id="Trazado_914888" data-name="Trazado 914888" d="M196.808,75.533a13.529,13.529,0,0,1-5.894,5.894c1.94,4.606,5.841,5.8,8.766,2.872S201.414,77.473,196.808,75.533Z" transform="translate(-171.526 -75.533)" fill="#b1705b"/>
        <path id="Trazado_914889" data-name="Trazado 914889" d="M116.008,193.122h0c-4.606,1.94-5.8,5.841-2.872,8.766s6.826,1.734,8.766-2.872A13.531,13.531,0,0,1,116.008,193.122Z" transform="translate(-111.544 -164.398)" fill="#b1705b"/>
        <path id="Trazado_914890" data-name="Trazado 914890" d="M233.341,418.168c-2.925,2.925-1.734,6.826,2.872,8.766a13.529,13.529,0,0,1,5.894-5.894C240.167,416.434,236.266,415.243,233.341,418.168Z" transform="translate(-202.387 -333.27)" fill="#b1705b"/>
        <path id="Trazado_914891" data-name="Trazado 914891" d="M256.858,231.644c-1.94-4.606-5.841-5.8-8.766-2.872s-1.734,6.826,2.872,8.766a9.962,9.962,0,0,1,2.29-3.218A11.689,11.689,0,0,1,256.858,231.644Z" transform="translate(-213.534 -190.137)" fill="#b1705b"/>
        <path id="Trazado_914892" data-name="Trazado 914892" d="M322.258,299.587c-2.925-2.925-6.826-1.734-8.766,2.872a13.531,13.531,0,0,1,5.894,5.894C323.992,306.413,325.183,302.512,322.258,299.587Z" transform="translate(-264.162 -243.654)" fill="#b1705b"/>
      </g>
    </g>
  </g>
</svg>
