<svg xmlns="http://www.w3.org/2000/svg" width="152.378" height="145.207" viewBox="0 0 152.378 145.207">
  <g id="Grupo_1103889" data-name="Grupo 1103889" transform="translate(-211 -2770.896)">
    <g id="Grupo_1103888" data-name="Grupo 1103888">
      <g id="Grupo_1103887" data-name="Grupo 1103887">
        <g id="Grupo_1103886" data-name="Grupo 1103886">
          <g id="Grupo_1102854" data-name="Grupo 1102854" transform="translate(31 1680.495)">
            <rect id="Rectángulo_402895" data-name="Rectángulo 402895" width="152.378" height="145.207" transform="translate(180 1090.401)" fill="#ebf8fa"/>
            <g id="Grupo_1103638" data-name="Grupo 1103638" transform="translate(141.7 1107.28)">
              <path id="Trazado_914815" data-name="Trazado 914815" d="M149.755,162.938a1.68,1.68,0,0,1-1.444,1.136c-.047,0-1.585.136-4.274.315-5.778.382-16.872.981-29.936.981-19.143,0-34.062-1.285-34.21-1.3a1.68,1.68,0,0,1-1.444-1.136c-7.061-20.974-6.927-37.668.4-49.618A35.228,35.228,0,0,1,100.81,97.751a109.519,109.519,0,0,0,1.013-32.171l19.132,0h5.425a109.391,109.391,0,0,0,1.013,32.169A35.228,35.228,0,0,1,149.35,113.32C156.682,125.27,156.816,141.964,149.755,162.938Z" transform="translate(0 -50.921)" fill="#e6eff4"/>
              <path id="Trazado_914816" data-name="Trazado 914816" d="M312.758,113.328c7.332,11.95,7.466,28.644.4,49.618a1.68,1.68,0,0,1-1.444,1.136c-.047,0-1.585.136-4.274.315,7.061-20.974,7.28-39.118-.051-51.068a35.227,35.227,0,0,0-21.958-15.569,114.344,114.344,0,0,1-1.073-32.169h5.425A109.393,109.393,0,0,0,290.8,97.759,35.228,35.228,0,0,1,312.758,113.328Z" transform="translate(-163.408 -50.928)" fill="#d3dded"/>
              <path id="Trazado_914817" data-name="Trazado 914817" d="M221.442,8.342a43.182,43.182,0,0,1-.478,6.371H193.978a43.185,43.185,0,0,1-.478-6.371,31.556,31.556,0,0,1,.49-5.868,1.682,1.682,0,0,1,1.22-1.283A53.129,53.129,0,0,1,207.471,0a66.38,66.38,0,0,1,8.081.469h0a35.351,35.351,0,0,1,4.178.722,1.682,1.682,0,0,1,1.22,1.283A31.555,31.555,0,0,1,221.442,8.342Z" transform="translate(-93.37)" fill="#ea9f6c"/>
              <path id="Trazado_914818" data-name="Trazado 914818" d="M298.048,9.973a43.183,43.183,0,0,1-.478,6.371h-5.081A53.731,53.731,0,0,0,292.16,2.1a35.351,35.351,0,0,1,4.178.722,1.682,1.682,0,0,1,1.22,1.283A31.556,31.556,0,0,1,298.048,9.973Z" transform="translate(-169.976 -1.631)" fill="#d37f50"/>
              <path id="Trazado_914819" data-name="Trazado 914819" d="M174.633,296.849a68.867,68.867,0,0,1-2.888,15.1,1.679,1.679,0,0,1-1.437,1.138c-.04,0-1.562.141-4.236.315-4.862.317-13.537.76-24.081.76-16.345,0-28.2-1.064-28.317-1.075a1.679,1.679,0,0,1-1.437-1.138,68.867,68.867,0,0,1-2.888-15.1c-.874-11.23,1.46-20.426,6.746-26.594a1.68,1.68,0,0,1,2.03-.4,13.629,13.629,0,0,0,6.862,1.594,14.152,14.152,0,0,0,7.721-2.041,18.99,18.99,0,0,1,18.564,0,14.16,14.16,0,0,0,7.723,2.041,15.485,15.485,0,0,0,4.021-.469,13.934,13.934,0,0,0,2.841-1.124,1.674,1.674,0,0,1,2.027.4c5.289,6.167,7.623,15.363,6.748,26.594Z" transform="translate(-27.889 -207.301)" fill="#f54749"/>
              <path id="Trazado_914820" data-name="Trazado 914820" d="M223.467,314.191c-2.077-2.907-5.4-4.381-9.866-4.381s-7.789,1.474-9.866,4.381c-4.754,6.654-.821,18.37-.652,18.866a1.677,1.677,0,0,0,1.147,1.075,22.292,22.292,0,0,0,2.283.443,19.984,19.984,0,0,0,.77,3.36,1.677,1.677,0,0,0,1.147,1.075,25.853,25.853,0,0,0,10.34,0,1.676,1.676,0,0,0,1.147-1.075,20.005,20.005,0,0,0,.77-3.36,22.186,22.186,0,0,0,2.283-.443,1.677,1.677,0,0,0,1.147-1.075C224.289,332.561,228.221,320.845,223.467,314.191Z" transform="translate(-99.501 -240.557)" fill="#fff"/>
              <g id="Grupo_1103634" data-name="Grupo 1103634" transform="translate(109.071 79.869)">
                <path id="Trazado_914821" data-name="Trazado 914821" d="M265.177,357.3a1.677,1.677,0,0,0-1.677,1.677v3.349a1.676,1.676,0,0,0,3.353,0v-3.349A1.677,1.677,0,0,0,265.177,357.3Z" transform="translate(-256.794 -357.302)" fill="#86abbf"/>
                <path id="Trazado_914822" data-name="Trazado 914822" d="M235.177,357.3a1.677,1.677,0,0,0-1.677,1.677v3.349a1.676,1.676,0,0,0,3.353,0v-3.349A1.677,1.677,0,0,0,235.177,357.3Z" transform="translate(-233.5 -357.302)" fill="#86abbf"/>
              </g>
              <g id="Grupo_1103635" data-name="Grupo 1103635" transform="translate(106.613 23.108)">
                <path id="Trazado_914823" data-name="Trazado 914823" d="M224.176,106.729h6.706a1.677,1.677,0,1,0,0-3.353h-6.706a1.677,1.677,0,1,0,0,3.353Z" transform="translate(-222.5 -103.376)" fill="#86abbf"/>
                <path id="Trazado_914824" data-name="Trazado 914824" d="M224.176,136.7h3.353a1.676,1.676,0,1,0,0-3.353h-3.353a1.676,1.676,0,1,0,0,3.353Z" transform="translate(-222.5 -126.645)" fill="#86abbf"/>
                <path id="Trazado_914825" data-name="Trazado 914825" d="M227.529,193.28h-3.353a1.676,1.676,0,1,0,0,3.353h3.353a1.676,1.676,0,1,0,0-3.353Z" transform="translate(-222.5 -173.183)" fill="#86abbf"/>
                <path id="Trazado_914826" data-name="Trazado 914826" d="M230.882,163.312h-6.706a1.677,1.677,0,0,0,0,3.353h6.706a1.677,1.677,0,0,0,0-3.353Z" transform="translate(-222.5 -149.914)" fill="#86abbf"/>
              </g>
              <path id="Trazado_914827" data-name="Trazado 914827" d="M213.115,55.9a1.676,1.676,0,0,0-1.968-1.322,89.144,89.144,0,0,1-15.324,1.107A89.211,89.211,0,0,1,180.5,54.583a1.676,1.676,0,1,0-.648,3.29,90.378,90.378,0,0,0,15.971,1.17,90.378,90.378,0,0,0,15.971-1.17A1.676,1.676,0,0,0,213.115,55.9Z" transform="translate(-81.722 -42.357)" fill="#d3dded"/>
              <g id="Grupo_1103637" data-name="Grupo 1103637" transform="translate(90.25 62.369)">
                <g id="Grupo_1103636" data-name="Grupo 1103636" transform="translate(0 18.192)">
                  <circle id="Elipse_11509" data-name="Elipse 11509" cx="1.677" cy="1.677" r="1.677" transform="translate(3.033)" fill="#e2345e"/>
                  <circle id="Elipse_11510" data-name="Elipse 11510" cx="1.677" cy="1.677" r="1.677" transform="translate(0 13.98)" fill="#e2345e"/>
                  <circle id="Elipse_11511" data-name="Elipse 11511" cx="1.677" cy="1.677" r="1.677" transform="translate(41.17 13.98)" fill="#e2345e"/>
                </g>
                <path id="Trazado_914828" data-name="Trazado 914828" d="M361.677,306.191a68.868,68.868,0,0,1-2.888,15.1,1.679,1.679,0,0,1-1.437,1.138c-.04,0-1.562.141-4.236.315,8.029-24.379-1.1-39.568-3.056-42.424a13.934,13.934,0,0,0,2.841-1.124,1.674,1.674,0,0,1,2.027.4c5.289,6.167,7.622,15.363,6.748,26.594Z" transform="translate(-305.184 -279.012)" fill="#c4393a"/>
              </g>
            </g>
          </g>
        </g>
      </g>
    </g>
  </g>
</svg>
