<svg xmlns="http://www.w3.org/2000/svg" width="85" height="91.655" viewBox="0 0 85 91.655">
  <g id="Grupo_1102892" data-name="Grupo 1102892" transform="translate(-180 -1090.401)">
    <rect id="Rectángulo_402895" data-name="Rectángulo 402895" width="85" height="91.655" transform="translate(180 1090.401)" fill="#ebf8fa"/>
    <g id="Page-1" transform="translate(195.805 1106.729)">
      <g id="_023---Pest-Spray-Bottle" data-name="023---Pest-Spray-Bottle">
        <path id="Shape" d="M31.55,37,17,39,2.47,37A28.224,28.224,0,0,1,11,25l6-2,7,2a11.194,11.194,0,0,0,3.72,8.34l2.56,2.32A10.716,10.716,0,0,1,31.55,37Z" fill="#b0d3f0"/>
        <path id="Shape-2" data-name="Shape" d="M37,17.7a2.179,2.179,0,0,1-2.17,2.19,1.21,1.21,0,0,1-.19-.01c-2.72-.24-7.23-.94-10.32-2.99L25.08,12A1.992,1.992,0,0,1,27,10.55l2.31.45a13.159,13.159,0,0,0,6.24,4.65A2.136,2.136,0,0,1,37,17.7Z" fill="#ecf0f1"/>
        <path id="Shape-3" data-name="Shape" d="M38,3V8a1,1,0,0,1-1,1H31V2h6A1,1,0,0,1,38,3Z" fill="#ecf0f1"/>
        <path id="Shape-4" data-name="Shape" d="M33,2V9a2.006,2.006,0,0,1-2,2H27.51a1.992,1.992,0,0,0-1.92,1.45l-1.27,4.44L24,18l-7,2-6-2V15a2.006,2.006,0,0,0-2-2H2.38A2,2,0,0,1,.86,9.71l7.61-9A2,2,0,0,1,10,0H31a2.006,2.006,0,0,1,2,2Z" fill="#3b97d3"/>
        <path id="Shape-5" data-name="Shape" d="M9.136,7.116A1,1,0,0,1,8.373,5.47l1.791-2.116A1,1,0,0,1,10.928,3H14a1,1,0,1,1,0,2H11.392L9.9,6.762a1,1,0,0,1-.764.354Z" fill="#fff"/>
        <rect id="Rectangle-path" width="18" height="7" rx="2" transform="translate(8 18)" fill="#2980ba"/>
        <path id="Shape-6" data-name="Shape" d="M34,44v6a8,8,0,0,1-8,8H8.4C3.67,58,.57,53.93.44,49.2A31.327,31.327,0,0,1,2.47,37H31.55A11.189,11.189,0,0,1,34,44Z" fill="#4482c3"/>
        <path id="Shape-7" data-name="Shape" d="M8.4,55c-3.3,0-4.887-3.049-4.964-5.883a1,1,0,0,1,2-.054C5.474,50.424,6.141,53,8.4,53a1,1,0,0,1,0,2Z" fill="#fff"/>
        <path id="Rectangle-path-2" data-name="Rectangle-path" d="M15,25h4V38H15Z" fill="#95a5a5"/>
        <path id="Shape-8" data-name="Shape" d="M19,37V50a2,2,0,0,1-4,0V37Z" fill="#285680"/>
        <g id="Grupo_1103641" data-name="Grupo 1103641">
          <circle id="Oval" cx="1" cy="1" r="1" transform="translate(41 4)" fill="#2980ba"/>
          <circle id="Oval-2" data-name="Oval" cx="1" cy="1" r="1" transform="translate(44 6)" fill="#2980ba"/>
          <circle id="Oval-3" data-name="Oval" cx="1" cy="1" r="1" transform="translate(44 2)" fill="#2980ba"/>
          <circle id="Oval-4" data-name="Oval" cx="1" cy="1" r="1" transform="translate(47)" fill="#2980ba"/>
          <circle id="Oval-5" data-name="Oval" cx="1" cy="1" r="1" transform="translate(47 4)" fill="#2980ba"/>
          <circle id="Oval-6" data-name="Oval" cx="1" cy="1" r="1" transform="translate(47 8)" fill="#2980ba"/>
        </g>
        <path id="Shape-9" data-name="Shape" d="M53.31,53.31A16,16,0,0,1,28.25,33.82a15.734,15.734,0,0,1,2.44-3.13A15.995,15.995,0,0,1,53.31,53.31Z" fill="#fefbed"/>
        <path id="Shape-10" data-name="Shape" d="M49.5,40.153c-1.435,1.434-2.709.177-4.272-1.385s-2.819-2.837-1.385-4.272A4.015,4.015,0,0,1,49.5,40.153Z" fill="#3f5c6c"/>
        <path id="Shape-11" data-name="Shape" d="M40.384,39a1,1,0,0,1-1-1V32.3a1,1,0,0,1,.293-.707L42.1,29.171a1,1,0,0,1,1.414,1.414l-2.131,2.132V38A1,1,0,0,1,40.384,39Z" fill="#285680"/>
        <path id="Shape-12" data-name="Shape" d="M40,41a1,1,0,0,1-.707-.293l-4.465-4.465a1,1,0,1,1,1.414-1.414l4.465,4.465A1,1,0,0,1,40,41Z" fill="#285680"/>
        <path id="Shape-13" data-name="Shape" d="M51.7,44.616H46a1,1,0,0,1,0-2h5.283l2.132-2.131A1,1,0,0,1,54.829,41.9L52.4,44.323A1,1,0,0,1,51.7,44.616Z" fill="#285680"/>
        <path id="Shape-14" data-name="Shape" d="M41.192,55.122a1,1,0,0,1-.707-1.707l2.131-2.132V46a1,1,0,0,1,2,0v5.7a1,1,0,0,1-.293.707L41.9,54.829a1,1,0,0,1-.708.293Z" fill="#285680"/>
        <path id="Shape-15" data-name="Shape" d="M29.878,43.808a1,1,0,0,1-.707-1.707L31.6,39.677a1,1,0,0,1,.707-.293H38a1,1,0,0,1,0,2H32.717l-2.132,2.131a1,1,0,0,1-.707.293Z" fill="#285680"/>
        <path id="Shape-16" data-name="Shape" d="M48.465,49.465a1,1,0,0,1-.707-.293l-4.465-4.465a1,1,0,0,1,1.414-1.414l4.465,4.465a1,1,0,0,1-.707,1.707Z" fill="#285680"/>
        <path id="Shape-17" data-name="Shape" d="M48.756,40.675l.17.169a1.63,1.63,0,0,1,.016,2.3l-.477.477-2.424,2.425L44.376,47.71a5.544,5.544,0,0,1-.76.631,5.722,5.722,0,0,1-7.952-7.952,5.544,5.544,0,0,1,.631-.76l1.664-1.665,2.425-2.424.477-.477a1.63,1.63,0,0,1,2.3.016l.177.178Z" fill="#3b97d3"/>
        <path id="Shape-18" data-name="Shape" d="M42,25a16.865,16.865,0,1,0,12.061,4.939A17,17,0,0,0,42,25ZM29.111,34.328a14.971,14.971,0,0,1,22.751-3.6L30.719,51.867a14.956,14.956,0,0,1-1.608-17.539ZM52.6,52.6A15.044,15.044,0,0,1,33,54c-.294-.22-.584-.461-.872-.714L53.276,32.138A14.96,14.96,0,0,1,52.6,52.6Z" fill="#e64c3c"/>
      </g>
    </g>
  </g>
</svg>
