<svg xmlns="http://www.w3.org/2000/svg" width="85" height="81" viewBox="0 0 85 81">
  <g id="Grupo_1102853" data-name="Grupo 1102853" transform="translate(-180 -1090.401)">
    <rect id="Rectángulo_402895" data-name="Rectángulo 402895" width="85" height="81" transform="translate(180 1090.401)" fill="#ebf8fa"/>
    <g id="Grupo_1103633" data-name="Grupo 1103633" transform="translate(192.501 1097.901)">
      <g id="Grupo_1103615" data-name="Grupo 1103615">
        <path id="Trazado_914797" data-name="Trazado 914797" d="M7.19,52.44h7.27v3.08H7.19Z" fill="#559aff"/>
        <path id="Trazado_914798" data-name="Trazado 914798" d="M14.47,56.27H7.19a.755.755,0,0,1-.75-.75V52.44a.755.755,0,0,1,.75-.75h7.27a.755.755,0,0,1,.75.75v3.08a.741.741,0,0,1-.74.75Zm-6.53-1.5h5.77V53.19H7.94Z" fill="#682f2a"/>
      </g>
      <g id="Grupo_1103616" data-name="Grupo 1103616">
        <path id="Trazado_914799" data-name="Trazado 914799" d="M37.36,20.06a12.027,12.027,0,0,0,1.36-5.56c0-7.07-6.12-12.8-13.67-12.8S11.38,7.43,11.38,14.5a12.054,12.054,0,0,0,1.43,5.68A11.206,11.206,0,0,0,5.94,30.33c0,6.21,5.38,11.25,12.01,11.25a12.487,12.487,0,0,0,7.27-2.31,12.51,12.51,0,0,0,7.27,2.31c6.63,0,12.01-5.04,12.01-11.25a11.207,11.207,0,0,0-7.14-10.27Z" fill="#525f70"/>
      </g>
      <g id="Grupo_1103617" data-name="Grupo 1103617">
        <path id="Trazado_914800" data-name="Trazado 914800" d="M48.37,49.91c0,11.22-10.44,14.39-23.31,14.39S1.75,61.13,1.75,49.91c0-15.35,21.06-14.66,23.31-14.66s23.31-.9,23.31,14.66Z" fill="#957f2b"/>
      </g>
      <g id="Grupo_1103620" data-name="Grupo 1103620" opacity="0.4">
        <g id="Grupo_1103618" data-name="Grupo 1103618">
          <path id="Trazado_914801" data-name="Trazado 914801" d="M9.69,59.24a.8.8,0,0,1-.36-.09A10.039,10.039,0,0,1,5.3,55.34,10.552,10.552,0,0,1,4,49.98a.75.75,0,0,1,1.5,0A9.2,9.2,0,0,0,6.59,54.6a8.664,8.664,0,0,0,3.45,3.24.754.754,0,0,1,.3,1.02.744.744,0,0,1-.65.38Z" fill="#fff"/>
        </g>
        <g id="Grupo_1103619" data-name="Grupo 1103619">
          <path id="Trazado_914802" data-name="Trazado 914802" d="M16.48,61.4a.41.41,0,0,1-.11-.01,30.737,30.737,0,0,1-3.07-.67.748.748,0,0,1,.37-1.45c.94.24,1.93.49,2.92.64a.749.749,0,0,1-.11,1.49Z" fill="#fff"/>
        </g>
      </g>
      <g id="Grupo_1103621" data-name="Grupo 1103621">
        <path id="Trazado_914803" data-name="Trazado 914803" d="M20.54,26.78a52.364,52.364,0,0,0-1.36,9.03,6.054,6.054,0,0,0,5.81,6.27,6.054,6.054,0,0,0,5.81-6.27,52.364,52.364,0,0,0-1.36-9.03Z" fill="#f76861"/>
      </g>
      <g id="Grupo_1103622" data-name="Grupo 1103622">
        <path id="Trazado_914804" data-name="Trazado 914804" d="M37.53,20.2c0,1.75-1.4,4.36-3.12,4.36a3.17,3.17,0,0,1,0-6.34C36.13,18.22,37.53,18.45,37.53,20.2Z" fill="#f76861"/>
      </g>
      <g id="Grupo_1103623" data-name="Grupo 1103623">
        <path id="Trazado_914805" data-name="Trazado 914805" d="M18.83,21.39a3.148,3.148,0,0,1-3.12,3.17c-1.72,0-3.12-2.62-3.12-4.36s1.4-1.97,3.12-1.97A3.146,3.146,0,0,1,18.83,21.39Z" fill="#f76861"/>
      </g>
      <g id="Grupo_1103624" data-name="Grupo 1103624">
        <path id="Trazado_914806" data-name="Trazado 914806" d="M34.54,24.19v1.45c0,3.45-4.11,6.46-6.92,8.12a5.028,5.028,0,0,1-5.11,0c-2.81-1.66-6.92-4.68-6.92-8.12V24.03a9.792,9.792,0,0,0,7.09,0A3.534,3.534,0,0,1,25.19,23a3.617,3.617,0,0,1,2.52,1.03l.2.21c2,1.42,4.31,1.19,6.63-.05Z" fill="#e5e5e5"/>
      </g>
      <g id="Grupo_1103625" data-name="Grupo 1103625">
        <path id="Trazado_914807" data-name="Trazado 914807" d="M34.53,16.35v9.28c0,3.45-4.11,6.47-6.92,8.12a4.982,4.982,0,0,1-5.11,0c-2.81-1.65-6.92-4.67-6.92-8.12V16.35c1.03-5.08,7.97-3.37,11.07-5.04l.23.27c2.43,3.22,6.36.61,7.65,4.77Z" fill="#ff8c83"/>
      </g>
      <g id="Grupo_1103626" data-name="Grupo 1103626">
        <path id="Trazado_914808" data-name="Trazado 914808" d="M30.67,33.9,25.54,56.31,36.71,44.59l-1.26-3.57,3.51-3.65Z" fill="#f4f4f4"/>
      </g>
      <g id="Grupo_1103627" data-name="Grupo 1103627">
        <path id="Trazado_914809" data-name="Trazado 914809" d="M19.31,33.9l6.23,22.41L13.28,44.59l1.25-3.57-3.5-3.65Z" fill="#f4f4f4"/>
      </g>
      <g id="Grupo_1103628" data-name="Grupo 1103628">
        <path id="Trazado_914810" data-name="Trazado 914810" d="M50.49,39.23h5.84v9.06H50.49Z" fill="#33b9cb"/>
      </g>
      <g id="Grupo_1103629" data-name="Grupo 1103629">
        <path id="Trazado_914811" data-name="Trazado 914811" d="M56.33,37.53H50.49V35.3a2.92,2.92,0,1,1,5.84,0Z" fill="#f9a846"/>
      </g>
      <g id="Grupo_1103630" data-name="Grupo 1103630">
        <path id="Trazado_914812" data-name="Trazado 914812" d="M56.92,39.23H49.9a1.7,1.7,0,0,1,0-3.4h7.03a1.7,1.7,0,1,1-.01,3.4Z" fill="#ffb95c"/>
      </g>
      <g id="Grupo_1103631" data-name="Grupo 1103631">
        <path id="Trazado_914813" data-name="Trazado 914813" d="M62.4,62.09a10.84,10.84,0,1,0-18-.03,3.217,3.217,0,0,0,2.68,1.4H59.74a3.154,3.154,0,0,0,2.66-1.37Z" fill="#33b9cb"/>
      </g>
      <g id="Grupo_1103632" data-name="Grupo 1103632">
        <path id="Trazado_914814" data-name="Trazado 914814" d="M55,54.07l-1.31-1.31a1.406,1.406,0,0,1-.34-1.43,1.96,1.96,0,0,0-.52-1.97,1.882,1.882,0,0,0-2.65-.11,1.72,1.72,0,0,0-.39.61,1.473,1.473,0,0,1-.88.88,1.671,1.671,0,0,0-.61.39,1.882,1.882,0,0,0,.11,2.65,1.96,1.96,0,0,0,1.97.52,1.417,1.417,0,0,1,1.43.34l1.31,1.31a1.406,1.406,0,0,1,.34,1.43,1.96,1.96,0,0,0,.52,1.97,1.882,1.882,0,0,0,2.65.11,1.72,1.72,0,0,0,.39-.61,1.473,1.473,0,0,1,.88-.88,1.671,1.671,0,0,0,.61-.39,1.882,1.882,0,0,0-.11-2.65,1.96,1.96,0,0,0-1.97-.52A1.427,1.427,0,0,1,55,54.07Z" fill="#f4f4f4"/>
      </g>
    </g>
  </g>
</svg>
