<svg xmlns="http://www.w3.org/2000/svg" xmlns:xlink="http://www.w3.org/1999/xlink" width="436.882" height="420.232" viewBox="0 0 436.882 420.232">
  <defs>
    <clipPath id="clip-path">
      <rect id="Rectángulo_404413" data-name="Rectángulo 404413" width="391.015" height="373.06" fill="none"/>
    </clipPath>
    <clipPath id="clip-path-4">
      <rect id="Rectángulo_404369" data-name="Rectángulo 404369" width="101.529" height="235.493" transform="translate(30.89 58.5)" fill="none"/>
    </clipPath>
    <clipPath id="clip-path-5">
      <rect id="Rectángulo_404370" data-name="Rectángulo 404370" width="8.583" height="8.583" transform="translate(78.83 203.332)" fill="none"/>
    </clipPath>
    <clipPath id="clip-path-6">
      <rect id="Rectángulo_404371" data-name="Rectángulo 404371" width="5.09" height="5.09" transform="translate(83.441 159.287)" fill="none"/>
    </clipPath>
    <clipPath id="clip-path-7">
      <rect id="Rectángulo_404372" data-name="Rectángulo 404372" width="11" height="11" transform="translate(93.136 249.665)" fill="none"/>
    </clipPath>
    <clipPath id="clip-path-8">
      <rect id="Rectángulo_404373" data-name="Rectángulo 404373" width="6.25" height="6.25" transform="translate(100.913 227.623)" fill="none"/>
    </clipPath>
    <clipPath id="clip-path-9">
      <rect id="Rectángulo_404374" data-name="Rectángulo 404374" width="7.347" height="7.347" transform="translate(109.705 266.832)" fill="none"/>
    </clipPath>
    <clipPath id="clip-path-10">
      <rect id="Rectángulo_404375" data-name="Rectángulo 404375" width="8.583" height="8.583" transform="translate(81.205 179.075)" fill="none"/>
    </clipPath>
    <clipPath id="clip-path-11">
      <rect id="Rectángulo_404376" data-name="Rectángulo 404376" width="6.069" height="6.069" transform="translate(93.455 197.575)" fill="none"/>
    </clipPath>
    <clipPath id="clip-path-12">
      <rect id="Rectángulo_404380" data-name="Rectángulo 404380" width="16.253" height="52.915" transform="translate(38.792 9.504)" fill="none"/>
    </clipPath>
    <clipPath id="clip-path-13">
      <rect id="Rectángulo_404382" data-name="Rectángulo 404382" width="16.253" height="52.916" transform="translate(48.466 6.971)" fill="none"/>
    </clipPath>
    <clipPath id="clip-path-14">
      <rect id="Rectángulo_404384" data-name="Rectángulo 404384" width="16.253" height="52.916" transform="translate(58.14 4.439)" fill="none"/>
    </clipPath>
    <clipPath id="clip-path-15">
      <rect id="Rectángulo_404386" data-name="Rectángulo 404386" width="16.253" height="52.915" transform="translate(29.118 12.036)" fill="none"/>
    </clipPath>
    <clipPath id="clip-path-16">
      <rect id="Rectángulo_404388" data-name="Rectángulo 404388" width="16.253" height="52.915" transform="translate(19.444 14.568)" fill="none"/>
    </clipPath>
    <clipPath id="clip-path-18">
      <rect id="Rectángulo_404392" data-name="Rectángulo 404392" width="41.099" height="32.516" transform="translate(334.108 215.917)" fill="none"/>
    </clipPath>
    <clipPath id="clip-path-19">
      <rect id="Rectángulo_404393" data-name="Rectángulo 404393" width="26.669" height="26.667" transform="translate(302.773 73.471)" fill="#c4393a"/>
    </clipPath>
    <clipPath id="clip-path-20">
      <rect id="Rectángulo_404394" data-name="Rectángulo 404394" width="14.929" height="14.93" transform="translate(271.132 83.284)" fill="#c4393a"/>
    </clipPath>
    <clipPath id="clip-path-21">
      <rect id="Rectángulo_404395" data-name="Rectángulo 404395" width="10.541" height="10.542" transform="translate(295.655 109.612)" fill="#c4393a"/>
    </clipPath>
    <clipPath id="clip-path-22">
      <rect id="Rectángulo_404396" data-name="Rectángulo 404396" width="28.132" height="28.131" transform="translate(233.716 156.394)" fill="none"/>
    </clipPath>
    <clipPath id="clip-path-23">
      <rect id="Rectángulo_404397" data-name="Rectángulo 404397" width="28.132" height="28.132" transform="translate(230.465 196.611)" fill="none"/>
    </clipPath>
    <clipPath id="clip-path-25">
      <rect id="Rectángulo_404399" data-name="Rectángulo 404399" width="102.066" height="89.365" transform="translate(23.279 107.298)" fill="none"/>
    </clipPath>
    <clipPath id="clip-path-26">
      <rect id="Rectángulo_404401" data-name="Rectángulo 404401" width="72.925" height="71.197" transform="translate(30.557 109.361)" fill="none"/>
    </clipPath>
    <clipPath id="clip-path-27">
      <rect id="Rectángulo_404403" data-name="Rectángulo 404403" width="71.977" height="70.117" transform="translate(45.666 123.376)" fill="none"/>
    </clipPath>
    <clipPath id="clip-path-28">
      <rect id="Rectángulo_404404" data-name="Rectángulo 404404" width="10.387" height="14.85" transform="translate(177.641 85.055)" fill="none"/>
    </clipPath>
    <clipPath id="clip-path-29">
      <rect id="Rectángulo_404406" data-name="Rectángulo 404406" width="8.397" height="31.661" transform="translate(173.224 153.454)" fill="none"/>
    </clipPath>
    <clipPath id="clip-path-30">
      <rect id="Rectángulo_404408" data-name="Rectángulo 404408" width="21.299" height="5.696" transform="translate(210.061 170.745)" fill="none"/>
    </clipPath>
    <clipPath id="clip-path-31">
      <rect id="Rectángulo_404409" data-name="Rectángulo 404409" width="15.902" height="2.602" transform="translate(211.885 176.366)" fill="none"/>
    </clipPath>
    <clipPath id="clip-path-32">
      <rect id="Rectángulo_404411" data-name="Rectángulo 404411" width="28.388" height="21.555" transform="translate(181.945 81.499)" fill="none"/>
    </clipPath>
  </defs>
  <g id="Grupo_1103910" data-name="Grupo 1103910" transform="translate(-181.118 -23912.094)">
    <g id="Grupo_1103909" data-name="Grupo 1103909">
      <g id="Grupo_1103908" data-name="Grupo 1103908">
        <g id="Grupo_1103907" data-name="Grupo 1103907">
          <rect id="Rectángulo_402953" data-name="Rectángulo 402953" width="16.882" height="420.233" transform="translate(601.118 23912.094)" fill="#d6f1f4"/>
          <g id="Grupo_1103906" data-name="Grupo 1103906">
            <g id="Grupo_1103905" data-name="Grupo 1103905">
              <g id="Grupo_1103904" data-name="Grupo 1103904">
                <g id="Grupo_1103903" data-name="Grupo 1103903">
                  <rect id="Rectángulo_402952" data-name="Rectángulo 402952" width="420" height="420.096" transform="translate(181.118 23912.23)" fill="#f6f0ca"/>
                  <g id="Grupo_1103538" data-name="Grupo 1103538" transform="translate(285.175 23948.727)">
                    <g id="Grupo_133605" data-name="Grupo 133605" transform="translate(-87.175 -1.999)">
                      <g id="Grupo_133604" data-name="Grupo 133604" transform="translate(0 26.718)">
                        <path id="Trazado_126504" data-name="Trazado 126504" d="M98.787,295.372s23.244-32.094,84.659-25.949S238.1,303.565,280.622,302.2s88.81-21.169,126.577,17.723c43.813,45.119-31.056,83.492-1.32,111.064,53.277,49.4,0,107.627-118.982,96.573-98.676-9.164-99.559-22.024-156.837-6.448S20.7,479.167,41.509,434.134,115.2,406.273,90.421,369.5,98.787,295.372,98.787,295.372Z" transform="translate(-36.834 -268.641)" fill="#fcd189"/>
                        <path id="Trazado_126505" data-name="Trazado 126505" d="M29.554,52.179a4.956,4.956,0,0,0,2.87-.067,4.22,4.22,0,0,0,1.913-2.032c2.595-4.964.66-11.136-2.375-15.843s-7.135-8.769-9.379-13.9C20.69,16,20.231,11.127,18.165,6.873S11.459-1.089,6.935.295C-3.212,3.4-.036,24.507,2.857,31.859,6.924,42.21,18.987,50.172,29.554,52.179Z" transform="translate(392.373 110.623) rotate(39)" fill="#fcd189"/>
                        <path id="Trazado_126506" data-name="Trazado 126506" d="M29.554,52.179a4.956,4.956,0,0,0,2.87-.067,4.22,4.22,0,0,0,1.913-2.032c2.595-4.964.66-11.136-2.375-15.843s-7.135-8.769-9.379-13.9C20.69,16,20.231,11.127,18.165,6.873S11.459-1.089,6.935.295C-3.212,3.4-.036,24.507,2.857,31.859,6.924,42.21,18.987,50.172,29.554,52.179Z" transform="matrix(0.988, -0.156, 0.156, 0.988, 7.913, 71.925)" fill="#fcd189"/>
                      </g>
                    </g>
                  </g>
                  <g id="Grupo_1103539" data-name="Grupo 1103539" transform="translate(196.984 23942.82)">
                    <g id="Grupo_1103536" data-name="Grupo 1103536" clip-path="url(#clip-path)">
                      <g id="Grupo_1103439" data-name="Grupo 1103439">
                        <g id="Grupo_1103438" data-name="Grupo 1103438" clip-path="url(#clip-path)">
                          <path id="Trazado_914321" data-name="Trazado 914321" d="M387.778,361.737c0,6.254-86.807,11.323-193.889,11.323S0,367.991,0,361.737s86.807-11.323,193.889-11.323,193.889,5.07,193.889,11.323" fill="#f5f9f7"/>
                        </g>
                      </g>
                      <g id="Grupo_1103480" data-name="Grupo 1103480">
                        <g id="Grupo_1103479" data-name="Grupo 1103479" clip-path="url(#clip-path)">
                          <g id="Grupo_1103442" data-name="Grupo 1103442" opacity="0.2">
                            <g id="Grupo_1103441" data-name="Grupo 1103441">
                              <g id="Grupo_1103440" data-name="Grupo 1103440" clip-path="url(#clip-path-4)">
                                <path id="Trazado_914322" data-name="Trazado 914322" d="M30.89,70.823l53.657,205A24.334,24.334,0,0,0,131.628,263.5L77.971,58.5Z" fill="#407bff"/>
                              </g>
                            </g>
                          </g>
                          <path id="Trazado_914323" data-name="Trazado 914323" d="M112.73,287.4A18.352,18.352,0,0,1,90.352,274.3L49.861,119.609s8.186-5.588,17.736-4.642a40.192,40.192,0,0,0,18.186-2.922l40.04,152.975A18.353,18.353,0,0,1,112.73,287.4" fill="#f54749"/>
                          <g id="Grupo_1103445" data-name="Grupo 1103445" opacity="0.2">
                            <g id="Grupo_1103444" data-name="Grupo 1103444">
                              <g id="Grupo_1103443" data-name="Grupo 1103443" clip-path="url(#clip-path-5)">
                                <path id="Trazado_914324" data-name="Trazado 914324" d="M87.413,207.623a4.292,4.292,0,1,1-4.292-4.292,4.292,4.292,0,0,1,4.292,4.292"/>
                              </g>
                            </g>
                          </g>
                          <path id="Trazado_914325" data-name="Trazado 914325" d="M85.038,207.623a1.917,1.917,0,1,1-1.917-1.917,1.917,1.917,0,0,1,1.917,1.917" fill="#407bff"/>
                          <g id="Grupo_1103448" data-name="Grupo 1103448" opacity="0.2">
                            <g id="Grupo_1103447" data-name="Grupo 1103447">
                              <g id="Grupo_1103446" data-name="Grupo 1103446" clip-path="url(#clip-path-6)">
                                <path id="Trazado_914326" data-name="Trazado 914326" d="M88.531,161.832a2.545,2.545,0,1,1-2.545-2.545,2.544,2.544,0,0,1,2.545,2.545"/>
                              </g>
                            </g>
                          </g>
                          <path id="Trazado_914327" data-name="Trazado 914327" d="M87.122,161.832a1.137,1.137,0,1,1-1.137-1.137,1.137,1.137,0,0,1,1.137,1.137" fill="#407bff"/>
                          <g id="Grupo_1103451" data-name="Grupo 1103451" opacity="0.2">
                            <g id="Grupo_1103450" data-name="Grupo 1103450">
                              <g id="Grupo_1103449" data-name="Grupo 1103449" clip-path="url(#clip-path-7)">
                                <path id="Trazado_914328" data-name="Trazado 914328" d="M104.136,255.165a5.5,5.5,0,1,1-5.5-5.5,5.5,5.5,0,0,1,5.5,5.5"/>
                              </g>
                            </g>
                          </g>
                          <path id="Trazado_914329" data-name="Trazado 914329" d="M101.092,255.165a2.457,2.457,0,1,1-2.456-2.456,2.456,2.456,0,0,1,2.456,2.456" fill="#407bff"/>
                          <g id="Grupo_1103454" data-name="Grupo 1103454" opacity="0.2">
                            <g id="Grupo_1103453" data-name="Grupo 1103453">
                              <g id="Grupo_1103452" data-name="Grupo 1103452" clip-path="url(#clip-path-8)">
                                <path id="Trazado_914330" data-name="Trazado 914330" d="M107.163,230.748a3.125,3.125,0,1,1-3.125-3.125,3.125,3.125,0,0,1,3.125,3.125"/>
                              </g>
                            </g>
                          </g>
                          <path id="Trazado_914331" data-name="Trazado 914331" d="M105.434,230.748a1.4,1.4,0,1,1-1.4-1.4,1.4,1.4,0,0,1,1.4,1.4" fill="#407bff"/>
                          <g id="Grupo_1103457" data-name="Grupo 1103457" opacity="0.2">
                            <g id="Grupo_1103456" data-name="Grupo 1103456">
                              <g id="Grupo_1103455" data-name="Grupo 1103455" clip-path="url(#clip-path-9)">
                                <path id="Trazado_914332" data-name="Trazado 914332" d="M117.052,270.505a3.674,3.674,0,1,1-3.674-3.674,3.674,3.674,0,0,1,3.674,3.674"/>
                              </g>
                            </g>
                          </g>
                          <path id="Trazado_914333" data-name="Trazado 914333" d="M115.019,270.505a1.64,1.64,0,1,1-1.641-1.641,1.641,1.641,0,0,1,1.641,1.641" fill="#407bff"/>
                          <g id="Grupo_1103460" data-name="Grupo 1103460" opacity="0.2">
                            <g id="Grupo_1103459" data-name="Grupo 1103459">
                              <g id="Grupo_1103458" data-name="Grupo 1103458" clip-path="url(#clip-path-10)">
                                <path id="Trazado_914334" data-name="Trazado 914334" d="M89.788,183.367a4.292,4.292,0,1,1-4.292-4.292,4.292,4.292,0,0,1,4.292,4.292"/>
                              </g>
                            </g>
                          </g>
                          <path id="Trazado_914335" data-name="Trazado 914335" d="M88.531,183.367a3.035,3.035,0,1,1-3.035-3.035,3.035,3.035,0,0,1,3.035,3.035" fill="#407bff"/>
                          <g id="Grupo_1103463" data-name="Grupo 1103463" opacity="0.2">
                            <g id="Grupo_1103462" data-name="Grupo 1103462">
                              <g id="Grupo_1103461" data-name="Grupo 1103461" clip-path="url(#clip-path-11)">
                                <path id="Trazado_914336" data-name="Trazado 914336" d="M99.524,200.609a3.035,3.035,0,1,1-3.035-3.034,3.035,3.035,0,0,1,3.035,3.034"/>
                              </g>
                            </g>
                          </g>
                          <path id="Trazado_914337" data-name="Trazado 914337" d="M98.636,200.609a2.146,2.146,0,1,1-2.146-2.145,2.146,2.146,0,0,1,2.146,2.145" fill="#407bff"/>
                          <rect id="Rectángulo_404377" data-name="Rectángulo 404377" width="18.667" height="64" transform="matrix(0.967, -0.253, 0.253, 0.967, 50.803, 87.663)" fill="#fff"/>
                          <rect id="Rectángulo_404378" data-name="Rectángulo 404378" width="1.001" height="7.58" transform="matrix(0.967, -0.253, 0.253, 0.967, 74.478, 24.755)" fill="#407bff"/>
                          <path id="Trazado_914338" data-name="Trazado 914338" d="M73.245,20.04,69.19,4.547a4.749,4.749,0,0,0-5.8-3.392L54.26,3.545l-.253-.967L63.139.188a5.748,5.748,0,0,1,7.019,4.106l4.055,15.493Z" fill="#407bff"/>
                          <path id="Trazado_914339" data-name="Trazado 914339" d="M79.875,55.245,27.635,68.918l-13.1-50.063a2.249,2.249,0,0,1,1.607-2.746L64.025,3.574a2.25,2.25,0,0,1,2.746,1.607Z" fill="#fddadb"/>
                          <g id="Grupo_1103466" data-name="Grupo 1103466" opacity="0.2">
                            <g id="Grupo_1103465" data-name="Grupo 1103465">
                              <g id="Grupo_1103464" data-name="Grupo 1103464" clip-path="url(#clip-path-12)">
                                <rect id="Rectángulo_404379" data-name="Rectángulo 404379" width="2.667" height="54" transform="translate(38.795 10.178) rotate(-14.662)"/>
                              </g>
                            </g>
                          </g>
                          <g id="Grupo_1103469" data-name="Grupo 1103469" opacity="0.2">
                            <g id="Grupo_1103468" data-name="Grupo 1103468">
                              <g id="Grupo_1103467" data-name="Grupo 1103467" clip-path="url(#clip-path-13)">
                                <rect id="Rectángulo_404381" data-name="Rectángulo 404381" width="2.667" height="54" transform="translate(48.469 7.646) rotate(-14.662)"/>
                              </g>
                            </g>
                          </g>
                          <g id="Grupo_1103472" data-name="Grupo 1103472" opacity="0.2">
                            <g id="Grupo_1103471" data-name="Grupo 1103471">
                              <g id="Grupo_1103470" data-name="Grupo 1103470" clip-path="url(#clip-path-14)">
                                <rect id="Rectángulo_404383" data-name="Rectángulo 404383" width="2.666" height="54" transform="translate(58.143 5.114) rotate(-14.662)"/>
                              </g>
                            </g>
                          </g>
                          <g id="Grupo_1103475" data-name="Grupo 1103475" opacity="0.2">
                            <g id="Grupo_1103474" data-name="Grupo 1103474">
                              <g id="Grupo_1103473" data-name="Grupo 1103473" clip-path="url(#clip-path-15)">
                                <rect id="Rectángulo_404385" data-name="Rectángulo 404385" width="2.666" height="54" transform="translate(29.121 12.71) rotate(-14.662)"/>
                              </g>
                            </g>
                          </g>
                          <g id="Grupo_1103478" data-name="Grupo 1103478" opacity="0.2">
                            <g id="Grupo_1103477" data-name="Grupo 1103477">
                              <g id="Grupo_1103476" data-name="Grupo 1103476" clip-path="url(#clip-path-16)">
                                <rect id="Rectángulo_404387" data-name="Rectángulo 404387" width="2.666" height="54" transform="translate(19.446 15.242) rotate(-14.662)"/>
                              </g>
                            </g>
                          </g>
                          <path id="Trazado_914340" data-name="Trazado 914340" d="M78.947,51.7,26.707,65.37a3.334,3.334,0,0,0-2.381,4.069l1.815,6.933a3.334,3.334,0,0,0,4.069,2.381L82.45,65.08a3.333,3.333,0,0,0,2.38-4.069l-1.814-6.933A3.334,3.334,0,0,0,78.947,51.7" fill="#fddadb"/>
                        </g>
                      </g>
                      <rect id="Rectángulo_404390" data-name="Rectángulo 404390" width="6.784" height="1" transform="translate(384.264 135.634) rotate(-85.356)" fill="#407bff"/>
                      <rect id="Rectángulo_404391" data-name="Rectángulo 404391" width="20.134" height="1" transform="translate(385.405 121.478) rotate(-85.356)" fill="#407bff"/>
                      <path id="Trazado_914341" data-name="Trazado 914341" d="M224.037,19.018,206.35,237.8l131.477,10.628,37.38-31.789L390.1,32.442Z" transform="translate(1 1)" fill="#fff"/>
                      <g id="Grupo_1103500" data-name="Grupo 1103500">
                        <g id="Grupo_1103499" data-name="Grupo 1103499" clip-path="url(#clip-path)">
                          <path id="Trazado_914342" data-name="Trazado 914342" d="M337.833,249.35c-.026,0-.054,0-.08,0L206.276,238.718a.918.918,0,0,1-.84-.987L223.123,18.944a.923.923,0,0,1,.988-.84L390.172,31.529a.917.917,0,0,1,.84.987l-14.891,184.2a.92.92,0,0,1-.32.625L338.42,249.132a.918.918,0,0,1-.587.218m-130.5-12.385,130.185,10.524,36.8-31.3,14.787-182.91L224.877,20Z" fill="#33b9cb"/>
                          <g id="Grupo_1103483" data-name="Grupo 1103483" opacity="0.2">
                            <g id="Grupo_1103482" data-name="Grupo 1103482">
                              <g id="Grupo_1103481" data-name="Grupo 1103481" clip-path="url(#clip-path-18)">
                                <path id="Trazado_914343" data-name="Trazado 914343" d="M334.108,215.917l3.719,32.516,37.38-31.789Z" fill="#407bff"/>
                              </g>
                            </g>
                          </g>
                          <path id="Trazado_914344" data-name="Trazado 914344" d="M340.622,213.848l-2.8,34.585,37.381-31.789Z" fill="#fff"/>
                          <path id="Trazado_914345" data-name="Trazado 914345" d="M337.833,249.35a.918.918,0,0,1-.92-.991l2.8-34.584a.92.92,0,0,1,.32-.625.908.908,0,0,1,.667-.215l34.586,2.8a.917.917,0,0,1,.52,1.612L338.42,249.132a.919.919,0,0,1-.587.218m3.629-34.514L338.919,246.3l34.009-28.922Z" fill="#33b9cb"/>
                          <path id="Trazado_914346" data-name="Trazado 914346" d="M304.827,56.983c-.1,0-.19,0-.285-.011a3.207,3.207,0,0,1-2.939-3.455l.678-8.391a3.208,3.208,0,1,1,6.395.517L308,54.034a3.206,3.206,0,0,1-3.17,2.949" fill="#c4393a"/>
                          <path id="Trazado_914347" data-name="Trazado 914347" d="M309.7,48.931c-.1,0-.19,0-.285-.01l-8.391-.679a3.207,3.207,0,1,1,.517-6.394l8.391.678a3.208,3.208,0,0,1-.232,6.4" fill="#c4393a"/>
                          <path id="Trazado_914348" data-name="Trazado 914348" d="M297.552,146.983c-.1,0-.19,0-.285-.01a3.208,3.208,0,0,1-2.939-3.456l.677-8.391a3.208,3.208,0,1,1,6.395.517l-.678,8.39a3.206,3.206,0,0,1-3.17,2.95" fill="#c4393a"/>
                          <path id="Trazado_914349" data-name="Trazado 914349" d="M301.747,147.322c-.1,0-.189,0-.285-.011l-8.391-.678a3.207,3.207,0,1,1,.517-6.394l8.391.678a3.208,3.208,0,0,1-.232,6.4" fill="#c4393a"/>
                          <path id="Trazado_914350" data-name="Trazado 914350" d="M350.724,101.764c-.1,0-.189,0-.285-.009l-8.391-.679a3.207,3.207,0,1,1,.517-6.394l8.391.677a3.208,3.208,0,0,1-.232,6.4" fill="#c4393a"/>
                          <path id="Trazado_914351" data-name="Trazado 914351" d="M350.385,105.96c-.1,0-.19,0-.285-.01a3.209,3.209,0,0,1-2.939-3.457l.678-8.39a3.208,3.208,0,0,1,6.4.517l-.679,8.391a3.206,3.206,0,0,1-3.17,2.949" fill="#c4393a"/>
                          <path id="Trazado_914352" data-name="Trazado 914352" d="M260.723,94.489c-.1,0-.189,0-.285-.011l-8.39-.678a3.208,3.208,0,1,1,.517-6.4l8.39.679a3.208,3.208,0,0,1-.232,6.4" fill="#c4393a"/>
                          <path id="Trazado_914353" data-name="Trazado 914353" d="M251.994,98.006c-.1,0-.189,0-.285-.01a3.208,3.208,0,0,1-2.939-3.456l.678-8.391a3.208,3.208,0,1,1,6.4.517l-.679,8.391a3.206,3.206,0,0,1-3.17,2.949" fill="#c4393a"/>
                          <path id="Trazado_914354" data-name="Trazado 914354" d="M275.006,66.6a3.2,3.2,0,0,1-2.468-1.129l-5.454-6.413A3.208,3.208,0,1,1,271.97,54.9l5.454,6.413a3.208,3.208,0,0,1-2.418,5.286" fill="#c4393a"/>
                          <path id="Trazado_914355" data-name="Trazado 914355" d="M266.346,62.916a3.208,3.208,0,0,1-2.1-5.651l6.413-5.454a3.208,3.208,0,0,1,4.156,4.887L268.4,62.152a3.191,3.191,0,0,1-2.053.764" fill="#c4393a"/>
                          <path id="Trazado_914356" data-name="Trazado 914356" d="M333.5,135.386a3.2,3.2,0,0,1-2.468-1.13l-5.453-6.412a3.208,3.208,0,1,1,4.886-4.157l5.453,6.413a3.208,3.208,0,0,1-2.418,5.286" fill="#c4393a"/>
                          <path id="Trazado_914357" data-name="Trazado 914357" d="M330.294,138.113a3.208,3.208,0,0,1-2.1-5.651l6.413-5.454a3.208,3.208,0,0,1,4.156,4.887l-6.413,5.454a3.191,3.191,0,0,1-2.053.764" fill="#c4393a"/>
                          <path id="Trazado_914358" data-name="Trazado 914358" d="M332.713,71.267a3.208,3.208,0,0,1-2.1-5.651l6.413-5.454a3.208,3.208,0,0,1,4.156,4.887L334.766,70.5a3.191,3.191,0,0,1-2.053.764" fill="#c4393a"/>
                          <path id="Trazado_914359" data-name="Trazado 914359" d="M341.852,69.02a3.2,3.2,0,0,1-2.468-1.129l-5.454-6.413a3.208,3.208,0,1,1,4.886-4.157l5.454,6.413a3.208,3.208,0,0,1-2.418,5.286" fill="#c4393a"/>
                          <path id="Trazado_914360" data-name="Trazado 914360" d="M263.928,129.762a3.208,3.208,0,0,1-2.1-5.651l6.413-5.454a3.208,3.208,0,0,1,4.156,4.887L265.981,129a3.191,3.191,0,0,1-2.053.764" fill="#c4393a"/>
                          <path id="Trazado_914361" data-name="Trazado 914361" d="M266.654,132.968a3.2,3.2,0,0,1-2.468-1.13l-5.453-6.412a3.207,3.207,0,1,1,4.886-4.156l5.453,6.412a3.208,3.208,0,0,1-2.418,5.286" fill="#c4393a"/>
                          <path id="Trazado_914362" data-name="Trazado 914362" d="M342.306,97.878a40.938,40.938,0,1,1-37.506-44.1,40.938,40.938,0,0,1,37.506,44.1" fill="#fff"/>
                          <path id="Trazado_914363" data-name="Trazado 914363" d="M301.881,137.352q-1.905.013-3.826-.141a42.771,42.771,0,1,1,46.079-39.185l-1.828-.148,1.828.148a42.778,42.778,0,0,1-42.253,39.326m-.687-81.878a39.127,39.127,0,1,0,3.458.128q-1.742-.141-3.458-.128" fill="#c4393a"/>
                          <g id="Grupo_1103486" data-name="Grupo 1103486" opacity="0.2">
                            <g id="Grupo_1103485" data-name="Grupo 1103485">
                              <g id="Grupo_1103484" data-name="Grupo 1103484" clip-path="url(#clip-path-19)">
                                <path id="Trazado_914364" data-name="Trazado 914364" d="M316.226,100.138c-.4,0-.793-.011-1.191-.044a13.3,13.3,0,1,1,1.191.044m-.184-21.711a8.378,8.378,0,1,0,8.415,9.053h0a8.375,8.375,0,0,0-7.673-9.025q-.375-.03-.742-.027" fill="#c4393a"/>
                              </g>
                            </g>
                          </g>
                          <g id="Grupo_1103489" data-name="Grupo 1103489" opacity="0.4">
                            <g id="Grupo_1103488" data-name="Grupo 1103488">
                              <g id="Grupo_1103487" data-name="Grupo 1103487" clip-path="url(#clip-path-20)">
                                <path id="Trazado_914365" data-name="Trazado 914365" d="M286.036,91.351a7.464,7.464,0,1,1-6.839-8.042,7.465,7.465,0,0,1,6.839,8.042" fill="#c4393a"/>
                              </g>
                            </g>
                          </g>
                          <g id="Grupo_1103492" data-name="Grupo 1103492" opacity="0.2">
                            <g id="Grupo_1103491" data-name="Grupo 1103491">
                              <g id="Grupo_1103490" data-name="Grupo 1103490" clip-path="url(#clip-path-21)">
                                <path id="Trazado_914366" data-name="Trazado 914366" d="M306.179,115.308a5.271,5.271,0,1,1-4.829-5.678,5.271,5.271,0,0,1,4.829,5.678" fill="#c4393a"/>
                              </g>
                            </g>
                          </g>
                          <g id="Grupo_1103495" data-name="Grupo 1103495" opacity="0.2">
                            <g id="Grupo_1103494" data-name="Grupo 1103494">
                              <g id="Grupo_1103493" data-name="Grupo 1103493" clip-path="url(#clip-path-22)">
                                <path id="Trazado_914367" data-name="Trazado 914367" d="M258.2,184.525a1.45,1.45,0,0,1-.161-.006l-22.636-1.83a1.833,1.833,0,0,1-1.679-1.974l1.831-22.636a1.826,1.826,0,0,1,1.975-1.679l22.635,1.83a1.832,1.832,0,0,1,1.679,1.974l-1.829,22.636a1.832,1.832,0,0,1-1.815,1.685m-20.674-5.342,18.982,1.535,1.535-18.982L239.058,160.2Z" fill="#263238"/>
                              </g>
                            </g>
                          </g>
                          <path id="Trazado_914368" data-name="Trazado 914368" d="M344.638,175.524c-.054,0-.108,0-.163-.006l-73.935-5.977a1.833,1.833,0,1,1,.3-3.654l73.935,5.977a1.833,1.833,0,0,1-.133,3.66" fill="#e0e0e0"/>
                          <path id="Trazado_914369" data-name="Trazado 914369" d="M293.663,180.6c-.054,0-.108,0-.163-.006l-23.7-1.916a1.833,1.833,0,0,1,.3-3.654l23.7,1.916a1.833,1.833,0,0,1-.133,3.66" fill="#e0e0e0"/>
                          <path id="Trazado_914370" data-name="Trazado 914370" d="M328.55,183.419c-.054,0-.108,0-.163-.006l-20.455-1.654a1.833,1.833,0,0,1,.3-3.654l20.455,1.654a1.833,1.833,0,0,1-.133,3.66" fill="#e0e0e0"/>
                          <g id="Grupo_1103498" data-name="Grupo 1103498" opacity="0.2">
                            <g id="Grupo_1103497" data-name="Grupo 1103497">
                              <g id="Grupo_1103496" data-name="Grupo 1103496" clip-path="url(#clip-path-23)">
                                <path id="Trazado_914371" data-name="Trazado 914371" d="M254.946,224.743a1.45,1.45,0,0,1-.161-.006l-22.635-1.83a1.832,1.832,0,0,1-1.68-1.974L232.3,198.3a1.83,1.83,0,0,1,1.975-1.679l22.635,1.83a1.831,1.831,0,0,1,1.679,1.974l-1.829,22.636a1.832,1.832,0,0,1-1.815,1.685M234.272,219.4l18.982,1.535,1.535-18.982-18.982-1.535Z" fill="#263238"/>
                              </g>
                            </g>
                          </g>
                          <path id="Trazado_914372" data-name="Trazado 914372" d="M328.124,214.67c-.054,0-.108,0-.163-.006l-60.672-4.9a1.833,1.833,0,1,1,.3-3.654l60.672,4.9a1.833,1.833,0,0,1-.133,3.66" fill="#e0e0e0"/>
                          <path id="Trazado_914373" data-name="Trazado 914373" d="M303.81,221.9c-.054,0-.108,0-.163-.006l-37.1-3a1.833,1.833,0,1,1,.3-3.654l37.1,3a1.833,1.833,0,0,1-.133,3.66" fill="#e0e0e0"/>
                        </g>
                      </g>
                      <g id="Grupo_1103535" data-name="Grupo 1103535">
                        <g id="Grupo_1103534" data-name="Grupo 1103534" clip-path="url(#clip-path)">
                          <g id="Grupo_1103503" data-name="Grupo 1103503" opacity="0.3">
                            <g id="Grupo_1103502" data-name="Grupo 1103502">
                              <g id="Grupo_1103501" data-name="Grupo 1103501" clip-path="url(#clip-path-25)">
                                <path id="Trazado_914374" data-name="Trazado 914374" d="M88.386,110.53c27.084,9.2,42.739,35.209,34.966,58.1s-36.031,34-63.115,24.8-42.739-35.209-34.966-58.1,36.031-33.995,63.115-24.8" fill="#407bff"/>
                              </g>
                            </g>
                          </g>
                          <g id="Grupo_1103506" data-name="Grupo 1103506" opacity="0.3">
                            <g id="Grupo_1103505" data-name="Grupo 1103505">
                              <g id="Grupo_1103504" data-name="Grupo 1103504" clip-path="url(#clip-path-26)">
                                <rect id="Rectángulo_404400" data-name="Rectángulo 404400" width="86.281" height="15.644" transform="matrix(0.719, -0.695, 0.695, 0.719, 30.558, 169.308)" fill="#fff"/>
                              </g>
                            </g>
                          </g>
                          <g id="Grupo_1103509" data-name="Grupo 1103509" opacity="0.3">
                            <g id="Grupo_1103508" data-name="Grupo 1103508">
                              <g id="Grupo_1103507" data-name="Grupo 1103507" clip-path="url(#clip-path-27)">
                                <rect id="Rectángulo_404402" data-name="Rectángulo 404402" width="88.283" height="12.208" transform="matrix(0.719, -0.695, 0.695, 0.719, 45.667, 184.714)" fill="#fff"/>
                              </g>
                            </g>
                          </g>
                          <path id="Trazado_914375" data-name="Trazado 914375" d="M79.542,200.174a63.625,63.625,0,0,1-20.43-3.429C45.23,192.032,33.714,183,26.684,171.321c-7.145-11.872-8.823-25.054-4.727-37.118s13.454-21.5,26.35-26.565c12.69-4.986,27.323-5.136,41.2-.423s25.4,13.743,32.428,25.425c7.144,11.871,8.823,25.053,4.726,37.117s-13.453,21.5-26.349,26.565a56.757,56.757,0,0,1-20.774,3.852M69.08,110.785a49.77,49.77,0,0,0-18.213,3.368c-10.946,4.3-18.859,12.221-22.282,22.3s-1.967,21.181,4.1,31.257c6.178,10.266,16.363,18.224,28.681,22.406s25.241,4.072,36.393-.31c10.946-4.3,18.859-12.221,22.282-22.3s1.967-21.18-4.1-31.257c-6.178-10.266-16.363-18.223-28.681-22.4a56.622,56.622,0,0,0-18.18-3.059" fill="#263238"/>
                          <path id="Trazado_914376" data-name="Trazado 914376" d="M127.1,163.912a201.055,201.055,0,0,1,20.3,3.4c6.668,1.42,13.259,3.066,19.8,4.866s13.023,3.764,19.459,5.867c3.191,1.132,6.512,1.881,9.478,3.674a21.328,21.328,0,0,1,4.247,3.288,19.652,19.652,0,0,1,1.929,2.215,16.554,16.554,0,0,1,1.727,2.81,8.088,8.088,0,0,1-3.648,10.746,16.478,16.478,0,0,1-3.082,1.177,19.468,19.468,0,0,1-2.879.583,21.323,21.323,0,0,1-5.37.022c-3.445-.383-6.536-1.811-9.756-2.856-6.386-2.251-12.73-4.626-19.008-7.194s-12.514-5.262-18.668-8.2a200.647,200.647,0,0,1-18.171-9.659,5.817,5.817,0,0,1,3.648-10.745" fill="#263238"/>
                          <g id="Grupo_1103512" data-name="Grupo 1103512" opacity="0.1">
                            <g id="Grupo_1103511" data-name="Grupo 1103511">
                              <g id="Grupo_1103510" data-name="Grupo 1103510" clip-path="url(#clip-path-28)">
                                <path id="Trazado_914377" data-name="Trazado 914377" d="M187.863,93.069c.713,4.087-.959,7.137-3.735,6.811s-5.608-3.9-6.321-7.99.956-7.137,3.733-6.812,5.607,3.9,6.323,7.991" fill="#407bff"/>
                              </g>
                            </g>
                          </g>
                          <path id="Trazado_914378" data-name="Trazado 914378" d="M202.92,357.51c8.273-.637,12.466-5.942,11.82-11.9-.356-3.285,10.169-4.358,10.169-4.358-1.552,10.385.724,12.059,1.107,14.728s.172,5.57-2.016,5.625c-2.62.066-3.806-.434-7.064-.308-3.809.148-6.377.3-13.132.308-2.7.005-4.564-3.809-.884-4.093" fill="#263238"/>
                          <path id="Trazado_914379" data-name="Trazado 914379" d="M277.105,351.483c4.895-8.373.876-13.878-2.661-18.429-2.086-2.684,7.941-6.092,7.941-6.092,2.5,6.287,5.012,6.2,7.5,7.6s3.928,3.691,2.558,5.382c-1.641,2.026-3.1,1.851-5.044,4.436-2.272,3.022-4.692,6.906-7.873,10.146-1.891,1.926-4.255.091-2.422-3.044" fill="#263238"/>
                          <path id="Trazado_914380" data-name="Trazado 914380" d="M181.027,182.227s1.394,41.967,11.649,76.953c4.473,30.262,21.923,87.441,21.923,87.441a22.921,22.921,0,0,0,10.954-.1s5.588-44.143-6.152-92.048c7.631-51.05,2.442-77.114,2.442-77.114Z" fill="#2994a3"/>
                          <path id="Trazado_914381" data-name="Trazado 914381" d="M197.162,180.3s17.53,57.771,31.016,84.489c14.163,28.06,44.672,68.02,46.079,69.772,3.881-1.851,7.27-3.96,9.3-6.781,0,0-11.66-44.3-28.889-74.481-13.55-66.506-22.581-77.165-22.581-77.165Z" fill="#2994a3"/>
                          <path id="Trazado_914382" data-name="Trazado 914382" d="M207.387,96.727c-.74,5.928-1.012,15.487,1.854,20.216,0,0-7.566,1.283-17.394,11.252-6.01-6.9-1.154-8.975-1.154-8.975,4.388-1.6,4.447-7.176,3.931-11.458Z" fill="#ffc3bd"/>
                          <path id="Trazado_914383" data-name="Trazado 914383" d="M175.639,135.814c-1.132-6.907,2.954-12.539,11.515-15.491,7.909-2.727,19.24-4.714,27.076-3.6s10.694,4.966,10.175,10.9c-2.235,25.6,7.551,40.681,7.683,48.509-18.416,4.7-46.528,8.656-51.061,6.09-3.313-3.484-2.671-25.253-1.636-28.575-8.169-4.293-3.121-13.982-3.752-17.838" fill="#407bff"/>
                          <path id="Trazado_914384" data-name="Trazado 914384" d="M183.414,92.894c.123.778-.189,1.475-.7,1.556s-1.021-.485-1.145-1.264.189-1.475.7-1.556,1.022.485,1.145,1.264" fill="#263238"/>
                          <path id="Trazado_914385" data-name="Trazado 914385" d="M182.5,91.638l-1.955-.242s1.191,1.308,1.955.242" fill="#263238"/>
                          <path id="Trazado_914386" data-name="Trazado 914386" d="M183.393,94.509a21.087,21.087,0,0,1-1.987,5.409,3.389,3.389,0,0,0,2.857.08Z" fill="#ed847e"/>
                          <path id="Trazado_914387" data-name="Trazado 914387" d="M180.936,88.766a.462.462,0,0,1,.13-.841,4.589,4.589,0,0,1,4.138.855.463.463,0,0,1-.625.683,3.659,3.659,0,0,0-3.283-.641.462.462,0,0,1-.36-.056" fill="#263238"/>
                          <path id="Trazado_914388" data-name="Trazado 914388" d="M208.728,87.56c.94,9.652,1.54,13.719-2.417,19.378-5.953,8.51-17.789,7.5-21.539-1.684C181.4,96.983,180.425,82.587,189,77.328c8.448-5.183,18.788.581,19.728,10.232" fill="#ffc3bd"/>
                          <path id="Trazado_914389" data-name="Trazado 914389" d="M188.84,93.608c-3.511.513-4.97-4.851-3.8-7.211-4.141-.131-4.856-3.868-3.515-6.622s4.684-8.85,16.747-6.949,16,12.339,14.947,16.757,1.115,16.809-10.161,18.841-18.076-9.178-14.217-14.816" fill="#263238"/>
                          <path id="Trazado_914390" data-name="Trazado 914390" d="M229.443,117.447c-6.166-6.022-29.47-3.024-46.438,2.4s-12.73,22.417-11.26,34.276,10.341,95.559,20.528,126c24.711.314,62.47-7.981,72.949-13.4-4.114-10.9-26.165-95.7-29.78-117.961-1.766-10.878.5-24.967-6-31.316" fill="#ade3ea"/>
                          <g id="Grupo_1103518" data-name="Grupo 1103518" opacity="0.5">
                            <g id="Grupo_1103517" data-name="Grupo 1103517">
                              <g id="Grupo_1103516" data-name="Grupo 1103516" clip-path="url(#clip-path-29)">
                                <path id="Trazado_914392" data-name="Trazado 914392" d="M173.224,166.767c3.408-4.4,6.337-8.66,7.252-11.287,3.282-9.412-1.144,16.28-5.051,29.635-.863-6.972-1.6-13.234-2.2-18.348" fill="#407bff"/>
                              </g>
                            </g>
                          </g>
                          <path id="Trazado_914393" data-name="Trazado 914393" d="M145.079,172.347l3.557,3.606c1.916,5.252-5.569,8.153-5.569,8.153l-3.358,2.844A2.7,2.7,0,0,1,136,186.9l-2.51-2.5a3.246,3.246,0,0,1,.023-4.407l2.6-2.879a7.966,7.966,0,0,1,2.637-1.939Z" fill="#d6f1f4"/>
                          <path id="Trazado_914394" data-name="Trazado 914394" d="M146.516,171.972c-4.013-1.754-7.659,1.334-11.018,2.924-.571.271-.758,1.916.237,2.1a4.949,4.949,0,0,0,3.812-.628c.839,1.084,4.331,2.917,7.812-.25a5.539,5.539,0,0,0-.843-4.142" fill="#ebf8fa"/>
                          <path id="Trazado_914395" data-name="Trazado 914395" d="M193.834,135.563l-.494,2.313-.528,2.19c-.36,1.45-.738,2.89-1.124,4.327-.8,2.869-1.667,5.72-2.639,8.561q-1.428,4.266-3.189,8.508c-.567,1.414-1.21,2.837-1.848,4.246l-1.026,2.125-.606,1.228c-.271.543-.574,1.071-.885,1.591a23.535,23.535,0,0,1-10.779,9.409l-.415.177-.313.118-.6.22-1.207.431-2.353.742-2.3.638-2.273.549c-3.015.686-5.978,1.2-8.935,1.615q-2.219.3-4.435.523c-1.5.162-2.916.28-4.52.377l-2.435-14.588,3.8-1.207c1.288-.407,2.565-.849,3.836-1.284,2.541-.862,5.045-1.763,7.431-2.72l1.762-.729,1.7-.748,1.6-.775.74-.4.37-.194.173-.092.061-.05a4.256,4.256,0,0,0,1.372-2c.027-.1.062-.191.081-.292l.019-.072.067-.192.155-.446.622-1.775c.381-1.223.8-2.417,1.163-3.667.755-2.469,1.443-5.008,2.1-7.573s1.276-5.159,1.86-7.763c.3-1.3.588-2.6.859-3.9l.773-3.773Z" fill="#ade3ea"/>
                          <g id="Grupo_1103524" data-name="Grupo 1103524" opacity="0.5">
                            <g id="Grupo_1103523" data-name="Grupo 1103523">
                              <g id="Grupo_1103522" data-name="Grupo 1103522" clip-path="url(#clip-path-30)">
                                <path id="Trazado_914397" data-name="Trazado 914397" d="M210.061,176.233s16.46-2.314,21.3-5.488c-5.861,5.136-13.794,6.226-21.3,5.488" fill="#407bff"/>
                              </g>
                            </g>
                          </g>
                          <g id="Grupo_1103527" data-name="Grupo 1103527" opacity="0.5">
                            <g id="Grupo_1103526" data-name="Grupo 1103526">
                              <g id="Grupo_1103525" data-name="Grupo 1103525" clip-path="url(#clip-path-31)">
                                <path id="Trazado_914398" data-name="Trazado 914398" d="M211.885,178.08s12.09.093,15.9-1.713c-4.751,3.137-10.575,3.073-15.9,1.713" fill="#407bff"/>
                              </g>
                            </g>
                          </g>
                          <path id="Trazado_914399" data-name="Trazado 914399" d="M182.5,95.908c-1.177,3.141-2.467,6.583-1.592,10.385s4.741,5.82,10.724,5.762c-.639-2.484-3.358-3.959-5.506-7.827s-.022-12.509-.022-12.509l-.751-.647a43.476,43.476,0,0,0-2.106,6.73c-.983-1.508-.747-1.894-.747-1.894" fill="#d6f1f4"/>
                          <path id="Trazado_914401" data-name="Trazado 914401" d="M191.551,96.173a6.3,6.3,0,0,1-2.914,4.518c-1.971,1.07-3.6-1.363-3.6-4.146.005-2.5,1.037-6.08,3.276-5.958,2.205.12,3.69,3.04,3.236,5.586" fill="#ffc3bd"/>
                          <path id="Trazado_914402" data-name="Trazado 914402" d="M181.059,81.093c.691,4.517,5.763,17.363,13.474,22.48,7.015,4.654,14.293,5.211,16.653.163,0,0,8.638,2.928,10.7-13.654,1.767-14.183-8.509-24.25-19.667-26-10.148-1.592-30.1,3.07-21.163,17.011" fill="#33b9cb"/>
                          <g id="Grupo_1103533" data-name="Grupo 1103533" opacity="0.2">
                            <g id="Grupo_1103532" data-name="Grupo 1103532">
                              <g id="Grupo_1103531" data-name="Grupo 1103531" clip-path="url(#clip-path-32)">
                                <path id="Trazado_914403" data-name="Trazado 914403" d="M181.945,81.5s7.832,14.611,28.388,21.556c-12-1.056-21.666-10.278-28.388-21.556"/>
                              </g>
                            </g>
                          </g>
                        </g>
                      </g>
                    </g>
                  </g>
                </g>
              </g>
            </g>
          </g>
        </g>
      </g>
    </g>
  </g>
</svg>
