<svg xmlns="http://www.w3.org/2000/svg" xmlns:xlink="http://www.w3.org/1999/xlink" width="420" height="321.989" viewBox="0 0 420 321.989">
  <defs>
    <clipPath id="clip-path">
      <rect id="Rectángulo_404267" data-name="Rectángulo 404267" width="377.438" height="321.989" fill="none"/>
    </clipPath>
    <clipPath id="clip-path-5">
      <rect id="Rectángulo_404249" data-name="Rectángulo 404249" width="142.904" height="218.287" fill="none"/>
    </clipPath>
    <clipPath id="clip-path-6">
      <rect id="Rectángulo_404250" data-name="Rectángulo 404250" width="72.587" height="204.751" fill="none"/>
    </clipPath>
    <clipPath id="clip-path-7">
      <rect id="Rectángulo_404252" data-name="Rectángulo 404252" width="2.252" height="2.253" fill="none"/>
    </clipPath>
    <clipPath id="clip-path-8">
      <rect id="Rectángulo_404253" data-name="Rectángulo 404253" width="1.127" height="1.127" fill="none"/>
    </clipPath>
    <clipPath id="clip-path-12">
      <rect id="Rectángulo_404260" data-name="Rectángulo 404260" width="1.126" height="1.126" fill="none"/>
    </clipPath>
    <clipPath id="clip-path-13">
      <rect id="Rectángulo_404261" data-name="Rectángulo 404261" width="2.253" height="2.253" fill="none"/>
    </clipPath>
    <clipPath id="clip-path-14">
      <rect id="Rectángulo_404262" data-name="Rectángulo 404262" width="1.127" height="1.126" fill="none"/>
    </clipPath>
    <clipPath id="clip-path-15">
      <rect id="Rectángulo_404263" data-name="Rectángulo 404263" width="2.078" height="13.909" fill="none"/>
    </clipPath>
    <clipPath id="clip-path-17">
      <rect id="Rectángulo_404265" data-name="Rectángulo 404265" width="8.975" height="44.059" fill="none"/>
    </clipPath>
  </defs>
  <g id="Grupo_1103885" data-name="Grupo 1103885" transform="translate(-180 -1220.023)">
    <g id="Grupo_1103884" data-name="Grupo 1103884">
      <g id="Grupo_1103883" data-name="Grupo 1103883">
        <g id="Grupo_1103882" data-name="Grupo 1103882">
          <g id="Grupo_1103881" data-name="Grupo 1103881">
            <g id="Grupo_1103880" data-name="Grupo 1103880">
              <g id="Grupo_1103879" data-name="Grupo 1103879">
                <g id="Grupo_1103878" data-name="Grupo 1103878">
                  <g id="Grupo_1103877" data-name="Grupo 1103877">
                    <g id="Grupo_1103876" data-name="Grupo 1103876">
                      <rect id="Rectángulo_402890" data-name="Rectángulo 402890" width="420" height="318.233" transform="translate(180 1223.038)" fill="#f6f0ca"/>
                    </g>
                  </g>
                </g>
              </g>
            </g>
          </g>
          <g id="Grupo_1103166" data-name="Grupo 1103166" transform="translate(202.563 1220.023)">
            <g id="Grupo_1103165" data-name="Grupo 1103165" clip-path="url(#clip-path)">
              <g id="Grupo_1103117" data-name="Grupo 1103117">
                <g id="Grupo_1103116" data-name="Grupo 1103116" clip-path="url(#clip-path)">
                  <path id="Trazado_913810" data-name="Trazado 913810" d="M397.484,373.685c-14.585-8.666-19.06-26.42-19.705-42.629-.108-2.706-.614-5.528.495-7.992s3.985-4.3,6.486-3.342c2.074.8,3.12,3.062,4.383,4.908a15.83,15.83,0,0,0,6.776,5.578c1.784.765,3.951,1.154,5.578.093,2.233-1.456,2.271-4.693,2.055-7.376q-.6-7.5-1.2-15a25.086,25.086,0,0,1,.222-8.032c.646-2.61,2.316-5.112,4.817-6.016s5.768.336,6.5,2.923a24.885,24.885,0,0,1,.323,3.337,2.83,2.83,0,0,0,1.848,2.536c1.095.236,2.113-.6,2.857-1.45,2.571-2.915,4.193-6.545,5.693-10.146s2.943-7.283,5.239-10.424,5.6-5.741,9.427-6.243,8.1,1.569,9.35,5.271-.671,7.714-2.848,10.955a60.091,60.091,0,0,1-11.6,12.813,4.941,4.941,0,0,0-1.921,2.4c-.452,1.833,1.375,3.485,3.186,3.943,2.05.519,4.205.15,6.316.243s4.447.847,5.385,2.767c1.3,2.662-.78,5.708-2.9,7.758a51.476,51.476,0,0,1-14.543,9.89c-1.921.868-3.952,1.656-5.442,3.16s-2.273,3.988-1.171,5.807,3.616,2.245,5.656,1.708,3.808-1.8,5.724-2.685c3.586-1.665,8.369-1.762,10.967,1.252a8.518,8.518,0,0,1,1.458,7.444,19.637,19.637,0,0,1-3.58,6.935,51.746,51.746,0,0,1-20.895,17.114c-8.337,3.6-16.207,4.987-24.94,2.505" transform="translate(-76.33 -55.459)" fill="#f5f5f5"/>
                  <path id="Trazado_913811" data-name="Trazado 913811" d="M405.777,374.94c.113-6.448-1.008-2.875.785-11.2a241.066,241.066,0,0,1,7.636-26.6l2.359-6.869c.78-2.253,1.553-4.488,2.444-6.626a120.549,120.549,0,0,1,5.825-12c2.038-3.726,4.107-7.187,6.065-10.409s3.854-6.186,5.692-8.815a95.588,95.588,0,0,1,9.583-11.754c1.236-1.295,2.228-2.267,2.908-2.918l.779-.734a.183.183,0,1,1,.036.037l-.744.77c-.657.673-1.626,1.667-2.84,2.979a101.05,101.05,0,0,0-9.435,11.823c-1.813,2.635-3.681,5.6-5.629,8.83s-3.995,6.693-6.017,10.416a121.765,121.765,0,0,0-5.775,11.96c-.883,2.128-1.648,4.343-2.427,6.6s-1.561,4.549-2.357,6.867a247.149,247.149,0,0,0-7.658,26.537c-1.812,8.3-.724,4.69-.881,11.114" transform="translate(-81.983 -55.953)" fill="#e0e0e0"/>
                  <path id="Trazado_913812" data-name="Trazado 913812" d="M421.043,328.067a5.5,5.5,0,0,1-.347-1.126c-.2-.732-.444-1.8-.731-3.121-.577-2.645-1.249-6.324-1.975-10.383s-1.448-7.721-2.063-10.349c-.3-1.315-.561-2.378-.748-3.109a5.421,5.421,0,0,1-.236-1.154,5.365,5.365,0,0,1,.42,1.1c.244.717.554,1.769.9,3.077.705,2.616,1.486,6.28,2.212,10.345.705,4.008,1.344,7.634,1.831,10.4.228,1.25.421,2.3.576,3.149a5.425,5.425,0,0,1,.159,1.168" transform="translate(-83.884 -60.41)" fill="#e0e0e0"/>
                  <path id="Trazado_913813" data-name="Trazado 913813" d="M456.624,324.2a7.442,7.442,0,0,1-1.364.266c-.88.144-2.153.346-3.72.645-3.135.574-7.439,1.52-12.142,2.771s-8.908,2.58-11.923,3.624c-1.512.511-2.724.957-3.564,1.261a7.4,7.4,0,0,1-1.322.43,7.5,7.5,0,0,1,1.252-.611c.819-.359,2.016-.858,3.517-1.414,2.993-1.131,7.2-2.511,11.913-3.775a122.022,122.022,0,0,1,12.209-2.634c1.579-.256,2.864-.405,3.755-.49a7.31,7.31,0,0,1,1.388-.073" transform="translate(-85.431 -65.536)" fill="#e0e0e0"/>
                  <path id="Trazado_913814" data-name="Trazado 913814" d="M402.069,374.091a1.781,1.781,0,0,1-.268-.4l-.682-1.2c-.588-1.049-1.4-2.589-2.376-4.5-1.957-3.83-4.493-9.207-7.212-15.177s-5.2-11.365-7.078-15.231L382.221,333c-.241-.5-.439-.91-.6-1.248a.244.244,0,1,1,.088-.047l.682,1.2c.588,1.049,1.4,2.589,2.376,4.5,1.957,3.831,4.493,9.207,7.213,15.18s5.2,11.362,7.077,15.229l2.233,4.572c.24.5.438.911.6,1.248a1.806,1.806,0,0,1,.18.452" transform="translate(-77.111 -66.975)" fill="#e0e0e0"/>
                  <path id="Trazado_913815" data-name="Trazado 913815" d="M452.065,362.164a1.85,1.85,0,0,1-.441.221l-1.3.545-4.793,1.954c-4.047,1.652-9.61,4-15.754,6.593s-11.737,4.9-15.819,6.462c-2.041.785-3.7,1.4-4.853,1.806l-1.332.457a1.847,1.847,0,0,1-.476.127,1.884,1.884,0,0,1,.441-.223l1.3-.543,4.793-1.954c4.047-1.65,9.612-4,15.757-6.595s11.734-4.894,15.816-6.462c2.041-.784,3.7-1.4,4.854-1.806l1.332-.457a1.838,1.838,0,0,1,.476-.127" transform="translate(-82.339 -73.214)" fill="#e0e0e0"/>
                  <path id="Trazado_913816" data-name="Trazado 913816" d="M128.195,16.392a2.176,2.176,0,0,1,.108.336l.278.993a14.458,14.458,0,0,0,.5,1.6,21.855,21.855,0,0,0,.819,2.131l.546,1.246.695,1.328a15.5,15.5,0,0,0,.817,1.415c.3.478.584,1,.956,1.483a31.894,31.894,0,0,0,5.5,6.162,31.591,31.591,0,0,0,8.484,5.263,30.145,30.145,0,0,0,5.315,1.671,54.77,54.77,0,0,0,5.874.808c4.028.4,8.4.613,12.582,2.3a30.6,30.6,0,0,1,10.967,8.207A39.857,39.857,0,0,1,189.191,62.8a21.359,21.359,0,0,1,1.514,6.385,24.9,24.9,0,0,1-.4,6.277,75.249,75.249,0,0,1-3.33,11.1,52.677,52.677,0,0,0-2.646,9.679,20.158,20.158,0,0,0,.307,8.2,15.248,15.248,0,0,0,2.68,5.583,11.186,11.186,0,0,0,2.886,2.662c.761.486,1.2.671,1.19.7a7.816,7.816,0,0,1-1.235-.627,10.876,10.876,0,0,1-2.968-2.633,15.234,15.234,0,0,1-2.777-5.625,20.267,20.267,0,0,1-.373-8.3,52.452,52.452,0,0,1,2.611-9.75,75.731,75.731,0,0,0,3.279-11.052,24.555,24.555,0,0,0,.381-6.179,21.011,21.011,0,0,0-1.5-6.264,39.647,39.647,0,0,0-7.486-11.337A30.279,30.279,0,0,0,170.516,43.5c-4.095-1.658-8.428-1.887-12.465-2.294a54.829,54.829,0,0,1-5.913-.832,30.4,30.4,0,0,1-5.373-1.711,31.717,31.717,0,0,1-8.544-5.36,31.819,31.819,0,0,1-5.5-6.252c-.369-.492-.646-1.019-.948-1.5a15.425,15.425,0,0,1-.807-1.433q-.357-.7-.683-1.345l-.532-1.26a21.034,21.034,0,0,1-.787-2.156,13.424,13.424,0,0,1-.463-1.615c-.1-.427-.18-.76-.238-1.005a2.2,2.2,0,0,1-.067-.345" transform="translate(-25.916 -3.314)" fill="#e0e0e0"/>
                  <path id="Trazado_913817" data-name="Trazado 913817" d="M159.653,0s.1.077.27.242l.768.74c.33.333.707.775,1.168,1.282.419.543.943,1.139,1.435,1.884a27.2,27.2,0,0,1,3.053,5.721A27.558,27.558,0,0,1,168.2,18.25a28.262,28.262,0,0,1-.179,5.007,36.436,36.436,0,0,1-1.16,5.3c-1.03,3.605-2.536,7.319-3.562,11.378a28.856,28.856,0,0,0-.893,6.334,27.466,27.466,0,0,0,.672,6.632,30.949,30.949,0,0,0,6.1,12.535,35.03,35.03,0,0,0,10.827,8.846,42.616,42.616,0,0,0,12.348,4.3c4.12.756,8.121.965,11.826,1.528a29.976,29.976,0,0,1,9.954,3.009,22.346,22.346,0,0,1,6.581,5.5,21.829,21.829,0,0,1,4.551,9.472l.171,1.052c.035.238.043.361.043.361s-.036-.119-.085-.353c-.051-.253-.12-.6-.211-1.042a24.444,24.444,0,0,0-1.273-3.872,23,23,0,0,0-3.375-5.47A22.251,22.251,0,0,0,214,83.376a29.821,29.821,0,0,0-9.865-2.926c-3.688-.547-7.689-.741-11.846-1.492a42.823,42.823,0,0,1-12.471-4.315A35.33,35.33,0,0,1,168.855,65.7a31.272,31.272,0,0,1-6.173-12.706,27.769,27.769,0,0,1-.671-6.73,29.13,29.13,0,0,1,.918-6.417c1.048-4.094,2.566-7.8,3.6-11.381a36.224,36.224,0,0,0,1.174-5.25,28.188,28.188,0,0,0,.2-4.947A27.9,27.9,0,0,0,163.16,4.24c-.478-.747-.989-1.348-1.4-1.9-.449-.514-.815-.962-1.134-1.3l-.736-.768C159.73.1,159.653,0,159.653,0" transform="translate(-32.275 0)" fill="#e0e0e0"/>
                  <path id="Trazado_913818" data-name="Trazado 913818" d="M229.391,110.863a7.718,7.718,0,0,1-.97.881c-.639.548-1.588,1.313-2.779,2.236a114.038,114.038,0,0,1-20.012,12.337c-1.359.65-2.469,1.154-3.246,1.478a7.583,7.583,0,0,1-1.221.47,8.087,8.087,0,0,1,1.154-.617l3.183-1.595c2.678-1.364,6.333-3.339,10.238-5.743s7.307-4.785,9.728-6.565c1.162-.866,2.124-1.582,2.855-2.129a8.048,8.048,0,0,1,1.071-.753" transform="translate(-40.667 -22.412)" fill="#e0e0e0"/>
                  <path id="Trazado_913819" data-name="Trazado 913819" d="M222.063,104.384a5.8,5.8,0,0,1-.97.576l-2.7,1.459c-2.273,1.237-5.387,2.99-8.749,5.056s-6.332,4.056-8.462,5.526l-2.52,1.746a5.806,5.806,0,0,1-.95.606,5.81,5.81,0,0,1,.854-.736c.565-.454,1.4-1.089,2.445-1.857,2.09-1.533,5.042-3.566,8.414-5.64s6.518-3.79,8.83-4.961c1.156-.587,2.1-1.045,2.76-1.346a6.029,6.029,0,0,1,1.043-.43" transform="translate(-39.97 -21.102)" fill="#e0e0e0"/>
                  <path id="Trazado_913820" data-name="Trazado 913820" d="M212.824,101.879a12.68,12.68,0,0,1-1.9,1.39c-1.208.809-2.9,1.89-4.8,3.033s-3.652,2.131-4.933,2.818a12.6,12.6,0,0,1-2.12,1.028,13.87,13.87,0,0,1,1.975-1.284l4.864-2.919,4.86-2.926a13.857,13.857,0,0,1,2.06-1.142" transform="translate(-40.243 -20.595)" fill="#e0e0e0"/>
                  <path id="Trazado_913821" data-name="Trazado 913821" d="M202.661,88.717a8.162,8.162,0,0,1-1.444,1.055l-3.57,2.392L194.1,94.6a8.1,8.1,0,0,1-1.514.952,7.262,7.262,0,0,1,1.339-1.188c.865-.686,2.09-1.595,3.484-2.541s2.692-1.748,3.649-2.3a7.221,7.221,0,0,1,1.6-.805" transform="translate(-38.934 -17.934)" fill="#e0e0e0"/>
                  <path id="Trazado_913822" data-name="Trazado 913822" d="M199.843,76.99c.029.057-1.04.63-2.733,1.61s-4,2.39-6.437,4.1-4.549,3.4-6.044,4.664-2.4,2.07-2.441,2.024a3.43,3.43,0,0,1,.566-.641c.382-.395.956-.945,1.682-1.6a63.036,63.036,0,0,1,12.532-8.8c.867-.46,1.579-.813,2.08-1.038a3.389,3.389,0,0,1,.795-.315" transform="translate(-36.831 -15.564)" fill="#e0e0e0"/>
                  <path id="Trazado_913823" data-name="Trazado 913823" d="M193.554,67.893c.065.094-4.264,3.226-9.67,7s-9.842,6.749-9.908,6.655,4.263-3.226,9.671-7,9.841-6.749,9.907-6.655" transform="translate(-35.171 -13.725)" fill="#e0e0e0"/>
                  <path id="Trazado_913824" data-name="Trazado 913824" d="M188.475,57.639a4.936,4.936,0,0,1-.831.617l-2.336,1.569c-1.974,1.321-4.688,3.164-7.639,5.267s-5.575,4.073-7.468,5.509l-2.244,1.7a5.017,5.017,0,0,1-.854.585,4.946,4.946,0,0,1,.752-.711c.5-.438,1.24-1.055,2.164-1.8,1.849-1.5,4.452-3.506,7.408-5.615s5.7-3.916,7.72-5.176c1.008-.63,1.833-1.128,2.409-1.459a4.913,4.913,0,0,1,.918-.48" transform="translate(-33.782 -11.652)" fill="#e0e0e0"/>
                  <path id="Trazado_913825" data-name="Trazado 913825" d="M180.134,51.951c.065.094-3.61,2.758-8.209,5.949s-8.381,5.7-8.447,5.608,3.609-2.757,8.21-5.949,8.381-5.7,8.446-5.607" transform="translate(-33.049 -10.502)" fill="#e0e0e0"/>
                  <path id="Trazado_913826" data-name="Trazado 913826" d="M172.128,46.237a37.58,37.58,0,0,1-4.223,3.641,37.459,37.459,0,0,1-4.483,3.316,37.633,37.633,0,0,1,4.224-3.641,37.627,37.627,0,0,1,4.482-3.316" transform="translate(-33.037 -9.347)" fill="#e0e0e0"/>
                  <path id="Trazado_913827" data-name="Trazado 913827" d="M164.2,31.852a13.179,13.179,0,0,1-1.8,1.668c-1.151.981-2.78,2.294-4.63,3.676s-3.574,2.569-4.842,3.394a13.39,13.39,0,0,1-2.109,1.251,15.328,15.328,0,0,1,1.943-1.492c1.224-.887,2.914-2.109,4.76-3.487s3.5-2.651,4.694-3.573a15.793,15.793,0,0,1,1.983-1.439" transform="translate(-30.489 -6.439)" fill="#e0e0e0"/>
                  <path id="Trazado_913828" data-name="Trazado 913828" d="M164.719,22.079a4.933,4.933,0,0,1-.819.639c-.541.39-1.337.937-2.33,1.6-1.986,1.321-4.775,3.08-7.926,4.9s-6.069,3.364-8.2,4.427c-1.068.531-1.938.949-2.546,1.224a4.9,4.9,0,0,1-.962.39,5,5,0,0,1,.89-.535l2.483-1.34c2.1-1.128,4.985-2.707,8.132-4.525s5.952-3.536,7.975-4.792l2.4-1.485a4.986,4.986,0,0,1,.907-.5" transform="translate(-28.693 -4.463)" fill="#e0e0e0"/>
                  <path id="Trazado_913829" data-name="Trazado 913829" d="M159.672,11.629a5.889,5.889,0,0,1-.9.685c-.593.419-1.461,1.011-2.54,1.731-2.159,1.441-5.171,3.388-8.538,5.472s-6.456,3.911-8.709,5.2c-1.127.645-2.043,1.158-2.682,1.5a5.831,5.831,0,0,1-1.014.5,5.892,5.892,0,0,1,.933-.637l2.615-1.614,8.64-5.3,8.6-5.365,2.611-1.62a5.9,5.9,0,0,1,.987-.55" transform="translate(-27.35 -2.35)" fill="#e0e0e0"/>
                  <path id="Trazado_913830" data-name="Trazado 913830" d="M417.56,94.153c-.075.074-1.223-1.07-3.439-2.967-1.108-.947-2.487-2.078-4.154-3.3a46.526,46.526,0,0,0-5.922-3.712,27,27,0,0,0-3.7-1.6,12.143,12.143,0,0,0-4.175-.743,4.737,4.737,0,0,0-2.026.482,3.1,3.1,0,0,0-1.384,1.471,5.071,5.071,0,0,0-.415,2.185,11.119,11.119,0,0,0,.3,2.4,23.58,23.58,0,0,0,1.8,4.84,41.758,41.758,0,0,0,2.732,4.722,65.608,65.608,0,0,0,15.979,16.471,41.724,41.724,0,0,0,4.638,2.874,23.626,23.626,0,0,0,4.785,1.946,11.115,11.115,0,0,0,2.394.375,5.073,5.073,0,0,0,2.2-.349,3.1,3.1,0,0,0,1.513-1.339,4.754,4.754,0,0,0,.543-2.011,12.183,12.183,0,0,0-.617-4.2,27.039,27.039,0,0,0-1.49-3.744,46.565,46.565,0,0,0-3.531-6.032c-1.17-1.7-2.258-3.115-3.171-4.251-1.829-2.272-2.937-3.455-2.861-3.527.032-.031.342.232.9.762s1.361,1.344,2.338,2.441,2.136,2.475,3.376,4.159a44.376,44.376,0,0,1,3.76,6.045,27.293,27.293,0,0,1,1.62,3.849,13.011,13.011,0,0,1,.734,4.556,5.79,5.79,0,0,1-.647,2.485,4.216,4.216,0,0,1-2.02,1.839,6.177,6.177,0,0,1-2.679.472,12.22,12.22,0,0,1-2.661-.386,24.506,24.506,0,0,1-5.057-2,42.162,42.162,0,0,1-4.8-2.932A65.2,65.2,0,0,1,396.129,98.63a42.093,42.093,0,0,1-2.785-4.88,24.478,24.478,0,0,1-1.85-5.114,12.168,12.168,0,0,1-.306-2.67,6.192,6.192,0,0,1,.552-2.664,4.218,4.218,0,0,1,1.9-1.964,5.807,5.807,0,0,1,2.5-.572,13.022,13.022,0,0,1,4.532.871,27.262,27.262,0,0,1,3.8,1.736,44.327,44.327,0,0,1,5.93,3.941c1.646,1.291,2.991,2.489,4.055,3.5s1.851,1.839,2.37,2.412a4.115,4.115,0,0,1,.735.927" transform="translate(-79.082 -16.327)" fill="#e0e0e0"/>
                  <path id="Trazado_913831" data-name="Trazado 913831" d="M404.9,96.806c.1.031-.349,1.535-.939,4.295-.294,1.38-.618,3.076-.879,5.057a42.923,42.923,0,0,0-.373,6.75,24.415,24.415,0,0,0,.4,3.873,11.411,11.411,0,0,0,1.38,3.853,4.738,4.738,0,0,0,1.381,1.469,3.249,3.249,0,0,0,1.9.512,4.991,4.991,0,0,0,2.07-.582,10.106,10.106,0,0,0,1.941-1.305,21.673,21.673,0,0,0,3.37-3.676,38.825,38.825,0,0,0,2.824-4.454A60.492,60.492,0,0,0,424.7,91.455a38.864,38.864,0,0,0,.263-5.268,21.685,21.685,0,0,0-.633-4.947,10.068,10.068,0,0,0-.833-2.186,4.983,4.983,0,0,0-1.355-1.67,3.248,3.248,0,0,0-1.851-.68,4.725,4.725,0,0,0-1.975.4,11.385,11.385,0,0,0-3.35,2.351,24.415,24.415,0,0,0-2.563,2.932,43.107,43.107,0,0,0-3.589,5.728c-.929,1.77-1.642,3.341-2.2,4.637-1.11,2.6-1.61,4.083-1.711,4.05a3.855,3.855,0,0,1,.231-1.122c.2-.72.522-1.778,1.013-3.112s1.142-2.953,2.022-4.778a41.012,41.012,0,0,1,3.5-5.942,24.771,24.771,0,0,1,2.6-3.1,12.277,12.277,0,0,1,3.627-2.624,5.784,5.784,0,0,1,2.433-.521,4.361,4.361,0,0,1,2.491.874,6.1,6.1,0,0,1,1.695,2.021,11.219,11.219,0,0,1,.958,2.427,22.648,22.648,0,0,1,.717,5.226,39.382,39.382,0,0,1-.238,5.441,60.283,60.283,0,0,1-6.862,21.612,39.342,39.342,0,0,1-2.944,4.581,22.6,22.6,0,0,1-3.6,3.854,11.2,11.2,0,0,1-2.182,1.43,6.088,6.088,0,0,1-2.55.673,4.356,4.356,0,0,1-2.539-.722,5.764,5.764,0,0,1-1.687-1.829,12.272,12.272,0,0,1-1.45-4.235,24.724,24.724,0,0,1-.335-4.033,41.005,41.005,0,0,1,.571-6.873c.333-2,.732-3.7,1.1-5.069s.717-2.422.968-3.128a3.855,3.855,0,0,1,.458-1.05" transform="translate(-81.228 -15.284)" fill="#e0e0e0"/>
                  <path id="Trazado_913832" data-name="Trazado 913832" d="M406.436,92.676c.026.1-1.489.511-4.146,1.462-1.328.476-2.94,1.093-4.762,1.912a42.916,42.916,0,0,0-5.937,3.234,24.306,24.306,0,0,0-3.081,2.38,11.408,11.408,0,0,0-2.551,3.2,4.735,4.735,0,0,0-.522,1.948A3.242,3.242,0,0,0,386,108.7a4.979,4.979,0,0,0,1.585,1.454,10.125,10.125,0,0,0,2.131.964,21.719,21.719,0,0,0,4.9.932,38.89,38.89,0,0,0,5.274.058,60.512,60.512,0,0,0,21.511-5.417,38.921,38.921,0,0,0,4.618-2.548A21.69,21.69,0,0,0,429.894,101a10.1,10.1,0,0,0,1.42-1.858,4.975,4.975,0,0,0,.707-2.031,3.242,3.242,0,0,0-.4-1.932,4.732,4.732,0,0,0-1.383-1.468,11.4,11.4,0,0,0-3.762-1.611,24.346,24.346,0,0,0-3.842-.637,42.879,42.879,0,0,0-6.76-.037c-1.993.141-3.705.361-5.1.57-2.791.422-4.319.779-4.343.677a3.849,3.849,0,0,1,1.076-.393c.719-.207,1.786-.491,3.18-.776s3.112-.582,5.127-.795a40.972,40.972,0,0,1,6.894-.152,24.648,24.648,0,0,1,4.005.579,12.254,12.254,0,0,1,4.14,1.7,5.775,5.775,0,0,1,1.723,1.794,4.357,4.357,0,0,1,.566,2.578,6.089,6.089,0,0,1-.826,2.505,11.246,11.246,0,0,1-1.561,2.091,22.594,22.594,0,0,1-4.067,3.36,39.38,39.38,0,0,1-4.752,2.661,60.261,60.261,0,0,1-21.989,5.536,39.334,39.334,0,0,1-5.444-.093,22.605,22.605,0,0,1-5.172-1.033,11.165,11.165,0,0,1-2.364-1.1,6.088,6.088,0,0,1-1.915-1.814,4.36,4.36,0,0,1-.722-2.539,5.79,5.79,0,0,1,.668-2.4,12.272,12.272,0,0,1,2.839-3.46,24.707,24.707,0,0,1,3.254-2.407,40.893,40.893,0,0,1,6.144-3.131c1.876-.768,3.53-1.322,4.892-1.729s2.437-.665,3.169-.822a3.858,3.858,0,0,1,1.134-.164" transform="translate(-77.697 -18.291)" fill="#e0e0e0"/>
                  <path id="Trazado_913833" data-name="Trazado 913833" d="M419.721,103.633a4.138,4.138,0,1,1-5.023-3,4.138,4.138,0,0,1,5.023,3" transform="translate(-83.203 -20.318)" fill="#e0e0e0"/>
                  <path id="Trazado_913834" data-name="Trazado 913834" d="M53,163.954c-.054-.03.4-.865,1.111-2.425.353-.779.767-1.742,1.182-2.882a27.324,27.324,0,0,0,1.127-3.947,15.858,15.858,0,0,0,.3-2.347,7.12,7.12,0,0,0-.263-2.476,2.786,2.786,0,0,0-.6-1.064,1.812,1.812,0,0,0-1.056-.54,2.95,2.95,0,0,0-1.3.122,6.463,6.463,0,0,0-1.308.564,13.87,13.87,0,0,0-2.436,1.806,24.356,24.356,0,0,0-2.217,2.313,38.5,38.5,0,0,0-6.68,11.7,24.485,24.485,0,0,0-.863,3.087,13.867,13.867,0,0,0-.317,3.016,6.51,6.51,0,0,0,.18,1.413,2.974,2.974,0,0,0,.556,1.182,1.812,1.812,0,0,0,1,.634,2.769,2.769,0,0,0,1.223-.022,7.123,7.123,0,0,0,2.266-1.033,15.745,15.745,0,0,0,1.869-1.451,27.454,27.454,0,0,0,2.826-2.978c.769-.937,1.388-1.782,1.88-2.483.983-1.4,1.469-2.221,1.522-2.191a2.435,2.435,0,0,1-.282.635c-.211.4-.535.987-.995,1.718s-1.047,1.609-1.794,2.584a25.959,25.959,0,0,1-2.8,3.109,15.943,15.943,0,0,1-1.907,1.544,7.659,7.659,0,0,1-2.449,1.158,3.393,3.393,0,0,1-1.508.04A2.468,2.468,0,0,1,39.9,173.9a3.626,3.626,0,0,1-.7-1.434,7.2,7.2,0,0,1-.217-1.565,14.357,14.357,0,0,1,.3-3.179,24.818,24.818,0,0,1,.87-3.184A38.338,38.338,0,0,1,46.974,152.6a24.574,24.574,0,0,1,2.3-2.368,14.377,14.377,0,0,1,2.583-1.88,7.13,7.13,0,0,1,1.457-.609,3.64,3.64,0,0,1,1.592-.124,2.474,2.474,0,0,1,1.419.75,3.424,3.424,0,0,1,.732,1.319,7.653,7.653,0,0,1,.249,2.7,16.018,16.018,0,0,1-.359,2.426,25.976,25.976,0,0,1-1.254,3.988c-.46,1.14-.915,2.094-1.312,2.859s-.735,1.345-.973,1.731a2.436,2.436,0,0,1-.4.566" transform="translate(-7.88 -29.834)" fill="#e0e0e0"/>
                  <path id="Trazado_913835" data-name="Trazado 913835" d="M47.149,158.365c0,.062-.923.054-2.576.172-.827.059-1.836.154-3,.329a25.255,25.255,0,0,0-3.869.893,14.362,14.362,0,0,0-2.119.859,6.68,6.68,0,0,0-1.948,1.408,2.774,2.774,0,0,0-.6,1.02,1.9,1.9,0,0,0,.022,1.158,2.927,2.927,0,0,0,.667,1.072,5.934,5.934,0,0,0,1.053.882,12.71,12.71,0,0,0,2.624,1.3,22.759,22.759,0,0,0,2.974.866,35.529,35.529,0,0,0,13.023.333,22.8,22.8,0,0,0,3.015-.713,12.722,12.722,0,0,0,2.687-1.165,5.919,5.919,0,0,0,1.1-.827,2.922,2.922,0,0,0,.72-1.037A1.9,1.9,0,0,0,61,163.759a2.782,2.782,0,0,0-.551-1.048,6.682,6.682,0,0,0-1.874-1.506,14.189,14.189,0,0,0-2.072-.966,25.251,25.251,0,0,0-3.818-1.089c-1.15-.235-2.153-.381-2.974-.482-1.646-.2-2.567-.241-2.564-.3a2.275,2.275,0,0,1,.671-.053c.439,0,1.087,0,1.921.063s1.852.162,3.025.36a24.133,24.133,0,0,1,3.924,1,14.523,14.523,0,0,1,2.175.961,7.209,7.209,0,0,1,2.072,1.616,3.384,3.384,0,0,1,.692,1.288,2.554,2.554,0,0,1-.086,1.548,3.575,3.575,0,0,1-.863,1.286,6.529,6.529,0,0,1-1.213.937,13.307,13.307,0,0,1-2.831,1.259,23.316,23.316,0,0,1-3.108.755,35.43,35.43,0,0,1-13.313-.34,23.081,23.081,0,0,1-3.065-.912,13.281,13.281,0,0,1-2.763-1.4,6.562,6.562,0,0,1-1.163-1,3.6,3.6,0,0,1-.8-1.329,2.558,2.558,0,0,1-.007-1.55,3.392,3.392,0,0,1,.756-1.25,7.209,7.209,0,0,1,2.153-1.509,14.371,14.371,0,0,1,2.22-.848,24.016,24.016,0,0,1,3.97-.8c1.182-.139,2.205-.191,3.04-.206s1.484.01,1.923.036a2.252,2.252,0,0,1,.667.086" transform="translate(-6.531 -31.989)" fill="#e0e0e0"/>
                  <path id="Trazado_913836" data-name="Trazado 913836" d="M53.486,157.918c-.053.032-.531-.756-1.5-2.1-.485-.672-1.1-1.48-1.857-2.374a25.182,25.182,0,0,0-2.795-2.82,14.328,14.328,0,0,0-1.846-1.35,6.709,6.709,0,0,0-2.222-.915,2.777,2.777,0,0,0-1.184.024,1.9,1.9,0,0,0-.973.628,2.922,2.922,0,0,0-.561,1.131,5.89,5.89,0,0,0-.2,1.36,12.683,12.683,0,0,0,.274,2.916,22.722,22.722,0,0,0,.829,2.984,35.534,35.534,0,0,0,6.569,11.25,22.787,22.787,0,0,0,2.192,2.188,12.747,12.747,0,0,0,2.405,1.672,5.92,5.92,0,0,0,1.28.5,2.939,2.939,0,0,0,1.261.067,1.905,1.905,0,0,0,1.025-.539,2.771,2.771,0,0,0,.6-1.02,6.684,6.684,0,0,0,.294-2.386,14.241,14.241,0,0,0-.268-2.271,25.259,25.259,0,0,0-1.083-3.819c-.405-1.1-.809-2.031-1.155-2.784-.694-1.506-1.145-2.309-1.091-2.34a2.278,2.278,0,0,1,.4.543c.235.372.57.927.957,1.667s.838,1.66,1.286,2.763a24.065,24.065,0,0,1,1.213,3.864,14.575,14.575,0,0,1,.328,2.354,7.222,7.222,0,0,1-.285,2.613,3.391,3.391,0,0,1-.731,1.265,2.556,2.556,0,0,1-1.361.741,3.589,3.589,0,0,1-1.549-.057,6.586,6.586,0,0,1-1.435-.539,13.3,13.3,0,0,1-2.559-1.745,23.07,23.07,0,0,1-2.278-2.247,35.393,35.393,0,0,1-6.715-11.5,23.094,23.094,0,0,1-.838-3.086,13.271,13.271,0,0,1-.262-3.087,6.58,6.58,0,0,1,.235-1.514,3.6,3.6,0,0,1,.711-1.376,2.56,2.56,0,0,1,1.315-.823,3.384,3.384,0,0,1,1.461-.014,7.194,7.194,0,0,1,2.416,1.036,14.494,14.494,0,0,1,1.889,1.442,23.989,23.989,0,0,1,2.77,2.954c.74.932,1.323,1.774,1.774,2.477s.773,1.266.981,1.653a2.274,2.274,0,0,1,.278.613" transform="translate(-8.015 -29.853)" fill="#e0e0e0"/>
                  <path id="Trazado_913837" data-name="Trazado 913837" d="M51.346,166.7a2.43,2.43,0,1,1,.873-3.323,2.43,2.43,0,0,1-.873,3.323" transform="translate(-9.641 -32.784)" fill="#e0e0e0"/>
                  <path id="Trazado_913838" data-name="Trazado 913838" d="M77.732,323.2h0a1.277,1.277,0,0,0,1.277,1.277h2.271v23.14l-13.956,31a5.3,5.3,0,0,0,4.83,7.471H99.9a5.3,5.3,0,0,0,4.824-7.483l-14.5-31.982v-22h2.058a1.348,1.348,0,1,0,0-2.7H79.01a1.278,1.278,0,0,0-1.277,1.277" transform="translate(-13.515 -65.081)" fill="#ebebeb"/>
                  <path id="Trazado_913839" data-name="Trazado 913839" d="M128.029,391.813H104.555a4.887,4.887,0,0,1-4.888-4.887V346.607h36.989l-3.74,3.716v36.6a4.887,4.887,0,0,1-4.887,4.887" transform="translate(-20.149 -70.07)" fill="#f5f5f5"/>
                  <path id="Trazado_913840" data-name="Trazado 913840" d="M108.685,360.845a22.6,22.6,0,0,1-4.315.207,22.594,22.594,0,0,1-4.316-.207,22.585,22.585,0,0,1,4.316-.207,22.586,22.586,0,0,1,4.315.207" transform="translate(-20.227 -72.907)" fill="#e0e0e0"/>
                  <path id="Trazado_913841" data-name="Trazado 913841" d="M103.885,354.832a8.945,8.945,0,0,1-3.83,0,8.945,8.945,0,0,1,3.83,0" transform="translate(-20.227 -71.691)" fill="#e0e0e0"/>
                  <path id="Trazado_913842" data-name="Trazado 913842" d="M108.685,372.787a22.591,22.591,0,0,1-4.315.207,22.589,22.589,0,0,1-4.316-.207,22.588,22.588,0,0,1,4.316-.207,22.589,22.589,0,0,1,4.315.207" transform="translate(-20.227 -75.321)" fill="#e0e0e0"/>
                  <path id="Trazado_913843" data-name="Trazado 913843" d="M103.885,366.774a8.944,8.944,0,0,1-3.83,0,8.944,8.944,0,0,1,3.83,0" transform="translate(-20.227 -74.105)" fill="#e0e0e0"/>
                  <path id="Trazado_913844" data-name="Trazado 913844" d="M108.685,384.728a22.6,22.6,0,0,1-4.315.207,22.594,22.594,0,0,1-4.316-.207,22.585,22.585,0,0,1,4.316-.207,22.586,22.586,0,0,1,4.315.207" transform="translate(-20.227 -77.735)" fill="#e0e0e0"/>
                  <path id="Trazado_913845" data-name="Trazado 913845" d="M103.885,378.715a8.944,8.944,0,0,1-3.83,0,8.945,8.945,0,0,1,3.83,0" transform="translate(-20.227 -76.519)" fill="#e0e0e0"/>
                  <path id="Trazado_913846" data-name="Trazado 913846" d="M108.685,396.669a22.589,22.589,0,0,1-4.315.207,22.588,22.588,0,0,1-4.316-.207,22.592,22.592,0,0,1,4.316-.207,22.594,22.594,0,0,1,4.315.207" transform="translate(-20.227 -80.149)" fill="#e0e0e0"/>
                  <path id="Trazado_913847" data-name="Trazado 913847" d="M103.885,390.657a8.944,8.944,0,0,1-3.83,0,8.947,8.947,0,0,1,3.83,0" transform="translate(-20.227 -78.933)" fill="#e0e0e0"/>
                </g>
              </g>
              <g id="Grupo_1103119" data-name="Grupo 1103119">
                <g id="Grupo_1103118" data-name="Grupo 1103118" clip-path="url(#clip-path)">
                  <path id="Trazado_913848" data-name="Trazado 913848" d="M377.438,403.214c0,.115-84.5.207-188.71.207C84.481,403.422,0,403.329,0,403.214s84.481-.207,188.728-.207c104.211,0,188.71.093,188.71.207" transform="translate(0 -81.472)" fill="#263238"/>
                </g>
              </g>
              <g id="Grupo_1103133" data-name="Grupo 1103133">
                <g id="Grupo_1103132" data-name="Grupo 1103132" clip-path="url(#clip-path)">
                  <path id="Trazado_913849" data-name="Trazado 913849" d="M343.725,142.963l-34.451-1.581c-.194-3.654,1.671-26.27,1.671-26.27s-13.022-2.024-13.183-15.043,2.1-42.916,2.1-42.916c15.071-6.477,33.432-7.577,46.43,2.429l1.93,1.485Z" transform="translate(-60.194 -10.548)" fill="#b78876"/>
                  <path id="Trazado_913850" data-name="Trazado 913850" d="M314.253,129.6a30.275,30.275,0,0,0,16.973-4.824s-4.012,9.37-17,8.2Z" transform="translate(-63.523 -25.225)" fill="#aa6550"/>
                  <path id="Trazado_913851" data-name="Trazado 913851" d="M357.658,84.238c.222-.1,8.945-2.646,8.661,6.255s-9.162,6.779-9.17,6.524.508-12.779.508-12.779" transform="translate(-72.201 -16.947)" fill="#b78876"/>
                  <path id="Trazado_913852" data-name="Trazado 913852" d="M360.691,94.47c.04-.027.152.113.41.242a1.546,1.546,0,0,0,1.158.061c.952-.314,1.791-1.782,1.885-3.385a5.125,5.125,0,0,0-.363-2.234,1.79,1.79,0,0,0-1.128-1.227.789.789,0,0,0-.929.4c-.127.245-.077.424-.124.438-.026.022-.187-.155-.1-.52a1,1,0,0,1,.369-.547,1.172,1.172,0,0,1,.865-.2,2.181,2.181,0,0,1,1.576,1.432,5.272,5.272,0,0,1,.458,2.5c-.114,1.791-1.086,3.44-2.385,3.771a1.664,1.664,0,0,1-1.411-.281c-.269-.228-.309-.429-.278-.444" transform="translate(-72.915 -17.685)" fill="#aa6550"/>
                  <path id="Trazado_913853" data-name="Trazado 913853" d="M303.99,83.564a1.858,1.858,0,0,0,1.792,1.876,1.778,1.778,0,0,0,1.916-1.676,1.859,1.859,0,0,0-1.79-1.877,1.779,1.779,0,0,0-1.919,1.678" transform="translate(-61.454 -16.554)" fill="#263238"/>
                  <path id="Trazado_913854" data-name="Trazado 913854" d="M303.474,80.875c.231.243,1.639-.8,3.64-.795,2-.023,3.467,1.006,3.684.76.106-.108-.128-.546-.768-1.011a5.1,5.1,0,0,0-2.949-.91,4.9,4.9,0,0,0-2.9.936c-.615.472-.823.91-.71,1.019" transform="translate(-61.344 -15.954)" fill="#263238"/>
                  <path id="Trazado_913855" data-name="Trazado 913855" d="M328.548,84.153a1.86,1.86,0,0,0,1.793,1.876,1.778,1.778,0,0,0,1.916-1.676,1.861,1.861,0,0,0-1.791-1.877,1.78,1.78,0,0,0-1.918,1.678" transform="translate(-66.419 -16.673)" fill="#263238"/>
                  <path id="Trazado_913856" data-name="Trazado 913856" d="M328.123,81.343c.231.243,1.641-.8,3.641-.795,2-.023,3.467,1.006,3.684.761.106-.108-.127-.546-.768-1.012a5.1,5.1,0,0,0-2.949-.91,4.9,4.9,0,0,0-2.9.936c-.614.472-.823.91-.71,1.019" transform="translate(-66.327 -16.049)" fill="#263238"/>
                  <path id="Trazado_913857" data-name="Trazado 913857" d="M317.738,96.211a13.216,13.216,0,0,0-3.25-.586c-.511-.053-.994-.154-1.08-.5a2.6,2.6,0,0,1,.341-1.514q.72-1.855,1.511-3.89c2.1-5.539,3.617-10.093,3.393-10.176s-2.106,4.339-4.2,9.879c-.5,1.366-.988,2.667-1.447,3.913a2.958,2.958,0,0,0-.265,2,1.282,1.282,0,0,0,.84.747,3.479,3.479,0,0,0,.867.121,13.018,13.018,0,0,0,3.294,0" transform="translate(-63.203 -16.08)" fill="#263238"/>
                  <path id="Trazado_913858" data-name="Trazado 913858" d="M324.794,102.17c-.326-.019-.329,2.153-2.188,3.694s-4.17,1.3-4.187,1.606c-.03.136.515.422,1.492.448a5.4,5.4,0,0,0,3.5-1.218,4.712,4.712,0,0,0,1.7-3.1c.083-.908-.16-1.446-.308-1.434" transform="translate(-64.371 -20.655)" fill="#263238"/>
                  <path id="Trazado_913859" data-name="Trazado 913859" d="M327.48,71.631c.2.544,2.195.286,4.542.569,2.354.236,4.246.923,4.557.436.139-.234-.191-.745-.957-1.273a7.958,7.958,0,0,0-6.932-.765c-.862.348-1.295.775-1.21,1.033" transform="translate(-66.201 -14.178)" fill="#263238"/>
                  <path id="Trazado_913860" data-name="Trazado 913860" d="M304.39,73.588c.352.454,1.73-.018,3.388-.039,1.656-.081,3.061.3,3.384-.17.142-.231-.079-.686-.693-1.116a4.9,4.9,0,0,0-5.456.168c-.586.468-.779.935-.623,1.157" transform="translate(-61.525 -14.457)" fill="#263238"/>
                  <path id="Trazado_913861" data-name="Trazado 913861" d="M344.134,47.789c-1.719-1.231-3.772-2.5-5.717-2.069.013-3.3-4.861-7.162-8.575-8.333-4.346-1.37-10.07.748-14.4,2.183-2.729.906-5.448,2.168-8.321,2.05a19.452,19.452,0,0,1-5.582-1.423,14.237,14.237,0,0,0-5.633-1.112,5.311,5.311,0,0,0-4.634,2.938,3.533,3.533,0,0,0,1.241,4.13,4.6,4.6,0,0,0-5.374,3.538,4.585,4.585,0,0,0,3.474,4.8,2.42,2.42,0,0,0-1.286,2.227c.155,1.564,1.573,2.7,3.011,3.333,3.672,1.613,7.953,1.1,11.754-.181s7.326-3.272,11.094-4.645,10.079-3.838,13.861-2.505a6.771,6.771,0,0,1,1.423.724h0l.071.056a10.133,10.133,0,0,1,3.766,6.552c.013.091.025.177.036.259.5,3.674.412,7.411.952,11.08s1.81,7.4,4.523,9.928c1.116,1.04,3.089,1.755,4.007.537a3.139,3.139,0,0,0,.459-1.683c.686-8.87,3.109-16.739,3.092-26.015a7.82,7.82,0,0,0-3.245-6.364" transform="translate(-58.042 -7.469)" fill="#263238"/>
                  <path id="Trazado_913862" data-name="Trazado 913862" d="M336.564,48.2c-.024.041-.592-.355-1.734-.811a13.154,13.154,0,0,0-5.091-.857,21.2,21.2,0,0,0-7.493,1.644c-2.716,1.056-5.535,2.611-8.606,4.041a43.286,43.286,0,0,1-16.783,4.014,39,39,0,0,1-5.251-.18c-.618-.051-1.094-.134-1.417-.179a2.216,2.216,0,0,1-.489-.1,2.237,2.237,0,0,1,.5.013c.326.018.8.074,1.42.1a46.093,46.093,0,0,0,5.226.047,44.7,44.7,0,0,0,16.621-4.1c3.051-1.419,5.886-2.972,8.641-4.02a20.986,20.986,0,0,1,7.63-1.581,12.728,12.728,0,0,1,5.156,1,8.26,8.26,0,0,1,1.265.671,2.258,2.258,0,0,1,.406.29" transform="translate(-58.566 -9.348)" fill="#455a64"/>
                  <path id="Trazado_913863" data-name="Trazado 913863" d="M294.191,45.586a6.5,6.5,0,0,0,1.452,1.172,9.374,9.374,0,0,0,4.959.864,36.356,36.356,0,0,0,7.494-1.257,36.635,36.635,0,0,0,4.246-1.464c1.441-.592,2.882-1.327,4.366-2.076,2.948-1.5,5.914-2.877,8.858-3.107a12.9,12.9,0,0,1,11.294,5.163,10.189,10.189,0,0,1,.746,1.2,2.169,2.169,0,0,1,.21.444c-.041.023-.345-.583-1.085-1.542a13.148,13.148,0,0,0-3.872-3.287A12.543,12.543,0,0,0,325.6,40.1c-2.851.242-5.758,1.594-8.7,3.1-1.482.748-2.937,1.487-4.4,2.081a35.887,35.887,0,0,1-4.3,1.458,35.078,35.078,0,0,1-7.584,1.182,9.242,9.242,0,0,1-5.051-1.018,4.884,4.884,0,0,1-1.087-.908,2.057,2.057,0,0,1-.283-.4" transform="translate(-59.473 -8.02)" fill="#455a64"/>
                  <path id="Trazado_913864" data-name="Trazado 913864" d="M358.651,67.389a3.66,3.66,0,0,1-.988-.047,12.613,12.613,0,0,1-2.628-.613,14.582,14.582,0,0,1-3.578-1.813,14.8,14.8,0,0,1-1.829-1.518,8.828,8.828,0,0,1-1.607-2,12.637,12.637,0,0,1-1.482-4.69,13.178,13.178,0,0,1,.093-4.011,9.5,9.5,0,0,1,.854-2.565,3.707,3.707,0,0,1,.546-.827,12.686,12.686,0,0,0-1.111,3.441,13.687,13.687,0,0,0,0,3.912,12.7,12.7,0,0,0,1.462,4.531,8.6,8.6,0,0,0,1.533,1.92,14.766,14.766,0,0,0,5.221,3.345,26.017,26.017,0,0,0,3.516.936" transform="translate(-70.034 -9.967)" fill="#455a64"/>
                  <path id="Trazado_913865" data-name="Trazado 913865" d="M359.594,61.193a2.064,2.064,0,0,1-.666-.151,14.11,14.11,0,0,1-1.737-.66,18.171,18.171,0,0,1-2.413-1.339c-.436-.282-.884-.587-1.345-.909a10.074,10.074,0,0,1-1.382-1.1,13.509,13.509,0,0,1-3.19-5.23,9.384,9.384,0,0,1-.419-1.817,1.929,1.929,0,0,1-.011-.685c.071-.008.15.961.707,2.4a14.631,14.631,0,0,0,3.2,5.03,22.726,22.726,0,0,0,2.648,1.987,21.748,21.748,0,0,0,2.33,1.395c1.381.7,2.3,1.008,2.275,1.075" transform="translate(-70.435 -9.967)" fill="#455a64"/>
                  <path id="Trazado_913866" data-name="Trazado 913866" d="M265.679,325.183l2.4,62.545H320.65l-.211-17.917,6.175,17.917h54.445l-17.5-61.883Z" transform="translate(-53.71 -65.739)" fill="#455a64"/>
                  <path id="Trazado_913867" data-name="Trazado 913867" d="M303.3,146.944h0c-1.331.16-2.323.453-4.538.715l-.432.052a33.007,33.007,0,0,0-28.739,34.957l3.419,24.563s-7.074,80.863-6.814,91.653H365.25l.08-45.273-.023-12.323-.545-33.426,13.313-36.2c-2.763-9.292-12.706-19.355-26.523-22-4.387-.84-8.659-2.429-13.816-2.647l0,0c-9.685,7.65-24.567,7.347-34.43-.071" transform="translate(-53.813 -29.706)" fill="#33b9cb"/>
                  <path id="Trazado_913868" data-name="Trazado 913868" d="M345.941,183.564c0,.115-8.226.358-18.373.543s-18.379.243-18.381.128,8.223-.358,18.374-.544,18.377-.243,18.381-.128" transform="translate(-62.505 -37.097)" fill="#fafafa"/>
                  <path id="Trazado_913869" data-name="Trazado 913869" d="M345.669,190.494c0,.115-8.271.022-18.467-.206s-18.461-.507-18.459-.621,8.27-.023,18.468.206,18.46.506,18.457.621" transform="translate(-62.415 -38.333)" fill="#fafafa"/>
                  <path id="Trazado_913870" data-name="Trazado 913870" d="M154.259,129.979s39.653,47.545,42.794,50.237,49.858-25.484,49.858-25.484v.009c5.126-4.563,9.4-7.213,15.111-8.9l.228-.073v.007a67.357,67.357,0,0,1,10.864-2.031c.706-.084,1.354-.156,1.972-.224l-6.3,110.567.322.172s-.137.213-.364.555l-2.29,40.154-.04,0,4.986,53.3H230.237l7.354-71.1c.219-2.326.421-5.085.61-8.176l5.243-52.79,1.455-12.1S204.7,220.15,191.158,219.517c-17.549-.819-58.976-71.742-58.976-71.742Z" transform="translate(-26.722 -26.277)" fill="#e8505b"/>
                  <path id="Trazado_913871" data-name="Trazado 913871" d="M413.532,253.243,394.683,171.17c-2.762-9.292-12.706-19.356-26.522-22a105.323,105.323,0,0,0-15-2.223l-.231,86.992-1.6-.227-10.125,18.134,11.663,4.465-.087,32.842.313,9.242,7.383,53.3h36.255L381.907,270.88l0-2.845,5.071,2.286a19.448,19.448,0,0,0,18.438-1.351,19.866,19.866,0,0,0,7.591-9.391,10.5,10.5,0,0,0,.519-6.337" transform="translate(-68.979 -29.706)" fill="#e8505b"/>
                  <path id="Trazado_913872" data-name="Trazado 913872" d="M154.259,129.979s39.653,47.545,42.794,50.237,49.858-25.484,49.858-25.484v.009c5.126-4.563,9.4-7.213,15.111-8.9l.228-.073v.007a67.357,67.357,0,0,1,10.864-2.031c.706-.084,1.354-.156,1.972-.224l-6.3,110.567.322.172s-.137.213-.364.555l-2.29,40.154-.04,0,4.986,53.3H230.237l7.354-71.1c.219-2.326.421-5.085.61-8.176l5.243-52.79,1.455-12.1S204.7,220.15,191.158,219.517c-17.549-.819-58.976-71.742-58.976-71.742Z" transform="translate(-26.722 -26.277)" fill="#ade3ea"/>
                  <path id="Trazado_913873" data-name="Trazado 913873" d="M413.532,253.243,394.683,171.17c-2.762-9.292-12.706-19.356-26.522-22a105.323,105.323,0,0,0-15-2.223l-.231,86.992-1.6-.227-10.125,18.134,11.663,4.465-.087,32.842.313,9.242,7.383,53.3h36.255L381.907,270.88l0-2.845,5.071,2.286a19.448,19.448,0,0,0,18.438-1.351,19.866,19.866,0,0,0,7.591-9.391,10.5,10.5,0,0,0,.519-6.337" transform="translate(-68.979 -29.706)" fill="#ade3ea"/>
                  <g id="Grupo_1103122" data-name="Grupo 1103122" transform="translate(105.46 103.702)" opacity="0.8">
                    <g id="Grupo_1103121" data-name="Grupo 1103121">
                      <g id="Grupo_1103120" data-name="Grupo 1103120" clip-path="url(#clip-path-5)">
                        <path id="Trazado_913874" data-name="Trazado 913874" d="M154.259,129.979s39.653,47.545,42.794,50.237,49.858-25.484,49.858-25.484v.009c5.126-4.563,9.4-7.213,15.111-8.9l.228-.073v.007a67.357,67.357,0,0,1,10.864-2.031c.706-.084,1.354-.156,1.972-.224l-6.3,110.567.322.172s-.137.213-.364.555l-2.29,40.154-.04,0,4.986,53.3H230.237l7.354-71.1c.219-2.326.421-5.085.61-8.176l5.243-52.79,1.455-12.1S204.7,220.15,191.158,219.517c-17.549-.819-58.976-71.742-58.976-71.742Z" transform="translate(-132.182 -129.979)" fill="#fff"/>
                      </g>
                    </g>
                  </g>
                  <g id="Grupo_1103125" data-name="Grupo 1103125" transform="translate(255.271 117.238)" opacity="0.8">
                    <g id="Grupo_1103124" data-name="Grupo 1103124" transform="translate(16.96)">
                      <g id="Grupo_1103123" data-name="Grupo 1103123" clip-path="url(#clip-path-6)">
                        <path id="Trazado_913875" data-name="Trazado 913875" d="M413.532,253.243,394.683,171.17c-2.762-9.292-12.706-19.356-26.522-22a105.323,105.323,0,0,0-15-2.223l-.231,86.992-1.6-.227-10.125,18.134,11.663,4.465-.087,32.842.313,9.242,7.383,53.3h36.255L381.907,270.88l0-2.845,5.071,2.286a19.448,19.448,0,0,0,18.438-1.351,19.866,19.866,0,0,0,7.591-9.391,10.5,10.5,0,0,0,.519-6.337" transform="translate(-341.211 -146.944)" fill="#fff"/>
                      </g>
                    </g>
                  </g>
                  <path id="Trazado_913876" data-name="Trazado 913876" d="M363.576,234.257a.669.669,0,0,1,.044-.169c.042-.128.095-.288.161-.487l.649-1.877c.562-1.639,1.367-4.034,2.254-7.082a99.167,99.167,0,0,0,2.574-11.017,62.614,62.614,0,0,0,.918-14.265l.226.184-7.817,1.146-.973.143.836-.521a25.71,25.71,0,0,0,5.859-4.519,10.245,10.245,0,0,0,1.465-2.117,8.211,8.211,0,0,0,.757-2.406,13.581,13.581,0,0,0-.476-4.956l-2.333-9.324c-1.507-5.937-2.991-11.249-4.376-15.667s-2.67-7.94-3.6-10.357c-.459-1.212-.836-2.144-1.088-2.777l-.279-.724a1.149,1.149,0,0,1-.082-.252,1.344,1.344,0,0,1,.121.236l.318.708c.278.624.679,1.547,1.161,2.75.977,2.4,2.3,5.916,3.728,10.328s2.938,9.726,4.467,15.661c.752,2.972,1.54,6.091,2.358,9.324a13.942,13.942,0,0,1,.49,5.108,8.6,8.6,0,0,1-.8,2.536,10.7,10.7,0,0,1-1.524,2.207,25.994,25.994,0,0,1-5.955,4.594l-.137-.378,7.82-1.132.215-.031.012.215a62.117,62.117,0,0,1-.98,14.348,95.346,95.346,0,0,1-2.67,11.029c-.922,3.045-1.765,5.43-2.366,7.056-.3.815-.547,1.435-.71,1.856-.079.194-.142.35-.193.475a.65.65,0,0,1-.076.157" transform="translate(-72.432 -29.76)" fill="#263238"/>
                  <path id="Trazado_913877" data-name="Trazado 913877" d="M392.994,248.721c-.114.012-1.23-9.776-2.493-21.858s-2.193-21.893-2.079-21.9,1.23,9.774,2.492,21.862,2.194,21.89,2.08,21.9" transform="translate(-78.521 -41.434)" fill="#263238"/>
                  <path id="Trazado_913878" data-name="Trazado 913878" d="M385.292,291.028a.919.919,0,0,1-.2-.061l-.566-.212-2.18-.852-8.119-3.244-27.813-11.253-.169-.069.052-.176c1.281-4.286,2.651-8.871,4.064-13.6l1.794-5.986.049-.164.17.018,35.265,3.675,10.491,1.136,2.831.326.732.095a1.245,1.245,0,0,1,.248.045,1.161,1.161,0,0,1-.252-.006l-.736-.056-2.838-.254-10.5-1.011-35.279-3.541.219-.146-1.791,5.987c-1.418,4.726-2.792,9.31-4.077,13.6l-.117-.244,27.758,11.388,8.074,3.353,2.156.914.553.244a.892.892,0,0,1,.184.094" transform="translate(-69.997 -51.634)" fill="#263238"/>
                  <path id="Trazado_913879" data-name="Trazado 913879" d="M299.453,252.416a1.384,1.384,0,0,1-.126-.239c-.084-.18-.2-.418-.336-.72-.282-.64-.74-1.567-1.24-2.8a104.083,104.083,0,0,1-3.817-10.694,109.551,109.551,0,0,1-4.348-37.755l.014-.224.223.033,6.764.984,1.055.154-.139.382a30.985,30.985,0,0,1-4.964-3.583,10.135,10.135,0,0,1-3.161-5.028,12.255,12.255,0,0,1,.322-5.728q.673-2.719,1.395-5.289c1.928-6.854,4.07-12.892,5.938-17.923s3.49-9.059,4.6-11.841c.556-1.371.99-2.445,1.295-3.2l.346-.827a1.634,1.634,0,0,1,.132-.277,1.711,1.711,0,0,1-.093.292c-.076.208-.178.487-.308.842l-1.223,3.225c-1.066,2.8-2.635,6.844-4.477,11.883s-3.942,11.08-5.844,17.924c-.474,1.711-.936,3.474-1.377,5.278a11.884,11.884,0,0,0-.312,5.544,9.737,9.737,0,0,0,3.048,4.82,30.716,30.716,0,0,0,4.9,3.531l.859.527-1-.145-1.055-.153-6.764-.987.236-.191a111.229,111.229,0,0,0,4.2,37.651,113.227,113.227,0,0,0,3.69,10.715c.479,1.244.913,2.18,1.171,2.83l.3.736a1.4,1.4,0,0,1,.09.255" transform="translate(-58.456 -29.887)" fill="#263238"/>
                  <rect id="Rectángulo_404251" data-name="Rectángulo 404251" width="15.372" height="5.166" transform="translate(288.824 174.882)" fill="#455a64"/>
                  <path id="Trazado_913880" data-name="Trazado 913880" d="M408.079,254.992c-.022.072-.88-.2-2.3-.389a15.981,15.981,0,0,0-10.69,2.424c-1.2.782-1.859,1.4-1.911,1.345-.02-.021.129-.19.417-.48a10.218,10.218,0,0,1,1.328-1.108,14.6,14.6,0,0,1,10.9-2.472,10.239,10.239,0,0,1,1.676.427,1.879,1.879,0,0,1,.583.253" transform="translate(-79.484 -51.369)" fill="#263238"/>
                  <path id="Trazado_913881" data-name="Trazado 913881" d="M278.721,171.563a3.952,3.952,0,0,1-.056.661q-.09.7-.241,1.881c-.216,1.675-.521,4.027-.894,6.916l-2.86,22.83c-1.119,8.919-2.157,16.99-2.982,22.822-.409,2.916-.764,5.274-1.025,6.9q-.2,1.174-.318,1.87a3.861,3.861,0,0,1-.139.648,4.014,4.014,0,0,1,.057-.661q.09-.7.24-1.881c.217-1.675.521-4.027.894-6.916.736-5.879,1.746-13.934,2.861-22.834,1.118-8.916,2.157-16.986,2.981-22.818.41-2.917.764-5.274,1.026-6.9q.2-1.174.318-1.87a3.937,3.937,0,0,1,.139-.648" transform="translate(-54.624 -34.683)" fill="#263238"/>
                  <path id="Trazado_913882" data-name="Trazado 913882" d="M158.29,139.8c.026.035-.169.161-.4.481a2.762,2.762,0,0,0-.5,1.557,2.711,2.711,0,0,0,.921,2.137,2.541,2.541,0,0,0,3.9-2.429,2.706,2.706,0,0,0-1.514-1.769,2.754,2.754,0,0,0-1.617-.239c-.39.069-.59.189-.61.15a1.169,1.169,0,0,1,.573-.307,2.721,2.721,0,0,1,1.773.127,2.958,2.958,0,0,1,1.768,1.952,2.385,2.385,0,0,1-.174,1.609,3.166,3.166,0,0,1-2.816,1.754,2.377,2.377,0,0,1-1.52-.552,2.955,2.955,0,0,1-.975-2.447,2.714,2.714,0,0,1,.667-1.647,1.147,1.147,0,0,1,.528-.379" transform="translate(-31.757 -28.158)" fill="#263238"/>
                  <path id="Trazado_913883" data-name="Trazado 913883" d="M342.022,248.469l4.134-20.107h-53.31l2.7,45.048s41.445-.072,40.127.052Z" transform="translate(-59.202 -46.166)" fill="#263238"/>
                  <path id="Trazado_913884" data-name="Trazado 913884" d="M347.417,242.075h0a4.733,4.733,0,0,0-4.425,3.022c-.739,1.922-1.818,4.168-3.017,4.821-2.212,1.207-6.033,2.17-8.045,1.186s-10.056-8.225-11.464-7.42-2.615,2.615-1.207,4.224,8.85,6.435,7.441,8.045-17.095-5.473-19.509-4.848-3.821,2.109-2.413,3.076,12.067,4.99,12.67,6.4c0,0-16.09-4.224-16.693-3.218s-1.609,2.615,0,3.218,15.486,4.223,16.693,4.827a29.24,29.24,0,0,0,6.2,1.81,66.258,66.258,0,0,1,6.481,2.056A14.2,14.2,0,0,0,340.14,269l1.629-.664a6.387,6.387,0,0,0,3.966-6.3l-.329-5.486,1.755-4.526Z" transform="translate(-60.625 -48.938)" fill="#b78876"/>
                  <path id="Trazado_913885" data-name="Trazado 913885" d="M144.024,127.772s-7.864-13.3-9.722-14.695-18.366-7.13-19.76-6.665-21.222,4.191-18.9,6.514,16.145-.469,16.145-.469l1.877.9s-11.946,2.108-14.444,3.607c-2.3,1.38-1.456,4.209.734,3.945s12.564-2.45,13.191-2.034-11.276,3-12.548,3.777c-1.713,1.051-1.835,4.128.345,3.941,1.285-.11,12.5-3.2,12.5-3.2s-8.873,3.589-9.683,4.383c-1.326,1.3-.225,3.228,1.7,2.769,1.323-.315,7.581-3.427,9.354-3.844,0,0,1.669.417,3.234,3.755s9.873,9.939,9.873,9.939Z" transform="translate(-19.297 -21.507)" fill="#b78876"/>
                  <path id="Trazado_913886" data-name="Trazado 913886" d="M95.74,114.346c-.032.108,1.32.646,3.64.941a21.5,21.5,0,0,0,4.1.1c1.517-.195,3.174-.457,4.916-.727l3.7-.6-.224-.017c4.933,1.666,8.546,2.745,8.619,2.548s-3.424-1.612-8.329-3.393l-.1-.036-.126.019-3.671.558-4.859.794a26.36,26.36,0,0,1-3.97.1c-2.267-.119-3.663-.423-3.7-.282" transform="translate(-19.355 -22.877)" fill="#aa6550"/>
                  <path id="Trazado_913887" data-name="Trazado 913887" d="M133.662,95.674h0a1.718,1.718,0,0,1-1.718,1.777h-1.623v43.421a4.978,4.978,0,1,1-9.955,0V97.5l-1.546.018a1.752,1.752,0,1,1-.021-3.5h13.145a1.719,1.719,0,0,1,1.718,1.66" transform="translate(-23.662 -19.006)" fill="#f5f5f5"/>
                  <path id="Trazado_913888" data-name="Trazado 913888" d="M133.626,95.639c-.014,0-.011-.139-.085-.393a1.712,1.712,0,0,0-.676-.918,1.683,1.683,0,0,0-.791-.283c-.31-.013-.67,0-1.049,0l-2.63.021-7.2.037-2.173.009a1.9,1.9,0,0,0-1.036.2,1.652,1.652,0,0,0-.708.787,1.617,1.617,0,0,0,.611,1.971,1.777,1.777,0,0,0,1.133.251l1.3-.018.16,0v.16c.014,11.161.03,25.883.049,41.974a11.01,11.01,0,0,0,.14,2.524,4.671,4.671,0,0,0,1.153,2.132,4.783,4.783,0,0,0,2.025,1.287,4.772,4.772,0,0,0,5.867-2.724,5.458,5.458,0,0,0,.363-2.276q0-1.192,0-2.365c.01-6.253.019-12.089.028-17.347.043-10.481.077-18.65.1-23.252v-.073h.073c.719,0,1.369.036,1.895-.006a1.663,1.663,0,0,0,1.105-.678,1.956,1.956,0,0,0,.341-1.019,1.514,1.514,0,0,1-.278,1.063,1.736,1.736,0,0,1-1.15.745c-.561.057-1.186.026-1.912.043l.074-.073c.018,4.6.053,12.77.1,23.252.009,5.259.018,11.095.028,17.347q0,1.173,0,2.365a5.873,5.873,0,0,1-.39,2.43,5.183,5.183,0,0,1-6.366,2.963,5.189,5.189,0,0,1-2.2-1.4,5.091,5.091,0,0,1-1.254-2.318,5.437,5.437,0,0,1-.151-1.326v-1.3c.019-16.091.037-30.813.049-41.974l.16.157-1.3.012a2.087,2.087,0,0,1-1.3-.307,1.91,1.91,0,0,1-.71-2.334,1.93,1.93,0,0,1,.837-.92,2.181,2.181,0,0,1,1.17-.227l2.173.009,7.2.037,2.63.021c.384.007.728,0,1.06.019a1.773,1.773,0,0,1,.832.321,1.723,1.723,0,0,1,.669.982,1.222,1.222,0,0,1,.04.405" transform="translate(-23.626 -18.971)" fill="#263238"/>
                  <path id="Trazado_913889" data-name="Trazado 913889" d="M126.572,148.681h0a3.724,3.724,0,0,0,3.724-3.724V116.041h-7.447v28.917a3.724,3.724,0,0,0,3.724,3.724" transform="translate(-24.835 -23.459)" fill="#932b2c"/>
                  <path id="Trazado_913890" data-name="Trazado 913890" d="M123.115,98.428a17.287,17.287,0,0,1,3.77-.207,17.286,17.286,0,0,1,3.771.207,17.286,17.286,0,0,1-3.771.207,17.287,17.287,0,0,1-3.77-.207" transform="translate(-24.889 -19.856)" fill="#263238"/>
                  <path id="Trazado_913891" data-name="Trazado 913891" d="M130.292,115.741a1.3,1.3,0,0,0-1.079-1.119,4.984,4.984,0,0,0-1.892.1l-3.653.531a1.223,1.223,0,0,0-.688.25.424.424,0,0,0,0,.643" transform="translate(-24.832 -23.159)" fill="#e8505b"/>
                  <g id="Grupo_1103128" data-name="Grupo 1103128" transform="translate(101.911 95.71)" opacity="0.21">
                    <g id="Grupo_1103127" data-name="Grupo 1103127">
                      <g id="Grupo_1103126" data-name="Grupo 1103126" clip-path="url(#clip-path-7)">
                        <path id="Trazado_913892" data-name="Trazado 913892" d="M127.734,121.089a1.127,1.127,0,1,0,1.127-1.127,1.126,1.126,0,0,0-1.127,1.127" transform="translate(-127.734 -119.962)" fill="#fff"/>
                      </g>
                    </g>
                  </g>
                  <g id="Grupo_1103131" data-name="Grupo 1103131" transform="translate(101.883 101.318)" opacity="0.21">
                    <g id="Grupo_1103130" data-name="Grupo 1103130">
                      <g id="Grupo_1103129" data-name="Grupo 1103129" clip-path="url(#clip-path-8)">
                        <path id="Trazado_913893" data-name="Trazado 913893" d="M127.7,127.554a.563.563,0,1,0,.563-.563.563.563,0,0,0-.563.563" transform="translate(-127.699 -126.991)" fill="#fff"/>
                      </g>
                    </g>
                  </g>
                  <path id="Trazado_913894" data-name="Trazado 913894" d="M148.762,129.586c-1.091,1.048-2.919.825-4.229.065s-2.323-1.939-3.576-2.79c-3.743-2.546-9.064-1.838-12.682-4.56-.5-.38-1.007-1.006-.744-1.58.244-.531.957-.6,1.541-.6l14.995.112" transform="translate(-25.767 -24.284)" fill="#b78876"/>
                  <path id="Trazado_913895" data-name="Trazado 913895" d="M143.963,120.131a6.007,6.007,0,0,0-1.62-.179c-1.044-.059-2.554-.116-4.421-.169l-6.557-.14-1.895-.028a2.971,2.971,0,0,0-2.193.493,1.263,1.263,0,0,0-.222,1.4,2.6,2.6,0,0,0,.768.957,9.782,9.782,0,0,0,1.9,1.128c2.723,1.206,5.491,1.388,7.8,2.092a11.291,11.291,0,0,1,3.1,1.349c.881.578,1.621,1.287,2.372,1.869a5.279,5.279,0,0,0,4.238,1.421c1.105-.233,1.458-.84,1.421-.842a4.386,4.386,0,0,1-1.469.512,5.113,5.113,0,0,1-3.807-1.56c-.7-.589-1.419-1.331-2.358-1.988a11.634,11.634,0,0,0-3.27-1.516c-2.4-.765-5.16-.99-7.673-2.115a9.172,9.172,0,0,1-1.723-1.012c-.491-.382-.739-.907-.476-1.115.251-.271.94-.267,1.582-.257h1.9l6.559-.043c1.867-.024,3.378-.059,4.422-.1a6.024,6.024,0,0,0,1.623-.155" transform="translate(-25.661 -24.18)" fill="#aa6550"/>
                </g>
              </g>
              <g id="Grupo_1103138" data-name="Grupo 1103138">
                <g id="Grupo_1103137" data-name="Grupo 1103137" clip-path="url(#clip-path)">
                  <path id="Trazado_913896" data-name="Trazado 913896" d="M35.478,354.81c-.971,2.658-4.217,2.729-5.994,1.739s-2.9-2.812-3.952-4.556c-2.394-3.986-4.855-8.181-5.1-12.824a7.608,7.608,0,0,1,.731-4.051,3.977,3.977,0,0,1,3.319-2.184c1.645,0,3,1.247,4.074,2.494a32.677,32.677,0,0,1,6.734,12.716,11.329,11.329,0,0,1,.192,6.667" transform="translate(-4.126 -67.306)" fill="#2994a3"/>
                  <path id="Trazado_913898" data-name="Trazado 913898" d="M32.494,376.471a14.066,14.066,0,0,0-8.705,1.225,7.254,7.254,0,0,0-3.669,2.97c-.734,1.427-.392,3.5,1.067,4.17a4.131,4.131,0,0,0,2.8-.034c2.222-.621,4.591-1.673,6.729-.807,1.22.494,2.236,1.585,3.551,1.638a2.974,2.974,0,0,0,2.784-2.249,5.078,5.078,0,0,0-.61-3.717,5.722,5.722,0,0,0-3.951-3.2" transform="translate(-3.992 -76.056)" fill="#1f6f7a"/>
                  <path id="Trazado_913899" data-name="Trazado 913899" d="M44.939,357.056a8.436,8.436,0,0,1-3.269-7.161,14.958,14.958,0,0,1,2.723-7.629,24.75,24.75,0,0,1,6.7-6.815,8.772,8.772,0,0,1,3.415-1.562A3.885,3.885,0,0,1,58,334.9c1.263,1.373.977,3.524.53,5.335a62.67,62.67,0,0,1-3.1,9.35c-1.028,2.437-2.29,4.907-4.433,6.455s-4.651,2.1-6.358.786" transform="translate(-8.423 -67.486)" fill="#33b9cb"/>
                  <path id="Trazado_913900" data-name="Trazado 913900" d="M46.37,398.136a5.082,5.082,0,0,1-.413-.98l-1.012-2.705a41.584,41.584,0,0,0-1.711-3.908,32.572,32.572,0,0,0-2.764-4.414,18.368,18.368,0,0,0-3.616-3.7,9.5,9.5,0,0,0-3.793-1.753,9.014,9.014,0,0,0-2.832-.116,5.033,5.033,0,0,1-1.052.124A4.958,4.958,0,0,1,30.2,380.4a8.211,8.211,0,0,1,2.915-.018,9.465,9.465,0,0,1,3.969,1.73,17.925,17.925,0,0,1,3.729,3.759,30.442,30.442,0,0,1,2.774,4.5,35.761,35.761,0,0,1,1.642,3.981c.4,1.156.691,2.1.883,2.758a4.982,4.982,0,0,1,.253,1.033" transform="translate(-5.898 -76.873)" fill="#263238"/>
                  <path id="Trazado_913901" data-name="Trazado 913901" d="M45.35,388.77a2.1,2.1,0,0,1-.153-.465c-.094-.355-.212-.8-.357-1.352-.31-1.173-.763-2.868-1.384-4.946-1.221-4.162-3.124-9.847-5.516-16.017s-4.853-11.641-6.8-15.518c-.475-.975-.923-1.847-1.329-2.606s-.74-1.423-1.04-1.95l-.665-1.229a2.019,2.019,0,0,1-.207-.444,2.037,2.037,0,0,1,.282.4l.738,1.19c.323.515.687,1.163,1.106,1.917s.9,1.615,1.39,2.583a158.491,158.491,0,0,1,6.927,15.5c2.4,6.182,4.259,11.9,5.406,16.089.586,2.094.994,3.8,1.253,4.992.112.557.205,1.011.278,1.371a2.064,2.064,0,0,1,.068.484" transform="translate(-5.64 -69.592)" fill="#263238"/>
                  <path id="Trazado_913902" data-name="Trazado 913902" d="M45.692,377.1a9.317,9.317,0,0,1-.366-1.414c-.19-.92-.415-2.263-.588-3.937a52.187,52.187,0,0,1-.243-5.9,51.031,51.031,0,0,1,.571-7.21,36.316,36.316,0,0,1,4-12.473,17.962,17.962,0,0,1,1.21-1.924c.191-.275.354-.541.532-.765l.51-.6A9.17,9.17,0,0,1,52.3,341.8a43.485,43.485,0,0,0-2.966,4.511A38.27,38.27,0,0,0,45.5,358.7a54.362,54.362,0,0,0-.6,7.153,58.494,58.494,0,0,0,.148,5.867c.132,1.666.31,3.009.448,3.934a9.354,9.354,0,0,1,.2,1.443" transform="translate(-8.993 -69.098)" fill="#263238"/>
                </g>
              </g>
              <g id="Grupo_1103164" data-name="Grupo 1103164">
                <g id="Grupo_1103163" data-name="Grupo 1103163" clip-path="url(#clip-path)">
                  <path id="Trazado_913903" data-name="Trazado 913903" d="M167.063,217.31v2.985h4.146v27.031l-16.3,36.212a6.188,6.188,0,0,0,5.642,8.728h32.4a6.188,6.188,0,0,0,5.636-8.742l-16.933-37.359v-25.7h3.98V217.31Z" transform="translate(-31.204 -43.931)" fill="#f5f5f5"/>
                  <path id="Trazado_913904" data-name="Trazado 913904" d="M167.015,217.281s.1-.007.3-.011l.916-.012,3.6-.027,13.755-.064h.114v.115c0,.97.006,2.042.009,3.151v.122h-.123l-3.98.01.132-.132c.012,7.208.026,15.932.043,25.7l-.016-.073c3.578,7.876,7.51,16.533,11.7,25.752l3.185,7.019q.807,1.78,1.625,3.582a16.581,16.581,0,0,1,.769,1.86,6.355,6.355,0,0,1,.243,2.04,6.469,6.469,0,0,1-1.465,3.819,6.375,6.375,0,0,1-3.53,2.149l-.519.1-.528.037c-.357.033-.693.018-1.038.022h-6.217l-22.034,0H161.3a8.511,8.511,0,0,1-2.666-.285,6.373,6.373,0,0,1-4.03-8.519c.669-1.553,1.367-3.049,2.036-4.548l14.386-31.852-.013.061c.034-11.992.062-21.325.078-27.031l.071.071-4.146-.025h-.047v-.046c.012-1.008.021-1.754.027-2.263.008-.492.019-.721.019-.721s.011.252.019.748.015,1.241.027,2.237l-.046-.046,4.146-.025h.071v.071c.017,5.705.044,15.039.078,27.031v.031l-.013.03c-4.093,9.122-8.941,19.924-14.308,31.887-.665,1.494-1.368,3.009-2.024,4.538a5.977,5.977,0,0,0,3.784,7.985,8.091,8.091,0,0,0,2.549.265h2.659l22.034,0h6.217c.341,0,.691.01,1.016-.022l.495-.034.486-.1a5.95,5.95,0,0,0,3.3-2.007,6.061,6.061,0,0,0,1.372-3.573,5.944,5.944,0,0,0-.227-1.908,16.2,16.2,0,0,0-.748-1.807L196.282,279l-3.179-7.022-11.654-25.772-.015-.034v-.038c.016-9.772.03-18.5.042-25.7V220.3h.132l3.98.01-.123.122c0-1.109.006-2.18.009-3.151l.114.114-13.688-.064-3.625-.027-.936-.012c-.211,0-.324-.011-.324-.011" transform="translate(-31.157 -43.902)" fill="#263238"/>
                  <path id="Trazado_913905" data-name="Trazado 913905" d="M161.711,289.057a5.4,5.4,0,0,1,5.426-3.28,30.384,30.384,0,0,0,5.291.388c3.071-.274,5.717-2.155,8.448-3.586s6.121-2.428,8.819-.934l6.854,13.6a4.738,4.738,0,0,1-4.232,6.871H163.344a4.738,4.738,0,0,1-4.366-6.58Z" transform="translate(-32.063 -56.787)" fill="#f54749"/>
                  <path id="Trazado_913906" data-name="Trazado 913906" d="M190.766,285.3a14.308,14.308,0,0,0-3.386,1.857c-.965.71-2.032,1.667-3.3,2.654a10.954,10.954,0,0,1-4.675,2.345,13.087,13.087,0,0,1-5.224-.312c-1.563-.365-2.939-.761-4.106-1.072L167.326,290a5.126,5.126,0,0,1-.995-.338,5.08,5.08,0,0,1,1.036.182l2.784.645c1.174.274,2.567.642,4.115.983a13.158,13.158,0,0,0,5.067.277,10.865,10.865,0,0,0,4.518-2.24c1.261-.958,2.358-1.9,3.358-2.59a10.633,10.633,0,0,1,2.536-1.359,4.836,4.836,0,0,1,.752-.219c.175-.04.267-.053.27-.04" transform="translate(-33.625 -57.676)" fill="#fafafa"/>
                  <path id="Trazado_913907" data-name="Trazado 913907" d="M194.355,329.912c-.992-4.25-3.76-8.254-7.811-9.879a2.2,2.2,0,0,0-2.252.048,2.422,2.422,0,0,0-.56,1.768q-.182,4.459-.363,8.92a6.008,6.008,0,0,0-1.624-3.148c-.925-.764-2.587-.737-3.1.346-.407.854.061,1.838.372,2.733a8.234,8.234,0,0,1-2.261,8.641c-1.641,1.455-3.812,2.186-5.515,3.569a8.984,8.984,0,0,0,3.829,15.768h5.867c3.4-.069,7.367-3.364,9.492-6.016a26.6,26.6,0,0,0,4.442-9.6c1.1-4.223.481-8.9-.511-13.154" transform="translate(-33.949 -64.64)" fill="#fbb5b6"/>
                  <path id="Trazado_913909" data-name="Trazado 913909" d="M176.868,362.811c-2.555-1.3-3.929-4.831-3.933-6.927s1.591-4.379,3.3-5.6c1.975-1.407,4.758-1.537,6.419-3.3,1.266-1.345,1.563-3.313,2.408-4.955a2.866,2.866,0,0,1,2.46-1.837c1.3.094,2.008,1.551,2.295,2.821.81,3.589,1.191,8.485-.059,11.118-1.579,3.324-3.606,7.422-7.812,8.678" transform="translate(-34.961 -68.773)" fill="#932b2c"/>
                  <path id="Trazado_913910" data-name="Trazado 913910" d="M194.948,330.889a1.748,1.748,0,0,0-1.013-.5h-.281a1.511,1.511,0,0,0-1.548,1.691,1.474,1.474,0,0,0,1.119,1.261,1.8,1.8,0,0,0,1.652-.5,1.514,1.514,0,0,0,.458-.911,1.356,1.356,0,0,0-.387-1.044" transform="translate(-38.835 -66.792)" fill="#e8505b"/>
                  <rect id="Rectángulo_404258" data-name="Rectángulo 404258" width="8.231" height="20.504" transform="translate(141.483 293.446)" fill="#455a64"/>
                  <path id="Trazado_913911" data-name="Trazado 913911" d="M162.793,402.186h0a5.488,5.488,0,0,1,5.488-5.488h20.5a5.487,5.487,0,0,1,5.487,5.488Z" transform="translate(-32.91 -80.196)" fill="#263238"/>
                  <path id="Trazado_913912" data-name="Trazado 913912" d="M190.066,395.966H169.128a2.888,2.888,0,0,1,2.887-2.888h15.162a2.888,2.888,0,0,1,2.888,2.888" transform="translate(-34.191 -79.465)" fill="#455a64"/>
                  <path id="Trazado_913913" data-name="Trazado 913913" d="M216.48,229.049c0,.116-12.256.208-27.372.208s-27.374-.093-27.374-.208,12.254-.207,27.374-.207,27.372.093,27.372.207" transform="translate(-32.696 -46.263)" fill="#263238"/>
                  <path id="Trazado_913914" data-name="Trazado 913914" d="M232.051,364.2c-.115,0-.207-33.121-.207-73.969s.093-73.975.207-73.975.207,33.114.207,73.975-.093,73.969-.207,73.969" transform="translate(-46.87 -43.718)" fill="#263238"/>
                  <path id="Trazado_913915" data-name="Trazado 913915" d="M238.222,401.191a8.194,8.194,0,0,0-16.388,0Z" transform="translate(-44.846 -79.448)" fill="#455a64"/>
                  <path id="Trazado_913916" data-name="Trazado 913916" d="M231.066,223.968a4.1,4.1,0,1,0,0,8.194Z" transform="translate(-45.884 -45.277)" fill="#455a64"/>
                  <path id="Trazado_913917" data-name="Trazado 913917" d="M319.1,320.908h0a1.718,1.718,0,0,0,1.718,1.777h1.623v43.421a4.978,4.978,0,0,0,9.955,0V322.733l1.546.018a1.751,1.751,0,1,0,.021-3.5H320.82a1.719,1.719,0,0,0-1.718,1.66" transform="translate(-64.51 -64.539)" fill="#f5f5f5"/>
                  <path id="Trazado_913918" data-name="Trazado 913918" d="M319.1,320.872a1.213,1.213,0,0,1,.041-.405,1.717,1.717,0,0,1,.668-.982,1.773,1.773,0,0,1,.832-.321c.333-.021.677-.012,1.06-.019l2.63-.021,7.2-.038,2.173-.009a2.181,2.181,0,0,1,1.17.227,1.934,1.934,0,0,1,.837.92,1.91,1.91,0,0,1-.71,2.334,2.088,2.088,0,0,1-1.3.307l-1.3-.012.16-.157c.013,11.161.03,25.883.049,41.974v1.3a5.437,5.437,0,0,1-.151,1.326,5.086,5.086,0,0,1-1.254,2.318,5.189,5.189,0,0,1-2.2,1.4,5.178,5.178,0,0,1-6.366-2.963,5.87,5.87,0,0,1-.39-2.43q0-1.192,0-2.365c.01-6.253.019-12.089.028-17.347.043-10.481.077-18.65.1-23.252l.073.073c-.727-.018-1.352.014-1.912-.043a1.736,1.736,0,0,1-1.15-.745,1.514,1.514,0,0,1-.278-1.063,1.956,1.956,0,0,0,.341,1.019,1.661,1.661,0,0,0,1.105.678c.526.042,1.176,0,1.895.006h.073v.073c.019,4.6.053,12.77.1,23.252.009,5.259.018,11.095.028,17.347q0,1.173,0,2.365a5.457,5.457,0,0,0,.363,2.276,4.776,4.776,0,0,0,5.867,2.724,4.783,4.783,0,0,0,2.025-1.287,4.671,4.671,0,0,0,1.153-2.132,11.009,11.009,0,0,0,.14-2.524c.018-16.091.037-30.813.049-41.974v-.16l.16,0,1.3.019a1.782,1.782,0,0,0,1.133-.251,1.616,1.616,0,0,0,.611-1.971,1.65,1.65,0,0,0-.708-.788,1.9,1.9,0,0,0-1.036-.2l-2.173-.009-7.2-.037-2.63-.021c-.379,0-.739-.015-1.049,0a1.692,1.692,0,0,0-.791.283,1.712,1.712,0,0,0-.676.918c-.074.254-.072.395-.085.393" transform="translate(-64.507 -64.504)" fill="#263238"/>
                  <path id="Trazado_913919" data-name="Trazado 913919" d="M328.517,373.913h0a3.724,3.724,0,0,1-3.724-3.724V341.273h7.448V370.19a3.724,3.724,0,0,1-3.724,3.724" transform="translate(-65.66 -68.992)" fill="#f54749"/>
                  <path id="Trazado_913920" data-name="Trazado 913920" d="M331.949,323.661a34.367,34.367,0,0,1-7.54,0,34.367,34.367,0,0,1,7.54,0" transform="translate(-65.583 -65.389)" fill="#263238"/>
                  <path id="Trazado_913921" data-name="Trazado 913921" d="M324.793,340.974a1.3,1.3,0,0,1,1.079-1.119,4.984,4.984,0,0,1,1.892.1l3.653.531a1.223,1.223,0,0,1,.688.25.424.424,0,0,1,0,.643" transform="translate(-65.66 -68.692)" fill="#e8505b"/>
                  <g id="Grupo_1103144" data-name="Grupo 1103144" transform="translate(260.429 275.41)" opacity="0.21">
                    <g id="Grupo_1103143" data-name="Grupo 1103143">
                      <g id="Grupo_1103142" data-name="Grupo 1103142" clip-path="url(#clip-path-7)">
                        <path id="Trazado_913922" data-name="Trazado 913922" d="M328.67,346.322a1.127,1.127,0,1,1-1.127-1.127,1.126,1.126,0,0,1,1.127,1.127" transform="translate(-326.418 -345.195)" fill="#fff"/>
                      </g>
                    </g>
                  </g>
                  <g id="Grupo_1103147" data-name="Grupo 1103147" transform="translate(261.584 281.018)" opacity="0.21">
                    <g id="Grupo_1103146" data-name="Grupo 1103146">
                      <g id="Grupo_1103145" data-name="Grupo 1103145" clip-path="url(#clip-path-12)">
                        <path id="Trazado_913923" data-name="Trazado 913923" d="M328.991,352.786a.563.563,0,1,1-.563-.563.563.563,0,0,1,.563.563" transform="translate(-327.865 -352.223)" fill="#fff"/>
                      </g>
                    </g>
                  </g>
                  <path id="Trazado_913924" data-name="Trazado 913924" d="M351.326,320.908h0a1.718,1.718,0,0,0,1.718,1.777h1.623v43.421a4.978,4.978,0,1,0,9.955,0V322.733l1.546.018a1.751,1.751,0,1,0,.021-3.5H353.043a1.719,1.719,0,0,0-1.718,1.66" transform="translate(-71.024 -64.539)" fill="#f5f5f5"/>
                  <path id="Trazado_913925" data-name="Trazado 913925" d="M351.323,320.872a1.221,1.221,0,0,1,.04-.405,1.722,1.722,0,0,1,.669-.982,1.773,1.773,0,0,1,.832-.321c.333-.021.677-.012,1.06-.019l2.63-.021,7.2-.038,2.172-.009a2.181,2.181,0,0,1,1.17.227,1.933,1.933,0,0,1,.837.92,1.91,1.91,0,0,1-.71,2.334,2.088,2.088,0,0,1-1.3.307l-1.3-.012.16-.157c.013,11.161.03,25.883.049,41.974v1.3a5.44,5.44,0,0,1-.151,1.326,5.087,5.087,0,0,1-1.254,2.318,5.189,5.189,0,0,1-2.2,1.4,5.178,5.178,0,0,1-6.366-2.963,5.858,5.858,0,0,1-.39-2.43q0-1.192,0-2.365c.01-6.253.019-12.089.028-17.347.043-10.481.077-18.65.1-23.252l.074.073c-.727-.018-1.352.014-1.912-.043a1.736,1.736,0,0,1-1.15-.745,1.514,1.514,0,0,1-.278-1.063,1.956,1.956,0,0,0,.341,1.019,1.661,1.661,0,0,0,1.1.678c.526.042,1.176,0,1.895.006h.073v.073c.019,4.6.053,12.77.1,23.252.009,5.259.018,11.095.028,17.347q0,1.173,0,2.365a5.459,5.459,0,0,0,.363,2.276,4.776,4.776,0,0,0,5.867,2.724,4.784,4.784,0,0,0,2.025-1.287,4.679,4.679,0,0,0,1.153-2.132,10.966,10.966,0,0,0,.139-2.524c.019-16.091.037-30.813.05-41.974v-.16l.16,0,1.3.019a1.782,1.782,0,0,0,1.133-.251,1.616,1.616,0,0,0,.611-1.971,1.65,1.65,0,0,0-.708-.788,1.9,1.9,0,0,0-1.036-.2l-2.172-.009-7.2-.037-2.63-.021c-.379,0-.74-.015-1.049,0a1.688,1.688,0,0,0-.791.283,1.712,1.712,0,0,0-.676.918c-.075.254-.072.395-.085.393" transform="translate(-71.021 -64.504)" fill="#263238"/>
                  <path id="Trazado_913926" data-name="Trazado 913926" d="M360.74,373.913h0a3.724,3.724,0,0,1-3.724-3.724V341.273h7.447V370.19a3.724,3.724,0,0,1-3.724,3.724" transform="translate(-72.174 -68.992)" fill="#f54749"/>
                  <path id="Trazado_913927" data-name="Trazado 913927" d="M364.172,323.661a34.367,34.367,0,0,1-7.54,0,34.367,34.367,0,0,1,7.54,0" transform="translate(-72.097 -65.389)" fill="#263238"/>
                  <path id="Trazado_913928" data-name="Trazado 913928" d="M357.016,340.974a1.3,1.3,0,0,1,1.079-1.119,4.984,4.984,0,0,1,1.892.1l3.653.531a1.222,1.222,0,0,1,.688.25.423.423,0,0,1,0,.643" transform="translate(-72.174 -68.692)" fill="#e8505b"/>
                  <g id="Grupo_1103150" data-name="Grupo 1103150" transform="translate(286.137 275.41)" opacity="0.21">
                    <g id="Grupo_1103149" data-name="Grupo 1103149">
                      <g id="Grupo_1103148" data-name="Grupo 1103148" clip-path="url(#clip-path-13)">
                        <path id="Trazado_913929" data-name="Trazado 913929" d="M360.893,346.322a1.127,1.127,0,1,1-1.127-1.127,1.126,1.126,0,0,1,1.127,1.127" transform="translate(-358.64 -345.195)" fill="#fff"/>
                      </g>
                    </g>
                  </g>
                  <g id="Grupo_1103153" data-name="Grupo 1103153" transform="translate(287.292 281.018)" opacity="0.21">
                    <g id="Grupo_1103152" data-name="Grupo 1103152">
                      <g id="Grupo_1103151" data-name="Grupo 1103151" clip-path="url(#clip-path-14)">
                        <path id="Trazado_913930" data-name="Trazado 913930" d="M361.214,352.786a.563.563,0,1,1-.563-.563.563.563,0,0,1,.563.563" transform="translate(-360.087 -352.223)" fill="#fff"/>
                      </g>
                    </g>
                  </g>
                  <g id="Grupo_1103156" data-name="Grupo 1103156" transform="translate(260.517 286.353)" opacity="0.3">
                    <g id="Grupo_1103155" data-name="Grupo 1103155">
                      <g id="Grupo_1103154" data-name="Grupo 1103154" clip-path="url(#clip-path-15)">
                        <path id="Trazado_913931" data-name="Trazado 913931" d="M327.567,372.819c-.574,0-1.039-3.114-1.039-6.954s.465-6.955,1.039-6.955,1.039,3.113,1.039,6.955-.465,6.954-1.039,6.954" transform="translate(-326.528 -358.91)" fill="#fff"/>
                      </g>
                    </g>
                  </g>
                  <g id="Grupo_1103159" data-name="Grupo 1103159" transform="translate(285.865 286.353)" opacity="0.3">
                    <g id="Grupo_1103158" data-name="Grupo 1103158">
                      <g id="Grupo_1103157" data-name="Grupo 1103157" clip-path="url(#clip-path-15)">
                        <path id="Trazado_913932" data-name="Trazado 913932" d="M359.339,372.819c-.574,0-1.04-3.114-1.04-6.954s.465-6.955,1.04-6.955,1.038,3.113,1.038,6.955-.465,6.954-1.038,6.954" transform="translate(-358.299 -358.91)" fill="#fff"/>
                      </g>
                    </g>
                  </g>
                  <path id="Trazado_913933" data-name="Trazado 913933" d="M297.169,319.247c.115,0,.207,14.812.207,33.08s-.093,33.082-.207,33.082-.207-14.809-.207-33.082.093-33.08.207-33.08" transform="translate(-60.034 -64.539)" fill="#263238"/>
                  <path id="Trazado_913934" data-name="Trazado 913934" d="M418.022,319.341c.115,0,.207,14.812.207,33.08s-.093,33.082-.207,33.082-.207-14.809-.207-33.082.093-33.08.207-33.08" transform="translate(-84.465 -64.558)" fill="#263238"/>
                  <path id="Trazado_913935" data-name="Trazado 913935" d="M393.6,333.869c0,.115-21.73.207-48.529.207s-48.534-.093-48.534-.207,21.725-.207,48.534-.207,48.529.093,48.529.207" transform="translate(-59.948 -67.453)" fill="#263238"/>
                  <path id="Trazado_913936" data-name="Trazado 913936" d="M303.34,401.191a8.194,8.194,0,0,0-16.388,0Z" transform="translate(-58.01 -79.448)" fill="#455a64"/>
                  <path id="Trazado_913937" data-name="Trazado 913937" d="M424.193,401.5a8.194,8.194,0,1,0-16.388,0Z" transform="translate(-82.442 -79.511)" fill="#455a64"/>
                  <path id="Trazado_913938" data-name="Trazado 913938" d="M296.539,338.154a4.1,4.1,0,1,0,0-8.194Z" transform="translate(-59.948 -66.705)" fill="#455a64"/>
                  <path id="Trazado_913939" data-name="Trazado 913939" d="M417.16,329.96a4.1,4.1,0,1,0,0,8.194Z" transform="translate(-83.505 -66.705)" fill="#455a64"/>
                  <path id="Trazado_913940" data-name="Trazado 913940" d="M343.9,280.578s-.3.014-.87.022l-2.555.02-9.825.039-36.137.066-11.973.014-6.37.006c-1.082,0-2.179-.014-3.258.064a12.669,12.669,0,0,0-3.191.757,11.213,11.213,0,0,0-2.93,1.589,12.285,12.285,0,0,0-2.442,2.349,12.888,12.888,0,0,0-1.744,2.967,13.37,13.37,0,0,0-.862,3.387c-.182,2.347.034,4.791-.184,7.261a26.025,26.025,0,0,1-1.793,7.28,24.512,24.512,0,0,1-10.144,11.518,23.926,23.926,0,0,1-15.679,3.069A24.3,24.3,0,0,1,213.089,297.4c0-23.287,0-45.469-.006-65.645.006-10.087.013-19.672.019-28.644a15.288,15.288,0,0,0-15.947-15.279,15.081,15.081,0,0,0-9.738,4.066,15.987,15.987,0,0,0-3.047,3.891,16.534,16.534,0,0,0-1.57,4.373,22.17,22.17,0,0,0-.3,4.346q0,2.112-.009,4.059c-.006,2.6-.013,4.967-.018,7.1-.018,4.26-.03,7.569-.039,9.825-.01,1.116-.016,1.97-.021,2.555s-.022.87-.022.87-.014-.3-.021-.87-.012-1.439-.021-2.555c-.009-2.255-.022-5.565-.039-9.825-.006-2.133-.012-4.5-.018-7.1q0-1.947-.009-4.059a22.365,22.365,0,0,1,.282-4.39,16.755,16.755,0,0,1,1.58-4.448,16.256,16.256,0,0,1,3.085-3.965,15.35,15.35,0,0,1,9.905-4.166,15.6,15.6,0,0,1,16.3,15.572c.006,8.972.012,18.557.019,28.644.012,20.174.025,42.353.039,65.637A23.894,23.894,0,0,0,234,320.582a23.54,23.54,0,0,0,15.422-3.009,24.134,24.134,0,0,0,9.991-11.325,25.683,25.683,0,0,0,1.773-7.164c.218-2.433,0-4.849.193-7.268a13.74,13.74,0,0,1,.892-3.484,13.21,13.21,0,0,1,1.8-3.05,12.58,12.58,0,0,1,2.515-2.411,14.046,14.046,0,0,1,1.452-.93,14.188,14.188,0,0,1,1.562-.7,13,13,0,0,1,3.28-.771c1.12-.079,2.208-.061,3.29-.061l6.37.006,11.973.014,36.137.066,9.825.038,2.555.021c.575.007.87.022.87.022" transform="translate(-36.851 -37.91)" fill="#263238"/>
                  <path id="Trazado_913941" data-name="Trazado 913941" d="M329.062,304.156a58.266,58.266,0,0,1,0,9.805,57.815,57.815,0,0,1,0-9.805" transform="translate(-66.481 -61.488)" fill="#263238"/>
                  <path id="Trazado_913942" data-name="Trazado 913942" d="M359.548,304.156a58.052,58.052,0,0,1,0,9.805,58.035,58.035,0,0,1,0-9.805" transform="translate(-72.644 -61.488)" fill="#263238"/>
                  <path id="Trazado_913943" data-name="Trazado 913943" d="M80.077,192.945l4.829,5.282a8.086,8.086,0,0,1,1.79,7.737L68.454,268.026a11.769,11.769,0,0,0,11.291,15.087h34.338a12.45,12.45,0,0,0,11.894-16.129l-19.04-61.558a8.086,8.086,0,0,1,1.917-8.016l4.325-4.465Z" transform="translate(-13.741 -39.006)" fill="#f5f5f5"/>
                  <path id="Trazado_913944" data-name="Trazado 913944" d="M80.03,192.91l33.1-.135.32,0-.223.231-3.29,3.408a23.427,23.427,0,0,0-1.66,1.809,7.813,7.813,0,0,0-1.162,2.2,7.962,7.962,0,0,0-.022,5.1l1.646,5.3,7.27,23.428c2.59,8.355,5.334,17.213,8.2,26.452q.536,1.732,1.078,3.482.272.875.543,1.754c.188.582.363,1.174.5,1.789a12.9,12.9,0,0,1,.341,3.746l-.114.943-.058.472-.112.463-.225.927-.327.9a12.6,12.6,0,0,1-12.112,8.115l-27.415,0-6.581,0a12,12,0,0,1-11.983-12.418c.041-.514.1-1.028.161-1.537.118-.5.224-1,.351-1.492q.426-1.444.847-2.871l1.658-5.626,3.173-10.756c2.049-6.939,3.958-13.4,5.7-19.305l4.713-15.924,1.938-6.531c.148-.5.3-.993.414-1.472a8.577,8.577,0,0,0,.184-1.437,8.087,8.087,0,0,0-.355-2.658,8.194,8.194,0,0,0-1.046-2.164,15.693,15.693,0,0,0-1.377-1.632l-2.252-2.507-1.822-2.04,1.906,2.038,2.271,2.439a15.178,15.178,0,0,1,1.392,1.62,8.177,8.177,0,0,1,1.463,4.909,8.749,8.749,0,0,1-.178,1.471c-.113.5-.264.985-.409,1.487l-1.9,6.541-4.655,15.942-5.652,19.32L71.111,259.44q-.814,2.774-1.65,5.628a24.95,24.95,0,0,0-1.336,5.809,11.6,11.6,0,0,0,11.6,12l6.581,0,27.415,0a12.189,12.189,0,0,0,11.727-7.848l.318-.868.218-.9.109-.448.056-.456.112-.912a12.518,12.518,0,0,0-.33-3.624c-.129-.589-.3-1.177-.491-1.763L124.9,264.3q-.541-1.75-1.076-3.483l-8.169-26.461c-2.576-8.358-5-16.213-7.227-23.441q-.834-2.711-1.632-5.3a8.276,8.276,0,0,1,.038-5.292,8.1,8.1,0,0,1,1.214-2.276,23.371,23.371,0,0,1,1.689-1.831l3.3-3.4.1.229-33.1-.135" transform="translate(-13.693 -38.971)" fill="#263238"/>
                  <path id="Trazado_913945" data-name="Trazado 913945" d="M54.947,359.035c-.116,0-.208-35.45-.208-79.17,0-43.736.093-79.178.208-79.178s.207,35.442.207,79.178c0,43.72-.093,79.17-.207,79.17" transform="translate(-11.066 -40.571)" fill="#263238"/>
                  <path id="Trazado_913946" data-name="Trazado 913946" d="M127.1,212.546c0,.115-15.435.207-34.47.207s-34.474-.093-34.474-.207,15.432-.207,34.474-.207,34.47.093,34.47.207" transform="translate(-11.757 -42.926)" fill="#263238"/>
                  <path id="Trazado_913947" data-name="Trazado 913947" d="M113.554,239.735a21.027,21.027,0,0,1-10.283-.226c-3.229-.9-6.2-2.551-9.375-3.609s-6.814-1.466-9.776.1L73.213,275.523a10,10,0,0,0,9.639,12.659h30.781a10,10,0,0,0,9.649-12.618Z" transform="translate(-14.727 -47.5)" fill="#f54749"/>
                  <path id="Trazado_913948" data-name="Trazado 913948" d="M61.117,401.5a8.194,8.194,0,0,0-16.388,0Z" transform="translate(-9.042 -79.511)" fill="#455a64"/>
                  <path id="Trazado_913949" data-name="Trazado 913949" d="M55,217.022a5.184,5.184,0,0,0,5.184-5.184h0A5.184,5.184,0,0,0,55,206.652Z" transform="translate(-11.119 -41.777)" fill="#455a64"/>
                  <path id="Trazado_913950" data-name="Trazado 913950" d="M115.742,193.648a8.025,8.025,0,0,1-1.171.615,14.675,14.675,0,0,1-1.422.626c-.564.219-1.2.5-1.929.716-.724.242-1.52.5-2.4.7-.865.247-1.81.411-2.8.6a36.082,36.082,0,0,1-13.074-.167c-.986-.218-1.928-.407-2.786-.674-.87-.227-1.659-.5-2.376-.764-.726-.237-1.352-.532-1.911-.765a14.584,14.584,0,0,1-1.4-.661,7.982,7.982,0,0,1-1.155-.645,8.043,8.043,0,0,1,1.224.5c.385.178.858.388,1.425.594s1.192.486,1.918.7c.718.24,1.506.5,2.37.709.854.251,1.789.425,2.767.631a37.788,37.788,0,0,0,12.94.165c.983-.181,1.922-.33,2.782-.56.87-.188,1.663-.426,2.387-.649.732-.2,1.367-.456,1.936-.653s1.051-.389,1.44-.557a8.1,8.1,0,0,1,1.237-.467" transform="translate(-16.843 -39.064)" fill="#263238"/>
                  <g id="Grupo_1103162" data-name="Grupo 1103162" transform="translate(64.545 192.899)" opacity="0.3">
                    <g id="Grupo_1103161" data-name="Grupo 1103161">
                      <g id="Grupo_1103160" data-name="Grupo 1103160" clip-path="url(#clip-path-17)">
                        <path id="Trazado_913951" data-name="Trazado 913951" d="M88.457,285.728c-.01.117-.736.232-1.97-.2a8.278,8.278,0,0,1-4.035-3.605,10.854,10.854,0,0,1-1.322-3.57,15.981,15.981,0,0,1-.156-4.294,65.1,65.1,0,0,1,1.937-9.269c3.242-12.852,6.32-23.153,6.877-23.013s-1.62,10.669-4.862,23.521a85.36,85.36,0,0,0-2.047,8.961,15.407,15.407,0,0,0-.045,3.832,10.093,10.093,0,0,0,.912,3.136,8.6,8.6,0,0,0,3.1,3.575c.981.592,1.644.763,1.616.926" transform="translate(-80.899 -241.777)" fill="#fff"/>
                      </g>
                    </g>
                  </g>
                  <path id="Trazado_913952" data-name="Trazado 913952" d="M115.529,247.489a5.779,5.779,0,0,1-1.033.494c-.677.287-1.663.694-2.918,1.109a17.785,17.785,0,0,1-4.557.913,11.71,11.71,0,0,1-2.761-.182,14.624,14.624,0,0,1-2.829-.882c-1.867-.786-3.527-1.741-5.105-2.438a14.261,14.261,0,0,0-4.371-1.231,7.777,7.777,0,0,0-3.033.271c-.691.223-1.045.431-1.065.393-.007-.012.077-.071.243-.172a4.926,4.926,0,0,1,.769-.374,7.36,7.36,0,0,1,3.109-.411,13.919,13.919,0,0,1,4.5,1.173c1.61.689,3.279,1.635,5.112,2.405a14.585,14.585,0,0,0,2.748.866,11.558,11.558,0,0,0,2.666.2,18.594,18.594,0,0,0,4.487-.811c1.253-.375,2.252-.738,2.946-.979a6.207,6.207,0,0,1,1.091-.343" transform="translate(-17.761 -49.52)" fill="#fafafa"/>
                </g>
              </g>
            </g>
          </g>
        </g>
      </g>
    </g>
  </g>
</svg>
