<svg xmlns="http://www.w3.org/2000/svg" width="85" height="81" viewBox="0 0 85 81">
  <g id="Grupo_1103614" data-name="Grupo 1103614" transform="translate(-705.02 -434)">
    <rect id="Rectángulo_401361" data-name="Rectángulo 401361" width="85" height="81" transform="translate(705.02 434)" fill="#ebf8fa"/>
    <g id="Grupo_1103613" data-name="Grupo 1103613" transform="translate(723.948 443)">
      <path id="Trazado_914789" data-name="Trazado 914789" d="M13.273,19.628a2.376,2.376,0,0,1-2-2.7,5.526,5.526,0,0,0-3.7-6.334A2.375,2.375,0,0,1,9.246,6.149a10.262,10.262,0,0,1,6.728,11.477,2.379,2.379,0,0,1-2.7,2Z" transform="translate(8.292 8.25)" fill="#607d8b"/>
      <path id="Trazado_914790" data-name="Trazado 914790" d="M27.082,46a8.473,8.473,0,0,1-5.633-2.211c-.009,0-.036-.014-.069-.028-2.071.962-1.28,1.6-4.408,2.137-3.308.5-6.806-.938-9.882-4.04A25.015,25.015,0,0,1,.554,29.027,23.57,23.57,0,0,1,1.72,14.942C3.425,11.088,6.191,8.653,9.507,8.1a10.012,10.012,0,0,1,6.809,1.631c.494.3,1.021.67,1.558,1.045a8.8,8.8,0,0,0,3.5,1.807,8.8,8.8,0,0,0,3.5-1.8c.537-.378,1.066-.748,1.589-1.066a10,10,0,0,1,6.74-1.617c3.353.565,6.12,3,7.83,6.861a23.574,23.574,0,0,1,1.164,14.085,25.015,25.015,0,0,1-6.543,12.831C32.972,44.563,29.975,46,27.082,46Z" transform="translate(0 10.998)" fill="#ef5350"/>
      <path id="Trazado_914791" data-name="Trazado 914791" d="M6.187,6.649A2.376,2.376,0,0,0,7.579,9.708a5.526,5.526,0,0,1,3.7,6.334,2.313,2.313,0,0,0,.382,1.743c.758-.532,1.311-1.555,1.311-3.417,0-5.88-6.78-7.718-6.78-7.718Z" transform="translate(8.292 9.141)" fill="#546d79"/>
      <path id="Trazado_914792" data-name="Trazado 914792" d="M10.636,8a8.723,8.723,0,0,0-1.563.14c-3.3.667-5.982,3.189-7.561,7.1A23.564,23.564,0,0,0,.8,29.351,25.021,25.021,0,0,0,7.755,41.966c2.672,2.524,5.6,3.861,8.423,3.861a8.639,8.639,0,0,0,1.584-.145c2.7-.56,2.441-1.095,3.671-1.9V12.16a2.808,2.808,0,0,1-.356.076,8.8,8.8,0,0,1-3.555-1.691c-.546-.359-1.088-.712-1.589-1A10.543,10.543,0,0,0,10.636,8Z" transform="translate(0.084 10.997)" fill="#d04846"/>
      <path id="Trazado_914793" data-name="Trazado 914793" d="M15.386,24.038a1.782,1.782,0,0,1,0-2.52,4.223,4.223,0,0,0,1.159-3.807L14.971,9.727a5.759,5.759,0,0,1,5.64-6.863,5.9,5.9,0,0,1,1.111.107l7.989,1.574a4.219,4.219,0,0,0,3.807-1.159,1.782,1.782,0,1,1,2.52,2.52,7.77,7.77,0,0,1-7.013,2.135L21.038,6.467a2.238,2.238,0,0,0-2.572,2.574l1.572,7.982A7.782,7.782,0,0,1,17.9,24.035a1.777,1.777,0,0,1-2.517,0Z" transform="translate(20.431 3.937)" fill="#80deea"/>
      <path id="Trazado_914794" data-name="Trazado 914794" d="M16.343,24.256a1.767,1.767,0,0,0,1.259-.522,7.782,7.782,0,0,0,2.135-7.013c-.069-.349-1.615-8.055-1.615-8.412a2.264,2.264,0,0,1,2.232-2.182,1.875,1.875,0,0,1,.38.038L28.72,7.74a7.813,7.813,0,0,0,1.5.145A7.8,7.8,0,0,0,35.733,5.6a1.784,1.784,0,0,0,0-2.52,7.152,7.152,0,0,1-5.944,2.988,6.757,6.757,0,0,1-1.472-.145A32.284,32.284,0,0,0,20.558,4.46a3.734,3.734,0,0,0-2.577.686C15.887,7.241,16.535,8.82,16.535,8.82s1.021,5.343,1.418,8.906-2.869,6.008-2.869,6.008a1.767,1.767,0,0,0,1.259.522Z" transform="translate(20.733 4.241)" opacity="0.13"/>
      <path id="Trazado_914795" data-name="Trazado 914795" d="M27.948,21.694a5.9,5.9,0,0,1-1.111-.107l-7.989-1.574a4.242,4.242,0,0,0-3.807,1.159,1.782,1.782,0,0,1-2.52-2.52,7.8,7.8,0,0,1,7.013-2.135l7.986,1.574a2.251,2.251,0,0,0,2.612-2.144c0-.356-1.546-8.062-1.615-8.412A7.782,7.782,0,0,1,30.653.523a1.782,1.782,0,1,1,2.52,2.52A4.223,4.223,0,0,0,32.014,6.85l1.574,7.984a5.757,5.757,0,0,1-5.64,6.861Z" transform="translate(16.494 0.002)" fill="#00bcd4"/>
      <path id="Trazado_914796" data-name="Trazado 914796" d="M31.913,0a1.767,1.767,0,0,0-1.259.522,7.782,7.782,0,0,0-2.135,7.013c.069.349,1.615,8.055,1.615,8.412A2.264,2.264,0,0,1,27.9,18.129a1.875,1.875,0,0,1-.38-.038l-7.986-1.574a7.811,7.811,0,0,0-7.013,2.135,1.784,1.784,0,0,0,0,2.52,7.155,7.155,0,0,1,5.944-2.985,6.757,6.757,0,0,1,1.472.145A32.284,32.284,0,0,0,27.7,19.8a3.734,3.734,0,0,0,2.577-.686c2.095-2.095,1.446-3.676,1.446-3.676S30.7,10.093,30.3,6.531,33.172.522,33.172.522A1.777,1.777,0,0,0,31.913,0Z" transform="translate(16.495)" fill="#00a4b9"/>
    </g>
  </g>
</svg>
