<svg xmlns="http://www.w3.org/2000/svg" xmlns:xlink="http://www.w3.org/1999/xlink" width="505" height="318.233" viewBox="0 0 505 318.233">
  <defs>
    <clipPath id="clip-path">
      <rect id="Rectángulo_404367" data-name="Rectángulo 404367" width="283.08" height="265.65" fill="none"/>
    </clipPath>
    <clipPath id="clip-path-4">
      <rect id="Rectángulo_404328" data-name="Rectángulo 404328" width="19.757" height="1.601" fill="none"/>
    </clipPath>
    <clipPath id="clip-path-5">
      <rect id="Rectángulo_404329" data-name="Rectángulo 404329" width="72.376" height="42.959" fill="none"/>
    </clipPath>
    <clipPath id="clip-path-6">
      <rect id="Rectángulo_404330" data-name="Rectángulo 404330" width="5.881" height="5.489" fill="none"/>
    </clipPath>
    <clipPath id="clip-path-7">
      <rect id="Rectángulo_404331" data-name="Rectángulo 404331" width="5.205" height="4.055" fill="none"/>
    </clipPath>
    <clipPath id="clip-path-9">
      <rect id="Rectángulo_404333" data-name="Rectángulo 404333" width="8.373" height="6.989" fill="none"/>
    </clipPath>
    <clipPath id="clip-path-10">
      <rect id="Rectángulo_404334" data-name="Rectángulo 404334" width="5.311" height="4.388" fill="none"/>
    </clipPath>
    <clipPath id="clip-path-11">
      <rect id="Rectángulo_404335" data-name="Rectángulo 404335" width="5.311" height="4.389" fill="none"/>
    </clipPath>
    <clipPath id="clip-path-12">
      <rect id="Rectángulo_404336" data-name="Rectángulo 404336" width="2.681" height="2.297" fill="none"/>
    </clipPath>
    <clipPath id="clip-path-13">
      <rect id="Rectángulo_404337" data-name="Rectángulo 404337" width="2.681" height="2.296" fill="none"/>
    </clipPath>
    <clipPath id="clip-path-14">
      <rect id="Rectángulo_404338" data-name="Rectángulo 404338" width="7.605" height="7.737" fill="none"/>
    </clipPath>
    <clipPath id="clip-path-15">
      <rect id="Rectángulo_404339" data-name="Rectángulo 404339" width="4.207" height="3.504" fill="none"/>
    </clipPath>
    <clipPath id="clip-path-16">
      <rect id="Rectángulo_404340" data-name="Rectángulo 404340" width="6.013" height="7.049" fill="none"/>
    </clipPath>
    <clipPath id="clip-path-17">
      <rect id="Rectángulo_404341" data-name="Rectángulo 404341" width="6.012" height="7.049" fill="none"/>
    </clipPath>
    <clipPath id="clip-path-19">
      <rect id="Rectángulo_404343" data-name="Rectángulo 404343" width="3.685" height="4.321" fill="none"/>
    </clipPath>
    <clipPath id="clip-path-20">
      <rect id="Rectángulo_404344" data-name="Rectángulo 404344" width="2.674" height="3.135" fill="none"/>
    </clipPath>
    <clipPath id="clip-path-21">
      <rect id="Rectángulo_404345" data-name="Rectángulo 404345" width="1.436" height="1.407" fill="none"/>
    </clipPath>
    <clipPath id="clip-path-22">
      <rect id="Rectángulo_404346" data-name="Rectángulo 404346" width="7.117" height="5.205" fill="none"/>
    </clipPath>
    <clipPath id="clip-path-23">
      <rect id="Rectángulo_404347" data-name="Rectángulo 404347" width="7.066" height="5.205" fill="none"/>
    </clipPath>
    <clipPath id="clip-path-24">
      <rect id="Rectángulo_404348" data-name="Rectángulo 404348" width="64.648" height="9.148" fill="none"/>
    </clipPath>
    <clipPath id="clip-path-25">
      <rect id="Rectángulo_404349" data-name="Rectángulo 404349" width="15.699" height="66.38" fill="none"/>
    </clipPath>
    <clipPath id="clip-path-26">
      <rect id="Rectángulo_404350" data-name="Rectángulo 404350" width="4.349" height="4.765" fill="none"/>
    </clipPath>
    <clipPath id="clip-path-27">
      <rect id="Rectángulo_404351" data-name="Rectángulo 404351" width="80.792" height="4.515" fill="none"/>
    </clipPath>
    <clipPath id="clip-path-28">
      <rect id="Rectángulo_404353" data-name="Rectángulo 404353" width="77.128" height="3.127" fill="none"/>
    </clipPath>
    <clipPath id="clip-path-29">
      <rect id="Rectángulo_404354" data-name="Rectángulo 404354" width="66.71" height="24.392" fill="none"/>
    </clipPath>
    <clipPath id="clip-path-30">
      <rect id="Rectángulo_404355" data-name="Rectángulo 404355" width="24.461" height="36.862" fill="#957f2b"/>
    </clipPath>
    <clipPath id="clip-path-31">
      <rect id="Rectángulo_404356" data-name="Rectángulo 404356" width="25.25" height="18.882" fill="none"/>
    </clipPath>
    <clipPath id="clip-path-32">
      <rect id="Rectángulo_404357" data-name="Rectángulo 404357" width="3.659" height="7.288" fill="none"/>
    </clipPath>
    <clipPath id="clip-path-33">
      <rect id="Rectángulo_404358" data-name="Rectángulo 404358" width="10.606" height="5.632" fill="none"/>
    </clipPath>
    <clipPath id="clip-path-34">
      <rect id="Rectángulo_404359" data-name="Rectángulo 404359" width="15.924" height="15.438" fill="none"/>
    </clipPath>
    <clipPath id="clip-path-35">
      <rect id="Rectángulo_404360" data-name="Rectángulo 404360" width="17.152" height="13.871" fill="none"/>
    </clipPath>
    <clipPath id="clip-path-36">
      <rect id="Rectángulo_404361" data-name="Rectángulo 404361" width="5.854" height="2.877" fill="none"/>
    </clipPath>
    <clipPath id="clip-path-37">
      <rect id="Rectángulo_404362" data-name="Rectángulo 404362" width="14.83" height="16.449" fill="none"/>
    </clipPath>
    <clipPath id="clip-path-38">
      <rect id="Rectángulo_404363" data-name="Rectángulo 404363" width="13.314" height="17.738" fill="none"/>
    </clipPath>
    <clipPath id="clip-path-39">
      <rect id="Rectángulo_404364" data-name="Rectángulo 404364" width="2.745" height="6.06" fill="none"/>
    </clipPath>
    <clipPath id="clip-path-40">
      <rect id="Rectángulo_404365" data-name="Rectángulo 404365" width="24.469" height="36.679" fill="#957f2b"/>
    </clipPath>
  </defs>
  <g id="Grupo_1103866" data-name="Grupo 1103866" transform="translate(-285.051 -12809)">
    <rect id="Rectángulo_402936" data-name="Rectángulo 402936" width="505" height="318.233" transform="translate(285.051 12809)" fill="#f6f0ca"/>
    <g id="Grupo_1102890" data-name="Grupo 1102890" transform="translate(333.051 12835)">
      <g id="Grupo_133605" data-name="Grupo 133605" transform="translate(0)">
        <g id="Grupo_133604" data-name="Grupo 133604" transform="translate(0 5.832)">
          <path id="Trazado_126504" data-name="Trazado 126504" d="M97.288,294.725S119.969,263.408,179.9,269.4s53.334,33.316,94.825,31.984,86.661-20.656,123.514,17.294c42.753,44.027-30.3,81.472-1.288,108.377,51.988,48.2,0,105.023-116.1,94.236C184.558,512.351,183.7,499.8,127.8,515S21.092,474.073,41.4,430.13s71.908-27.186,47.728-63.071S97.288,294.725,97.288,294.725Z" transform="translate(-36.834 -268.641)" fill="#fcd189"/>
          <path id="Trazado_126505" data-name="Trazado 126505" d="M28.839,50.917a4.837,4.837,0,0,0,2.8-.065,4.118,4.118,0,0,0,1.866-1.983c2.532-4.844.644-10.866-2.317-15.46s-6.963-8.557-9.152-13.564c-1.847-4.23-2.3-8.986-4.311-13.137S11.182-1.063,6.767.288c-9.9,3.026-6.8,23.626-3.98,30.8C6.756,41.189,18.527,48.958,28.839,50.917Z" transform="translate(382.879 107.946) rotate(39)" fill="#fcd189"/>
          <path id="Trazado_126506" data-name="Trazado 126506" d="M28.839,50.917a4.837,4.837,0,0,0,2.8-.065,4.118,4.118,0,0,0,1.866-1.983c2.532-4.844.644-10.866-2.317-15.46s-6.963-8.557-9.152-13.564c-1.847-4.23-2.3-8.986-4.311-13.137S11.182-1.063,6.767.288c-9.9,3.026-6.8,23.626-3.98,30.8C6.756,41.189,18.527,48.958,28.839,50.917Z" transform="matrix(0.988, -0.156, 0.156, 0.988, 7.721, 70.184)" fill="#fcd189"/>
        </g>
        <g id="Grupo_1103437" data-name="Grupo 1103437" transform="translate(57.13)">
          <g id="Grupo_1103436" data-name="Grupo 1103436" clip-path="url(#clip-path)">
            <g id="Grupo_1103322" data-name="Grupo 1103322">
              <g id="Grupo_1103321" data-name="Grupo 1103321" clip-path="url(#clip-path)">
                <path id="Trazado_914162" data-name="Trazado 914162" d="M214.32,80.039l-6.5-7.056a36.582,36.582,0,1,1,13.079-.817h.021Z" transform="translate(-34.074 -0.04)" fill="#fff"/>
                <path id="Trazado_914163" data-name="Trazado 914163" d="M214.283,80s.145-.188.428-.534l1.258-1.531,4.852-5.862.062.139h-.02l-.614-.018.6-.15a38.122,38.122,0,0,0,7.365-2.708,40.152,40.152,0,0,0,4.05-2.342,38.882,38.882,0,0,0,4.063-3.156,37.352,37.352,0,0,0,7.277-8.978,36.382,36.382,0,0,0,4.355-12.371,37.12,37.12,0,0,0-.644-14.464,35.53,35.53,0,0,0-6.885-14.039,37.156,37.156,0,0,0-13.1-10.241,35.55,35.55,0,0,0-17.1-3.274A37.285,37.285,0,0,0,201.4,2c-.708.217-1.392.5-2.086.751l-1.037.384a6.71,6.71,0,0,0-1.012.43l-1.968.97c-.326.164-.656.317-.977.488l-.921.58a37.045,37.045,0,0,0-12,11.745,35.439,35.439,0,0,0-5.262,14.877,37.186,37.186,0,0,0,1.107,14.553A36.548,36.548,0,0,0,183.1,58.608l1.958,2.366c.659.76,1.4,1.42,2.079,2.116a32.884,32.884,0,0,0,4.332,3.551A36.438,36.438,0,0,0,207.8,72.862l.031,0,.02.022,4.768,5.251,1.243,1.378c.281.313.425.484.425.484s-.143-.142-.426-.44L212.6,78.223,207.725,73l.052.026a36.368,36.368,0,0,1-16.457-6.165,33.112,33.112,0,0,1-4.379-3.56c-.685-.7-1.436-1.362-2.1-2.126l-1.983-2.38a36.807,36.807,0,0,1-5.941-11.921,37.474,37.474,0,0,1-1.148-14.694,35.788,35.788,0,0,1,5.3-15.046A37.421,37.421,0,0,1,193.189,5.248l.932-.588c.324-.172.659-.329.988-.494l1.99-.982a6.817,6.817,0,0,1,1.024-.436l1.048-.389c.7-.251,1.394-.541,2.11-.76A37.624,37.624,0,0,1,210.212.053,35.925,35.925,0,0,1,227.506,3.37a37.525,37.525,0,0,1,13.235,10.366,35.879,35.879,0,0,1,6.939,14.2,37.407,37.407,0,0,1,.621,14.608,36.633,36.633,0,0,1-4.429,12.473,37.5,37.5,0,0,1-7.368,9.023A38.759,38.759,0,0,1,232.4,67.2a40.14,40.14,0,0,1-4.087,2.337,37.858,37.858,0,0,1-7.424,2.672l-.017-.168h.02l.176.006-.113.133-4.963,5.839-1.275,1.489c-.286.332-.431.49-.431.49" transform="translate(-34.037 0)" fill="#263238"/>
                <rect id="Rectángulo_404323" data-name="Rectángulo 404323" width="8.534" height="36.34" transform="matrix(0.707, -0.707, 0.707, 0.707, 161.752, 28.239)" fill="#ff725e"/>
                <rect id="Rectángulo_404324" data-name="Rectángulo 404324" width="36.34" height="8.534" transform="matrix(0.707, -0.707, 0.707, 0.707, 161.751, 47.901)" fill="#ff725e"/>
              </g>
            </g>
            <g id="Grupo_1103435" data-name="Grupo 1103435">
              <g id="Grupo_1103434" data-name="Grupo 1103434" clip-path="url(#clip-path)">
                <path id="Trazado_914164" data-name="Trazado 914164" d="M129,132.989c-2-6.876-5.7-13.58-5.235-25.058.209-5.127,2.8-9.36,4.9-18.1s-2.453-21.841-8.406-29.953S109.409,44.592,109.76,35.544H90.015c.351,9.048-4.553,16.225-10.508,24.337S69,81.1,71.1,89.834s4.525,12.447,4.9,18.1c.69,10.276-3.236,18.181-5.234,25.058A44.553,44.553,0,0,0,69,145.437v75.028c0,5.571,5.072,10.089,11.327,10.089h39.122c6.254,0,11.327-4.518,11.327-10.089V145.437A44.582,44.582,0,0,0,129,132.989" transform="translate(-13.382 -6.894)" fill="#455a64"/>
                <path id="Trazado_914165" data-name="Trazado 914165" d="M114.752,31.7H94.165a.542.542,0,0,1-.542-.542V20.109a.542.542,0,0,1,.542-.542h20.587a.542.542,0,0,1,.542.542V31.155a.542.542,0,0,1-.542.542" transform="translate(-18.158 -3.795)" fill="#ff725e"/>
                <rect id="Rectángulo_404326" data-name="Rectángulo 404326" width="22.82" height="2.091" transform="translate(75.094 27.472)" fill="#ff725e"/>
                <rect id="Rectángulo_404327" data-name="Rectángulo 404327" width="55.898" height="51.64" transform="translate(58.67 147.079)" fill="#ebebeb"/>
                <path id="Trazado_914166" data-name="Trazado 914166" d="M115.926,33.991c0,.116-5.162.21-11.528.21s-11.529-.093-11.529-.21,5.16-.21,11.529-.21,11.528.094,11.528.21" transform="translate(-18.012 -6.552)" fill="#263238"/>
                <path id="Trazado_914167" data-name="Trazado 914167" d="M95.966,19.777a39.414,39.414,0,0,1,.21,5.738,39.4,39.4,0,0,1-.21,5.738,39.406,39.406,0,0,1-.21-5.738,39.415,39.415,0,0,1,.21-5.738" transform="translate(-18.571 -3.836)" fill="#263238"/>
                <path id="Trazado_914168" data-name="Trazado 914168" d="M99.574,19.777a39.413,39.413,0,0,1,.21,5.738,39.4,39.4,0,0,1-.21,5.738,39.4,39.4,0,0,1-.21-5.738,39.414,39.414,0,0,1,.21-5.738" transform="translate(-19.271 -3.836)" fill="#263238"/>
                <path id="Trazado_914169" data-name="Trazado 914169" d="M103.182,19.777a39.416,39.416,0,0,1,.21,5.738,39.407,39.407,0,0,1-.21,5.738,39.4,39.4,0,0,1-.21-5.738,39.412,39.412,0,0,1,.21-5.738" transform="translate(-19.971 -3.836)" fill="#263238"/>
                <path id="Trazado_914170" data-name="Trazado 914170" d="M106.79,19.777a39.413,39.413,0,0,1,.21,5.738,39.4,39.4,0,0,1-.21,5.738,39.4,39.4,0,0,1-.21-5.738,39.414,39.414,0,0,1,.21-5.738" transform="translate(-20.671 -3.836)" fill="#263238"/>
                <path id="Trazado_914171" data-name="Trazado 914171" d="M110.4,19.777a39.414,39.414,0,0,1,.21,5.738,39.4,39.4,0,0,1-.21,5.738,39.406,39.406,0,0,1-.21-5.738,39.415,39.415,0,0,1,.21-5.738" transform="translate(-21.371 -3.836)" fill="#263238"/>
                <path id="Trazado_914172" data-name="Trazado 914172" d="M114,19.777a39.415,39.415,0,0,1,.21,5.738,39.406,39.406,0,0,1-.21,5.738,39.4,39.4,0,0,1-.21-5.738,39.413,39.413,0,0,1,.21-5.738" transform="translate(-22.07 -3.836)" fill="#263238"/>
                <path id="Trazado_914173" data-name="Trazado 914173" d="M117.613,19.777a39.413,39.413,0,0,1,.21,5.738,39.4,39.4,0,0,1-.21,5.738,39.4,39.4,0,0,1-.21-5.738,39.414,39.414,0,0,1,.21-5.738" transform="translate(-22.77 -3.836)" fill="#263238"/>
                <g id="Grupo_1103325" data-name="Grupo 1103325" transform="translate(76.603 29.563)" opacity="0.3">
                  <g id="Grupo_1103324" data-name="Grupo 1103324">
                    <g id="Grupo_1103323" data-name="Grupo 1103323" clip-path="url(#clip-path-4)">
                      <path id="Trazado_914174" data-name="Trazado 914174" d="M95.034,38.161l.048-1.485h19.71v1.6Z" transform="translate(-95.034 -36.676)"/>
                    </g>
                  </g>
                </g>
                <path id="Trazado_914175" data-name="Trazado 914175" d="M124.866,128.333c0,.116-9.99.21-22.311.21s-22.313-.094-22.313-.21,9.988-.21,22.313-.21,22.311.093,22.311.21" transform="translate(-15.563 -24.849)" fill="#263238"/>
                <path id="Trazado_914176" data-name="Trazado 914176" d="M124.866,136.119c0,.116-9.99.21-22.311.21s-22.313-.094-22.313-.21,9.988-.21,22.313-.21,22.311.093,22.311.21" transform="translate(-15.563 -26.359)" fill="#263238"/>
                <path id="Trazado_914177" data-name="Trazado 914177" d="M4.758,194.725l8.734,79.6a3.4,3.4,0,0,0,2.58,2.932,91.258,91.258,0,0,0,40.31.525,3.4,3.4,0,0,0,2.679-2.886l10.345-79.25Z" transform="translate(-0.923 -37.766)" fill="#2994a3"/>
                <path id="Trazado_914178" data-name="Trazado 914178" d="M4.758,194.725s.394,0,1.17.006l3.438.038,13.093.16,46.949.614.115,0-.015.114c-2.685,20.612-5.89,45.211-9.323,71.563q-.458,3.514-.912,6.984c-.04.291-.069.573-.12.871a3.562,3.562,0,0,1-.27.859,3.519,3.519,0,0,1-1.137,1.373,3.717,3.717,0,0,1-1.644.65l-1.7.328A95.43,95.43,0,0,1,40.9,279.819a90.184,90.184,0,0,1-13.113-.431l-1.594-.177-1.581-.218c-1.053-.134-2.091-.325-3.126-.5a54.777,54.777,0,0,1-6.086-1.361,3.516,3.516,0,0,1-1.932-2.352c-.115-.517-.132-1.011-.2-1.512s-.109-1-.164-1.494q-.324-2.976-.641-5.871l-1.224-11.226c-.788-7.242-1.52-13.988-2.189-20.147-1.332-12.305-2.411-22.263-3.155-29.149-.37-3.433-.656-6.1-.851-7.912-.1-.9-.167-1.587-.217-2.053s-.067-.694-.067-.694.032.243.086.71.132,1.162.235,2.068c.2,1.818.5,4.493.89,7.937.765,6.885,1.872,16.842,3.241,29.145.682,6.149,1.428,12.883,2.228,20.113q.6,5.422,1.236,11.2.32,2.888.646,5.858.081.743.164,1.49c.064.493.088,1.012.194,1.482a3.289,3.289,0,0,0,1.811,2.2,7.346,7.346,0,0,0,1.457.405l1.51.34c1.014.2,2.033.414,3.065.594s2.068.36,3.119.493l1.577.216,1.591.176a90.056,90.056,0,0,0,13.078.425,95.31,95.31,0,0,0,13.472-1.532l1.7-.328a3.472,3.472,0,0,0,1.55-.609,3.278,3.278,0,0,0,1.059-1.278,5.27,5.27,0,0,0,.37-1.66q.452-3.469.911-6.983c3.447-26.352,6.664-50.948,9.359-71.559l.1.116-46.877-.721-13.116-.214-3.459-.06c-.784-.014-1.194-.027-1.194-.027" transform="translate(-0.923 -37.766)" fill="#263238"/>
                <path id="Trazado_914179" data-name="Trazado 914179" d="M69.407,194.958c-.027,2.088-15.032,4.735-32.134,4.509s-32.543-3.212-32.515-5.3,15.513-2.488,32.615-2.261,32.062.963,32.034,3.051" transform="translate(-0.923 -37.209)" fill="#ff725e"/>
                <path id="Trazado_914180" data-name="Trazado 914180" d="M47.611,180.884l-7.037-.093.054-23.329a13.538,13.538,0,0,0,7.037.093Z" transform="translate(-7.869 -30.539)" fill="#ff725e"/>
                <path id="Trazado_914181" data-name="Trazado 914181" d="M69.775,182.552a.828.828,0,0,1-.164-.041l-.472-.143c-.426-.134-1.033-.325-1.806-.571l-1.3-.418c-.48-.143-1.005-.28-1.567-.438-1.127-.3-2.4-.693-3.835-1l-2.245-.526c-.782-.177-1.6-.316-2.452-.484-1.69-.358-3.52-.6-5.439-.9a114.365,114.365,0,0,0-12.591-.946,116.811,116.811,0,0,0-12.619.561c-1.928.23-3.765.419-5.467.714-.853.139-1.68.248-2.468.4l-2.263.439c-1.448.256-2.735.589-3.874.846l-1.584.372-1.32.358-1.83.487L6,181.375a.8.8,0,0,1-.165.033.89.89,0,0,1,.158-.056l.471-.144,1.818-.53L9.6,180.3c.484-.128,1.014-.251,1.581-.392,1.137-.27,2.423-.615,3.871-.883l2.265-.455c.788-.153,1.616-.268,2.47-.41,1.7-.3,3.544-.5,5.476-.738a114.007,114.007,0,0,1,12.645-.582,111.907,111.907,0,0,1,12.619.968c1.922.3,3.755.557,5.447.925.847.173,1.671.316,2.454.5l2.245.542c1.437.323,2.708.723,3.833,1.041.56.165,1.085.31,1.563.459l1.3.438,1.793.615.463.165a.825.825,0,0,1,.156.064" transform="translate(-1.132 -34.295)" fill="#263238"/>
                <path id="Trazado_914182" data-name="Trazado 914182" d="M9.156,190.571s-.889-3.266-.465-3.986,2.853-4.291,2.853-4.291l4.465-.893,1.852.976,3.2-1.984.483-2.579,4.023-6.641,12.041-2.119,10.247,6.961.39,3.121,7.441,1.1,4.737,1.956-.053,4.038,6.51,1.018,1.768,4.106" transform="translate(-1.663 -32.787)" fill="#ff725e"/>
                <g id="Grupo_1103328" data-name="Grupo 1103328" transform="translate(0.146 119.822)" opacity="0.3">
                  <g id="Grupo_1103327" data-name="Grupo 1103327">
                    <g id="Grupo_1103326" data-name="Grupo 1103326" clip-path="url(#clip-path-5)">
                      <path id="Trazado_914183" data-name="Trazado 914183" d="M68.314,176.7s.994-24.577-29.367-27.994l-4.2-.056c-30.441,2.613-30.1,27.208-30.1,27.208a25.506,25.506,0,0,0-4.466,8.4c11.213,5.47,26.657,6.868,34,7.226v.067s.763.023,2.1.017c1.337.041,2.1.039,2.1.039v-.067c7.347-.164,22.823-1.153,34.177-6.325a25.509,25.509,0,0,0-4.243-8.518" transform="translate(-0.181 -148.653)" fill="#fff"/>
                    </g>
                  </g>
                </g>
                <path id="Trazado_914184" data-name="Trazado 914184" d="M17.007,184.847a12.652,12.652,0,0,1-2.041.537,12.612,12.612,0,0,1-2.067.43,7.345,7.345,0,0,1,2.011-.666,7.345,7.345,0,0,1,2.1-.3" transform="translate(-2.502 -35.847)" fill="#fff"/>
                <path id="Trazado_914185" data-name="Trazado 914185" d="M63.461,115.377c1.077,1.231,1.519,2.605.987,3.07s-1.835-.156-2.912-1.386-1.518-2.606-.987-3.07,1.836.155,2.912,1.386" transform="translate(-11.7 -22.078)" fill="#ff725e"/>
                <g id="Grupo_1103331" data-name="Grupo 1103331" transform="translate(8.563 150.096)" opacity="0.5">
                  <g id="Grupo_1103330" data-name="Grupo 1103330">
                    <g id="Grupo_1103329" data-name="Grupo 1103329" clip-path="url(#clip-path-6)">
                      <path id="Trazado_914186" data-name="Trazado 914186" d="M10.623,190.13s2.524-3.921,2.647-3.919,3.234,1.5,3.234,1.5l-.045,3.446L14.1,191.7Z" transform="translate(-10.623 -186.211)" fill="#fff"/>
                    </g>
                  </g>
                </g>
                <g id="Grupo_1103334" data-name="Grupo 1103334" transform="translate(17.053 147.618)" opacity="0.5">
                  <g id="Grupo_1103333" data-name="Grupo 1103333">
                    <g id="Grupo_1103332" data-name="Grupo 1103332" clip-path="url(#clip-path-7)">
                      <path id="Trazado_914187" data-name="Trazado 914187" d="M21.171,185.12l-.015,1.148s2.867,1.012,2.868.916,2.338-2.289,2.338-2.289l-1.989-1.76Z" transform="translate(-21.156 -183.136)" fill="#fff"/>
                    </g>
                  </g>
                </g>
                <g id="Grupo_1103337" data-name="Grupo 1103337" transform="translate(35.303 146.758)" opacity="0.5">
                  <g id="Grupo_1103336" data-name="Grupo 1103336">
                    <g id="Grupo_1103335" data-name="Grupo 1103335" clip-path="url(#clip-path-7)">
                      <path id="Trazado_914188" data-name="Trazado 914188" d="M43.812,184.054,43.8,185.2s2.867,1.012,2.869.916S49,183.83,49,183.83l-1.988-1.76Z" transform="translate(-43.797 -182.07)" fill="#fff"/>
                    </g>
                  </g>
                </g>
                <g id="Grupo_1103340" data-name="Grupo 1103340" transform="translate(21.409 138.869)" opacity="0.5">
                  <g id="Grupo_1103339" data-name="Grupo 1103339">
                    <g id="Grupo_1103338" data-name="Grupo 1103338" clip-path="url(#clip-path-9)">
                      <path id="Trazado_914189" data-name="Trazado 914189" d="M26.561,178.46c.122.12,2.584.812,2.584.812l2.644-.542s3.3-3.705,3.139-3.748a24.124,24.124,0,0,1-1.66-2.205l-3.124-.494Z" transform="translate(-26.561 -172.282)" fill="#fff"/>
                    </g>
                  </g>
                </g>
                <g id="Grupo_1103343" data-name="Grupo 1103343" transform="translate(29.445 142.789)" opacity="0.5">
                  <g id="Grupo_1103342" data-name="Grupo 1103342">
                    <g id="Grupo_1103341" data-name="Grupo 1103341" clip-path="url(#clip-path-10)">
                      <path id="Trazado_914190" data-name="Trazado 914190" d="M37.989,177.146l-1.459,2.028.916,2.322,2.883.038,1.511-2.159-.96-2.192Z" transform="translate(-36.53 -177.146)" fill="#fff"/>
                    </g>
                  </g>
                </g>
                <g id="Grupo_1103346" data-name="Grupo 1103346" transform="translate(43.046 147.439)" opacity="0.5">
                  <g id="Grupo_1103345" data-name="Grupo 1103345">
                    <g id="Grupo_1103344" data-name="Grupo 1103344" clip-path="url(#clip-path-11)">
                      <path id="Trazado_914191" data-name="Trazado 914191" d="M54.863,182.915,53.4,184.943l.916,2.322,2.883.038,1.511-2.159-.96-2.191Z" transform="translate(-53.403 -182.915)" fill="#fff"/>
                    </g>
                  </g>
                </g>
                <g id="Grupo_1103349" data-name="Grupo 1103349" transform="translate(26.729 147.104)" opacity="0.5">
                  <g id="Grupo_1103348" data-name="Grupo 1103348">
                    <g id="Grupo_1103347" data-name="Grupo 1103347" clip-path="url(#clip-path-12)">
                      <path id="Trazado_914192" data-name="Trazado 914192" d="M34.116,182.5l-.955.6.451,1.7,1.431-.311s.771.381.785-.649l.014-1.029Z" transform="translate(-33.161 -182.499)" fill="#fff"/>
                    </g>
                  </g>
                </g>
                <g id="Grupo_1103352" data-name="Grupo 1103352" transform="translate(29.326 153.104)" opacity="0.5">
                  <g id="Grupo_1103351" data-name="Grupo 1103351">
                    <g id="Grupo_1103350" data-name="Grupo 1103350" clip-path="url(#clip-path-13)">
                      <path id="Trazado_914193" data-name="Trazado 914193" d="M37.338,189.943l-.955.6.451,1.7,1.431-.311s.771.381.785-.649l.014-1.029Z" transform="translate(-36.383 -189.943)" fill="#fff"/>
                    </g>
                  </g>
                </g>
                <g id="Grupo_1103355" data-name="Grupo 1103355" transform="translate(20.157 150.252)" opacity="0.5">
                  <g id="Grupo_1103354" data-name="Grupo 1103354">
                    <g id="Grupo_1103353" data-name="Grupo 1103353" clip-path="url(#clip-path-14)">
                      <path id="Trazado_914194" data-name="Trazado 914194" d="M26.161,188.663l1.681-2.259,4.77,1.525-.046,3.477-1.952,1.747-2.874.987-2.733-1.791.043-3.243Z" transform="translate(-25.007 -186.404)" fill="#fff"/>
                    </g>
                  </g>
                </g>
                <g id="Grupo_1103358" data-name="Grupo 1103358" transform="translate(37.609 143.337)" opacity="0.5">
                  <g id="Grupo_1103357" data-name="Grupo 1103357">
                    <g id="Grupo_1103356" data-name="Grupo 1103356" clip-path="url(#clip-path-15)">
                      <path id="Trazado_914195" data-name="Trazado 914195" d="M46.658,179.1l.877-1.271,1.826.024,1.5,1.507-.167,1.972-2.543-1.022Z" transform="translate(-46.658 -177.826)" fill="#fff"/>
                    </g>
                  </g>
                </g>
                <g id="Grupo_1103361" data-name="Grupo 1103361" transform="translate(33.317 184.177)" opacity="0.3">
                  <g id="Grupo_1103360" data-name="Grupo 1103360">
                    <g id="Grupo_1103359" data-name="Grupo 1103359" clip-path="url(#clip-path-16)">
                      <path id="Trazado_914196" data-name="Trazado 914196" d="M41.333,231.443l.948,4.1,4.629-.247.435-3.772-1.757-3.03-3.23,1.191Z" transform="translate(-41.333 -228.492)" fill="#fff"/>
                    </g>
                  </g>
                </g>
                <g id="Grupo_1103364" data-name="Grupo 1103364" transform="translate(25.237 187.865)" opacity="0.3">
                  <g id="Grupo_1103363" data-name="Grupo 1103363">
                    <g id="Grupo_1103362" data-name="Grupo 1103362" clip-path="url(#clip-path-17)">
                      <path id="Trazado_914197" data-name="Trazado 914197" d="M31.309,236.018l.948,4.1,4.629-.247.435-3.772-1.757-3.03-3.23,1.191Z" transform="translate(-31.309 -233.068)" fill="#fff"/>
                    </g>
                  </g>
                </g>
                <g id="Grupo_1103367" data-name="Grupo 1103367" transform="translate(48.251 210.546)" opacity="0.3">
                  <g id="Grupo_1103366" data-name="Grupo 1103366">
                    <g id="Grupo_1103365" data-name="Grupo 1103365" clip-path="url(#clip-path-16)">
                      <path id="Trazado_914198" data-name="Trazado 914198" d="M59.861,264.157l.948,4.1,4.629-.247.435-3.772-1.757-3.03-3.23,1.191Z" transform="translate(-59.861 -261.206)" fill="#fff"/>
                    </g>
                  </g>
                </g>
                <g id="Grupo_1103370" data-name="Grupo 1103370" transform="translate(49.395 204.102)" opacity="0.3">
                  <g id="Grupo_1103369" data-name="Grupo 1103369">
                    <g id="Grupo_1103368" data-name="Grupo 1103368" clip-path="url(#clip-path-19)">
                      <path id="Trazado_914199" data-name="Trazado 914199" d="M61.28,255.019l.581,2.513,2.837-.152.267-2.313-1.077-1.857-1.98.73Z" transform="translate(-61.28 -253.211)" fill="#fff"/>
                    </g>
                  </g>
                </g>
                <g id="Grupo_1103373" data-name="Grupo 1103373" transform="translate(44.35 208.373)" opacity="0.3">
                  <g id="Grupo_1103372" data-name="Grupo 1103372">
                    <g id="Grupo_1103371" data-name="Grupo 1103371" clip-path="url(#clip-path-20)">
                      <path id="Trazado_914200" data-name="Trazado 914200" d="M55.021,259.822l.422,1.822,2.059-.11.193-1.677-.782-1.348-1.436.53Z" transform="translate(-55.021 -258.51)" fill="#fff"/>
                    </g>
                  </g>
                </g>
                <g id="Grupo_1103376" data-name="Grupo 1103376" transform="translate(54.681 209.95)" opacity="0.3">
                  <g id="Grupo_1103375" data-name="Grupo 1103375">
                    <g id="Grupo_1103374" data-name="Grupo 1103374" clip-path="url(#clip-path-21)">
                      <path id="Trazado_914201" data-name="Trazado 914201" d="M67.973,261.49l.743.383.558-.733-.516-.551-.685-.123-.235.643Z" transform="translate(-67.839 -260.466)" fill="#fff"/>
                    </g>
                  </g>
                </g>
                <g id="Grupo_1103379" data-name="Grupo 1103379" transform="translate(31.716 195.769)" opacity="0.3">
                  <g id="Grupo_1103378" data-name="Grupo 1103378">
                    <g id="Grupo_1103377" data-name="Grupo 1103377" clip-path="url(#clip-path-22)">
                      <path id="Trazado_914202" data-name="Trazado 914202" d="M41.3,242.873l-1.951,1.748.572,3.4,4.393.058s2.168-.665,2.1-1.283.053-3.854.053-3.854Z" transform="translate(-39.347 -242.873)" fill="#fff"/>
                    </g>
                  </g>
                </g>
                <g id="Grupo_1103382" data-name="Grupo 1103382" transform="translate(33.045 220.652)" opacity="0.3">
                  <g id="Grupo_1103381" data-name="Grupo 1103381">
                    <g id="Grupo_1103380" data-name="Grupo 1103380" clip-path="url(#clip-path-23)">
                      <path id="Trazado_914203" data-name="Trazado 914203" d="M42.947,273.743,41,275.491l.572,3.4,4.393.058s2.167-.666,2.1-1.283-1.125-3.87-1.125-3.87Z" transform="translate(-40.996 -273.743)" fill="#fff"/>
                    </g>
                  </g>
                </g>
                <path id="Trazado_914204" data-name="Trazado 914204" d="M69.325,183.34a.885.885,0,0,1-.148.081l-.445.215c-.4.18-.968.474-1.731.792a49.834,49.834,0,0,1-6.629,2.235,64.532,64.532,0,0,1-10.224,1.76,89.153,89.153,0,0,1-12.7.231,131.53,131.53,0,0,1-22.827-3.289c-2.878-.664-5.187-1.286-6.775-1.739-.793-.229-1.409-.409-1.823-.541l-.472-.15a.853.853,0,0,1-.158-.059.862.862,0,0,1,.165.035l.478.127,1.835.5c1.594.426,3.908,1.02,6.788,1.663a136.911,136.911,0,0,0,22.8,3.215,90.878,90.878,0,0,0,12.67-.211,66.071,66.071,0,0,0,10.2-1.7,53.132,53.132,0,0,0,6.635-2.157c.767-.3,1.344-.583,1.746-.748l.455-.193a.871.871,0,0,1,.159-.058" transform="translate(-1.046 -35.467)" fill="#263238"/>
                <path id="Trazado_914205" data-name="Trazado 914205" d="M68.279,176.677a19.021,19.021,0,0,1,1.406,2,25.515,25.515,0,0,1,2.887,6.506l.013.044-.042.019a61.344,61.344,0,0,1-12.005,3.864,111.958,111.958,0,0,1-16.985,2.29c-1.59.1-3.224.177-4.886.217-.829.048-1.685.065-2.532.039-.425,0-.856-.008-1.286-.03s-.864-.069-1.3-.084c-3.466-.182-7.067-.509-10.758-1.008a105.332,105.332,0,0,1-11.3-2.151,62.423,62.423,0,0,1-11.4-4.033L0,184.3l.031-.1a25.727,25.727,0,0,1,4.487-8.443l-.027.077,0-.2a25.849,25.849,0,0,1,.949-5.964A27.745,27.745,0,0,1,7.6,164.146a26.073,26.073,0,0,1,7.353-8.755l.555-.43c.188-.139.385-.264.577-.4.389-.256.766-.53,1.161-.77.8-.465,1.584-.947,2.412-1.333a35.767,35.767,0,0,1,4.989-2.026A47.9,47.9,0,0,1,34.7,148.521h.01l4.2.059h.01a47.522,47.522,0,0,1,9.438,2.022,33.316,33.316,0,0,1,7.849,3.736,26.42,26.42,0,0,1,9.27,10.475,27.934,27.934,0,0,1,2.612,8.663,23.228,23.228,0,0,1,.194,2.382c.014.541-.008.819-.008.819,0-.1-.01-.322-.024-.818-.025-.539-.08-1.339-.225-2.374a28.217,28.217,0,0,0-2.658-8.618,26.364,26.364,0,0,0-9.254-10.388,33.168,33.168,0,0,0-7.816-3.7,47.488,47.488,0,0,0-9.4-2h.01l-4.2-.052h.01a47.752,47.752,0,0,0-10,1.918,35.581,35.581,0,0,0-4.955,2.018c-.822.384-1.6.862-2.392,1.324-.392.239-.765.51-1.15.765-.19.131-.386.255-.572.393l-.55.426a25.86,25.86,0,0,0-7.284,8.68,27.576,27.576,0,0,0-2.141,5.479,25.705,25.705,0,0,0-.94,5.9c0,.066,0,.132,0,.193v.045l-.027.032a25.492,25.492,0,0,0-4.445,8.364L.2,184.129a62.345,62.345,0,0,0,11.352,4.022,105.446,105.446,0,0,0,11.275,2.155c3.685.5,7.274.832,10.742,1.019.437.017.867.064,1.29.086s.852.031,1.278.031c.854.027,1.684.011,2.519-.035,1.67-.036,3.294-.115,4.885-.207A112.78,112.78,0,0,0,60.5,188.955a61.908,61.908,0,0,0,12-3.808l-.028.062a25.9,25.9,0,0,0-2.833-6.506c-.418-.688-.771-1.185-1-1.523s-.355-.5-.355-.5" transform="translate(0 -28.805)" fill="#263238"/>
                <path id="Trazado_914206" data-name="Trazado 914206" d="M40.635,140.851l.115-8.738a6.34,6.34,0,0,1,1.776-4.316l14.165-13.725,3.938,4.421L47.361,131.1l.06,18.138a13.938,13.938,0,0,1-6.6-.088Z" transform="translate(-7.881 -22.124)" fill="#ff725e"/>
                <path id="Trazado_914207" data-name="Trazado 914207" d="M51.085,155.8a3.078,3.078,0,0,1-.531.32,6.421,6.421,0,0,1-.651.325c-.261.11-.551.26-.891.372a11.346,11.346,0,0,1-1.112.364,13.244,13.244,0,0,1-1.31.307,14.84,14.84,0,0,1-3.072.219,14.365,14.365,0,0,1-3.044-.479A12.473,12.473,0,0,1,39.2,156.8a10.165,10.165,0,0,1-1.069-.478,9.2,9.2,0,0,1-.843-.472,5.618,5.618,0,0,1-.607-.4,2.985,2.985,0,0,1-.487-.384c.03-.044.734.494,2.012,1.1a10.734,10.734,0,0,0,1.066.445c.385.157.814.273,1.261.4a15.06,15.06,0,0,0,3,.451,15.508,15.508,0,0,0,3.024-.2c.459-.086.9-.165,1.3-.281.405-.094.771-.221,1.108-.331,1.338-.464,2.108-.9,2.131-.855" transform="translate(-7.019 -30.074)" fill="#263238"/>
                <g id="Grupo_1103385" data-name="Grupo 1103385" transform="translate(3.835 156.959)" opacity="0.3">
                  <g id="Grupo_1103384" data-name="Grupo 1103384">
                    <g id="Grupo_1103383" data-name="Grupo 1103383" clip-path="url(#clip-path-24)">
                      <path id="Trazado_914208" data-name="Trazado 914208" d="M68.89,199.594A107.633,107.633,0,0,1,5.168,198.47l-.41-3.745s14.116,6.1,34.511,5.756c21.01-.352,30.136-4.836,30.136-4.836Z" transform="translate(-4.758 -194.725)"/>
                    </g>
                  </g>
                </g>
                <g id="Grupo_1103388" data-name="Grupo 1103388" transform="translate(8.694 166.118)" opacity="0.3">
                  <g id="Grupo_1103387" data-name="Grupo 1103387">
                    <g id="Grupo_1103386" data-name="Grupo 1103386" clip-path="url(#clip-path-25)">
                      <path id="Trazado_914209" data-name="Trazado 914209" d="M26.248,263.524c-1.439-18.507-2.784-37.263-4.165-55.172l-11.3-2.264,6.023,56.621c.264,2.472.571,5.068,2.022,7.088s3.747,3.528,5.8,2.122c2.317-1.59,1.935-4.327,1.619-8.394" transform="translate(-10.786 -206.088)" fill="#fff"/>
                    </g>
                  </g>
                </g>
                <path id="Trazado_914210" data-name="Trazado 914210" d="M56.616,293.626a2.155,2.155,0,0,1-.359.1l-1.041.231c-.452.1-1.008.217-1.656.327s-1.384.26-2.206.371-1.718.256-2.687.358c-.967.125-2.006.2-3.1.3-2.186.154-4.6.244-7.126.209s-4.938-.218-7.118-.444c-1.089-.13-2.124-.244-3.086-.4-.966-.134-1.86-.3-2.674-.447s-1.548-.308-2.192-.443-1.2-.266-1.644-.381l-1.033-.266a2.011,2.011,0,0,1-.356-.109,2.214,2.214,0,0,1,.368.061l1.043.221c.451.1,1,.223,1.651.342s1.378.28,2.195.406,1.709.291,2.673.416c.962.148,1.995.254,3.082.378,2.176.214,4.575.376,7.1.424s4.926-.048,7.108-.19c1.089-.088,2.126-.16,3.091-.276.968-.094,1.865-.215,2.685-.328s1.557-.233,2.207-.334,1.207-.2,1.661-.287l1.05-.186a2.147,2.147,0,0,1,.369-.049" transform="translate(-3.944 -56.831)" fill="#263238"/>
                <g id="Grupo_1103391" data-name="Grupo 1103391" transform="translate(48.625 91.758)" opacity="0.3">
                  <g id="Grupo_1103390" data-name="Grupo 1103390">
                    <g id="Grupo_1103389" data-name="Grupo 1103389" clip-path="url(#clip-path-26)">
                      <path id="Trazado_914211" data-name="Trazado 914211" d="M63.461,115.377c1.077,1.231,1.519,2.605.987,3.07s-1.835-.156-2.912-1.386-1.518-2.606-.987-3.07,1.836.155,2.912,1.386" transform="translate(-60.324 -113.836)"/>
                    </g>
                  </g>
                </g>
                <path id="Trazado_914212" data-name="Trazado 914212" d="M63.591,118.936a1.683,1.683,0,0,1-.723-.226,4.811,4.811,0,0,1-2.412-2.666,1.678,1.678,0,0,1-.152-.742,6.362,6.362,0,0,0,3.287,3.633" transform="translate(-11.694 -22.362)" fill="#263238"/>
                <path id="Trazado_914213" data-name="Trazado 914213" d="M46.416,134.43a2.385,2.385,0,0,1,1.041.2,2.393,2.393,0,0,1,.969.427,2.373,2.373,0,0,1-1.041-.2,2.386,2.386,0,0,1-.969-.427" transform="translate(-9.002 -26.068)" fill="#263238"/>
                <path id="Trazado_914214" data-name="Trazado 914214" d="M46.211,135.6a2.5,2.5,0,0,1,1.032-.334,2.5,2.5,0,0,1,1.08-.1,2.508,2.508,0,0,1-1.032.334,2.5,2.5,0,0,1-1.08.1" transform="translate(-8.962 -26.209)" fill="#263238"/>
                <path id="Trazado_914215" data-name="Trazado 914215" d="M25.861,178.171a24.7,24.7,0,0,1,1.677-3.019,24.714,24.714,0,0,1,1.885-2.9,24.73,24.73,0,0,1-1.677,3.02,24.539,24.539,0,0,1-1.885,2.894" transform="translate(-5.015 -33.408)" fill="#fff"/>
                <path id="Trazado_914216" data-name="Trazado 914216" d="M48.571,172.413a9.191,9.191,0,0,1-1.32-.4c-.807-.264-1.926-.614-3.174-.954s-2.393-.6-3.223-.781a9.212,9.212,0,0,1-1.339-.323,6.718,6.718,0,0,1,1.371.155c.842.138,2,.375,3.254.716s2.373.72,3.169,1.026a6.832,6.832,0,0,1,1.263.559" transform="translate(-7.664 -32.961)" fill="#fff"/>
                <path id="Trazado_914217" data-name="Trazado 914217" d="M9.726,190.226a7.5,7.5,0,0,1,.937-1.652,7.575,7.575,0,0,1,1.14-1.52,7.456,7.456,0,0,1-.937,1.653,7.484,7.484,0,0,1-1.14,1.519" transform="translate(-1.885 -36.278)" fill="#fff"/>
                <path id="Trazado_914218" data-name="Trazado 914218" d="M37.647,170.868a20.887,20.887,0,0,1-3.122.543,20.83,20.83,0,0,1-3.154.3,20.687,20.687,0,0,1,3.121-.543,20.831,20.831,0,0,1,3.155-.3" transform="translate(-6.084 -33.136)" fill="#fff"/>
                <path id="Trazado_914219" data-name="Trazado 914219" d="M15.577,247.851c-.066.007-1.112-8.821-2.334-19.718s-2.161-19.739-2.094-19.746,1.112,8.819,2.334,19.72,2.161,19.737,2.094,19.744" transform="translate(-2.161 -40.416)" fill="#fff"/>
                <path id="Trazado_914220" data-name="Trazado 914220" d="M163.99,126.473l-3.411-57.938,6.987-.6,3.391,58.238c-2.753.172-4.439,1.181-6.967.3" transform="translate(-31.144 -13.175)" fill="#fff"/>
                <path id="Trazado_914221" data-name="Trazado 914221" d="M165.85,68.165l3.38,58.091h-2.59l-3.74-57.83Z" transform="translate(-31.594 -13.22)" fill="#455a64"/>
                <path id="Trazado_914222" data-name="Trazado 914222" d="M163.937,126.418a8.314,8.314,0,0,0,1.766.3,9.76,9.76,0,0,0,2.181-.221,24.728,24.728,0,0,1,3.014-.472l-.088.1c-.677-10.441-2.01-32.535-3.5-58.058l-.01-.174.228.2-6.988.6.19-.22c.927,16.288,1.75,30.745,2.342,41.156.28,5.2.5,9.378.661,12.287.071,1.432.126,2.55.164,3.332.015.368.027.655.035.871a2.216,2.216,0,0,1,0,.3,1.716,1.716,0,0,1-.033-.28c-.016-.21-.039-.49-.066-.848-.053-.772-.129-1.876-.227-3.292-.185-2.9-.452-7.068-.783-12.245-.635-10.438-1.517-24.932-2.511-41.261l-.012-.2.2-.017,6.987-.6.215-.019.012.215.01.173c1.486,25.524,2.725,47.622,3.265,58.071l0,.094-.093.006a25.548,25.548,0,0,0-3,.427,9.554,9.554,0,0,1-2.212.177,6.013,6.013,0,0,1-1.333-.239c-.3-.1-.428-.158-.428-.158" transform="translate(-31.091 -13.121)" fill="#263238"/>
                <path id="Trazado_914223" data-name="Trazado 914223" d="M166.01,142.5H117.224c0,.75,2,34.525,2,34.525l3.5,2.752s4.753,87.313,5.754,87.313H187.1c1,0,5.754-87.313,5.754-87.313l3.5-2.752s2-33.774,2-34.525Z" transform="translate(-22.735 -27.636)" fill="#ade3ea"/>
                <g id="Grupo_1103394" data-name="Grupo 1103394" transform="translate(94.659 118.053)" opacity="0.3">
                  <g id="Grupo_1103393" data-name="Grupo 1103393">
                    <g id="Grupo_1103392" data-name="Grupo 1103392" clip-path="url(#clip-path-27)">
                      <path id="Trazado_914224" data-name="Trazado 914224" d="M117.693,150.973l-.258-4.515h80.792l-.259,4.515Z" transform="translate(-117.435 -146.458)"/>
                    </g>
                  </g>
                </g>
                <rect id="Rectángulo_404352" data-name="Rectángulo 404352" width="87.274" height="5.438" transform="translate(91.309 112.615)" fill="#e0e0e0"/>
                <path id="Trazado_914225" data-name="Trazado 914225" d="M120.315,137.857c.546,0,8.321-5.87,8.321-5.87h13.5l1.842-1.841h19.166v8.8Z" transform="translate(-23.335 -25.241)" fill="#e0e0e0"/>
                <path id="Trazado_914226" data-name="Trazado 914226" d="M203.934,137.857c-.546,0-8.321-5.87-8.321-5.87H182.107l-1.841-1.841H161.1v8.8Z" transform="translate(-31.245 -25.241)" fill="#e0e0e0"/>
                <path id="Trazado_914227" data-name="Trazado 914227" d="M199.628,139.662c0,.116-19.332.21-43.172.21s-43.177-.093-43.177-.21,19.328-.21,43.177-.21,43.172.093,43.172.21" transform="translate(-21.97 -27.046)" fill="#263238"/>
                <path id="Trazado_914228" data-name="Trazado 914228" d="M189.89,132.169c0,.116-13.172.21-29.416.21s-29.419-.093-29.419-.21,13.169-.21,29.419-.21,29.416.094,29.416.21" transform="translate(-25.417 -25.593)" fill="#263238"/>
                <path id="Trazado_914229" data-name="Trazado 914229" d="M117.173,145.066a14.9,14.9,0,0,1,0-4.981,14.906,14.906,0,0,1,0,4.981" transform="translate(-22.685 -27.169)" fill="#263238"/>
                <path id="Trazado_914230" data-name="Trazado 914230" d="M123.274,145.066a14.905,14.905,0,0,1,0-4.981,14.905,14.905,0,0,1,0,4.981" transform="translate(-23.868 -27.169)" fill="#263238"/>
                <path id="Trazado_914231" data-name="Trazado 914231" d="M129.374,145.066a14.906,14.906,0,0,1,0-4.981,14.9,14.9,0,0,1,0,4.981" transform="translate(-25.051 -27.169)" fill="#263238"/>
                <path id="Trazado_914232" data-name="Trazado 914232" d="M135.474,145.066a14.906,14.906,0,0,1,0-4.981,14.906,14.906,0,0,1,0,4.981" transform="translate(-26.234 -27.169)" fill="#263238"/>
                <path id="Trazado_914233" data-name="Trazado 914233" d="M141.575,145.066a14.9,14.9,0,0,1,0-4.981,14.906,14.906,0,0,1,0,4.981" transform="translate(-27.417 -27.169)" fill="#263238"/>
                <path id="Trazado_914234" data-name="Trazado 914234" d="M147.675,145.066a14.9,14.9,0,0,1,0-4.981,14.9,14.9,0,0,1,0,4.981" transform="translate(-28.6 -27.169)" fill="#263238"/>
                <path id="Trazado_914235" data-name="Trazado 914235" d="M153.775,145.066a14.9,14.9,0,0,1,0-4.981,14.9,14.9,0,0,1,0,4.981" transform="translate(-29.783 -27.169)" fill="#263238"/>
                <path id="Trazado_914236" data-name="Trazado 914236" d="M159.876,145.066a14.9,14.9,0,0,1,0-4.981,14.9,14.9,0,0,1,0,4.981" transform="translate(-30.967 -27.169)" fill="#263238"/>
                <path id="Trazado_914237" data-name="Trazado 914237" d="M165.975,145.066a14.848,14.848,0,0,1,0-4.981,14.906,14.906,0,0,1,0,4.981" transform="translate(-32.149 -27.169)" fill="#263238"/>
                <path id="Trazado_914238" data-name="Trazado 914238" d="M172.076,145.066a14.9,14.9,0,0,1,0-4.981,14.906,14.906,0,0,1,0,4.981" transform="translate(-33.333 -27.169)" fill="#263238"/>
                <path id="Trazado_914239" data-name="Trazado 914239" d="M178.177,145.066a14.9,14.9,0,0,1,0-4.981,14.906,14.906,0,0,1,0,4.981" transform="translate(-34.516 -27.169)" fill="#263238"/>
                <path id="Trazado_914240" data-name="Trazado 914240" d="M184.277,145.066a14.9,14.9,0,0,1,0-4.981,14.906,14.906,0,0,1,0,4.981" transform="translate(-35.699 -27.169)" fill="#263238"/>
                <path id="Trazado_914241" data-name="Trazado 914241" d="M190.377,145.066a14.9,14.9,0,0,1,0-4.981,14.906,14.906,0,0,1,0,4.981" transform="translate(-36.882 -27.169)" fill="#263238"/>
                <path id="Trazado_914242" data-name="Trazado 914242" d="M196.478,145.066a14.906,14.906,0,0,1,0-4.981,14.906,14.906,0,0,1,0,4.981" transform="translate(-38.065 -27.169)" fill="#263238"/>
                <path id="Trazado_914243" data-name="Trazado 914243" d="M202.578,145.066a14.9,14.9,0,0,1,0-4.981,14.906,14.906,0,0,1,0,4.981" transform="translate(-39.248 -27.169)" fill="#263238"/>
                <path id="Trazado_914244" data-name="Trazado 914244" d="M208.678,145.066a14.906,14.906,0,0,1,0-4.981,14.9,14.9,0,0,1,0,4.981" transform="translate(-40.432 -27.169)" fill="#263238"/>
                <path id="Trazado_914245" data-name="Trazado 914245" d="M214.778,145.066a14.848,14.848,0,0,1,0-4.981,14.9,14.9,0,0,1,0,4.981" transform="translate(-41.615 -27.169)" fill="#263238"/>
                <path id="Trazado_914246" data-name="Trazado 914246" d="M220.879,145.066a14.9,14.9,0,0,1,0-4.981,14.906,14.906,0,0,1,0,4.981" transform="translate(-42.798 -27.169)" fill="#263238"/>
                <g id="Grupo_1103397" data-name="Grupo 1103397" transform="translate(96.49 149.385)" opacity="0.3">
                  <g id="Grupo_1103396" data-name="Grupo 1103396">
                    <g id="Grupo_1103395" data-name="Grupo 1103395" clip-path="url(#clip-path-28)">
                      <path id="Trazado_914247" data-name="Trazado 914247" d="M119.707,185.329h77.127l-3.127,3.128h-70.5Z" transform="translate(-119.707 -185.329)"/>
                    </g>
                  </g>
                </g>
                <g id="Grupo_1103400" data-name="Grupo 1103400" transform="translate(101.7 182.339)" opacity="0.3">
                  <g id="Grupo_1103399" data-name="Grupo 1103399">
                    <g id="Grupo_1103398" data-name="Grupo 1103398" clip-path="url(#clip-path-29)">
                      <path id="Trazado_914248" data-name="Trazado 914248" d="M126.17,226.212h66.71L191.414,250.6H127.635Z" transform="translate(-126.17 -226.212)"/>
                    </g>
                  </g>
                </g>
                <path id="Trazado_914249" data-name="Trazado 914249" d="M198,190.1l7.35,36.862-24.46-.671Z" transform="translate(-35.083 -36.87)" fill="#455a64"/>
                <g id="Grupo_1103403" data-name="Grupo 1103403" transform="translate(145.805 153.234)" opacity="0.3">
                  <g id="Grupo_1103402" data-name="Grupo 1103402">
                    <g id="Grupo_1103401" data-name="Grupo 1103401" clip-path="url(#clip-path-30)">
                      <path id="Trazado_914250" data-name="Trazado 914250" d="M198,190.1l7.35,36.862-24.46-.671Z" transform="translate(-180.888 -190.104)" fill="#957f2b"/>
                    </g>
                  </g>
                </g>
                <path id="Trazado_914251" data-name="Trazado 914251" d="M277.673,178.186h0a3.09,3.09,0,0,1-3.011-3.037L273.253,88.8a3.089,3.089,0,0,1,3.166-3.139l4.308.108a3.09,3.09,0,0,1,3.01,3.192l-2.9,86.243a3.089,3.089,0,0,1-3.165,2.984" transform="translate(-52.996 -16.613)" fill="#ae7461"/>
                <path id="Trazado_914252" data-name="Trazado 914252" d="M273.411,99.248,283.6,99.5l-.346,7.485-9.717-.243Z" transform="translate(-53.027 -19.249)" fill="#ff725e"/>
                <path id="Trazado_914253" data-name="Trazado 914253" d="M286.908,180.006h0a3.088,3.088,0,0,1-1.785-3.887L313.45,94.534a3.089,3.089,0,0,1,4.051-1.86l4.009,1.581a3.089,3.089,0,0,1,1.731,4.031l-32.336,80a3.089,3.089,0,0,1-4,1.716" transform="translate(-55.265 -17.932)" fill="#ae7461"/>
                <path id="Trazado_914254" data-name="Trazado 914254" d="M316.506,104.195l9.478,3.737-3.011,7.2-9.042-3.519Z" transform="translate(-60.886 -20.208)" fill="#ff725e"/>
                <path id="Trazado_914255" data-name="Trazado 914255" d="M209.615,167.951s-5.534,4.936-2.641,9.49,9.785,10.222,20.9,3.581c8.219-4.911,5.742-13.679,3.894-17.913a5.186,5.186,0,0,0-4.292-3.166c-3.443-.282-9.638.68-17.858,8.007" transform="translate(-39.98 -31.012)" fill="#e0e0e0"/>
                <g id="Grupo_1103406" data-name="Grupo 1103406" transform="translate(166.167 128.928)" opacity="0.21">
                  <g id="Grupo_1103405" data-name="Grupo 1103405">
                    <g id="Grupo_1103404" data-name="Grupo 1103404" clip-path="url(#clip-path-31)">
                      <path id="Trazado_914256" data-name="Trazado 914256" d="M223.978,174.83A17.328,17.328,0,0,0,231.4,162.3l-.015-.03a3.873,3.873,0,0,0-2.81-2.137c-3.113-.559-9.769-.3-18.948,7.928,0,0-5.534,4.936-2.641,9.491.189.31.41.617.631.925a21.526,21.526,0,0,0,16.36-3.644" transform="translate(-206.149 -159.949)" fill="#263238"/>
                    </g>
                  </g>
                </g>
                <path id="Trazado_914257" data-name="Trazado 914257" d="M209.106,163.407l4.018,8.71a11.748,11.748,0,0,0,9.46-2.538c3.987-3.65,2.712-5.283,2.712-5.283l-3.421-7.57a2.054,2.054,0,0,0-2.157-1.214,19.737,19.737,0,0,0-8.382,3.28c-4.121,3.251-2.23,4.615-2.23,4.615" transform="translate(-40.471 -30.157)" fill="#e0e0e0"/>
                <path id="Trazado_914258" data-name="Trazado 914258" d="M209.094,163.364s-.044-.014-.11-.076a1.206,1.206,0,0,1-.237-.321,1.805,1.805,0,0,1,.068-1.525,6.287,6.287,0,0,1,1.461-1.93,10.756,10.756,0,0,1,1.143-.977c.438-.3.909-.594,1.417-.887a19.508,19.508,0,0,1,5.517-2.115c.355-.078.717-.148,1.086-.2a2.38,2.38,0,0,1,1.185.031,2.22,2.22,0,0,1,1.04.673,2.267,2.267,0,0,1,.354.542l.253.554L223.3,159.4l2.16,4.77-.024-.04a1.055,1.055,0,0,1,.067.109,2.845,2.845,0,0,1-.31,2.44,9.368,9.368,0,0,1-1.369,1.879c-.256.278-.514.551-.788.8a6.914,6.914,0,0,1-.846.717,12.719,12.719,0,0,1-1.825,1.107,11.8,11.8,0,0,1-7.278,1.046l-.077-.014-.031-.07-2.867-6.377L209.341,164a4.231,4.231,0,0,1-.247-.638,3.777,3.777,0,0,1,.315.58l.837,1.718,3,6.344-.108-.084a11.619,11.619,0,0,0,7.071-1.081,12.472,12.472,0,0,0,1.764-1.081,6.651,6.651,0,0,0,.809-.692c.264-.244.515-.51.764-.782a8.989,8.989,0,0,0,1.307-1.8,2.5,2.5,0,0,0,.308-2.061l-.027-.048-.025-.04-2.153-4.774-1.02-2.271a3.891,3.891,0,0,0-.543-1.008,1.869,1.869,0,0,0-.873-.573,2.036,2.036,0,0,0-1.034-.027c-.364.053-.72.118-1.069.192a19.616,19.616,0,0,0-5.454,2.02c-.5.279-.98.561-1.408.848a10.8,10.8,0,0,0-1.135.931,6.327,6.327,0,0,0-1.469,1.829,1.752,1.752,0,0,0-.134,1.427,1.96,1.96,0,0,0,.277.432" transform="translate(-40.459 -30.114)" fill="#263238"/>
                <g id="Grupo_1103409" data-name="Grupo 1103409" transform="translate(169.711 133.293)" opacity="0.15">
                  <g id="Grupo_1103408" data-name="Grupo 1103408">
                    <g id="Grupo_1103407" data-name="Grupo 1103407" clip-path="url(#clip-path-32)">
                      <path id="Trazado_914259" data-name="Trazado 914259" d="M214.061,172.624c-.394.243-1.627-1.112-2.585-3.145s-1.156-3.97-.688-4.105,1.3,1.381,2.217,3.319,1.48,3.668,1.056,3.931" transform="translate(-210.545 -165.365)" fill="#fff"/>
                    </g>
                  </g>
                </g>
                <g id="Grupo_1103412" data-name="Grupo 1103412" transform="translate(168.897 126.358)" opacity="0.15">
                  <g id="Grupo_1103411" data-name="Grupo 1103411">
                    <g id="Grupo_1103410" data-name="Grupo 1103410" clip-path="url(#clip-path-33)">
                      <path id="Trazado_914260" data-name="Trazado 914260" d="M220.142,156.974c.022.23-.514.671-1.5,1.114s-2.45.889-3.938,1.437c-.742.283-1.421.575-2.018.874a9.479,9.479,0,0,0-1.516.934c-.777.6-1.207,1.147-1.5,1.048s-.084-.9.59-1.925A6.349,6.349,0,0,1,211.805,159a11.141,11.141,0,0,1,2.234-1.13,19.091,19.091,0,0,1,4.187-.984c1.153-.179,1.842-.19,1.915.084" transform="translate(-209.536 -156.761)" fill="#fff"/>
                    </g>
                  </g>
                </g>
                <path id="Trazado_914261" data-name="Trazado 914261" d="M222.607,160.36a.524.524,0,0,1,.157-.058c.106-.032.264-.075.473-.125a14.585,14.585,0,0,1,1.852-.315,8.414,8.414,0,0,1,2.969.112,6,6,0,0,1,3.256,2.226,7.637,7.637,0,0,1,1.076,2.1,22.65,22.65,0,0,1,.775,2.436,16.689,16.689,0,0,1,.53,5.642,11.143,11.143,0,0,1-2.284,5.816,15.352,15.352,0,0,1-5.287,3.963,19.651,19.651,0,0,1-6.232,1.957,12.733,12.733,0,0,1-6-.676,13.5,13.5,0,0,1-4.636-2.958,15.053,15.053,0,0,1-1.672-1.89c-.256-.315-.459-.662-.684-.981-.2-.335-.375-.692-.54-1.032a5.9,5.9,0,0,1,0-4.055,10.057,10.057,0,0,1,1.465-2.7,13.113,13.113,0,0,1,1.255-1.457c.158-.152.279-.268.365-.339s.133-.106.137-.1-.154.173-.447.5a15.972,15.972,0,0,0-1.19,1.493,10.211,10.211,0,0,0-1.381,2.677,5.679,5.679,0,0,0,.043,3.871c.164.322.326.655.526.978.224.31.426.648.681.954a14.9,14.9,0,0,0,1.655,1.838,13.258,13.258,0,0,0,4.54,2.856,12.454,12.454,0,0,0,5.839.634,19.449,19.449,0,0,0,6.106-1.927,15.073,15.073,0,0,0,5.16-3.85,10.806,10.806,0,0,0,2.221-5.6,16.475,16.475,0,0,0-.486-5.521,22.759,22.759,0,0,0-.743-2.409,7.4,7.4,0,0,0-1.016-2.042,5.812,5.812,0,0,0-3.1-2.184,8.505,8.505,0,0,0-2.9-.173c-.806.061-1.428.167-1.849.239a4.775,4.775,0,0,1-.645.1" transform="translate(-39.954 -30.989)" fill="#263238"/>
                <path id="Trazado_914262" data-name="Trazado 914262" d="M231.644,166.672a.781.781,0,0,1-.029.282,7.229,7.229,0,0,1-.186.788,14.372,14.372,0,0,1-3.8,6.232,24.671,24.671,0,0,1-4.143,3.331,15.284,15.284,0,0,1-2.471,1.191c-.818.324-1.621.6-2.4.82a20.4,20.4,0,0,1-4.2.77,14.789,14.789,0,0,1-2.868-.052,7.416,7.416,0,0,1-.769-.121c-.174-.035-.264-.06-.263-.074a28.95,28.95,0,0,0,3.88-.035,21.846,21.846,0,0,0,4.126-.843c.763-.227,1.553-.505,2.359-.831a15.4,15.4,0,0,0,2.41-1.169,25.734,25.734,0,0,0,4.1-3.257,14.053,14.053,0,0,0,2.66-3.357,16.263,16.263,0,0,0,1.236-2.652,10.286,10.286,0,0,1,.357-1.023" transform="translate(-40.829 -32.325)" fill="#263238"/>
                <path id="Trazado_914263" data-name="Trazado 914263" d="M220.853,156.082a1.659,1.659,0,0,1-.2.565,9.919,9.919,0,0,1-.788,1.418,11.784,11.784,0,0,1-3.834,3.633,11.2,11.2,0,0,1-4.973,1.509,9.048,9.048,0,0,1-1.569-.041,1.476,1.476,0,0,1-.563-.122c.006-.069.818.02,2.113-.118a12.251,12.251,0,0,0,4.806-1.575,12.786,12.786,0,0,0,3.8-3.451c.792-1.079,1.145-1.848,1.2-1.818" transform="translate(-40.521 -30.271)" fill="#263238"/>
                <path id="Trazado_914264" data-name="Trazado 914264" d="M281.483,177.911s-10,2.359-14.291-10.974-1.477-24.764,7.46-26.01,11,3.625,12.229,7.1,4.235,11.288,3.925,17.847c-.162,3.7-3.36,11.132-9.324,12.038" transform="translate(-51.439 -27.294)" fill="#ff725e"/>
                <g id="Grupo_1103415" data-name="Grupo 1103415" transform="translate(219.604 127.475)" opacity="0.3">
                  <g id="Grupo_1103414" data-name="Grupo 1103414">
                    <g id="Grupo_1103413" data-name="Grupo 1103413" clip-path="url(#clip-path-34)">
                      <path id="Trazado_914265" data-name="Trazado 914265" d="M281.633,173.277a9.24,9.24,0,0,0,4.927-3.446l-.058.068.08-.093.182-.21a2.838,2.838,0,0,0,.3-.477l.106-.122-.091.1a10.75,10.75,0,0,0,1.265-4.952,10.974,10.974,0,0,0-.249-3.059,4.071,4.071,0,0,0-1.622-2.459,3.447,3.447,0,0,0-3.146-.2,5.339,5.339,0,0,0-2.429,2.221c-.533.9-.865,1.913-1.366,2.836a4.032,4.032,0,0,1-2.209,2.068c-.81.235-1.68.035-2.5.21a3.178,3.178,0,0,0-2.372,3.328,4.569,4.569,0,0,0,2.413,3.261,8.767,8.767,0,0,0,6.77.916" transform="translate(-272.443 -158.147)"/>
                    </g>
                  </g>
                </g>
                <g id="Grupo_1103418" data-name="Grupo 1103418" transform="translate(216.268 115.469)" opacity="0.3">
                  <g id="Grupo_1103417" data-name="Grupo 1103417">
                    <g id="Grupo_1103416" data-name="Grupo 1103416" clip-path="url(#clip-path-35)">
                      <path id="Trazado_914266" data-name="Trazado 914266" d="M277.73,143.253a8.982,8.982,0,0,0-5.645,1.916l.062-.072-.084.1a1.539,1.539,0,0,1-.214.172c-.14.121-.28.241-.416.373l-.106.122.091-.1a10.559,10.559,0,0,0-2.524,4.416,11.034,11.034,0,0,0-.586,3,4.22,4.22,0,0,0,.9,2.839,3.462,3.462,0,0,0,2.965,1.082,5.157,5.157,0,0,0,2.914-1.453c.749-.716,1.336-1.6,2.061-2.342a3.886,3.886,0,0,1,2.645-1.385c.83.011,1.622.443,2.454.509a3.113,3.113,0,0,0,3.158-2.539,4.675,4.675,0,0,0-1.449-3.83,8.827,8.827,0,0,0-6.231-2.8" transform="translate(-268.304 -143.252)"/>
                    </g>
                  </g>
                </g>
                <g id="Grupo_1103421" data-name="Grupo 1103421" transform="translate(218.448 130.387)" opacity="0.3">
                  <g id="Grupo_1103420" data-name="Grupo 1103420">
                    <g id="Grupo_1103419" data-name="Grupo 1103419" clip-path="url(#clip-path-36)">
                      <path id="Trazado_914267" data-name="Trazado 914267" d="M276.033,161.788a2.992,2.992,0,0,0-1.122.059l-2.268.414a1.963,1.963,0,0,0-1.542.845,1.036,1.036,0,0,0,.181,1.131,1.291,1.291,0,0,0,1.058.374l-.1-.014a6.8,6.8,0,0,0,3.494-.551,2.436,2.436,0,0,0,.837-.574,1.093,1.093,0,0,0,.265-.96,1.042,1.042,0,0,0-.806-.725" transform="translate(-271.009 -161.76)"/>
                    </g>
                  </g>
                </g>
                <path id="Trazado_914268" data-name="Trazado 914268" d="M269.026,147.436c.036.035-.347.695-.83,1.839a18.676,18.676,0,0,0-1.308,9.523c.159,1.23.351,1.979.3,1.993a2.136,2.136,0,0,1-.178-.513,11.457,11.457,0,0,1-.318-1.448,16.752,16.752,0,0,1,1.322-9.638,11.838,11.838,0,0,1,.7-1.31,1.862,1.862,0,0,1,.313-.445" transform="translate(-51.683 -28.595)" fill="#fff"/>
                <path id="Trazado_914269" data-name="Trazado 914269" d="M273.076,143.874c.056.052-.291.412-.75.775s-.874.6-.919.535.288-.408.746-.771.878-.6.923-.539" transform="translate(-52.637 -27.902)" fill="#fff"/>
                <path id="Trazado_914270" data-name="Trazado 914270" d="M270.775,175.777a2.791,2.791,0,0,1-.954-1.264,2.967,2.967,0,0,1-.4-1.554,11.016,11.016,0,0,1,.651,1.423,10.372,10.372,0,0,1,.7,1.4" transform="translate(-52.253 -33.545)" fill="#fff"/>
                <path id="Trazado_914271" data-name="Trazado 914271" d="M246.018,155.778a7.826,7.826,0,0,0-4.083,8.754c.983,4.4,4.269,11.517,14.962,16.738,14.935,7.292,18.482-7.3,18.482-7.3s2.613-9.736-8.739-16.1c-6.57-3.709-15.239-4.719-20.622-2.091" transform="translate(-46.884 -29.927)" fill="#fff"/>
                <path id="Trazado_914272" data-name="Trazado 914272" d="M245.985,155.747a.98.98,0,0,1,.222-.123l.672-.317a14.416,14.416,0,0,1,2.727-.808,24.064,24.064,0,0,1,10.33.481,28.687,28.687,0,0,1,6.694,2.63,20.387,20.387,0,0,1,6.363,5.362,15.766,15.766,0,0,1,2.134,4.079,13.71,13.71,0,0,1,.707,4.8,9.463,9.463,0,0,1-.355,2.505,15.223,15.223,0,0,1-.95,2.363,13.811,13.811,0,0,1-3.062,4.141,11.933,11.933,0,0,1-2.1,1.506,10.529,10.529,0,0,1-2.382.85,12.135,12.135,0,0,1-4.862.071c-.784-.146-1.535-.4-2.292-.6a22.932,22.932,0,0,1-2.155-.853,17.872,17.872,0,0,1-2.045-.978c-.669-.332-1.3-.715-1.93-1.091a26.042,26.042,0,0,1-10.607-11.248,20.613,20.613,0,0,1-1.1-3.04,9.765,9.765,0,0,1-.419-2.882,8.087,8.087,0,0,1,1.44-4.4,7.556,7.556,0,0,1,2.09-2,4.433,4.433,0,0,1,.885-.461c.014.027-.3.171-.832.547a7.77,7.77,0,0,0-3.308,6.311,9.526,9.526,0,0,0,.445,2.787,20.408,20.408,0,0,0,1.117,2.974,25.864,25.864,0,0,0,10.523,11c.621.369,1.249.745,1.912,1.07a17.4,17.4,0,0,0,2.019.956,22.549,22.549,0,0,0,2.113.831c.738.185,1.473.434,2.233.575a11.686,11.686,0,0,0,4.672-.074,10.07,10.07,0,0,0,2.265-.807,11.541,11.541,0,0,0,2-1.437,13.313,13.313,0,0,0,2.946-3.984,14.8,14.8,0,0,0,.921-2.28,8.944,8.944,0,0,0,.339-2.371,13.233,13.233,0,0,0-.67-4.63,15.386,15.386,0,0,0-2.051-3.954,20.1,20.1,0,0,0-6.2-5.276,28.727,28.727,0,0,0-6.585-2.654,24.551,24.551,0,0,0-10.211-.636,18.759,18.759,0,0,0-3.652,1.052" transform="translate(-46.851 -29.896)" fill="#263238"/>
                <path id="Trazado_914273" data-name="Trazado 914273" d="M260.372,177.175c-2.35-4.133-1.212-9.367,2.541-11.689s8.7-.854,11.05,3.279,1.212,9.367-2.541,11.689-8.7.854-11.05-3.279" transform="translate(-50.261 -31.882)" fill="#ff725e"/>
                <path id="Trazado_914274" data-name="Trazado 914274" d="M269.151,183.451a8.1,8.1,0,0,0,4.578-1.46,1.979,1.979,0,0,1-.55.5,5.707,5.707,0,0,1-3.311,1.053,1.944,1.944,0,0,1-.717-.089" transform="translate(-52.201 -35.296)" fill="#fff"/>
                <path id="Trazado_914275" data-name="Trazado 914275" d="M297.691,177.827s-2.159-10.342,10.753-14.943,23.906-1.816,25,7.435-3.624,11.446-6.99,12.761-10.938,4.521-17.262,4.276c-3.569-.125-10.7-3.354-11.5-9.528" transform="translate(-57.71 -31.168)" fill="#ff725e"/>
                <g id="Grupo_1103424" data-name="Grupo 1103424" transform="translate(247.455 135.69)" opacity="0.3">
                  <g id="Grupo_1103423" data-name="Grupo 1103423">
                    <g id="Grupo_1103422" data-name="Grupo 1103422" clip-path="url(#clip-path-37)">
                      <path id="Trazado_914276" data-name="Trazado 914276" d="M307.265,177.92a9.322,9.322,0,0,0,3.267,5.068l-.064-.06.089.082.2.186a2.636,2.636,0,0,0,.456.309l.116.108-.1-.093a9.643,9.643,0,0,0,4.763,1.254,9.95,9.95,0,0,0,2.953-.293,4.048,4.048,0,0,0,2.391-1.71,3.824,3.824,0,0,0,.225-3.265,5.233,5.233,0,0,0-2.115-2.492c-.862-.542-1.835-.875-2.719-1.384a3.94,3.94,0,0,1-1.969-2.266c-.217-.837-.015-1.742-.174-2.595a3.008,3.008,0,0,0-3.182-2.421,4.588,4.588,0,0,0-3.173,2.54,9.762,9.762,0,0,0-.963,7.03" transform="translate(-306.995 -168.339)"/>
                    </g>
                  </g>
                </g>
                <g id="Grupo_1103427" data-name="Grupo 1103427" transform="translate(260.626 132.086)" opacity="0.3">
                  <g id="Grupo_1103426" data-name="Grupo 1103426">
                    <g id="Grupo_1103425" data-name="Grupo 1103425" clip-path="url(#clip-path-38)">
                      <path id="Trazado_914277" data-name="Trazado 914277" d="M336.646,173.524a9.589,9.589,0,0,0-1.782-5.83l.068.063-.092-.085a1.632,1.632,0,0,1-.164-.22c-.114-.144-.228-.288-.354-.427l-.117-.108.1.093a11.366,11.366,0,0,0-7.122-3.138,3.966,3.966,0,0,0-2.749.969,3.825,3.825,0,0,0-1.078,3.087,5.367,5.367,0,0,0,1.368,3c.682.768,1.524,1.367,2.235,2.11a4.024,4.024,0,0,1,1.3,2.726c-.02.86-.446,1.686-.519,2.55a3.1,3.1,0,0,0,2.412,3.245,4.443,4.443,0,0,0,3.712-1.548,9.7,9.7,0,0,0,2.778-6.492" transform="translate(-323.336 -163.867)"/>
                    </g>
                  </g>
                </g>
                <g id="Grupo_1103430" data-name="Grupo 1103430" transform="translate(256.833 134.422)" opacity="0.3">
                  <g id="Grupo_1103429" data-name="Grupo 1103429">
                    <g id="Grupo_1103428" data-name="Grupo 1103428" clip-path="url(#clip-path-39)">
                      <path id="Trazado_914278" data-name="Trazado 914278" d="M321.342,171.955a3.3,3.3,0,0,0-.043-1.163l-.373-2.347a2.022,2.022,0,0,0-.8-1.588.953.953,0,0,0-1.092.2,1.426,1.426,0,0,0-.374,1.1l.014-.1a7.457,7.457,0,0,0,.491,3.617,2.463,2.463,0,0,0,.544.861.983.983,0,0,0,.922.264,1.09,1.09,0,0,0,.709-.844" transform="translate(-318.63 -166.766)"/>
                    </g>
                  </g>
                </g>
                <path id="Trazado_914279" data-name="Trazado 914279" d="M332.841,164.543c-.033.038-.666-.351-1.764-.839a16.708,16.708,0,0,0-9.17-1.247c-1.189.178-1.913.387-1.927.336a2.1,2.1,0,0,1,.5-.19,10.48,10.48,0,0,1,1.4-.347,15,15,0,0,1,9.282,1.259,10.79,10.79,0,0,1,1.254.709,1.731,1.731,0,0,1,.426.319" transform="translate(-62.059 -31.421)" fill="#fff"/>
                <path id="Trazado_914280" data-name="Trazado 914280" d="M339.021,168.681c-.051.059-.394-.3-.739-.769s-.569-.9-.505-.946.39.293.734.765.573.9.51.95" transform="translate(-65.508 -32.381)" fill="#fff"/>
                <path id="Trazado_914281" data-name="Trazado 914281" d="M307.925,166.66a2.807,2.807,0,0,1,1.231-1,2.757,2.757,0,0,1,1.5-.434,10.563,10.563,0,0,1-1.38.692,10.063,10.063,0,0,1-1.354.746" transform="translate(-59.721 -32.044)" fill="#fff"/>
                <path id="Trazado_914282" data-name="Trazado 914282" d="M292.341,174.807a25.966,25.966,0,0,0-17.634-3.724c-4.379.741-8.134,2.745-11.471,4.511l-1.8.946c-2.8,1.443-6.409,3.046-9.515,2.635a20.163,20.163,0,0,1-5.671-2.1c-1.249-.576-2.5-1.193-3.859-1.727-12.709-4.878-29.161,2.048-36.161,13.3l5.662.694,14.85,1.063c.517.037,1.033.053,1.552.048,4.088-.035,22.692.291,33.081.256,11.664-.04,25.822-.925,25.822-.925l11.857-.929,7.172-1.011c-2.493-3.169-8.563-9.827-13.888-13.032" transform="translate(-39.998 -33.12)" fill="#ffc09d"/>
                <path id="Trazado_914283" data-name="Trazado 914283" d="M299.38,173.077a1.957,1.957,0,0,1-.418-.131c-.275-.091-.663-.252-1.181-.418a30.2,30.2,0,0,0-4.474-1.133,27.479,27.479,0,0,0-6.845-.294,24.127,24.127,0,0,0-4,.626,23.029,23.029,0,0,0-4.105,1.39c-2.716,1.2-5.058,2.8-7.374,3.961a19.348,19.348,0,0,1-6.564,2.155,9.524,9.524,0,0,1-4.594-.621,8.93,8.93,0,0,1-1.13-.542,2.34,2.34,0,0,1-.368-.231c0-.03.531.283,1.549.661a9.714,9.714,0,0,0,4.519.545,19.585,19.585,0,0,0,6.444-2.189c2.291-1.161,4.627-2.777,7.38-4a22.73,22.73,0,0,1,4.167-1.4,24.15,24.15,0,0,1,4.053-.626,27.33,27.33,0,0,1,11.35,1.574c.512.183.893.368,1.162.471a2.307,2.307,0,0,1,.425.2" transform="translate(-50.102 -33.118)" fill="#263238"/>
                <path id="Trazado_914284" data-name="Trazado 914284" d="M287.189,172.914c0,.094-1.251.323-2.634.918s-2.435,1.293-2.5,1.2a8.313,8.313,0,0,1,5.126-2.142Z" transform="translate(-54.703 -33.531)" fill="#fff"/>
                <path id="Trazado_914285" data-name="Trazado 914285" d="M235.714,175.651a14.688,14.688,0,0,1-2.364.428,14.955,14.955,0,0,1-2.377.346,7.076,7.076,0,0,1,2.328-.645,7.274,7.274,0,0,1,2.413-.129" transform="translate(-44.796 -34.058)" fill="#fff"/>
                <path id="Trazado_914286" data-name="Trazado 914286" d="M236.31,179.71a2.3,2.3,0,0,1-1.095.3,2.469,2.469,0,0,1-1.132.01,2.367,2.367,0,0,1,1.095-.3c.619-.082,1.12-.093,1.132-.01" transform="translate(-45.4 -34.843)" fill="#fff"/>
                <path id="Trazado_914287" data-name="Trazado 914287" d="M302.563,188.413a.99.99,0,0,1-.192-.181l-.527-.563c-.464-.493-1.137-1.233-2.031-2.155a47.809,47.809,0,0,0-8.231-6.994,21.72,21.72,0,0,0-6.721-2.969,21.361,21.361,0,0,0-8.379-.412,17.436,17.436,0,0,0-4.387,1.273,42.819,42.819,0,0,0-4.266,2.292A32.018,32.018,0,0,1,263.3,181a21.4,21.4,0,0,1-15.111.106c-3.09-1.127-5.907-2.608-8.821-3.219a21.261,21.261,0,0,0-8.393-.075,26.038,26.038,0,0,0-7.018,2.363,35.652,35.652,0,0,0-8.789,6.383c-.931.9-1.62,1.642-2.09,2.14-.217.233-.392.421-.532.57a1.045,1.045,0,0,1-.193.184,1.079,1.079,0,0,1,.156-.218c.131-.16.293-.359.5-.605.447-.522,1.116-1.285,2.031-2.213a34.581,34.581,0,0,1,8.771-6.565,26.178,26.178,0,0,1,7.1-2.455,21.548,21.548,0,0,1,8.558.031c2.99.617,5.837,2.105,8.886,3.207a21.016,21.016,0,0,0,14.781-.109,31.663,31.663,0,0,0,4.461-2.259,42.773,42.773,0,0,1,4.32-2.3,17.822,17.822,0,0,1,4.5-1.29,21.816,21.816,0,0,1,15.349,3.54,45.578,45.578,0,0,1,8.182,7.16c.876.946,1.527,1.709,1.968,2.226l.49.6a1.032,1.032,0,0,1,.155.215" transform="translate(-41.185 -33.833)" fill="#263238"/>
                <path id="Trazado_914288" data-name="Trazado 914288" d="M301.112,190.169a.863.863,0,0,1-.191-.148l-.526-.473-1.989-1.854a41.5,41.5,0,0,0-7.936-5.935,20.469,20.469,0,0,0-14.111-1.884,26.461,26.461,0,0,0-7.874,3.576,29.062,29.062,0,0,1-4.177,2.089,21.432,21.432,0,0,1-13.942.474c-2.9-.916-5.487-2.278-8.1-3.107a20.207,20.207,0,0,0-7.662-.9,24.717,24.717,0,0,0-6.64,1.41,25.113,25.113,0,0,0-8.514,5.086c-.887.794-1.523,1.469-1.956,1.926l-.491.522c-.112.117-.173.174-.179.168a.992.992,0,0,1,.141-.2l.455-.557a24.944,24.944,0,0,1,1.9-2.005,25.312,25.312,0,0,1,15.257-6.771,20.489,20.489,0,0,1,7.823.873c2.662.834,5.261,2.188,8.1,3.078a21.052,21.052,0,0,0,13.631-.47,28.86,28.86,0,0,0,4.113-2.051c1.317-.757,2.608-1.533,3.94-2.172a17.978,17.978,0,0,1,4.074-1.426,20.679,20.679,0,0,1,14.371,2.025,39.643,39.643,0,0,1,7.9,6.105l1.927,1.926.492.51a.9.9,0,0,1,.156.187" transform="translate(-42.052 -34.704)" fill="#263238"/>
                <path id="Trazado_914289" data-name="Trazado 914289" d="M259.049,193.589a1,1,0,0,1-.364.047c-.238.007-.592.038-1.046.019a17.192,17.192,0,0,1-3.795-.626,44.711,44.711,0,0,1-5.354-1.958,47.244,47.244,0,0,0-6.5-2.36,16.685,16.685,0,0,0-6.8-.361,17.529,17.529,0,0,0-5.35,1.742,21.61,21.61,0,0,0-4.288,3.068c-.012-.012.065-.116.225-.3a8.607,8.607,0,0,1,.738-.779,14.771,14.771,0,0,1,3.169-2.308,17.12,17.12,0,0,1,5.442-1.886,16.68,16.68,0,0,1,6.988.33,43.966,43.966,0,0,1,6.552,2.421,51.033,51.033,0,0,0,5.275,2.046,24.1,24.1,0,0,0,5.107.908" transform="translate(-43.745 -36.396)" fill="#263238"/>
                <path id="Trazado_914290" data-name="Trazado 914290" d="M303.036,192.857c-.053.079-1.4-.988-3.706-2.442a17.109,17.109,0,0,0-4.316-1.947,10.343,10.343,0,0,0-5.681-.036,25.6,25.6,0,0,0-5.357,2.39,33.01,33.01,0,0,1-4.387,2.128,11.818,11.818,0,0,1-3.189.747,3.622,3.622,0,0,1-1.194-.035,15.627,15.627,0,0,0,4.263-1.051,37.685,37.685,0,0,0,4.3-2.2,24.548,24.548,0,0,1,5.447-2.471,10.566,10.566,0,0,1,5.926.077,16.411,16.411,0,0,1,4.375,2.092,32.1,32.1,0,0,1,2.629,1.947,5.347,5.347,0,0,1,.894.8" transform="translate(-53.375 -36.374)" fill="#263238"/>
                <path id="Trazado_914291" data-name="Trazado 914291" d="M289.045,183.795c.41.649-.327,1.771-1.639,2.511s-2.713.822-3.118.173a6.064,6.064,0,0,0,.467.739c.405.649,1.8.572,3.112-.173s2.049-1.862,1.644-2.511a6.258,6.258,0,0,0-.466-.739" transform="translate(-55.137 -35.646)" fill="#455a64"/>
                <path id="Trazado_914292" data-name="Trazado 914292" d="M286.372,184.57a3.385,3.385,0,0,1,2.757-.472.75.75,0,0,0-.112-.439c-.405-.644-1.8-.567-3.113.173s-2.048,1.868-1.644,2.512a.788.788,0,0,0,.355.3,3.1,3.1,0,0,1,1.756-2.072" transform="translate(-55.11 -35.535)" fill="#455a64"/>
                <path id="Trazado_914293" data-name="Trazado 914293" d="M273.189,191.97c-.108.829-1.548,1.366-3.223,1.206s-2.949-.983-2.841-1.813a5.443,5.443,0,0,0-.121.954c-.108.829,1.166,1.64,2.841,1.807s3.127-.365,3.223-1.207a8.523,8.523,0,0,0,.121-.947" transform="translate(-51.783 -37.114)" fill="#455a64"/>
                <path id="Trazado_914294" data-name="Trazado 914294" d="M270.226,190.815a3.531,3.531,0,0,1,2.741,1.32.886.886,0,0,0,.22-.461c.1-.829-1.166-1.64-2.841-1.806s-3.127.364-3.223,1.206a.8.8,0,0,0,.093.492,3.738,3.738,0,0,1,3.009-.751" transform="translate(-51.806 -36.818)" fill="#455a64"/>
                <path id="Trazado_914295" data-name="Trazado 914295" d="M329.264,191.835l-8.429,36.631,24.469.048Z" transform="translate(-62.225 -37.206)" fill="#455a64"/>
                <g id="Grupo_1103433" data-name="Grupo 1103433" transform="translate(258.61 154.629)" opacity="0.3">
                  <g id="Grupo_1103432" data-name="Grupo 1103432">
                    <g id="Grupo_1103431" data-name="Grupo 1103431" clip-path="url(#clip-path-40)">
                      <path id="Trazado_914296" data-name="Trazado 914296" d="M329.264,191.835l-8.429,36.631,24.469.048Z" transform="translate(-320.835 -191.835)" fill="#957f2b"/>
                    </g>
                  </g>
                </g>
                <path id="Trazado_914297" data-name="Trazado 914297" d="M201.051,189.584c-.06,2.411,17.644,85.566,17.644,85.566l70.2.671L306.032,191.4Z" transform="translate(-38.993 -36.769)" fill="#c7a93a"/>
                <path id="Trazado_914298" data-name="Trazado 914298" d="M73.693,245.174a27.063,27.063,0,0,0-9.05-2.395c-6.183-.463-14.413,1.207-14.333,13.411.127,19.525,23.368,34.091,53.8,39.671s47.371-3.6,52.895-12.246c4.92-7.7,5.72-23.308-10.1-24.325-17.675-1.137-17.086,11.124-73.216-14.116" transform="translate(-9.757 -47.073)" fill="#ffc09d"/>
                <path id="Trazado_914299" data-name="Trazado 914299" d="M38.366,266.431a10.7,10.7,0,0,1-.868-15.87,13.756,13.756,0,0,1,9.6-3.666,29.661,29.661,0,0,1,10.272,2.091s32.665,15.457,49.584,17.445,29.573-1.709,34.265-2.562,16.065-1.422,18.625,5.4-.995,13.281-6.824,17.233-35.545,11.344-71.516,1.108c-29.451-8.381-43.139-21.182-43.139-21.182" transform="translate(-6.669 -47.884)" fill="#932b2c"/>
                <path id="Trazado_914300" data-name="Trazado 914300" d="M143.107,275.256a6.934,6.934,0,0,1-1.06-.082c-2.228-.346-3.92-1.752-5.412-2.994a9,9,0,0,0-3.713-2.255c-1.9-.352-3.718.859-5.825,2.259-1.977,1.311-4.218,2.8-6.85,2.982-4.041.269-7.121-2.468-9.838-4.894-2.405-2.147-4.661-4.18-7.281-4.106a12.07,12.07,0,0,0-4.388,1.4c-2.192,1-4.678,2.125-7.4,1.418-3.227-.842-4.889-3.731-6.356-6.281-1.241-2.158-2.414-4.2-4.263-4.719-1.311-.374-2.853.073-4.484.544a12.022,12.022,0,0,1-6.023.644c-2.486-.558-4.241-2.359-5.789-3.946l-.094-.1c-1.217-1.247-2.645-2.591-4.188-2.741a2.236,2.236,0,0,0-1.8.8.8.8,0,0,0-.222.742,1.677,1.677,0,0,1-3.192,1.029,4.105,4.105,0,0,1,.8-3.874,5.566,5.566,0,0,1,4.732-2.033c2.543.247,4.513,1.943,6.264,3.738l.1.1c1.282,1.315,2.608,2.676,4.121,3.016a9.314,9.314,0,0,0,4.358-.594c1.919-.555,4.094-1.182,6.329-.549,3.161.9,4.8,3.753,6.256,6.273,1.249,2.171,2.429,4.221,4.295,4.707,1.569.41,3.232-.348,5.162-1.225a14.693,14.693,0,0,1,5.687-1.7c3.926-.122,6.946,2.585,9.6,4.957,2.438,2.177,4.752,4.25,7.37,4.05,1.75-.122,3.44-1.244,5.229-2.432,2.371-1.573,5.057-3.358,8.285-2.762a11.725,11.725,0,0,1,5.254,2.975,8.675,8.675,0,0,0,3.78,2.258c1.826.284,3.667-.963,5.62-2.281,2.213-1.5,4.727-3.181,7.728-2.9a1.677,1.677,0,1,1-.322,3.339c-1.809-.178-3.616,1.045-5.531,2.338-2.027,1.369-4.294,2.9-6.95,2.9" transform="translate(-10.619 -48.297)" fill="#f54749"/>
                <path id="Trazado_914301" data-name="Trazado 914301" d="M90.544,259.8a9.6,9.6,0,0,0-2.5-2.042,9.58,9.58,0,0,0-3.163-.632c-.013-.057.348-.21.974-.256a4.913,4.913,0,0,1,4.264,2.015c.363.512.474.887.422.914" transform="translate(-16.463 -49.817)" fill="#fff"/>
                <path id="Trazado_914302" data-name="Trazado 914302" d="M115.061,266.929c-.017.139-1.367.014-2.971.354-1.608.322-2.8.97-2.869.85a6.509,6.509,0,0,1,5.84-1.2" transform="translate(-21.182 -51.719)" fill="#fff"/>
                <path id="Trazado_914303" data-name="Trazado 914303" d="M120.114,268.542c-.058.116-.412.056-.79-.134s-.638-.438-.58-.554.412-.056.791.134.638.438.58.554" transform="translate(-23.028 -51.938)" fill="#fff"/>
                <path id="Trazado_914304" data-name="Trazado 914304" d="M151.166,272.6a18.355,18.355,0,0,0-3.58-.1,18.287,18.287,0,0,0-3.426,1.045,6.485,6.485,0,0,1,7.006-.942" transform="translate(-27.958 -52.747)" fill="#fff"/>
                <path id="Trazado_914305" data-name="Trazado 914305" d="M178.967,271.653c0,.139-1.419.2-3.067.705-1.654.489-2.87,1.224-2.946,1.106a7.608,7.608,0,0,1,6.013-1.811" transform="translate(-33.543 -52.663)" fill="#fff"/>
                <path id="Trazado_914306" data-name="Trazado 914306" d="M64.2,251.244a8.7,8.7,0,0,0-3.629-.99,8.7,8.7,0,0,0-3.59,1.124c-.039-.041.243-.4.862-.792a5.359,5.359,0,0,1,5.467-.1c.633.368.928.717.891.76" transform="translate(-11.051 -48.444)" fill="#fff"/>
                <path id="Trazado_914307" data-name="Trazado 914307" d="M69.184,254.63c-.09.093-.613-.268-1.168-.8s-.931-1.049-.841-1.142.613.268,1.168.805.931,1.049.841,1.141" transform="translate(-13.026 -49.004)" fill="#fff"/>
                <path id="Trazado_914308" data-name="Trazado 914308" d="M60.422,263.957A33.737,33.737,0,0,0,49.34,261.54c-6.906-.268-15.521,1.74-15.434,13.456.144,19.525,26.556,34.092,61.142,39.671s53.832-3.6,60.11-12.246c5.592-7.7,6.5-23.308-11.474-24.325-20.093-1.137-19.417,11.132-83.262-14.138" transform="translate(-6.576 -50.72)" fill="#ffc09d"/>
                <path id="Trazado_914309" data-name="Trazado 914309" d="M86.695,309.446c-.879,1.1-1.8,2.3-1.673,3.779a2.024,2.024,0,0,0,1.768,1.937c1.3.094,2.138-1.277,2.54-2.487a4.357,4.357,0,0,0,.2-1.006c.36-4.442-1.784-3.139-2.836-2.222" transform="translate(-16.487 -59.839)" fill="#fff"/>
                <path id="Trazado_914310" data-name="Trazado 914310" d="M102.163,298.486c-.879,1.1-1.8,2.3-1.673,3.778a2.024,2.024,0,0,0,1.768,1.938c1.3.094,2.138-1.277,2.54-2.488a4.322,4.322,0,0,0,.2-1.006c.36-4.442-1.783-3.139-2.835-2.222" transform="translate(-19.487 -57.713)" fill="#fff"/>
                <path id="Trazado_914311" data-name="Trazado 914311" d="M61.455,296.987c-.879,1.1-1.8,2.3-1.673,3.778A2.025,2.025,0,0,0,61.55,302.7c1.3.094,2.138-1.277,2.539-2.487a4.325,4.325,0,0,0,.2-1.006c.36-4.442-1.784-3.139-2.836-2.222" transform="translate(-11.592 -57.422)" fill="#fff"/>
                <path id="Trazado_914312" data-name="Trazado 914312" d="M138.474,313.587c-.474,1.327-.957,2.755-.357,4.117a2.023,2.023,0,0,0,2.3,1.259c1.261-.332,1.609-1.9,1.6-3.176a4.322,4.322,0,0,0-.136-1.016c-1.1-4.32-2.705-2.392-3.4-1.183" transform="translate(-26.733 -60.53)" fill="#fff"/>
                <path id="Trazado_914313" data-name="Trazado 914313" d="M107.955,313.555c-.475,1.327-.957,2.756-.357,4.117a2.024,2.024,0,0,0,2.3,1.259c1.261-.332,1.609-1.9,1.6-3.176a4.282,4.282,0,0,0-.137-1.016c-1.1-4.32-2.7-2.392-3.4-1.183" transform="translate(-20.814 -60.524)" fill="#fff"/>
                <path id="Trazado_914314" data-name="Trazado 914314" d="M122.692,308.289c-.474,1.327-.956,2.756-.357,4.117a2.023,2.023,0,0,0,2.3,1.259c1.261-.332,1.609-1.9,1.6-3.176a4.329,4.329,0,0,0-.136-1.016c-1.1-4.32-2.705-2.392-3.4-1.183" transform="translate(-23.672 -59.502)" fill="#fff"/>
                <path id="Trazado_914315" data-name="Trazado 914315" d="M78.281,299.412c-1.1.879-2.263,1.839-2.471,3.312a2.024,2.024,0,0,0,1.294,2.282c1.247.381,2.368-.77,3.028-1.86a4.321,4.321,0,0,0,.419-.937c1.338-4.252-1.041-3.457-2.271-2.8" transform="translate(-14.699 -57.968)" fill="#fff"/>
                <path id="Trazado_914316" data-name="Trazado 914316" d="M59.733,266.246a5.932,5.932,0,0,1-1.121-.334c-.713-.237-1.741-.585-3.028-.953a21.81,21.81,0,0,0-10.266-.728,12.686,12.686,0,0,0-5.15,2.275,10.075,10.075,0,0,0-4.03,7.651c-.016,0-.032-.1-.049-.3a5.668,5.668,0,0,1-.006-.874,8.6,8.6,0,0,1,.833-3.1,10.609,10.609,0,0,1,2.986-3.716,12.782,12.782,0,0,1,5.321-2.392,17.752,17.752,0,0,1,5.825-.178,26.637,26.637,0,0,1,4.631,1.048c1.286.411,2.3.808,3,1.1a5.336,5.336,0,0,1,1.058.5" transform="translate(-6.996 -51.092)" fill="#fff"/>
                <path id="Trazado_914317" data-name="Trazado 914317" d="M90.364,276.188a3.2,3.2,0,0,1-.861-.2c-.544-.157-1.327-.4-2.29-.709-1.926-.621-4.576-1.515-7.468-2.6s-5.471-2.189-7.3-3.056c-.916-.433-1.65-.8-2.148-1.07a3.2,3.2,0,0,1-.754-.461,28.16,28.16,0,0,1,3.036,1.228c1.86.787,4.447,1.833,7.333,2.92l7.412,2.729,2.241.85a3.232,3.232,0,0,1,.8.372" transform="translate(-13.487 -51.994)" fill="#fff"/>
                <path id="Trazado_914318" data-name="Trazado 914318" d="M103.068,281.013a6.406,6.406,0,0,1-1.96-.526,6.393,6.393,0,0,1-1.9-.714,3.613,3.613,0,0,1,2.043.268c1.091.348,1.874.861,1.816.973" transform="translate(-19.241 -54.248)" fill="#fff"/>
                <path id="Trazado_914319" data-name="Trazado 914319" d="M172.632,291.464c-.048.029-.392-.629-1.248-1.635a13.817,13.817,0,0,0-4.444-3.307,20.425,20.425,0,0,0-8-1.885,52.432,52.432,0,0,0-10.126.914,76.347,76.347,0,0,1-10.184,1.163,57.532,57.532,0,0,1-8.368-.306,54.338,54.338,0,0,1-5.567-.914c-.651-.142-1.152-.269-1.49-.363a2.336,2.336,0,0,1-.51-.163,2.27,2.27,0,0,1,.531.071l1.5.275c1.307.232,3.2.538,5.566.764a61.446,61.446,0,0,0,8.318.2,80.385,80.385,0,0,0,10.127-1.195,50.853,50.853,0,0,1,10.217-.883,20.318,20.318,0,0,1,8.125,2.02,13.353,13.353,0,0,1,4.437,3.487,9.7,9.7,0,0,1,.865,1.274,2.3,2.3,0,0,1,.243.478" transform="translate(-23.797 -55.115)" fill="#fff"/>
                <path id="Trazado_914320" data-name="Trazado 914320" d="M306.413,196.474a.989.989,0,0,1-.081.185c-.068.134-.155.308-.267.532L305,199.25,300.937,207c-3.524,6.658-8.519,16.1-14.441,27.287l-.053.1h-.114l-32.622-.107-30.973-.14h-.116l-.053-.1-14.717-28.445-4.161-8.111-1.089-2.159-.273-.559a1.1,1.1,0,0,1-.084-.194,1.011,1.011,0,0,1,.111.18l.3.544q.4.751,1.142,2.131l4.256,8.061L222.9,233.858l-.168-.1,30.973.1,32.622.149-.168.1,14.576-27.216,4.159-7.7c.48-.875.852-1.554,1.114-2.03.123-.218.219-.389.293-.518a.949.949,0,0,1,.108-.171" transform="translate(-39.224 -37.736)" fill="#263238"/>
              </g>
            </g>
          </g>
        </g>
      </g>
    </g>
  </g>
</svg>
