<svg xmlns="http://www.w3.org/2000/svg" width="1240" height="927" viewBox="0 0 1240 927">
  <g id="Grupo_1103731" data-name="Grupo 1103731" transform="translate(-180.333 -442)">
    <path id="Trazado_876676" data-name="Trazado 876676" d="M20,0H1220a20,20,0,0,1,20,20V907a20,20,0,0,1-20,20H20A20,20,0,0,1,0,907V20A20,20,0,0,1,20,0Z" transform="translate(180.333 442)" fill="#f6f6f6"/>
    <rect id="Rectángulo_401673" data-name="Rectángulo 401673" width="400" height="79.719" rx="11" transform="translate(916 552.645)" fill="#2994a3"/>
    <rect id="Rectángulo_401674" data-name="Rectángulo 401674" width="400" height="79.719" rx="11" transform="translate(286 552.645)" fill="#2994a3"/>
    <rect id="Rectángulo_401562" data-name="Rectángulo 401562" width="151.094" height="32.267" rx="11" transform="translate(725.453 486.045)" fill="#33b9cb"/>
    <text id="Sustancias_tóxicas" data-name="Sustancias tóxicas" transform="translate(740.453 492.045)" fill="#12263f" font-size="14" font-family="Roboto-Black, Roboto" font-weight="800"><tspan x="1.688" y="13">Sustancias tóxicas</tspan></text>
    <text id="Pueden_ser_por" data-name="Pueden ser por" transform="translate(382.205 656.604)" fill="#12263f" font-size="14" font-family="Roboto-Black, Roboto" font-weight="800"><tspan x="54.327" y="13">Pueden ser por</tspan></text>
    <text id="Produce" transform="translate(210.837 810.578)" fill="#12263f" font-size="14" font-family="Roboto-Black, Roboto" font-weight="800"><tspan x="3.049" y="13">Produce</tspan></text>
    <text id="Tales_como" data-name="Tales como" transform="translate(915 812.078)" fill="#12263f" font-size="14" font-family="Roboto-Black, Roboto" font-weight="800"><tspan x="2.253" y="13">Tales como</tspan></text>
    <text id="Produce-2" data-name="Produce" transform="translate(352.808 1030.419)" fill="#12263f" font-size="14" font-family="Roboto-Black, Roboto" font-weight="800"><tspan x="3.049" y="13">Produce</tspan></text>
    <text id="Produce-3" data-name="Produce" transform="translate(483.333 951.449)" fill="#12263f" font-size="14" font-family="Roboto-Black, Roboto" font-weight="800"><tspan x="3.049" y="13">Produce</tspan></text>
    <text id="Puede_darse_por" data-name="Puede darse por" transform="translate(325.324 810.578)" fill="#12263f" font-size="14" font-family="Roboto-Black, Roboto" font-weight="800"><tspan x="2.735" y="13">Puede darse por</tspan></text>
    <text id="Puede_darse_por-2" data-name="Puede darse por" transform="translate(458.333 810.578)" fill="#12263f" font-size="14" font-family="Roboto-Black, Roboto" font-weight="800"><tspan x="2.735" y="13">Puede darse por</tspan></text>
    <text id="Como" transform="translate(595.333 810.578)" fill="#12263f" font-size="14" font-family="Roboto-Black, Roboto" font-weight="800"><tspan x="36.026" y="13">Como</tspan></text>
    <text id="Como-2" data-name="Como" transform="translate(732.333 810.578)" fill="#12263f" font-size="14" font-family="Roboto-Black, Roboto" font-weight="800"><tspan x="36.026" y="13">Como</tspan></text>
    <text id="Pueden_ser_por-2" data-name="Pueden ser por" transform="translate(1063.042 655.112)" fill="#12263f" font-size="14" font-family="Roboto-Black, Roboto" font-weight="800"><tspan x="3.128" y="13">Pueden ser por</tspan></text>
    <text id="Sustancias_tóxicas_derivadas_del_procedimiento_de_preparación_y_almacenamiento_de_los_alimentos." data-name="Sustancias tóxicas derivadas del procedimiento de preparación y almacenamiento de los alimentos." transform="translate(302.594 569.265)" fill="#12263f" font-size="16" font-family="Roboto-Regular, Roboto"><tspan x="2.109" y="15">Sustancias tóxicas derivadas del procedimiento de </tspan><tspan x="10.07" y="39">preparación y almacenamiento de los alimentos.</tspan></text>
    <text id="Sustancias_tóxicas_procedentes_de_la_contaminación_ambiental." data-name="Sustancias tóxicas procedentes de la contaminación ambiental." transform="translate(941.065 569.265)" fill="#12263f" font-size="16" font-family="Roboto-Regular, Roboto"><tspan x="44.022" y="15">Sustancias tóxicas procedentes de la </tspan><tspan x="83.694" y="39">contaminación ambiental.</tspan></text>
    <path id="Trazado_876618" data-name="Trazado 876618" d="M-2248.437-8689.887v12.426h-315.72v21.907" transform="translate(3049.438 9208.198)" fill="none" stroke="#12263f" stroke-width="1"/>
    <path id="Trazado_876619" data-name="Trazado 876619" d="M-2015.627-8650.57V-8672.5h-315.145" transform="translate(3132.626 9203.215)" fill="none" stroke="#12263f" stroke-width="1"/>
    <path id="Trazado_876620" data-name="Trazado 876620" d="M-10647.158-8744.535v19.212" transform="translate(11131.763 9376.898)" fill="none" stroke="#707070" stroke-width="1"/>
    <path id="Trazado_876621" data-name="Trazado 876621" d="M-10647.158-8744.535v19.212" transform="translate(11764.309 9378.277)" fill="none" stroke="#12263f" stroke-width="1"/>
    <rect id="Rectángulo_401675" data-name="Rectángulo 401675" width="121.594" height="84.003" rx="11" transform="translate(181 698.602)" fill="#f8d348"/>
    <rect id="Rectángulo_401720" data-name="Rectángulo 401720" width="121.594" height="84.003" rx="11" transform="translate(890.073 698.602)" fill="#f8d348"/>
    <rect id="Rectángulo_401715" data-name="Rectángulo 401715" width="121.594" height="84.003" rx="11" transform="translate(318.377 698.602)" fill="#f8d348"/>
    <rect id="Rectángulo_401721" data-name="Rectángulo 401721" width="121.594" height="84.003" rx="11" transform="translate(1027.45 698.602)" fill="#f8d348"/>
    <rect id="Rectángulo_401716" data-name="Rectángulo 401716" width="121.594" height="84.003" rx="11" transform="translate(452.333 698.602)" fill="#f8d348"/>
    <rect id="Rectángulo_401722" data-name="Rectángulo 401722" width="121.594" height="84.003" rx="11" transform="translate(1161.333 698.602)" fill="#f8d348"/>
    <rect id="Rectángulo_401717" data-name="Rectángulo 401717" width="121.594" height="84.003" rx="11" transform="translate(589.333 698.602)" fill="#f8d348"/>
    <rect id="Rectángulo_401723" data-name="Rectángulo 401723" width="121.594" height="84.003" rx="11" transform="translate(1298.333 698.602)" fill="#f8d348"/>
    <rect id="Rectángulo_401718" data-name="Rectángulo 401718" width="121.594" height="84.003" rx="11" transform="translate(726.333 698.602)" fill="#f8d348"/>
    <text id="Derivados_de_la_pirólisis." data-name="Derivados de la pirólisis." transform="translate(195.54 725.014)" fill="#12263f" font-size="14" font-family="Roboto-Regular, Roboto"><tspan x="3.86" y="13">Derivados de </tspan><tspan x="10.997" y="27">la pirólisis.</tspan></text>
    <text id="Metales_pesados." data-name="Metales pesados." transform="translate(904.613 725.014)" fill="#12263f" font-size="14" font-family="Roboto-Regular, Roboto"><tspan x="19.381" y="13">Metales </tspan><tspan x="15.867" y="27">pesados.</tspan></text>
    <text id="Derivados_de_la_fracción_nitrogenada." data-name="Derivados de la fracción nitrogenada." transform="translate(332.917 710.43)" fill="#12263f" font-size="14" font-family="Roboto-Regular, Roboto"><tspan x="3.86" y="13">Derivados de </tspan><tspan x="11.721" y="27">la fracción </tspan><tspan x="5.268" y="41">nitrogenada.</tspan></text>
    <text id="Radionúclidos." transform="translate(1041.99 732.43)" fill="#12263f" font-size="14" font-family="Roboto-Regular, Roboto"><tspan x="0.881" y="13">Radionúclidos.</tspan></text>
    <text id="Derivados_de_la_fracción_lipídica." data-name="Derivados de la fracción lipídica." transform="translate(468.333 710.43)" fill="#12263f" font-size="14" font-family="Roboto-Regular, Roboto"><tspan x="3.86" y="13">Derivados de </tspan><tspan x="11.721" y="27">la fracción </tspan><tspan x="20.297" y="41">lipídica.</tspan></text>
    <text id="Residuos_de_producción_agrícola_y_ganadera." data-name="Residuos de producción agrícola y ganadera." transform="translate(1170.333 710.43)" fill="#12263f" font-size="14" font-family="Roboto-Regular, Roboto"><tspan x="13.3" y="13">Residuos de </tspan><tspan x="16.516" y="27">producción </tspan><tspan x="21.383" y="41">agrícola y </tspan><tspan x="20.481" y="55">ganadera.</tspan></text>
    <text id="Materiales_que_generan_toxicidad_en_los_alimentos." data-name="Materiales que generan toxicidad en los alimentos." transform="translate(605.333 710.43)" fill="#12263f" font-size="14" font-family="Roboto-Regular, Roboto"><tspan x="11.506" y="13">Materiales </tspan><tspan x="5.924" y="27">que generan </tspan><tspan x="6.635" y="41">toxicidad en </tspan><tspan x="0.705" y="55">los alimentos.</tspan></text>
    <text id="Residuos_de_productos_farmacológicos." data-name="Residuos de productos farmacológicos." transform="translate(1304.333 710.43)" fill="#12263f" font-size="14" font-family="Roboto-Regular, Roboto"><tspan x="16.683" y="13">Residuos de </tspan><tspan x="23.296" y="27">productos </tspan><tspan x="4.176" y="41">farmacológicos.</tspan></text>
    <text id="Presencia_de_hidrocarburos_policlorados." data-name="Presencia de hidrocarburos policlorados." transform="translate(743.333 710.43)" fill="#12263f" font-size="14" font-family="Roboto-Regular, Roboto"><tspan x="4.144" y="13">Presencia de </tspan><tspan x="0.989" y="27">hidrocarburos </tspan><tspan x="4.209" y="41">policlorados.</tspan></text>
    <rect id="Rectángulo_401684" data-name="Rectángulo 401684" width="120.675" height="68.368" rx="11" transform="translate(181 851)" fill="#fcedb6"/>
    <rect id="Rectángulo_401685" data-name="Rectángulo 401685" width="120.271" height="68.368" rx="11" transform="translate(319.699 851)" fill="#fcedb6"/>
    <rect id="Rectángulo_401719" data-name="Rectángulo 401719" width="120.271" height="68.368" rx="11" transform="translate(319.699 940.786)" fill="#fcedb6"/>
    <rect id="Rectángulo_401686" data-name="Rectángulo 401686" width="123.063" height="23.927" rx="11" transform="translate(317.803 1066.182)" fill="#fcedb6"/>
    <rect id="Rectángulo_401687" data-name="Rectángulo 401687" width="123.063" height="23.927" rx="11" transform="translate(317.803 1150.979)" fill="#fcedb6"/>
    <rect id="Rectángulo_401689" data-name="Rectángulo 401689" width="120.675" height="66.033" rx="11" transform="translate(181 941.496)" fill="#fcedb6"/>
    <rect id="Rectángulo_401691" data-name="Rectángulo 401691" width="144.063" height="23.546" rx="11" transform="translate(307.803 1109.031)" fill="#fcedb6"/>
    <text id="Hidrocarburos_aromáticos_policíclicos_HAP_." data-name="Hidrocarburos aromáticos policíclicos (HAP)." transform="translate(184.826 858.578)" fill="#12263f" font-size="14" font-family="Roboto-Regular, Roboto"><tspan x="13.967" y="13">Hidrocarburos </tspan><tspan x="23.13" y="28">aromáticos </tspan><tspan x="0.951" y="43">policíclicos (HAP).</tspan></text>
    <text id="Interacción_proteína_-_proteína." data-name="Interacción proteína - proteína." transform="translate(334.98 858.578)" fill="#12263f" font-size="14" font-family="Roboto-Regular, Roboto"><tspan x="10.172" y="13">Interacción </tspan><tspan x="15.576" y="28">proteína - </tspan><tspan x="17.398" y="43">proteína.</tspan></text>
    <text id="Interacción_proteína_-_hidratos." data-name="Interacción proteína - hidratos." transform="translate(334.98 949.818)" fill="#12263f" font-size="14" font-family="Roboto-Regular, Roboto"><tspan x="10.172" y="13">Interacción </tspan><tspan x="15.576" y="28">proteína - </tspan><tspan x="17.651" y="43">hidratos.</tspan></text>
    <text id="Acliramida." transform="translate(328.057 1071.182)" fill="#12263f" font-size="14" font-family="Roboto-Regular, Roboto"><tspan x="16.388" y="13">Acliramida.</tspan></text>
    <text id="Aminas_biogenas." data-name="Aminas biogenas." transform="translate(315.803 1113.404)" fill="#12263f" font-size="14" font-family="Roboto-Regular, Roboto"><tspan x="8.396" y="13">Aminas biogenas.</tspan></text>
    <text id="Nitrosaminas." transform="translate(326.803 1154.105)" fill="#12263f" font-size="14" font-family="Roboto-Regular, Roboto"><tspan x="9.186" y="13">Nitrosaminas.</tspan></text>
    <text id="Áminas_eterocíclicas_AH_." data-name="Áminas eterocíclicas (AH)." transform="translate(188.827 950.791)" fill="#12263f" font-size="14" font-family="Roboto-Regular, Roboto"><tspan x="28.831" y="13">Áminas </tspan><tspan x="12.978" y="26">eterocíclicas </tspan><tspan x="36.286" y="39">(AH).</tspan></text>
    <rect id="Rectángulo_401709" data-name="Rectángulo 401709" width="119.042" height="26.814" rx="11" transform="translate(891.333 851)" fill="#fcedb6"/>
    <rect id="Rectángulo_401731" data-name="Rectángulo 401731" width="119.042" height="26.814" rx="11" transform="translate(1299.333 851)" fill="#fcedb6"/>
    <rect id="Rectángulo_401726" data-name="Rectángulo 401726" width="119.042" height="26.814" rx="11" transform="translate(1161.959 851)" fill="#fcedb6"/>
    <rect id="Rectángulo_401710" data-name="Rectángulo 401710" width="119.041" height="26.814" rx="11" transform="translate(891.333 987.888)" fill="#fcedb6"/>
    <rect id="Rectángulo_401727" data-name="Rectángulo 401727" width="119.041" height="26.814" rx="11" transform="translate(1299.333 987.888)" fill="#fcedb6"/>
    <rect id="Rectángulo_401711" data-name="Rectángulo 401711" width="119.042" height="26.814" rx="11" transform="translate(891.333 896.735)" fill="#fcedb6"/>
    <rect id="Rectángulo_401730" data-name="Rectángulo 401730" width="119.042" height="26.814" rx="11" transform="translate(1299.333 896.735)" fill="#fcedb6"/>
    <rect id="Rectángulo_401725" data-name="Rectángulo 401725" width="119.042" height="26.814" rx="11" transform="translate(1161.959 896.735)" fill="#fcedb6"/>
    <rect id="Rectángulo_401712" data-name="Rectángulo 401712" width="119.042" height="26.814" rx="11" transform="translate(891.333 1033.623)" fill="#fcedb6"/>
    <rect id="Rectángulo_401728" data-name="Rectángulo 401728" width="119.042" height="26.814" rx="11" transform="translate(1299.333 1033.623)" fill="#fcedb6"/>
    <rect id="Rectángulo_401713" data-name="Rectángulo 401713" width="119.042" height="26.814" rx="11" transform="translate(891.333 942.471)" fill="#fcedb6"/>
    <rect id="Rectángulo_401729" data-name="Rectángulo 401729" width="119.042" height="26.814" rx="11" transform="translate(1299.333 942.471)" fill="#fcedb6"/>
    <rect id="Rectángulo_401724" data-name="Rectángulo 401724" width="119.042" height="26.814" rx="11" transform="translate(1161.959 942.471)" fill="#fcedb6"/>
    <rect id="Rectángulo_401714" data-name="Rectángulo 401714" width="119.042" height="26.814" rx="11" transform="translate(891.333 1079.358)" fill="#fcedb6"/>
    <text id="Plomo." transform="translate(896.333 854.752)" fill="#12263f" font-size="14" font-family="Roboto-Regular, Roboto"><tspan x="32.385" y="13">Plomo.</tspan></text>
    <text id="Antibióticos." transform="translate(1304.333 854.752)" fill="#12263f" font-size="14" font-family="Roboto-Regular, Roboto"><tspan x="15.337" y="13">Antibióticos.</tspan></text>
    <text id="Organofosforados." transform="translate(1166.958 854.752)" fill="#12263f" font-size="12" font-family="Roboto-Regular, Roboto"><tspan x="4.241" y="11">Organofosforados.</tspan></text>
    <text id="Cobre." transform="translate(892.333 993.42)" fill="#12263f" font-size="14" font-family="Roboto-Regular, Roboto"><tspan x="37.731" y="13">Cobre.</tspan></text>
    <text id="Tranquilizadores." transform="translate(1300.333 993.42)" fill="#12263f" font-size="14" font-family="Roboto-Regular, Roboto"><tspan x="4.624" y="13">Tranquilizadores.</tspan></text>
    <text id="Mercurio." transform="translate(902.333 902.529)" fill="#12263f" font-size="14" font-family="Roboto-Regular, Roboto"><tspan x="18.906" y="13">Mercurio.</tspan></text>
    <text id="Beta-antagonistas." transform="translate(1299.333 902.529)" fill="#12263f" font-size="14" font-family="Roboto-Regular, Roboto"><tspan x="0.842" y="13">Beta-antagonistas.</tspan></text>
    <text id="Organoclorados." transform="translate(1166.958 902.529)" fill="#12263f" font-size="14" font-family="Roboto-Regular, Roboto"><tspan x="2.964" y="13">Organoclorados.</tspan></text>
    <text id="Selenio." transform="translate(902.333 1041.123)" fill="#12263f" font-size="14" font-family="Roboto-Regular, Roboto"><tspan x="23.79" y="13">Selenio.</tspan></text>
    <text id="Antitiroideos." transform="translate(1310.333 1041.123)" fill="#12263f" font-size="14" font-family="Roboto-Regular, Roboto"><tspan x="6.964" y="13">Antitiroideos.</tspan></text>
    <text id="Cadmio." transform="translate(902.333 949.658)" fill="#12263f" font-size="14" font-family="Roboto-Regular, Roboto"><tspan x="22.474" y="13">Cadmio.</tspan></text>
    <text id="Anabolizantes." transform="translate(1310.333 949.658)" fill="#12263f" font-size="14" font-family="Roboto-Regular, Roboto"><tspan x="2.315" y="13">Anabolizantes.</tspan></text>
    <text id="Carbamatos." transform="translate(1166.958 949.658)" fill="#12263f" font-size="14" font-family="Roboto-Regular, Roboto"><tspan x="14.383" y="13">Carbamatos.</tspan></text>
    <text id="Arsénico." transform="translate(902.333 1086.358)" fill="#12263f" font-size="14" font-family="Roboto-Regular, Roboto"><tspan x="19.142" y="13">Arsénico.</tspan></text>
    <path id="Trazado_876625" data-name="Trazado 876625" d="M-11646.988-8841.3v-17.287h407.846v17.287" transform="translate(12597.86 9539.897)" fill="none" stroke="#12263f" stroke-width="1"/>
    <path id="Trazado_876627" data-name="Trazado 876627" d="M-11646.989-8841.3v-17.287h548.2v17.287" transform="translate(11888.785 9539.897)" fill="none" stroke="#12263f" stroke-width="1"/>
    <text id="Pueden_ser_como" data-name="Pueden ser como" transform="translate(1164.333 814.746)" fill="#12263f" font-size="14" font-family="Roboto-Black, Roboto" font-weight="800"><tspan x="1.937" y="13">Pueden ser como</tspan></text>
    <text id="Como-3" data-name="Como" transform="translate(1301.333 814.746)" fill="#12263f" font-size="14" font-family="Roboto-Black, Roboto" font-weight="800"><tspan x="38.526" y="13">Como</tspan></text>
    <path id="Trazado_876623" data-name="Trazado 876623" d="M-10647.158-8744.535v19.212" transform="translate(10888.955 9528.613)" fill="none" stroke="#12263f" stroke-width="1"/>
    <path id="Trazado_876640" data-name="Trazado 876640" d="M-10647.158-8744.535v19.212" transform="translate(10888.955 9575.613)" fill="none" stroke="#12263f" stroke-width="1"/>
    <path id="Trazado_876641" data-name="Trazado 876641" d="M-10647.158-8744.535v19.212" transform="translate(10888.955 9666.109)" fill="none" stroke="#12263f" stroke-width="1"/>
    <path id="Trazado_876629" data-name="Trazado 876629" d="M-10647.158-8742.267v16.943" transform="translate(11028.363 9423.925)" fill="none" stroke="#12263f" stroke-width="1"/>
    <path id="Trazado_876632" data-name="Trazado 876632" d="M-10647.158-8742.267v18.417" transform="translate(11028.363 9524.871)" fill="none" stroke="#12263f" stroke-width="1"/>
    <path id="Trazado_876639" data-name="Trazado 876639" d="M-10647.158-8742.267v18.922" transform="translate(11028.363 9574.345)" fill="none" stroke="#12263f" stroke-width="1"/>
    <path id="Trazado_876645" data-name="Trazado 876645" d="M-10647.158-8742.267v18.922" transform="translate(11028.363 9751.268)" fill="none" stroke="#12263f" stroke-width="1"/>
    <path id="Trazado_876646" data-name="Trazado 876646" d="M-10647.158-8742.267v18.922" transform="translate(11028.363 9789.526)" fill="none" stroke="#12263f" stroke-width="1"/>
    <path id="Trazado_876649" data-name="Trazado 876649" d="M-10647.158-8742.267v18.922" transform="translate(11028.363 9832.376)" fill="none" stroke="#12263f" stroke-width="1"/>
    <path id="Trazado_876650" data-name="Trazado 876650" d="M-10647.158-8742.267v18.922" transform="translate(11028.363 9874.324)" fill="none" stroke="#12263f" stroke-width="1"/>
    <path id="Trazado_876642" data-name="Trazado 876642" d="M-10647.158-8742.267v18.922" transform="translate(11028.363 9661.635)" fill="none" stroke="#12263f" stroke-width="1"/>
    <path id="Trazado_876630" data-name="Trazado 876630" d="M-10647.158-8742.267v16.943" transform="translate(11160.246 9423.925)" fill="none" stroke="#12263f" stroke-width="1"/>
    <path id="Trazado_876633" data-name="Trazado 876633" d="M-10647.158-8742.267v18.417" transform="translate(11159.991 9524.871)" fill="none" stroke="#12263f" stroke-width="1"/>
    <path id="Trazado_876638" data-name="Trazado 876638" d="M-10647.158-8742.267v18.922" transform="translate(11159.991 9574.345)" fill="none" stroke="#12263f" stroke-width="1"/>
    <path id="Trazado_876643" data-name="Trazado 876643" d="M-10647.158-8742.267v18.922" transform="translate(11159.991 9623.943)" fill="none" stroke="#12263f" stroke-width="1"/>
    <path id="Trazado_876647" data-name="Trazado 876647" d="M-10647.158-8742.267v18.922" transform="translate(11159.991 9672.601)" fill="none" stroke="#12263f" stroke-width="1"/>
    <path id="Trazado_876648" data-name="Trazado 876648" d="M-10647.158-8742.267v18.922" transform="translate(11159.991 9715.286)" fill="none" stroke="#12263f" stroke-width="1"/>
    <path id="Trazado_876651" data-name="Trazado 876651" d="M-10647.158-8742.267v18.922" transform="translate(11159.991 9763.225)" fill="none" stroke="#12263f" stroke-width="1"/>
    <path id="Trazado_876652" data-name="Trazado 876652" d="M-10647.158-8742.267v18.922" transform="translate(11159.991 9812.176)" fill="none" stroke="#12263f" stroke-width="1"/>
    <path id="Trazado_876653" data-name="Trazado 876653" d="M-10647.158-8742.267v18.922" transform="translate(11159.991 9883.398)" fill="none" stroke="#12263f" stroke-width="1"/>
    <path id="Trazado_876654" data-name="Trazado 876654" d="M-10647.158-8742.267v18.922" transform="translate(11159.991 9931.406)" fill="none" stroke="#12263f" stroke-width="1"/>
    <path id="Trazado_876631" data-name="Trazado 876631" d="M-10647.158-8742.267v16.943" transform="translate(11295.253 9423.925)" fill="none" stroke="#12263f" stroke-width="1"/>
    <path id="Trazado_876657" data-name="Trazado 876657" d="M-10647.158-8742.267v16.943" transform="translate(11737.063 9423.925)" fill="none" stroke="#12263f" stroke-width="1"/>
    <path id="Trazado_876658" data-name="Trazado 876658" d="M-10647.158-8742.267v16.943" transform="translate(11868.991 9423.925)" fill="none" stroke="#12263f" stroke-width="1"/>
    <path id="Trazado_876634" data-name="Trazado 876634" d="M-10647.158-8742.267v16.943" transform="translate(11295.253 9526.345)" fill="none" stroke="#12263f" stroke-width="1"/>
    <path id="Trazado_876637" data-name="Trazado 876637" d="M-10647.158-8742.267v18.922" transform="translate(11295.253 9574.345)" fill="none" stroke="#12263f" stroke-width="1"/>
    <path id="Trazado_876635" data-name="Trazado 876635" d="M-10647.158-8742.267v18.417" transform="translate(11434.991 9524.871)" fill="none" stroke="#12263f" stroke-width="1"/>
    <path id="Trazado_876656" data-name="Trazado 876656" d="M-10647.158-8742.267v18.417" transform="translate(11598.028 9524.871)" fill="none" stroke="#12263f" stroke-width="1"/>
    <path id="Trazado_876660" data-name="Trazado 876660" d="M-10647.158-8742.267v18.417" transform="translate(11868.991 9524.871)" fill="none" stroke="#12263f" stroke-width="1"/>
    <path id="Trazado_876661" data-name="Trazado 876661" d="M-10647.158-8742.267v18.417" transform="translate(12005.991 9524.871)" fill="none" stroke="#12263f" stroke-width="1"/>
    <path id="Trazado_876636" data-name="Trazado 876636" d="M-10647.158-8742.267v18.922" transform="translate(11434.991 9574.345)" fill="none" stroke="#12263f" stroke-width="1"/>
    <path id="Trazado_876655" data-name="Trazado 876655" d="M-10647.158-8742.267v18.922" transform="translate(11598.028 9574.345)" fill="none" stroke="#12263f" stroke-width="1"/>
    <path id="Trazado_876663" data-name="Trazado 876663" d="M-10647.158-8742.267v18.922" transform="translate(11598.028 9620.08)" fill="none" stroke="#12263f" stroke-width="1"/>
    <path id="Trazado_876673" data-name="Trazado 876673" d="M-10647.158-8742.267v18.922" transform="translate(12005.991 9620.08)" fill="none" stroke="#12263f" stroke-width="1"/>
    <path id="Trazado_876668" data-name="Trazado 876668" d="M-10647.158-8742.267v18.922" transform="translate(11868.654 9620.08)" fill="none" stroke="#12263f" stroke-width="1"/>
    <path id="Trazado_876664" data-name="Trazado 876664" d="M-10647.158-8742.267v18.922" transform="translate(11598.028 9665.815)" fill="none" stroke="#12263f" stroke-width="1"/>
    <path id="Trazado_876672" data-name="Trazado 876672" d="M-10647.158-8742.267v18.922" transform="translate(12005.991 9665.815)" fill="none" stroke="#12263f" stroke-width="1"/>
    <path id="Trazado_876669" data-name="Trazado 876669" d="M-10647.158-8742.267v18.922" transform="translate(11868.654 9665.815)" fill="none" stroke="#12263f" stroke-width="1"/>
    <path id="Trazado_876665" data-name="Trazado 876665" d="M-10647.158-8742.267v18.922" transform="translate(11598.028 9711.815)" fill="none" stroke="#12263f" stroke-width="1"/>
    <path id="Trazado_876670" data-name="Trazado 876670" d="M-10647.158-8742.267v18.922" transform="translate(12005.991 9711.815)" fill="none" stroke="#12263f" stroke-width="1"/>
    <path id="Trazado_876666" data-name="Trazado 876666" d="M-10647.158-8742.267v18.922" transform="translate(11598.028 9756.968)" fill="none" stroke="#12263f" stroke-width="1"/>
    <path id="Trazado_876671" data-name="Trazado 876671" d="M-10647.158-8742.267v18.922" transform="translate(12005.991 9756.968)" fill="none" stroke="#12263f" stroke-width="1"/>
    <path id="Trazado_876667" data-name="Trazado 876667" d="M-10647.158-8742.267v18.922" transform="translate(11598.028 9802.703)" fill="none" stroke="#12263f" stroke-width="1"/>
    <path id="Trazado_876659" data-name="Trazado 876659" d="M-10647.158-8742.267v18.922" transform="translate(11868.991 9574.345)" fill="none" stroke="#12263f" stroke-width="1"/>
    <path id="Trazado_876662" data-name="Trazado 876662" d="M-10647.158-8742.267v18.922" transform="translate(12005.991 9574.345)" fill="none" stroke="#12263f" stroke-width="1"/>
    <path id="Trazado_876644" data-name="Trazado 876644" d="M-10647.158-8742.267v18.922" transform="translate(11434.991 9638.111)" fill="none" stroke="#12263f" stroke-width="1"/>
    <rect id="Rectángulo_401688" data-name="Rectángulo 401688" width="119.359" height="64.967" rx="11" transform="translate(590.333 851)" fill="#fcedb6"/>
    <text id="Maderas_plásticos_y_metales." data-name="Maderas, plásticos y metales." transform="translate(603.333 858.578)" fill="#12263f" font-size="14" font-family="Roboto-Regular, Roboto"><tspan x="17.769" y="13">Maderas, </tspan><tspan x="13.028" y="28">plásticos y </tspan><tspan x="19.57" y="43">metales.</tspan></text>
    <rect id="Rectángulo_401692" data-name="Rectángulo 401692" width="115.089" height="29.802" rx="11" transform="translate(455.333 990.783)" fill="#fcedb6"/>
    <rect id="Rectángulo_401693" data-name="Rectángulo 401693" width="95.089" height="29.802" rx="11" transform="translate(465.333 851)" fill="#fcedb6"/>
    <rect id="Rectángulo_401695" data-name="Rectángulo 401695" width="95.088" height="29.802" rx="11" transform="translate(465.333 900.532)" fill="#fcedb6"/>
    <rect id="Rectángulo_401696" data-name="Rectángulo 401696" width="95.089" height="29.802" rx="11" transform="translate(465.333 1040.107)" fill="#fcedb6"/>
    <rect id="Rectángulo_401698" data-name="Rectángulo 401698" width="95.09" height="52.073" rx="11" transform="translate(465.333 1088.831)" fill="#fcedb6"/>
    <text id="Radicales_libres." data-name="Radicales libres." transform="translate(459.333 997.764)" fill="#12263f" font-size="14" font-family="Roboto-Regular, Roboto"><tspan x="2.648" y="13">Radicales libres.</tspan></text>
    <text id="Hidrólisis." transform="translate(479.333 858.578)" fill="#12263f" font-size="14" font-family="Roboto-Regular, Roboto"><tspan x="2.335" y="13">Hidrólisis.</tspan></text>
    <text id="Oxidación." transform="translate(466.333 906.679)" fill="#12263f" font-size="14" font-family="Roboto-Regular, Roboto"><tspan x="13.126" y="13">Oxidación.</tspan></text>
    <text id="Peróxidos." transform="translate(477.333 1046.256)" fill="#12263f" font-size="14" font-family="Roboto-Regular, Roboto"><tspan x="2.384" y="13">Peróxidos.</tspan></text>
    <text id="Ácidos_grasos_trans." data-name="Ácidos grasos trans." transform="translate(477.333 1092.257)" fill="#12263f" font-size="14" font-family="Roboto-Regular, Roboto"><tspan x="14.005" y="13">Ácidos </tspan><tspan x="14.306" y="28">grasos </tspan><tspan x="17.843" y="43">trans.</tspan></text>
    <rect id="Rectángulo_401699" data-name="Rectángulo 401699" width="121.594" height="46.822" rx="11" transform="translate(726.333 849.021)" fill="#fcedb6"/>
    <rect id="Rectángulo_401700" data-name="Rectángulo 401700" width="121.594" height="46.822" rx="11" transform="translate(726.333 915.367)" fill="#fcedb6"/>
    <text id="Policlorobifenilos_PCBs_" data-name="Policlorobifenilos (PCBs)" transform="translate(734.333 857.473)" fill="#12263f" font-size="14" font-family="Roboto-Regular, Roboto"><tspan x="2.138" y="13">Policlorobifenilo</tspan><tspan x="25.373" y="28">s (PCBs)</tspan></text>
    <text id="Dioxinas_y_furanos." data-name="Dioxinas y furanos." transform="translate(737.333 922.367)" fill="#12263f" font-size="14" font-family="Roboto-Regular, Roboto"><tspan x="17.737" y="13">Dioxinas y </tspan><tspan x="23.804" y="28">furanos.</tspan></text>
    <rect id="Rectángulo_401694" data-name="Rectángulo 401694" width="95.088" height="29.802" rx="11" transform="translate(465.333 1158.574)" fill="#fcedb6"/>
    <rect id="Rectángulo_401697" data-name="Rectángulo 401697" width="95.088" height="45.227" rx="11" transform="translate(465.333 1208.062)" fill="#fcedb6"/>
    <text id="HAP." transform="translate(466.333 1164.721)" fill="#12263f" font-size="14" font-family="Roboto-Regular, Roboto"><tspan x="31.152" y="13">HAP.</tspan></text>
    <text id="Óxidos_de_colesteros." data-name="Óxidos de colesteros." transform="translate(477.333 1213.351)" fill="#12263f" font-size="14" font-family="Roboto-Regular, Roboto"><tspan x="4.325" y="13">Óxidos de </tspan><tspan x="0.832" y="28">colesteros.</tspan></text>
  </g>
</svg>
