<svg xmlns="http://www.w3.org/2000/svg" xmlns:xlink="http://www.w3.org/1999/xlink" width="89" height="89" viewBox="0 0 89 89">
  <defs>
    <clipPath id="clip-path">
      <rect id="Rectángulo_401656" data-name="Rectángulo 401656" width="42.53" height="58.319" fill="#12263f"/>
    </clipPath>
  </defs>
  <g id="Grupo_1103714" data-name="Grupo 1103714" transform="translate(-752.5 -1486.784)">
    <g id="Grupo_1099604" data-name="Grupo 1099604" transform="translate(-498.833 1073.784)">
      <g id="Grupo_1098742" data-name="Grupo 1098742" transform="translate(48.013 24.258)">
        <rect id="Rectángulo_400898" data-name="Rectángulo 400898" width="89" height="89" rx="44.5" transform="translate(1203.32 388.742)" fill="#f8d348" opacity="0.859"/>
        <g id="Rectángulo_400907" data-name="Rectángulo 400907" transform="translate(1203.32 388.742)" fill="none" stroke="#0f1f33" stroke-linecap="round" stroke-width="2" stroke-dasharray="7">
          <rect width="89" height="89" rx="44.5" stroke="none"/>
          <rect x="1" y="1" width="87" height="87" rx="43.5" fill="none"/>
        </g>
      </g>
    </g>
    <g id="Grupo_1099714" data-name="Grupo 1099714" transform="translate(776.5 1498.921)">
      <g id="Grupo_1099713" data-name="Grupo 1099713" clip-path="url(#clip-path)">
        <path id="Trazado_876538" data-name="Trazado 876538" d="M.7,58.319a1.306,1.306,0,0,1-.7-1.3c.013-9.623,0-19.247.015-28.87a11.266,11.266,0,0,1,5.4-9.985.8.8,0,0,0,.413-.78c-.012-5.333,0-10.667-.017-16A1.4,1.4,0,0,1,6.5,0h6.366a1.3,1.3,0,0,1,.713,1.354c-.014,5.314,0,10.629-.016,15.943a.9.9,0,0,0,.445.879,11.274,11.274,0,0,1,5.382,9.993c.019,9.6,0,19.208.011,28.812a1.247,1.247,0,0,1-.737,1.337Zm16.749-1.961V55.7q0-13.7,0-27.392a11.548,11.548,0,0,0-.12-1.871,9.237,9.237,0,0,0-4.8-6.874,1.546,1.546,0,0,1-.906-1.6c.048-.787.011-1.58.011-2.372H7.756c0,.843-.034,1.656.01,2.465a1.433,1.433,0,0,1-.83,1.464,9.45,9.45,0,0,0-4.991,8.77q0,13.725,0,27.449v.622ZM7.786,13.566h3.807V6.836H7.786ZM7.779,4.834H11.6V1.98H7.779Z" transform="translate(0)" fill="#12263f"/>
        <path id="Trazado_876539" data-name="Trazado 876539" d="M71,89.676a1.226,1.226,0,0,1-.684-1.357,4.854,4.854,0,0,1,4.368-4.432c.448-.037.9-.005,1.388-.005v-10.6a27.569,27.569,0,0,1-3.236-1.326,8.458,8.458,0,0,1-4.121-5.917,13.037,13.037,0,0,1,.05-4.746q.733-5.039,1.443-10.079c.163-1.164.406-1.4,1.561-1.4H82.458c1.039,0,1.319.222,1.466,1.241.577,4.017,1.269,8.022,1.681,12.056A8.821,8.821,0,0,1,78.093,73.1v10.78c.431,0,.879-.029,1.323,0a4.861,4.861,0,0,1,4.427,4.376,1.256,1.256,0,0,1-.677,1.417ZM70.438,63.4H83.723L82.067,51.81a1.455,1.455,0,0,0-.225-.046c-3.123,0-6.246,0-9.369-.013-.39,0-.408.219-.447.5-.248,1.763-.507,3.525-.759,5.289-.275,1.929-.545,3.859-.829,5.865m13.1,2.026h-12.9a6.491,6.491,0,0,0,12.9,0M81.7,87.713a2.745,2.745,0,0,0-2.51-1.9c-1.4-.029-2.8-.036-4.2,0A2.746,2.746,0,0,0,72.6,87.3a2.238,2.238,0,0,0-.14.41Z" transform="translate(-43.128 -31.357)" fill="#12263f"/>
        <path id="Trazado_876540" data-name="Trazado 876540" d="M10.48,91.048q0-4.183,0-8.366c0-1.054.3-1.36,1.346-1.361q4.487-.006,8.974,0c1.011,0,1.307.308,1.307,1.337q0,8.366,0,16.732c0,1.065-.289,1.355-1.341,1.355q-4.487,0-8.974,0c-1,0-1.312-.314-1.313-1.332q0-4.183,0-8.366m1.968,7.722h7.673V83.3H12.448Z" transform="translate(-6.597 -51.185)" fill="#12263f"/>
      </g>
    </g>
  </g>
</svg>
