<svg xmlns="http://www.w3.org/2000/svg" xmlns:xlink="http://www.w3.org/1999/xlink" width="89" height="89" viewBox="0 0 89 89">
  <defs>
    <clipPath id="clip-path">
      <rect id="Rectángulo_401655" data-name="Rectángulo 401655" width="60.672" height="70.79" fill="#12263f"/>
    </clipPath>
  </defs>
  <g id="Grupo_1103713" data-name="Grupo 1103713" transform="translate(-336.5 -1486.635)">
    <g id="Grupo_1099606" data-name="Grupo 1099606" transform="translate(336.5 1486.635)">
      <g id="Grupo_1098742" data-name="Grupo 1098742">
        <rect id="Rectángulo_400898" data-name="Rectángulo 400898" width="89" height="89" rx="44.5" fill="#f8d348" opacity="0.859"/>
        <g id="Rectángulo_400907" data-name="Rectángulo 400907" transform="translate(0)" fill="none" stroke="#0f1f33" stroke-linecap="round" stroke-width="2" stroke-dasharray="7">
          <rect width="89" height="89" rx="44.5" stroke="none"/>
          <rect x="1" y="1" width="87" height="87" rx="43.5" fill="none"/>
        </g>
      </g>
    </g>
    <g id="Grupo_1099712" data-name="Grupo 1099712" transform="translate(351.875 1494)">
      <g id="Grupo_1099711" data-name="Grupo 1099711" clip-path="url(#clip-path)">
        <path id="Trazado_876529" data-name="Trazado 876529" d="M43.188,46.17c3.212,1.251,6.367,2.563,9.584,3.7A5.512,5.512,0,0,1,56.1,52.7c1.305,2.519,2.809,4.935,4.226,7.4.621,1.078.43,1.639-.717,2.091-1.224.482-2.441.982-3.682,1.416a.826.826,0,0,0-.658.934c.022,4.692.013,9.384.013,14.076,0,1.122-.144,1.336-1.195,1.745q-11.448,4.456-22.9,8.914a2.152,2.152,0,0,1-1.67.006q-11.507-4.5-23.025-8.971c-.921-.359-1.093-.6-1.093-1.6,0-4.692-.015-9.384.016-14.076a.955.955,0,0,0-.761-1.082C3.415,63.12,2.2,62.615.975,62.133c-1-.392-1.227-.983-.7-1.892,1.725-3,3.449-6.007,5.213-8.988a2.1,2.1,0,0,1,.995-.777c3.409-1.355,6.831-2.674,10.25-4,.254-.1.505-.205.74-.3-1.355-6.412.37-11.667,5.968-15.156,4.691-2.924,9.584-2.7,14.265.254a12.69,12.69,0,0,1,5.16,6.511c.9,2.429.965,4.072.326,8.389m9.843,18.591c-.35.128-.65.231-.945.346l-15.415,6c-1.218.474-1.5.368-2.172-.789q-1.316-2.279-2.634-4.558c-.1-.165-.212-.317-.366-.545v21.5a2.522,2.522,0,0,0,.319-.072Q42.2,82.6,52.593,78.571c.465-.179.473-.469.472-.857q-.01-6.136-.005-12.272c0-.2-.016-.4-.029-.68m-45.37-.018c-.022.173-.038.242-.038.31,0,4.276.009,8.552-.017,12.828,0,.518.3.6.645.735q8,3.109,16,6.221c1.63.634,3.262,1.261,4.942,1.91V65.162c-.2.312-.318.5-.429.687q-1.336,2.308-2.669,4.617c-.555.956-.906,1.083-1.923.688q-4.968-1.928-9.934-3.864c-2.168-.842-4.338-1.681-6.574-2.548m22.679-33.5A11.126,11.126,0,1,0,41.451,42.352,11.114,11.114,0,0,0,30.34,31.247M53.673,53.013,31.95,61.461l4.291,7.428,21.723-8.45-4.291-7.426m-24.94,8.443L7.008,53.009,2.719,60.437l21.725,8.445,4.288-7.427M9.616,51.6c.225.108.336.17.454.216q9.93,3.86,19.868,7.7a1.5,1.5,0,0,0,.977-.053c3.532-1.353,7.053-2.733,10.578-4.1,3.159-1.228,6.319-2.454,9.629-3.739L42.4,48.168c-2.646,4.79-6.594,7.509-12.043,7.511-5.47,0-9.443-2.712-12.08-7.511L9.616,51.6" transform="translate(0 -18.654)" fill="#12263f"/>
        <path id="Trazado_876530" data-name="Trazado 876530" d="M55.218,13.762a4.655,4.655,0,0,1-.862.865.873.873,0,0,1-1.219-.329q-1.431-2.37-2.766-4.8a.956.956,0,0,1,.444-1.311.912.912,0,0,1,1.316.157c1.021,1.645,1.959,3.341,2.923,5.02a.822.822,0,0,1,.046.27l.119.123" transform="translate(-32.396 -5.15)" fill="#12263f"/>
        <path id="Trazado_876531" data-name="Trazado 876531" d="M82.262,3.644c0-.808-.011-1.616,0-2.424a1.112,1.112,0,1,1,2.212.022q.016,2.459,0,4.917a1.113,1.113,0,1,1-2.211-.022c-.012-.831,0-1.662,0-2.493" transform="translate(-53.031 0)" fill="#12263f"/>
        <path id="Trazado_876532" data-name="Trazado 876532" d="M27.651,30.757a8.215,8.215,0,0,1,.868.352q2.106,1.2,4.2,2.419a1.117,1.117,0,1,1-1.1,1.918c-1.426-.808-2.84-1.634-4.26-2.453a1.024,1.024,0,0,1-.565-1.333c.16-.367.577-.622.856-.9" transform="translate(-17.219 -19.829)" fill="#12263f"/>
        <path id="Trazado_876533" data-name="Trazado 876533" d="M107.986,15.611c-1.009-.022-1.559-.863-1.159-1.6.845-1.561,1.748-3.092,2.662-4.614a1.09,1.09,0,0,1,1.885,1.089c-.861,1.553-1.746,3.093-2.67,4.609-.168.276-.565.412-.717.517" transform="translate(-68.785 -5.73)" fill="#12263f"/>
        <path id="Trazado_876534" data-name="Trazado 876534" d="M125.307,37.456c-.308-.3-.726-.544-.9-.906a.979.979,0,0,1,.49-1.3c1.012-.6,2.034-1.182,3.053-1.771.48-.277.951-.57,1.444-.819a1.065,1.065,0,0,1,1.493.42,1.049,1.049,0,0,1-.366,1.456c-1.5.9-3.029,1.765-4.552,2.634a2.542,2.542,0,0,1-.523.166l-.141.117" transform="translate(-80.144 -20.963)" fill="#12263f"/>
        <path id="Trazado_876535" data-name="Trazado 876535" d="M134.291,64.469c.808,0,1.616-.012,2.423,0a1.107,1.107,0,1,1,.042,2.205q-2.526.033-5.054,0a1.1,1.1,0,1,1,.027-2.2c.853-.017,1.708,0,2.561,0" transform="translate(-84.166 -41.559)" fill="#12263f"/>
        <path id="Trazado_876536" data-name="Trazado 876536" d="M21.5,62.808c.83,0,1.661-.016,2.491.005.778.02,1.223.452,1.211,1.121a1.072,1.072,0,0,1-1.188,1.079q-2.491.035-4.982,0a1.082,1.082,0,0,1-1.209-1.127c.012-.664.456-1.06,1.255-1.077s1.615,0,2.422,0" transform="translate(-11.488 -40.488)" fill="#12263f"/>
        <path id="Trazado_876537" data-name="Trazado 876537" d="M65.921,53.664c.229-.216.415-.383.591-.559q2.82-2.817,5.639-5.635a2.887,2.887,0,1,1,4.1,4.047q-4.2,4.23-8.432,8.43a2.861,2.861,0,0,1-4.472-.259q-1.763-2.184-3.5-4.392a2.884,2.884,0,1,1,4.493-3.6c.519.641,1.031,1.287,1.575,1.968m9.056-4.177c0-.634-.527-.947-.981-.675a2.873,2.873,0,0,0-.512.464q-3.286,3.283-6.57,6.567c-.869.868-1.442.829-2.217-.14q-1-1.244-1.982-2.5c-.307-.391-.657-.749-1.146-.35-.45.367-.21.775.087,1.147,1.125,1.408,2.238,2.824,3.364,4.231.437.547.784.583,1.263.107q4.2-4.183,8.38-8.384a2.4,2.4,0,0,0,.313-.469" transform="translate(-38.109 -29.969)" fill="#12263f"/>
      </g>
    </g>
  </g>
</svg>
