<svg xmlns="http://www.w3.org/2000/svg" xmlns:xlink="http://www.w3.org/1999/xlink" width="89" height="89" viewBox="0 0 89 89">
  <defs>
    <clipPath id="clip-path">
      <rect id="Rectángulo_401657" data-name="Rectángulo 401657" width="58.949" height="58.927" transform="translate(0)" fill="#12263f"/>
    </clipPath>
  </defs>
  <g id="Grupo_1103715" data-name="Grupo 1103715" transform="translate(-1177 -1486.635)">
    <g id="Grupo_1098742" data-name="Grupo 1098742" transform="translate(1177 1486.635)">
      <rect id="Rectángulo_400898" data-name="Rectángulo 400898" width="89" height="89" rx="44.5" fill="#fbb5b6" opacity="0.859"/>
      <g id="Rectángulo_400907" data-name="Rectángulo 400907" transform="translate(0)" fill="none" stroke="#0f1f33" stroke-linecap="round" stroke-width="2" stroke-dasharray="7">
        <rect width="89" height="89" rx="44.5" stroke="none"/>
        <rect x="1" y="1" width="87" height="87" rx="43.5" fill="none"/>
      </g>
    </g>
    <g id="Grupo_1099715" data-name="Grupo 1099715" transform="translate(1194 1501)" clip-path="url(#clip-path)">
      <path id="Trazado_876541" data-name="Trazado 876541" d="M23.95,0c.791.137,1.591.233,2.37.418A15.732,15.732,0,0,1,36.554,8.442a1.527,1.527,0,0,0,1.109.834c8.775,1.947,14.805,7.205,18.415,15.353A40.326,40.326,0,0,1,58.92,34.666a1.731,1.731,0,0,1-1.128,1.977,24.788,24.788,0,0,1-6.54,1.927,46.615,46.615,0,0,1-14.271-.188,87.542,87.542,0,0,1-17.376-4.531c-4.965-1.825-9.2-.727-12.877,3.344-.805.891-1.455,1.923-2.185,2.884a.618.618,0,0,0-.011.82A11.46,11.46,0,0,0,16.16,46.413,25.929,25.929,0,0,0,20.45,45.4a1.772,1.772,0,0,1,2.472,1.443,14.76,14.76,0,0,1-.007,6.335,7.364,7.364,0,0,1-6.746,5.735,2.429,2.429,0,0,1-1.427-.266c-5.348-3.48-9.8-7.809-12.632-13.622A20.725,20.725,0,0,1,.1,37.693a4.159,4.159,0,0,0-.1-.5V34.082a3.128,3.128,0,0,0,.1-.442,22.935,22.935,0,0,1,1.948-7.411,29.955,29.955,0,0,1,8.967-11.205A25.692,25.692,0,0,1,19.649,10.1c.8-.239,1.616-.451,2.518-.7-.431-.584-.792-1.15-1.227-1.651A10.047,10.047,0,0,0,15.5,4.733a1.737,1.737,0,0,1-.131-3.427A21.932,21.932,0,0,1,17.579.672C18.812.413,20.06.22,21.3,0ZM37.641,12.809a30.868,30.868,0,0,0-10.669-.657A26.631,26.631,0,0,0,19.052,14a27.954,27.954,0,0,0-7.907,5.475A22.832,22.832,0,0,0,3.869,32.051c-.211,1.112-.282,2.25-.416,3.376A13.529,13.529,0,0,0,4.9,34.09c4.624-4.456,9.932-5.757,16.016-3.447a85.949,85.949,0,0,0,10.557,3.178c.809.193,1.627.348,2.53.54a25.539,25.539,0,0,1-2.057-7.69,14.9,14.9,0,0,1,2.975-10.933c.81-1.032,1.786-1.934,2.717-2.93M55.307,34.09a36.575,36.575,0,0,0-2.238-7.685A22.919,22.919,0,0,0,42.941,14.816a1.793,1.793,0,0,0-2.236.133c-3.251,2.351-5.24,5.384-5.368,9.481a21.037,21.037,0,0,0,2.725,10.384.652.652,0,0,0,.437.288,41.077,41.077,0,0,0,11.8.105c1.672-.266,3.311-.733,5-1.117M8.837,48.915a1.391,1.391,0,0,0,.115.227A35.946,35.946,0,0,0,15.9,55.3a.774.774,0,0,0,.528.1,3.64,3.64,0,0,0,2.585-1.738,7.318,7.318,0,0,0,.754-4.37,17.585,17.585,0,0,1-10.93-.372M21.4,3.548a12.9,12.9,0,0,1,4.186,5.01c.064.129.372.2.563.2,2.007-.058,4.014-.138,6.021-.212.085,0,.17-.015.28-.026A11.743,11.743,0,0,0,21.4,3.548" transform="translate(0)" fill="#12263f"/>
      <path id="Trazado_876542" data-name="Trazado 876542" d="M60.274,32.827a1.729,1.729,0,0,1-1.688-1.747,1.727,1.727,0,1,1,3.454.085,1.717,1.717,0,0,1-1.766,1.663" transform="translate(-14.251 -7.146)" fill="#12263f"/>
    </g>
  </g>
</svg>
